<svg width="951" height="630" viewBox="0 0 951 630" fill="none" xmlns="http://www.w3.org/2000/svg">
<rect x="3" y="3" width="945" height="624" fill="#003DE3" stroke="white" stroke-width="6"/>
<path d="M230.678 153.528C230.678 152.819 230.771 151.997 230.958 151.064C231.144 150.093 231.536 149.179 232.133 148.32C232.768 147.461 233.683 146.733 234.878 146.136C236.072 145.539 237.678 145.24 239.694 145.24C240.888 145.24 242.008 145.371 243.054 145.632C244.136 145.893 245.07 146.341 245.854 146.976C246.675 147.573 247.31 148.395 247.758 149.44C248.243 150.485 248.486 151.773 248.486 153.304V156.384C248.486 157.355 248.411 158.363 248.262 159.408C248.15 160.416 247.72 161.349 246.974 162.208C246.75 162.507 246.376 162.88 245.854 163.328C245.368 163.776 244.64 164.168 243.67 164.504C244.976 164.915 245.891 165.4 246.414 165.96C246.936 166.52 247.291 166.968 247.478 167.304C247.926 168.088 248.206 168.928 248.318 169.824C248.43 170.72 248.486 171.579 248.486 172.4V177.16C248.486 178.243 248.299 179.344 247.926 180.464C247.59 181.584 246.992 182.536 246.134 183.32C245.163 184.216 244.099 184.813 242.942 185.112C241.784 185.411 240.571 185.56 239.302 185.56C238.256 185.56 237.155 185.448 235.998 185.224C234.878 185 233.832 184.459 232.862 183.6C232.787 183.525 232.619 183.357 232.358 183.096C232.134 182.797 231.891 182.405 231.63 181.92C231.368 181.435 231.144 180.837 230.958 180.128C230.771 179.419 230.678 178.597 230.678 177.664V175.312H234.878V176.824C234.878 178.392 235.195 179.568 235.829 180.352C236.502 181.099 237.771 181.472 239.638 181.472C240.646 181.472 241.448 181.304 242.046 180.968C242.68 180.595 243.166 180.147 243.502 179.624C243.838 179.064 244.043 178.485 244.118 177.888C244.23 177.291 244.286 176.768 244.286 176.32V172.68C244.286 172.232 244.248 171.653 244.174 170.944C244.099 170.197 243.894 169.488 243.558 168.816C243.222 168.144 242.699 167.565 241.99 167.08C241.28 166.595 240.291 166.352 239.022 166.352H237.566V162.712H239.078C240.235 162.712 241.15 162.507 241.822 162.096C242.531 161.648 243.072 161.125 243.446 160.528C243.819 159.893 244.043 159.259 244.118 158.624C244.23 157.952 244.286 157.373 244.286 156.888V154.536C244.286 154.237 244.248 153.808 244.174 153.248C244.136 152.651 243.968 152.072 243.67 151.512C243.371 150.915 242.904 150.411 242.27 150C241.672 149.552 240.814 149.328 239.694 149.328C238.686 149.328 237.864 149.496 237.23 149.832C236.595 150.168 236.091 150.579 235.718 151.064C235.382 151.549 235.158 152.072 235.046 152.632C234.934 153.192 234.878 153.696 234.878 154.144V155.768H230.678V153.528ZM255.206 157.224H259.406V169.096H267.022V157.224H271.222V185H267.022V172.68H259.406V185H255.206V157.224ZM289.711 182.256H289.655C289.319 182.667 288.964 183.059 288.591 183.432C288.218 183.805 287.788 184.141 287.303 184.44C286.818 184.739 286.258 184.981 285.623 185.168C285.026 185.355 284.279 185.448 283.383 185.448C282.263 185.448 281.33 185.261 280.583 184.888C279.874 184.477 279.295 183.917 278.847 183.208C278.436 182.499 278.138 181.677 277.951 180.744C277.764 179.811 277.671 178.784 277.671 177.664C277.671 176.208 277.802 174.92 278.063 173.8C278.324 172.643 278.772 171.672 279.407 170.888C280.042 170.104 280.863 169.507 281.871 169.096C282.916 168.685 284.223 168.48 285.791 168.48C286.09 168.48 286.519 168.499 287.079 168.536C287.639 168.536 288.516 168.592 289.711 168.704V164.616C289.711 164.243 289.636 163.832 289.487 163.384C289.338 162.936 289.095 162.525 288.759 162.152C288.46 161.779 288.068 161.48 287.583 161.256C287.098 160.995 286.5 160.864 285.791 160.864C285.418 160.864 285.026 160.92 284.615 161.032C284.242 161.107 283.868 161.275 283.495 161.536C283.159 161.797 282.842 162.152 282.543 162.6C282.282 163.048 282.095 163.608 281.983 164.28H277.951C277.951 163.123 278.156 162.077 278.567 161.144C279.015 160.211 279.594 159.427 280.303 158.792C281.05 158.12 281.908 157.616 282.879 157.28C283.887 156.944 284.951 156.776 286.071 156.776C287.676 156.776 288.983 157.056 289.991 157.616C291.036 158.139 291.839 158.811 292.399 159.632C292.996 160.416 293.388 161.312 293.575 162.32C293.799 163.291 293.911 164.224 293.911 165.12V185H289.711V182.256ZM289.711 171.784C289.114 171.709 288.572 171.653 288.087 171.616C287.602 171.541 287.191 171.504 286.855 171.504C286.258 171.504 285.66 171.597 285.063 171.784C284.466 171.933 283.924 172.232 283.439 172.68C282.991 173.091 282.618 173.651 282.319 174.36C282.02 175.032 281.871 175.872 281.871 176.88C281.871 178.859 282.17 180.184 282.767 180.856C283.364 181.528 284.26 181.864 285.455 181.864C285.903 181.864 286.37 181.733 286.855 181.472C287.34 181.211 287.788 180.837 288.199 180.352C288.647 179.867 289.002 179.325 289.263 178.728C289.562 178.093 289.711 177.403 289.711 176.656V171.784ZM308.206 169.04C308.878 169.04 309.42 168.891 309.83 168.592C310.241 168.293 310.558 167.901 310.782 167.416C311.044 166.931 311.212 166.408 311.286 165.848C311.398 165.288 311.492 164.747 311.566 164.224L311.902 161.76C312.014 161.051 312.164 160.397 312.35 159.8C312.537 159.203 312.817 158.699 313.19 158.288C313.601 157.84 314.142 157.504 314.814 157.28C315.524 157.056 316.438 156.944 317.558 156.944H318.174V160.472H317.558C316.812 160.472 316.289 160.733 315.99 161.256C315.692 161.779 315.468 162.563 315.318 163.608L314.982 165.904C314.796 167.099 314.609 168.051 314.422 168.76C314.236 169.469 313.788 170.123 313.078 170.72L318.062 185H313.918L309.55 172.4H305.07V185H300.87V157.224H305.07V169.04H308.206ZM323.287 164.616C323.287 164.093 323.38 163.403 323.567 162.544C323.754 161.648 324.127 160.771 324.687 159.912C325.284 159.053 326.106 158.325 327.151 157.728C328.196 157.093 329.578 156.776 331.295 156.776C333.012 156.776 334.394 157.093 335.439 157.728C336.484 158.325 337.287 159.053 337.847 159.912C338.444 160.771 338.836 161.648 339.023 162.544C339.21 163.403 339.303 164.075 339.303 164.56V177.496C339.303 178.056 339.21 178.784 339.023 179.68C338.836 180.576 338.444 181.453 337.847 182.312C337.287 183.171 336.484 183.917 335.439 184.552C334.394 185.149 333.012 185.448 331.295 185.448C329.578 185.448 328.196 185.149 327.151 184.552C326.106 183.917 325.284 183.171 324.687 182.312C324.127 181.453 323.754 180.576 323.567 179.68C323.38 178.784 323.287 178.056 323.287 177.496V164.616ZM335.103 165.4C335.103 163.832 334.73 162.693 333.983 161.984C333.236 161.237 332.34 160.864 331.295 160.864C330.25 160.864 329.354 161.237 328.607 161.984C327.86 162.693 327.487 163.832 327.487 165.4V176.824C327.487 178.28 327.804 179.4 328.439 180.184C329.111 180.968 330.063 181.36 331.295 181.36C332.49 181.36 333.423 180.987 334.095 180.24C334.767 179.493 335.103 178.355 335.103 176.824V165.4ZM356.682 174.36L363.178 157.224H367.21V185H363.234V166.632L357.578 181.024H355.674L350.018 166.632V185H346.042V157.224H350.018L356.682 174.36ZM378.352 157.224V168.312H382.104C382.888 168.312 383.728 168.387 384.624 168.536C385.557 168.648 386.416 168.928 387.2 169.376C387.984 169.824 388.637 170.477 389.16 171.336C389.682 172.195 389.944 173.352 389.944 174.808V178.168C389.944 180.632 389.216 182.387 387.76 183.432C386.341 184.477 384.456 185 382.104 185H374.152V157.224H378.352ZM378.352 181.472H381.768C382.216 181.472 382.664 181.416 383.112 181.304C383.597 181.192 384.026 181.005 384.4 180.744C384.81 180.445 385.128 180.072 385.352 179.624C385.613 179.139 385.744 178.541 385.744 177.832V175.536C385.744 174.155 385.314 173.203 384.456 172.68C383.634 172.12 382.738 171.84 381.768 171.84H378.352V181.472ZM407.351 176.488H411.551V177.608C411.551 178.28 411.42 179.083 411.159 180.016C410.935 180.912 410.505 181.771 409.871 182.592C409.273 183.376 408.452 184.048 407.407 184.608C406.361 185.168 405.036 185.448 403.431 185.448C401.676 185.448 400.276 185.149 399.231 184.552C398.185 183.917 397.364 183.171 396.767 182.312C396.169 181.453 395.777 180.576 395.591 179.68C395.404 178.747 395.311 177.981 395.311 177.384V164.784C395.311 164.224 395.404 163.496 395.591 162.6C395.777 161.667 396.169 160.771 396.767 159.912C397.364 159.053 398.185 158.325 399.231 157.728C400.276 157.093 401.676 156.776 403.431 156.776C405.073 156.776 406.417 157.056 407.463 157.616C408.545 158.176 409.385 158.867 409.983 159.688C410.58 160.509 410.991 161.368 411.215 162.264C411.439 163.123 411.551 163.888 411.551 164.56V165.792H407.351V165.4C407.351 163.832 406.959 162.693 406.175 161.984C405.428 161.237 404.513 160.864 403.431 160.864C402.348 160.864 401.415 161.237 400.631 161.984C399.884 162.693 399.511 163.832 399.511 165.4V176.824C399.511 179.848 400.817 181.36 403.431 181.36C404.663 181.36 405.615 180.987 406.287 180.24C406.996 179.493 407.351 178.355 407.351 176.824V176.488ZM428.227 185V172.904H424.363L420.219 185H415.739L420.219 172.456C418.8 171.821 417.829 171.019 417.307 170.048C416.821 169.04 416.579 167.827 416.579 166.408V163.72C416.579 162.264 416.84 161.107 417.363 160.248C417.885 159.389 418.539 158.736 419.323 158.288C420.107 157.84 420.947 157.56 421.843 157.448C422.776 157.299 423.616 157.224 424.363 157.224H432.427V185H428.227ZM428.227 160.304H424.699C423.691 160.304 422.776 160.621 421.955 161.256C421.171 161.891 420.779 162.973 420.779 164.504V166.016C420.779 167.397 421.152 168.387 421.899 168.984C422.683 169.581 423.616 169.88 424.699 169.88H428.227V160.304ZM444.098 180.24V185.504L439.282 189.816V180.24H444.098ZM467.406 177.16C467.406 178.691 467.723 179.773 468.358 180.408C468.993 181.043 469.926 181.36 471.158 181.36C472.465 181.36 473.454 180.987 474.126 180.24C474.835 179.456 475.19 178.317 475.19 176.824V172.736H469.03V169.152H475.19V165.4C475.19 163.832 474.798 162.693 474.014 161.984C473.23 161.237 472.297 160.864 471.214 160.864C470.131 160.864 469.235 161.219 468.526 161.928C467.817 162.637 467.462 163.776 467.462 165.344V165.736H463.262V164.56C463.262 163.888 463.355 163.123 463.542 162.264C463.766 161.368 464.158 160.509 464.718 159.688C465.315 158.867 466.137 158.176 467.182 157.616C468.227 157.056 469.571 156.776 471.214 156.776C472.931 156.776 474.331 157.093 475.414 157.728C476.497 158.325 477.318 159.053 477.878 159.912C478.475 160.771 478.867 161.667 479.054 162.6C479.278 163.496 479.39 164.224 479.39 164.784V177.384C479.39 177.981 479.278 178.747 479.054 179.68C478.867 180.576 478.475 181.453 477.878 182.312C477.281 183.171 476.441 183.917 475.358 184.552C474.275 185.149 472.875 185.448 471.158 185.448C469.553 185.448 468.227 185.187 467.182 184.664C466.174 184.104 465.371 183.432 464.774 182.648C464.177 181.864 463.766 181.024 463.542 180.128C463.318 179.195 463.206 178.355 463.206 177.608V176.544H467.406V177.16ZM493.713 160.752V185H489.513V160.752H483.633V157.224H499.593V160.752H493.713ZM503.865 164.616C503.865 164.093 503.959 163.403 504.145 162.544C504.332 161.648 504.705 160.771 505.265 159.912C505.863 159.053 506.684 158.325 507.729 157.728C508.775 157.093 510.156 156.776 511.873 156.776C513.591 156.776 514.972 157.093 516.017 157.728C517.063 158.325 517.865 159.053 518.425 159.912C519.023 160.771 519.415 161.648 519.601 162.544C519.788 163.403 519.881 164.075 519.881 164.56V177.496C519.881 178.056 519.788 178.784 519.601 179.68C519.415 180.576 519.023 181.453 518.425 182.312C517.865 183.171 517.063 183.917 516.017 184.552C514.972 185.149 513.591 185.448 511.873 185.448C510.156 185.448 508.775 185.149 507.729 184.552C506.684 183.917 505.863 183.171 505.265 182.312C504.705 181.453 504.332 180.576 504.145 179.68C503.959 178.784 503.865 178.056 503.865 177.496V164.616ZM515.681 165.4C515.681 163.832 515.308 162.693 514.561 161.984C513.815 161.237 512.919 160.864 511.873 160.864C510.828 160.864 509.932 161.237 509.185 161.984C508.439 162.693 508.065 163.832 508.065 165.4V176.824C508.065 178.28 508.383 179.4 509.017 180.184C509.689 180.968 510.641 181.36 511.873 181.36C513.068 181.36 514.001 180.987 514.673 180.24C515.345 179.493 515.681 178.355 515.681 176.824V165.4ZM539.691 161.76C539.691 160.379 539.765 158.979 539.915 157.56C540.101 156.104 540.568 154.816 541.315 153.696C541.949 152.725 542.64 151.979 543.387 151.456C544.171 150.933 544.955 150.523 545.739 150.224C546.224 150.037 546.709 149.869 547.195 149.72C547.717 149.533 548.184 149.365 548.595 149.216C550.536 148.544 551.507 147.555 551.507 146.248V145.8H555.203V146.528C555.203 147.013 555.184 147.555 555.147 148.152C555.109 148.712 554.979 149.216 554.755 149.664C554.344 150.411 553.765 150.971 553.019 151.344C552.309 151.68 551.432 152.016 550.387 152.352L547.587 153.304C547.064 153.491 546.485 153.752 545.851 154.088C545.253 154.387 544.731 154.835 544.283 155.432C543.872 155.992 543.555 156.645 543.331 157.392C543.144 158.139 543.051 158.829 543.051 159.464V160.864H543.219C543.741 159.893 544.507 159.053 545.515 158.344C546.56 157.597 547.979 157.224 549.771 157.224C550.704 157.224 551.525 157.373 552.235 157.672C552.944 157.971 553.504 158.325 553.915 158.736C554.437 159.221 554.867 159.837 555.203 160.584C555.539 161.293 555.707 162.115 555.707 163.048V176.488C555.707 177.011 555.688 177.589 555.651 178.224C555.613 178.821 555.501 179.437 555.315 180.072C555.165 180.707 554.904 181.341 554.531 181.976C554.195 182.573 553.728 183.115 553.131 183.6C552.384 184.235 551.525 184.701 550.555 185C549.621 185.299 548.669 185.448 547.699 185.448C546.728 185.448 545.757 185.299 544.787 185C543.853 184.739 543.013 184.291 542.267 183.656C541.669 183.171 541.184 182.629 540.811 182.032C540.475 181.397 540.213 180.763 540.027 180.128C539.877 179.456 539.784 178.821 539.747 178.224C539.709 177.589 539.691 177.011 539.691 176.488V161.76ZM551.507 165.4C551.507 164.653 551.395 163.981 551.171 163.384C550.947 162.787 550.685 162.32 550.387 161.984C549.64 161.237 548.744 160.864 547.699 160.864C547.176 160.864 546.672 160.976 546.187 161.2C545.739 161.424 545.347 161.704 545.011 162.04C544.712 162.376 544.451 162.88 544.227 163.552C544.003 164.187 543.891 164.877 543.891 165.624V176.824C543.891 177.608 544.003 178.299 544.227 178.896C544.451 179.493 544.712 179.979 545.011 180.352C545.309 180.651 545.683 180.893 546.131 181.08C546.616 181.267 547.139 181.36 547.699 181.36C548.259 181.36 548.763 181.267 549.211 181.08C549.696 180.893 550.088 180.651 550.387 180.352C550.685 179.979 550.947 179.493 551.171 178.896C551.395 178.299 551.507 177.608 551.507 176.824V165.4ZM573.977 182.256H573.921C573.585 182.667 573.23 183.059 572.857 183.432C572.483 183.805 572.054 184.141 571.569 184.44C571.083 184.739 570.523 184.981 569.889 185.168C569.291 185.355 568.545 185.448 567.649 185.448C566.529 185.448 565.595 185.261 564.849 184.888C564.139 184.477 563.561 183.917 563.113 183.208C562.702 182.499 562.403 181.677 562.217 180.744C562.03 179.811 561.937 178.784 561.937 177.664C561.937 176.208 562.067 174.92 562.329 173.8C562.59 172.643 563.038 171.672 563.673 170.888C564.307 170.104 565.129 169.507 566.137 169.096C567.182 168.685 568.489 168.48 570.057 168.48C570.355 168.48 570.785 168.499 571.345 168.536C571.905 168.536 572.782 168.592 573.977 168.704V164.616C573.977 164.243 573.902 163.832 573.753 163.384C573.603 162.936 573.361 162.525 573.025 162.152C572.726 161.779 572.334 161.48 571.849 161.256C571.363 160.995 570.766 160.864 570.057 160.864C569.683 160.864 569.291 160.92 568.881 161.032C568.507 161.107 568.134 161.275 567.761 161.536C567.425 161.797 567.107 162.152 566.809 162.6C566.547 163.048 566.361 163.608 566.249 164.28H562.217C562.217 163.123 562.422 162.077 562.833 161.144C563.281 160.211 563.859 159.427 564.569 158.792C565.315 158.12 566.174 157.616 567.145 157.28C568.153 156.944 569.217 156.776 570.337 156.776C571.942 156.776 573.249 157.056 574.257 157.616C575.302 158.139 576.105 158.811 576.665 159.632C577.262 160.416 577.654 161.312 577.841 162.32C578.065 163.291 578.177 164.224 578.177 165.12V185H573.977V182.256ZM573.977 171.784C573.379 171.709 572.838 171.653 572.353 171.616C571.867 171.541 571.457 171.504 571.121 171.504C570.523 171.504 569.926 171.597 569.329 171.784C568.731 171.933 568.19 172.232 567.705 172.68C567.257 173.091 566.883 173.651 566.585 174.36C566.286 175.032 566.137 175.872 566.137 176.88C566.137 178.859 566.435 180.184 567.033 180.856C567.63 181.528 568.526 181.864 569.721 181.864C570.169 181.864 570.635 181.733 571.121 181.472C571.606 181.211 572.054 180.837 572.465 180.352C572.913 179.867 573.267 179.325 573.529 178.728C573.827 178.093 573.977 177.403 573.977 176.656V171.784ZM600.984 185H596.784V160.752H591.464L591.352 164C591.352 164.485 591.333 165.232 591.296 166.24C591.259 167.248 591.203 168.368 591.128 169.6C591.053 170.795 590.96 172.027 590.848 173.296C590.773 174.528 590.661 175.648 590.512 176.656C590.325 177.851 590.064 178.952 589.728 179.96C589.429 180.968 588.981 181.845 588.384 182.592C587.787 183.339 587.04 183.936 586.144 184.384C585.248 184.795 584.128 185 582.784 185H582.112V181.528H582.616C583.512 181.528 584.24 181.267 584.8 180.744C585.36 180.221 585.789 179.531 586.088 178.672C586.424 177.776 586.648 176.787 586.76 175.704C586.909 174.584 587.04 173.464 587.152 172.344C587.189 171.784 587.227 171.112 587.264 170.328C587.301 169.507 587.32 168.685 587.32 167.864C587.357 167.043 587.395 166.277 587.432 165.568C587.469 164.821 587.488 164.243 587.488 163.832L587.656 157.224H600.984V185ZM619.365 177.216H623.565V177.608C623.565 178.28 623.453 179.083 623.229 180.016C623.042 180.912 622.669 181.771 622.109 182.592C621.549 183.376 620.765 184.048 619.757 184.608C618.749 185.168 617.442 185.448 615.837 185.448C614.082 185.448 612.682 185.149 611.637 184.552C610.591 183.917 609.77 183.171 609.173 182.312C608.575 181.453 608.183 180.576 607.997 179.68C607.81 178.747 607.717 177.981 607.717 177.384V164.504C607.717 163.944 607.81 163.235 607.997 162.376C608.183 161.517 608.557 160.677 609.117 159.856C609.677 158.997 610.461 158.269 611.469 157.672C612.514 157.075 613.877 156.776 615.557 156.776C617.199 156.776 618.543 157.075 619.589 157.672C620.671 158.269 621.511 158.997 622.109 159.856C622.706 160.677 623.117 161.555 623.341 162.488C623.565 163.384 623.677 164.131 623.677 164.728V172.68H611.917V177.104C611.917 178.597 612.234 179.68 612.869 180.352C613.541 181.024 614.53 181.36 615.837 181.36C617.069 181.36 617.965 181.024 618.525 180.352C619.085 179.643 619.365 178.709 619.365 177.552V177.216ZM619.477 169.544V164.784C619.477 164.336 619.421 163.888 619.309 163.44C619.197 162.955 618.991 162.525 618.693 162.152C618.394 161.779 618.002 161.48 617.517 161.256C617.031 160.995 616.434 160.864 615.725 160.864C614.978 160.864 614.362 160.995 613.877 161.256C613.391 161.517 612.999 161.853 612.701 162.264C612.402 162.675 612.197 163.123 612.085 163.608C611.973 164.093 611.917 164.56 611.917 165.008V169.544H619.477ZM630.199 157.224H634.399V159.968C635.295 158.773 636.265 157.952 637.311 157.504C638.393 157.019 639.42 156.776 640.391 156.776C641.623 156.776 642.612 156.981 643.359 157.392C644.143 157.803 644.74 158.344 645.151 159.016C645.561 159.651 645.841 160.341 645.991 161.088C646.14 161.835 646.215 162.544 646.215 163.216V179.008C646.215 179.68 646.14 180.389 645.991 181.136C645.841 181.883 645.561 182.592 645.151 183.264C644.74 183.899 644.143 184.421 643.359 184.832C642.612 185.243 641.623 185.448 640.391 185.448C639.42 185.448 638.393 185.224 637.311 184.776C636.265 184.291 635.295 183.451 634.399 182.256V196.424H630.199V157.224ZM638.487 181.36C639.159 181.36 639.719 181.248 640.167 181.024C640.615 180.763 640.969 180.427 641.231 180.016C641.529 179.605 641.735 179.139 641.847 178.616C641.959 178.093 642.015 177.571 642.015 177.048V165.176C642.015 164.653 641.959 164.131 641.847 163.608C641.735 163.085 641.529 162.619 641.231 162.208C640.969 161.797 640.615 161.48 640.167 161.256C639.719 160.995 639.159 160.864 638.487 160.864C637.628 160.864 636.937 161.051 636.415 161.424C635.892 161.797 635.481 162.245 635.183 162.768C634.884 163.291 634.679 163.851 634.567 164.448C634.455 165.008 634.399 165.512 634.399 165.96V176.264C634.399 176.712 634.455 177.235 634.567 177.832C634.679 178.392 634.884 178.933 635.183 179.456C635.481 179.979 635.892 180.427 636.415 180.8C636.937 181.173 637.628 181.36 638.487 181.36ZM657.367 157.224V175.648L666.159 160.64V157.224H670.359V185H666.159V167.08L657.367 182.088V185H653.167V157.224H657.367ZM677.285 157.224H681.485V169.096H689.101V157.224H693.301V185H689.101V172.68H681.485V185H677.285V157.224ZM711.789 182.256H711.733C711.397 182.667 711.043 183.059 710.669 183.432C710.296 183.805 709.867 184.141 709.381 184.44C708.896 184.739 708.336 184.981 707.701 185.168C707.104 185.355 706.357 185.448 705.461 185.448C704.341 185.448 703.408 185.261 702.661 184.888C701.952 184.477 701.373 183.917 700.925 183.208C700.515 182.499 700.216 181.677 700.029 180.744C699.843 179.811 699.749 178.784 699.749 177.664C699.749 176.208 699.88 174.92 700.141 173.8C700.403 172.643 700.851 171.672 701.485 170.888C702.12 170.104 702.941 169.507 703.949 169.096C704.995 168.685 706.301 168.48 707.869 168.48C708.168 168.48 708.597 168.499 709.157 168.536C709.717 168.536 710.595 168.592 711.789 168.704V164.616C711.789 164.243 711.715 163.832 711.565 163.384C711.416 162.936 711.173 162.525 710.837 162.152C710.539 161.779 710.147 161.48 709.661 161.256C709.176 160.995 708.579 160.864 707.869 160.864C707.496 160.864 707.104 160.92 706.693 161.032C706.32 161.107 705.947 161.275 705.573 161.536C705.237 161.797 704.92 162.152 704.621 162.6C704.36 163.048 704.173 163.608 704.061 164.28H700.029C700.029 163.123 700.235 162.077 700.645 161.144C701.093 160.211 701.672 159.427 702.381 158.792C703.128 158.12 703.987 157.616 704.957 157.28C705.965 156.944 707.029 156.776 708.149 156.776C709.755 156.776 711.061 157.056 712.069 157.616C713.115 158.139 713.917 158.811 714.477 159.632C715.075 160.416 715.467 161.312 715.653 162.32C715.877 163.291 715.989 164.224 715.989 165.12V185H711.789V182.256ZM711.789 171.784C711.192 171.709 710.651 171.653 710.165 171.616C709.68 171.541 709.269 171.504 708.933 171.504C708.336 171.504 707.739 171.597 707.141 171.784C706.544 171.933 706.003 172.232 705.517 172.68C705.069 173.091 704.696 173.651 704.397 174.36C704.099 175.032 703.949 175.872 703.949 176.88C703.949 178.859 704.248 180.184 704.845 180.856C705.443 181.528 706.339 181.864 707.533 181.864C707.981 181.864 708.448 181.733 708.933 181.472C709.419 181.211 709.867 180.837 710.277 180.352C710.725 179.867 711.08 179.325 711.341 178.728C711.64 178.093 711.789 177.403 711.789 176.656V171.784ZM727.653 180.24V185H722.837V180.24H727.653ZM199.551 212.8V252H195.351V216.44H185.887V252H181.687V212.8H199.551ZM206.611 231.616C206.611 231.093 206.705 230.403 206.891 229.544C207.078 228.648 207.451 227.771 208.011 226.912C208.609 226.053 209.43 225.325 210.475 224.728C211.521 224.093 212.902 223.776 214.619 223.776C216.337 223.776 217.718 224.093 218.763 224.728C219.809 225.325 220.611 226.053 221.171 226.912C221.769 227.771 222.161 228.648 222.347 229.544C222.534 230.403 222.627 231.075 222.627 231.56V244.496C222.627 245.056 222.534 245.784 222.347 246.68C222.161 247.576 221.769 248.453 221.171 249.312C220.611 250.171 219.809 250.917 218.763 251.552C217.718 252.149 216.337 252.448 214.619 252.448C212.902 252.448 211.521 252.149 210.475 251.552C209.43 250.917 208.609 250.171 208.011 249.312C207.451 248.453 207.078 247.576 206.891 246.68C206.705 245.784 206.611 245.056 206.611 244.496V231.616ZM218.427 232.4C218.427 230.832 218.054 229.693 217.307 228.984C216.561 228.237 215.665 227.864 214.619 227.864C213.574 227.864 212.678 228.237 211.931 228.984C211.185 229.693 210.811 230.832 210.811 232.4V243.824C210.811 245.28 211.129 246.4 211.763 247.184C212.435 247.968 213.387 248.36 214.619 248.36C215.814 248.36 216.747 247.987 217.419 247.24C218.091 246.493 218.427 245.355 218.427 243.824V232.4ZM249.079 248.472V257.824H245.159V252H230.375V257.824H226.455V248.472H229.199C229.945 246.792 230.505 245.243 230.879 243.824C231.289 242.405 231.607 240.968 231.831 239.512C231.943 238.691 232.036 237.776 232.111 236.768C232.185 235.723 232.241 234.677 232.279 233.632C232.353 232.549 232.409 231.485 232.447 230.44C232.484 229.357 232.503 228.368 232.503 227.472V224.224H245.775V248.472H249.079ZM236.199 227.696V231.224C236.199 232.792 236.143 234.341 236.031 235.872C235.956 237.365 235.769 238.989 235.471 240.744C235.284 241.827 235.023 243.021 234.687 244.328C234.388 245.597 233.884 247.016 233.175 248.584H241.575V227.696H236.199ZM253.429 228.76C253.429 227.379 253.504 225.979 253.653 224.56C253.84 223.104 254.306 221.816 255.053 220.696C255.688 219.725 256.378 218.979 257.125 218.456C257.909 217.933 258.693 217.523 259.477 217.224C259.962 217.037 260.448 216.869 260.933 216.72C261.456 216.533 261.922 216.365 262.333 216.216C264.274 215.544 265.245 214.555 265.245 213.248V212.8H268.941V213.528C268.941 214.013 268.922 214.555 268.885 215.152C268.848 215.712 268.717 216.216 268.493 216.664C268.082 217.411 267.504 217.971 266.757 218.344C266.048 218.68 265.17 219.016 264.125 219.352L261.325 220.304C260.802 220.491 260.224 220.752 259.589 221.088C258.992 221.387 258.469 221.835 258.021 222.432C257.61 222.992 257.293 223.645 257.069 224.392C256.882 225.139 256.789 225.829 256.789 226.464V227.864H256.957C257.48 226.893 258.245 226.053 259.253 225.344C260.298 224.597 261.717 224.224 263.509 224.224C264.442 224.224 265.264 224.373 265.973 224.672C266.682 224.971 267.242 225.325 267.653 225.736C268.176 226.221 268.605 226.837 268.941 227.584C269.277 228.293 269.445 229.115 269.445 230.048V243.488C269.445 244.011 269.426 244.589 269.389 245.224C269.352 245.821 269.24 246.437 269.053 247.072C268.904 247.707 268.642 248.341 268.269 248.976C267.933 249.573 267.466 250.115 266.869 250.6C266.122 251.235 265.264 251.701 264.293 252C263.36 252.299 262.408 252.448 261.437 252.448C260.466 252.448 259.496 252.299 258.525 252C257.592 251.739 256.752 251.291 256.005 250.656C255.408 250.171 254.922 249.629 254.549 249.032C254.213 248.397 253.952 247.763 253.765 247.128C253.616 246.456 253.522 245.821 253.485 245.224C253.448 244.589 253.429 244.011 253.429 243.488V228.76ZM265.245 232.4C265.245 231.653 265.133 230.981 264.909 230.384C264.685 229.787 264.424 229.32 264.125 228.984C263.378 228.237 262.482 227.864 261.437 227.864C260.914 227.864 260.41 227.976 259.925 228.2C259.477 228.424 259.085 228.704 258.749 229.04C258.45 229.376 258.189 229.88 257.965 230.552C257.741 231.187 257.629 231.877 257.629 232.624V243.824C257.629 244.608 257.741 245.299 257.965 245.896C258.189 246.493 258.45 246.979 258.749 247.352C259.048 247.651 259.421 247.893 259.869 248.08C260.354 248.267 260.877 248.36 261.437 248.36C261.997 248.36 262.501 248.267 262.949 248.08C263.434 247.893 263.826 247.651 264.125 247.352C264.424 246.979 264.685 246.493 264.909 245.896C265.133 245.299 265.245 244.608 265.245 243.824V232.4ZM287.603 244.216H291.803V244.608C291.803 245.28 291.691 246.083 291.467 247.016C291.28 247.912 290.907 248.771 290.347 249.592C289.787 250.376 289.003 251.048 287.995 251.608C286.987 252.168 285.68 252.448 284.075 252.448C282.32 252.448 280.92 252.149 279.875 251.552C278.83 250.917 278.008 250.171 277.411 249.312C276.814 248.453 276.422 247.576 276.235 246.68C276.048 245.747 275.955 244.981 275.955 244.384V231.504C275.955 230.944 276.048 230.235 276.235 229.376C276.422 228.517 276.795 227.677 277.355 226.856C277.915 225.997 278.699 225.269 279.707 224.672C280.752 224.075 282.115 223.776 283.795 223.776C285.438 223.776 286.782 224.075 287.827 224.672C288.91 225.269 289.75 225.997 290.347 226.856C290.944 227.677 291.355 228.555 291.579 229.488C291.803 230.384 291.915 231.131 291.915 231.728V239.68H280.155V244.104C280.155 245.597 280.472 246.68 281.107 247.352C281.779 248.024 282.768 248.36 284.075 248.36C285.307 248.36 286.203 248.024 286.763 247.352C287.323 246.643 287.603 245.709 287.603 244.552V244.216ZM287.715 236.544V231.784C287.715 231.336 287.659 230.888 287.547 230.44C287.435 229.955 287.23 229.525 286.931 229.152C286.632 228.779 286.24 228.48 285.755 228.256C285.27 227.995 284.672 227.864 283.963 227.864C283.216 227.864 282.6 227.995 282.115 228.256C281.63 228.517 281.238 228.853 280.939 229.264C280.64 229.675 280.435 230.123 280.323 230.608C280.211 231.093 280.155 231.56 280.155 232.008V236.544H287.715ZM298.437 224.224H302.637V226.968C303.533 225.773 304.504 224.952 305.549 224.504C306.632 224.019 307.658 223.776 308.629 223.776C309.861 223.776 310.85 223.981 311.597 224.392C312.381 224.803 312.978 225.344 313.389 226.016C313.8 226.651 314.08 227.341 314.229 228.088C314.378 228.835 314.453 229.544 314.453 230.216V246.008C314.453 246.68 314.378 247.389 314.229 248.136C314.08 248.883 313.8 249.592 313.389 250.264C312.978 250.899 312.381 251.421 311.597 251.832C310.85 252.243 309.861 252.448 308.629 252.448C307.658 252.448 306.632 252.224 305.549 251.776C304.504 251.291 303.533 250.451 302.637 249.256V263.424H298.437V224.224ZM306.725 248.36C307.397 248.36 307.957 248.248 308.405 248.024C308.853 247.763 309.208 247.427 309.469 247.016C309.768 246.605 309.973 246.139 310.085 245.616C310.197 245.093 310.253 244.571 310.253 244.048V232.176C310.253 231.653 310.197 231.131 310.085 230.608C309.973 230.085 309.768 229.619 309.469 229.208C309.208 228.797 308.853 228.48 308.405 228.256C307.957 227.995 307.397 227.864 306.725 227.864C305.866 227.864 305.176 228.051 304.653 228.424C304.13 228.797 303.72 229.245 303.421 229.768C303.122 230.291 302.917 230.851 302.805 231.448C302.693 232.008 302.637 232.512 302.637 232.96V243.264C302.637 243.712 302.693 244.235 302.805 244.832C302.917 245.392 303.122 245.933 303.421 246.456C303.72 246.979 304.13 247.427 304.653 247.8C305.176 248.173 305.866 248.36 306.725 248.36ZM325.606 224.224V242.648L334.398 227.64V224.224H338.598V252H334.398V234.08L325.606 249.088V252H321.406V224.224H325.606ZM370.017 244.216H374.217V244.608C374.217 245.28 374.105 246.083 373.881 247.016C373.694 247.912 373.321 248.771 372.761 249.592C372.201 250.376 371.417 251.048 370.409 251.608C369.401 252.168 368.094 252.448 366.489 252.448C364.734 252.448 363.334 252.149 362.289 251.552C361.244 250.917 360.422 250.171 359.825 249.312C359.228 248.453 358.836 247.576 358.649 246.68C358.462 245.747 358.369 244.981 358.369 244.384V231.504C358.369 230.944 358.462 230.235 358.649 229.376C358.836 228.517 359.209 227.677 359.769 226.856C360.329 225.997 361.113 225.269 362.121 224.672C363.166 224.075 364.529 223.776 366.209 223.776C367.852 223.776 369.196 224.075 370.241 224.672C371.324 225.269 372.164 225.997 372.761 226.856C373.358 227.677 373.769 228.555 373.993 229.488C374.217 230.384 374.329 231.131 374.329 231.728V239.68H362.569V244.104C362.569 245.597 362.886 246.68 363.521 247.352C364.193 248.024 365.182 248.36 366.489 248.36C367.721 248.36 368.617 248.024 369.177 247.352C369.737 246.643 370.017 245.709 370.017 244.552V244.216ZM370.129 236.544V231.784C370.129 231.336 370.073 230.888 369.961 230.44C369.849 229.955 369.644 229.525 369.345 229.152C369.046 228.779 368.654 228.48 368.169 228.256C367.684 227.995 367.086 227.864 366.377 227.864C365.63 227.864 365.014 227.995 364.529 228.256C364.044 228.517 363.652 228.853 363.353 229.264C363.054 229.675 362.849 230.123 362.737 230.608C362.625 231.093 362.569 231.56 362.569 232.008V236.544H370.129ZM385.051 224.224V242.648L393.843 227.64V224.224H398.043V252H393.843V234.08L385.051 249.088V252H380.851V224.224H385.051ZM391.939 213.696H395.355V214.256C395.355 214.965 395.262 215.731 395.075 216.552C394.888 217.336 394.478 218.027 393.843 218.624C393.208 219.259 392.462 219.651 391.603 219.8C390.782 219.949 390.054 220.024 389.419 220.024C388.784 220.024 388.038 219.949 387.179 219.8C386.358 219.651 385.63 219.259 384.995 218.624C384.36 218.027 383.95 217.336 383.763 216.552C383.576 215.731 383.483 214.965 383.483 214.256V213.696H386.899V214.256C386.899 214.555 386.918 214.872 386.955 215.208C387.03 215.544 387.142 215.861 387.291 216.16C387.478 216.459 387.739 216.72 388.075 216.944C388.411 217.131 388.859 217.224 389.419 217.224C389.979 217.224 390.427 217.131 390.763 216.944C391.099 216.72 391.342 216.459 391.491 216.16C391.678 215.861 391.79 215.544 391.827 215.208C391.902 214.872 391.939 214.555 391.939 214.256V213.696ZM418.038 224.224H433.718V252H429.518V227.752H422.238V252H418.038V224.224ZM440.455 231.616C440.455 231.093 440.548 230.403 440.735 229.544C440.922 228.648 441.295 227.771 441.855 226.912C442.452 226.053 443.274 225.325 444.319 224.728C445.364 224.093 446.746 223.776 448.463 223.776C450.18 223.776 451.562 224.093 452.607 224.728C453.652 225.325 454.455 226.053 455.015 226.912C455.612 227.771 456.004 228.648 456.191 229.544C456.378 230.403 456.471 231.075 456.471 231.56V244.496C456.471 245.056 456.378 245.784 456.191 246.68C456.004 247.576 455.612 248.453 455.015 249.312C454.455 250.171 453.652 250.917 452.607 251.552C451.562 252.149 450.18 252.448 448.463 252.448C446.746 252.448 445.364 252.149 444.319 251.552C443.274 250.917 442.452 250.171 441.855 249.312C441.295 248.453 440.922 247.576 440.735 246.68C440.548 245.784 440.455 245.056 440.455 244.496V231.616ZM452.271 232.4C452.271 230.832 451.898 229.693 451.151 228.984C450.404 228.237 449.508 227.864 448.463 227.864C447.418 227.864 446.522 228.237 445.775 228.984C445.028 229.693 444.655 230.832 444.655 232.4V243.824C444.655 245.28 444.972 246.4 445.607 247.184C446.279 247.968 447.231 248.36 448.463 248.36C449.658 248.36 450.591 247.987 451.263 247.24C451.935 246.493 452.271 245.355 452.271 243.824V232.4ZM482.922 248.472V257.824H479.002V252H464.218V257.824H460.298V248.472H463.042C463.789 246.792 464.349 245.243 464.722 243.824C465.133 242.405 465.45 240.968 465.674 239.512C465.786 238.691 465.88 237.776 465.954 236.768C466.029 235.723 466.085 234.677 466.122 233.632C466.197 232.549 466.253 231.485 466.29 230.44C466.328 229.357 466.346 228.368 466.346 227.472V224.224H479.618V248.472H482.922ZM470.042 227.696V231.224C470.042 232.792 469.986 234.341 469.874 235.872C469.8 237.365 469.613 238.989 469.314 240.744C469.128 241.827 468.866 243.021 468.53 244.328C468.232 245.597 467.728 247.016 467.018 248.584H475.418V227.696H470.042ZM493.112 237.832L486.672 224.224H491.152L495.352 233.688L499.328 224.224H503.752L497.312 237.608L504.088 252H499.72L495.24 241.92L490.76 252H486.336L493.112 237.832ZM507.994 231.616C507.994 231.093 508.087 230.403 508.274 229.544C508.461 228.648 508.834 227.771 509.394 226.912C509.991 226.053 510.813 225.325 511.858 224.728C512.903 224.093 514.285 223.776 516.002 223.776C517.719 223.776 519.101 224.093 520.146 224.728C521.191 225.325 521.994 226.053 522.554 226.912C523.151 227.771 523.543 228.648 523.73 229.544C523.917 230.403 524.01 231.075 524.01 231.56V244.496C524.01 245.056 523.917 245.784 523.73 246.68C523.543 247.576 523.151 248.453 522.554 249.312C521.994 250.171 521.191 250.917 520.146 251.552C519.101 252.149 517.719 252.448 516.002 252.448C514.285 252.448 512.903 252.149 511.858 251.552C510.813 250.917 509.991 250.171 509.394 249.312C508.834 248.453 508.461 247.576 508.274 246.68C508.087 245.784 507.994 245.056 507.994 244.496V231.616ZM519.81 232.4C519.81 230.832 519.437 229.693 518.69 228.984C517.943 228.237 517.047 227.864 516.002 227.864C514.957 227.864 514.061 228.237 513.314 228.984C512.567 229.693 512.194 230.832 512.194 232.4V243.824C512.194 245.28 512.511 246.4 513.146 247.184C513.818 247.968 514.77 248.36 516.002 248.36C517.197 248.36 518.13 247.987 518.802 247.24C519.474 246.493 519.81 245.355 519.81 243.824V232.4ZM550.461 248.472V257.824H546.541V252H531.757V257.824H527.837V248.472H530.581C531.328 246.792 531.888 245.243 532.261 243.824C532.672 242.405 532.989 240.968 533.213 239.512C533.325 238.691 533.419 237.776 533.493 236.768C533.568 235.723 533.624 234.677 533.661 233.632C533.736 232.549 533.792 231.485 533.829 230.44C533.867 229.357 533.885 228.368 533.885 227.472V224.224H547.157V248.472H550.461ZM537.581 227.696V231.224C537.581 232.792 537.525 234.341 537.413 235.872C537.339 237.365 537.152 238.989 536.853 240.744C536.667 241.827 536.405 243.021 536.069 244.328C535.771 245.597 535.267 247.016 534.557 248.584H542.957V227.696H537.581ZM566.559 252V239.904H562.695L558.551 252H554.071L558.551 239.456C557.132 238.821 556.161 238.019 555.639 237.048C555.153 236.04 554.911 234.827 554.911 233.408V230.72C554.911 229.264 555.172 228.107 555.695 227.248C556.217 226.389 556.871 225.736 557.655 225.288C558.439 224.84 559.279 224.56 560.175 224.448C561.108 224.299 561.948 224.224 562.695 224.224H570.759V252H566.559ZM566.559 227.304H563.031C562.023 227.304 561.108 227.621 560.287 228.256C559.503 228.891 559.111 229.973 559.111 231.504V233.016C559.111 234.397 559.484 235.387 560.231 235.984C561.015 236.581 561.948 236.88 563.031 236.88H566.559V227.304ZM577.726 252V224.224H581.926V248.472H588.87V224.224H593.07V248.472H600.014V224.224H604.214V248.472H607.854V257.824H603.934V252H577.726ZM616.434 224.224V242.648L625.226 227.64V224.224H629.426V252H625.226V234.08L616.434 249.088V252H612.234V224.224H616.434ZM640.551 224.224V242.648L649.343 227.64V224.224H653.543V252H649.343V234.08L640.551 249.088V252H636.351V224.224H640.551ZM647.439 213.696H650.855V214.256C650.855 214.965 650.762 215.731 650.575 216.552C650.388 217.336 649.978 218.027 649.343 218.624C648.708 219.259 647.962 219.651 647.103 219.8C646.282 219.949 645.554 220.024 644.919 220.024C644.284 220.024 643.538 219.949 642.679 219.8C641.858 219.651 641.13 219.259 640.495 218.624C639.86 218.027 639.45 217.336 639.263 216.552C639.076 215.731 638.983 214.965 638.983 214.256V213.696H642.399V214.256C642.399 214.555 642.418 214.872 642.455 215.208C642.53 215.544 642.642 215.861 642.791 216.16C642.978 216.459 643.239 216.72 643.575 216.944C643.911 217.131 644.359 217.224 644.919 217.224C645.479 217.224 645.927 217.131 646.263 216.944C646.599 216.72 646.842 216.459 646.991 216.16C647.178 215.861 647.29 215.544 647.327 215.208C647.402 214.872 647.439 214.555 647.439 214.256V213.696ZM673.314 231.616C673.314 231.093 673.408 230.403 673.594 229.544C673.781 228.648 674.154 227.771 674.714 226.912C675.312 226.053 676.133 225.325 677.178 224.728C678.224 224.093 679.605 223.776 681.322 223.776C683.04 223.776 684.421 224.093 685.466 224.728C686.512 225.325 687.314 226.053 687.874 226.912C688.472 227.771 688.864 228.648 689.05 229.544C689.237 230.403 689.33 231.075 689.33 231.56V244.496C689.33 245.056 689.237 245.784 689.05 246.68C688.864 247.576 688.472 248.453 687.874 249.312C687.314 250.171 686.512 250.917 685.466 251.552C684.421 252.149 683.04 252.448 681.322 252.448C679.605 252.448 678.224 252.149 677.178 251.552C676.133 250.917 675.312 250.171 674.714 249.312C674.154 248.453 673.781 247.576 673.594 246.68C673.408 245.784 673.314 245.056 673.314 244.496V231.616ZM685.13 232.4C685.13 230.832 684.757 229.693 684.01 228.984C683.264 228.237 682.368 227.864 681.322 227.864C680.277 227.864 679.381 228.237 678.634 228.984C677.888 229.693 677.514 230.832 677.514 232.4V243.824C677.514 245.28 677.832 246.4 678.466 247.184C679.138 247.968 680.09 248.36 681.322 248.36C682.517 248.36 683.45 247.987 684.122 247.24C684.794 246.493 685.13 245.355 685.13 243.824V232.4ZM696.07 228.76C696.07 227.379 696.144 225.979 696.294 224.56C696.48 223.104 696.947 221.816 697.694 220.696C698.328 219.725 699.019 218.979 699.766 218.456C700.55 217.933 701.334 217.523 702.118 217.224C702.603 217.037 703.088 216.869 703.574 216.72C704.096 216.533 704.563 216.365 704.974 216.216C706.915 215.544 707.886 214.555 707.886 213.248V212.8H711.582V213.528C711.582 214.013 711.563 214.555 711.526 215.152C711.488 215.712 711.358 216.216 711.134 216.664C710.723 217.411 710.144 217.971 709.398 218.344C708.688 218.68 707.811 219.016 706.766 219.352L703.966 220.304C703.443 220.491 702.864 220.752 702.23 221.088C701.632 221.387 701.11 221.835 700.662 222.432C700.251 222.992 699.934 223.645 699.71 224.392C699.523 225.139 699.43 225.829 699.43 226.464V227.864H699.598C700.12 226.893 700.886 226.053 701.894 225.344C702.939 224.597 704.358 224.224 706.15 224.224C707.083 224.224 707.904 224.373 708.614 224.672C709.323 224.971 709.883 225.325 710.294 225.736C710.816 226.221 711.246 226.837 711.582 227.584C711.918 228.293 712.086 229.115 712.086 230.048V243.488C712.086 244.011 712.067 244.589 712.03 245.224C711.992 245.821 711.88 246.437 711.694 247.072C711.544 247.707 711.283 248.341 710.91 248.976C710.574 249.573 710.107 250.115 709.51 250.6C708.763 251.235 707.904 251.701 706.934 252C706 252.299 705.048 252.448 704.078 252.448C703.107 252.448 702.136 252.299 701.166 252C700.232 251.739 699.392 251.291 698.646 250.656C698.048 250.171 697.563 249.629 697.19 249.032C696.854 248.397 696.592 247.763 696.406 247.128C696.256 246.456 696.163 245.821 696.126 245.224C696.088 244.589 696.07 244.011 696.07 243.488V228.76ZM707.886 232.4C707.886 231.653 707.774 230.981 707.55 230.384C707.326 229.787 707.064 229.32 706.766 228.984C706.019 228.237 705.123 227.864 704.078 227.864C703.555 227.864 703.051 227.976 702.566 228.2C702.118 228.424 701.726 228.704 701.39 229.04C701.091 229.376 700.83 229.88 700.606 230.552C700.382 231.187 700.27 231.877 700.27 232.624V243.824C700.27 244.608 700.382 245.299 700.606 245.896C700.83 246.493 701.091 246.979 701.39 247.352C701.688 247.651 702.062 247.893 702.51 248.08C702.995 248.267 703.518 248.36 704.078 248.36C704.638 248.36 705.142 248.267 705.59 248.08C706.075 247.893 706.467 247.651 706.766 247.352C707.064 246.979 707.326 246.493 707.55 245.896C707.774 245.299 707.886 244.608 707.886 243.824V232.4ZM718.82 224.224H723.02V226.968C723.916 225.773 724.886 224.952 725.932 224.504C727.014 224.019 728.041 223.776 729.012 223.776C730.244 223.776 731.233 223.981 731.98 224.392C732.764 224.803 733.361 225.344 733.772 226.016C734.182 226.651 734.462 227.341 734.612 228.088C734.761 228.835 734.836 229.544 734.836 230.216V246.008C734.836 246.68 734.761 247.389 734.612 248.136C734.462 248.883 734.182 249.592 733.772 250.264C733.361 250.899 732.764 251.421 731.98 251.832C731.233 252.243 730.244 252.448 729.012 252.448C728.041 252.448 727.014 252.224 725.932 251.776C724.886 251.291 723.916 250.451 723.02 249.256V263.424H718.82V224.224ZM727.108 248.36C727.78 248.36 728.34 248.248 728.788 248.024C729.236 247.763 729.59 247.427 729.852 247.016C730.15 246.605 730.356 246.139 730.468 245.616C730.58 245.093 730.636 244.571 730.636 244.048V232.176C730.636 231.653 730.58 231.131 730.468 230.608C730.356 230.085 730.15 229.619 729.852 229.208C729.59 228.797 729.236 228.48 728.788 228.256C728.34 227.995 727.78 227.864 727.108 227.864C726.249 227.864 725.558 228.051 725.036 228.424C724.513 228.797 724.102 229.245 723.804 229.768C723.505 230.291 723.3 230.851 723.188 231.448C723.076 232.008 723.02 232.512 723.02 232.96V243.264C723.02 243.712 723.076 244.235 723.188 244.832C723.3 245.392 723.505 245.933 723.804 246.456C724.102 246.979 724.513 247.427 725.036 247.8C725.558 248.173 726.249 248.36 727.108 248.36ZM753.324 249.256H753.268C752.932 249.667 752.578 250.059 752.204 250.432C751.831 250.805 751.402 251.141 750.916 251.44C750.431 251.739 749.871 251.981 749.236 252.168C748.639 252.355 747.892 252.448 746.996 252.448C745.876 252.448 744.943 252.261 744.196 251.888C743.487 251.477 742.908 250.917 742.46 250.208C742.05 249.499 741.751 248.677 741.564 247.744C741.378 246.811 741.284 245.784 741.284 244.664C741.284 243.208 741.415 241.92 741.676 240.8C741.938 239.643 742.386 238.672 743.02 237.888C743.655 237.104 744.476 236.507 745.484 236.096C746.53 235.685 747.836 235.48 749.404 235.48C749.703 235.48 750.132 235.499 750.692 235.536C751.252 235.536 752.13 235.592 753.324 235.704V231.616C753.324 231.243 753.25 230.832 753.1 230.384C752.951 229.936 752.708 229.525 752.372 229.152C752.074 228.779 751.682 228.48 751.196 228.256C750.711 227.995 750.114 227.864 749.404 227.864C749.031 227.864 748.639 227.92 748.228 228.032C747.855 228.107 747.482 228.275 747.108 228.536C746.772 228.797 746.455 229.152 746.156 229.6C745.895 230.048 745.708 230.608 745.596 231.28H741.564C741.564 230.123 741.77 229.077 742.18 228.144C742.628 227.211 743.207 226.427 743.916 225.792C744.663 225.12 745.522 224.616 746.492 224.28C747.5 223.944 748.564 223.776 749.684 223.776C751.29 223.776 752.596 224.056 753.604 224.616C754.65 225.139 755.452 225.811 756.012 226.632C756.61 227.416 757.002 228.312 757.188 229.32C757.412 230.291 757.524 231.224 757.524 232.12V252H753.324V249.256ZM753.324 238.784C752.727 238.709 752.186 238.653 751.7 238.616C751.215 238.541 750.804 238.504 750.468 238.504C749.871 238.504 749.274 238.597 748.676 238.784C748.079 238.933 747.538 239.232 747.052 239.68C746.604 240.091 746.231 240.651 745.932 241.36C745.634 242.032 745.484 242.872 745.484 243.88C745.484 245.859 745.783 247.184 746.38 247.856C746.978 248.528 747.874 248.864 749.068 248.864C749.516 248.864 749.983 248.733 750.468 248.472C750.954 248.211 751.402 247.837 751.812 247.352C752.26 246.867 752.615 246.325 752.876 245.728C753.175 245.093 753.324 244.403 753.324 243.656V238.784ZM763.196 231.56C763.196 230.888 763.289 230.123 763.476 229.264C763.7 228.368 764.092 227.509 764.652 226.688C765.249 225.867 766.07 225.176 767.116 224.616C768.198 224.056 769.58 223.776 771.26 223.776C773.649 223.776 775.516 224.411 776.86 225.68C778.241 226.949 778.932 228.76 778.932 231.112V232.176C778.932 233.744 778.54 234.957 777.756 235.816C777.009 236.675 776.15 237.272 775.18 237.608C776.15 237.832 776.897 238.187 777.42 238.672C777.98 239.157 778.372 239.68 778.596 240.24C778.857 240.8 779.006 241.36 779.044 241.92C779.118 242.48 779.156 242.928 779.156 243.264V244.944C779.156 247.221 778.409 249.051 776.916 250.432C775.46 251.776 773.518 252.448 771.092 252.448C769.486 252.448 768.161 252.187 767.116 251.664C766.108 251.141 765.305 250.488 764.708 249.704C764.11 248.92 763.7 248.08 763.476 247.184C763.252 246.251 763.14 245.392 763.14 244.608V243.544H767.34V244.16C767.34 245.691 767.657 246.773 768.292 247.408C768.926 248.043 769.86 248.36 771.092 248.36C772.548 248.36 773.556 247.968 774.116 247.184C774.676 246.4 774.956 245.429 774.956 244.272V243.544C774.956 242.013 774.601 240.987 773.892 240.464C773.22 239.941 772.342 239.68 771.26 239.68H769.132V236.208H771.092C772.174 236.208 773.052 235.816 773.724 235.032C774.396 234.211 774.732 233.259 774.732 232.176V231.168C774.732 230.16 774.358 229.357 773.612 228.76C772.902 228.163 772.118 227.864 771.26 227.864C770.102 227.864 769.169 228.219 768.46 228.928C767.75 229.637 767.396 230.776 767.396 232.344V232.736H763.196V231.56ZM193.844 315.472V324.824H189.924V319H175.14V324.824H171.22V315.472H173.964C174.711 313.792 175.271 312.243 175.644 310.824C176.055 309.405 176.372 307.968 176.596 306.512C176.708 305.691 176.801 304.776 176.876 303.768C176.951 302.723 177.007 301.677 177.044 300.632C177.119 299.549 177.175 298.485 177.212 297.44C177.249 296.357 177.268 295.368 177.268 294.472V291.224H190.54V315.472H193.844ZM180.964 294.696V298.224C180.964 299.792 180.908 301.341 180.796 302.872C180.721 304.365 180.535 305.989 180.236 307.744C180.049 308.827 179.788 310.021 179.452 311.328C179.153 312.597 178.649 314.016 177.94 315.584H186.34V294.696H180.964ZM216.011 319H211.811V294.752H206.491L206.379 298C206.379 298.485 206.361 299.232 206.323 300.24C206.286 301.248 206.23 302.368 206.155 303.6C206.081 304.795 205.987 306.027 205.875 307.296C205.801 308.528 205.689 309.648 205.539 310.656C205.353 311.851 205.091 312.952 204.755 313.96C204.457 314.968 204.009 315.845 203.411 316.592C202.814 317.339 202.067 317.936 201.171 318.384C200.275 318.795 199.155 319 197.811 319H197.139V315.528H197.643C198.539 315.528 199.267 315.267 199.827 314.744C200.387 314.221 200.817 313.531 201.115 312.672C201.451 311.776 201.675 310.787 201.787 309.704C201.937 308.584 202.067 307.464 202.179 306.344C202.217 305.784 202.254 305.112 202.291 304.328C202.329 303.507 202.347 302.685 202.347 301.864C202.385 301.043 202.422 300.277 202.459 299.568C202.497 298.821 202.515 298.243 202.515 297.832L202.683 291.224H216.011V319ZM234.168 319V306.904H230.304L226.16 319H221.68L226.16 306.456C224.741 305.821 223.771 305.019 223.248 304.048C222.763 303.04 222.52 301.827 222.52 300.408V297.72C222.52 296.264 222.781 295.107 223.304 294.248C223.827 293.389 224.48 292.736 225.264 292.288C226.048 291.84 226.888 291.56 227.784 291.448C228.717 291.299 229.557 291.224 230.304 291.224H238.368V319H234.168ZM234.168 294.304H230.64C229.632 294.304 228.717 294.621 227.896 295.256C227.112 295.891 226.72 296.973 226.72 298.504V300.016C226.72 301.397 227.093 302.387 227.84 302.984C228.624 303.581 229.557 303.88 230.64 303.88H234.168V294.304ZM266.022 294.752V319H261.822V294.752H255.942V291.224H271.902V294.752H266.022ZM287.113 316.256H287.057C286.721 316.667 286.367 317.059 285.993 317.432C285.62 317.805 285.191 318.141 284.705 318.44C284.22 318.739 283.66 318.981 283.025 319.168C282.428 319.355 281.681 319.448 280.785 319.448C279.665 319.448 278.732 319.261 277.985 318.888C277.276 318.477 276.697 317.917 276.249 317.208C275.839 316.499 275.54 315.677 275.353 314.744C275.167 313.811 275.073 312.784 275.073 311.664C275.073 310.208 275.204 308.92 275.465 307.8C275.727 306.643 276.175 305.672 276.809 304.888C277.444 304.104 278.265 303.507 279.273 303.096C280.319 302.685 281.625 302.48 283.193 302.48C283.492 302.48 283.921 302.499 284.481 302.536C285.041 302.536 285.919 302.592 287.113 302.704V298.616C287.113 298.243 287.039 297.832 286.889 297.384C286.74 296.936 286.497 296.525 286.161 296.152C285.863 295.779 285.471 295.48 284.985 295.256C284.5 294.995 283.903 294.864 283.193 294.864C282.82 294.864 282.428 294.92 282.017 295.032C281.644 295.107 281.271 295.275 280.897 295.536C280.561 295.797 280.244 296.152 279.945 296.6C279.684 297.048 279.497 297.608 279.385 298.28H275.353C275.353 297.123 275.559 296.077 275.969 295.144C276.417 294.211 276.996 293.427 277.705 292.792C278.452 292.12 279.311 291.616 280.281 291.28C281.289 290.944 282.353 290.776 283.473 290.776C285.079 290.776 286.385 291.056 287.393 291.616C288.439 292.139 289.241 292.811 289.801 293.632C290.399 294.416 290.791 295.312 290.977 296.32C291.201 297.291 291.313 298.224 291.313 299.12V319H287.113V316.256ZM287.113 305.784C286.516 305.709 285.975 305.653 285.489 305.616C285.004 305.541 284.593 305.504 284.257 305.504C283.66 305.504 283.063 305.597 282.465 305.784C281.868 305.933 281.327 306.232 280.841 306.68C280.393 307.091 280.02 307.651 279.721 308.36C279.423 309.032 279.273 309.872 279.273 310.88C279.273 312.859 279.572 314.184 280.169 314.856C280.767 315.528 281.663 315.864 282.857 315.864C283.305 315.864 283.772 315.733 284.257 315.472C284.743 315.211 285.191 314.837 285.601 314.352C286.049 313.867 286.404 313.325 286.665 312.728C286.964 312.093 287.113 311.403 287.113 310.656V305.784ZM298.273 291.224H302.473V303.096H310.089V291.224H314.289V319H310.089V306.68H302.473V319H298.273V291.224ZM321.242 291.224H325.442V315.472H333.002V291.224H337.202V315.472H340.842V324.824H336.922V319H321.242V291.224ZM356.731 316.256H356.675C356.339 316.667 355.984 317.059 355.611 317.432C355.237 317.805 354.808 318.141 354.323 318.44C353.837 318.739 353.277 318.981 352.643 319.168C352.045 319.355 351.299 319.448 350.403 319.448C349.283 319.448 348.349 319.261 347.603 318.888C346.893 318.477 346.315 317.917 345.867 317.208C345.456 316.499 345.157 315.677 344.971 314.744C344.784 313.811 344.691 312.784 344.691 311.664C344.691 310.208 344.821 308.92 345.083 307.8C345.344 306.643 345.792 305.672 346.427 304.888C347.061 304.104 347.883 303.507 348.891 303.096C349.936 302.685 351.243 302.48 352.811 302.48C353.109 302.48 353.539 302.499 354.099 302.536C354.659 302.536 355.536 302.592 356.731 302.704V298.616C356.731 298.243 356.656 297.832 356.507 297.384C356.357 296.936 356.115 296.525 355.779 296.152C355.48 295.779 355.088 295.48 354.603 295.256C354.117 294.995 353.52 294.864 352.811 294.864C352.437 294.864 352.045 294.92 351.635 295.032C351.261 295.107 350.888 295.275 350.515 295.536C350.179 295.797 349.861 296.152 349.563 296.6C349.301 297.048 349.115 297.608 349.003 298.28H344.971C344.971 297.123 345.176 296.077 345.587 295.144C346.035 294.211 346.613 293.427 347.323 292.792C348.069 292.12 348.928 291.616 349.899 291.28C350.907 290.944 351.971 290.776 353.091 290.776C354.696 290.776 356.003 291.056 357.011 291.616C358.056 292.139 358.859 292.811 359.419 293.632C360.016 294.416 360.408 295.312 360.595 296.32C360.819 297.291 360.931 298.224 360.931 299.12V319H356.731V316.256ZM356.731 305.784C356.133 305.709 355.592 305.653 355.107 305.616C354.621 305.541 354.211 305.504 353.875 305.504C353.277 305.504 352.68 305.597 352.083 305.784C351.485 305.933 350.944 306.232 350.459 306.68C350.011 307.091 349.637 307.651 349.339 308.36C349.04 309.032 348.891 309.872 348.891 310.88C348.891 312.859 349.189 314.184 349.787 314.856C350.384 315.528 351.28 315.864 352.475 315.864C352.923 315.864 353.389 315.733 353.875 315.472C354.36 315.211 354.808 314.837 355.219 314.352C355.667 313.867 356.021 313.325 356.283 312.728C356.581 312.093 356.731 311.403 356.731 310.656V305.784ZM380.96 291.224H396.64V319H392.44V294.752H385.16V319H380.96V291.224ZM411.721 323.928C411.422 325.123 411.068 326.131 410.657 326.952C410.246 327.811 409.742 328.483 409.145 328.968C408.585 329.491 407.894 329.864 407.073 330.088C406.289 330.312 405.356 330.424 404.273 330.424H403.321V326.616H404.105C405.412 326.616 406.345 326.243 406.905 325.496C407.465 324.749 407.95 323.555 408.361 321.912L409.145 318.608L400.969 291.224H405.393L410.993 311.44H411.105L415.361 291.224H419.617L411.721 323.928ZM432.381 294.752V319H428.181V294.752H422.301V291.224H438.261V294.752H432.381ZM454.181 311.216H458.381V311.608C458.381 312.28 458.269 313.083 458.045 314.016C457.858 314.912 457.485 315.771 456.925 316.592C456.365 317.376 455.581 318.048 454.573 318.608C453.565 319.168 452.258 319.448 450.653 319.448C448.898 319.448 447.498 319.149 446.453 318.552C445.408 317.917 444.586 317.171 443.989 316.312C443.392 315.453 443 314.576 442.813 313.68C442.626 312.747 442.533 311.981 442.533 311.384V298.504C442.533 297.944 442.626 297.235 442.813 296.376C443 295.517 443.373 294.677 443.933 293.856C444.493 292.997 445.277 292.269 446.285 291.672C447.33 291.075 448.693 290.776 450.373 290.776C452.016 290.776 453.36 291.075 454.405 291.672C455.488 292.269 456.328 292.997 456.925 293.856C457.522 294.677 457.933 295.555 458.157 296.488C458.381 297.384 458.493 298.131 458.493 298.728V306.68H446.733V311.104C446.733 312.597 447.05 313.68 447.685 314.352C448.357 315.024 449.346 315.36 450.653 315.36C451.885 315.36 452.781 315.024 453.341 314.352C453.901 313.643 454.181 312.709 454.181 311.552V311.216ZM454.293 303.544V298.784C454.293 298.336 454.237 297.888 454.125 297.44C454.013 296.955 453.808 296.525 453.509 296.152C453.21 295.779 452.818 295.48 452.333 295.256C451.848 294.995 451.25 294.864 450.541 294.864C449.794 294.864 449.178 294.995 448.693 295.256C448.208 295.517 447.816 295.853 447.517 296.264C447.218 296.675 447.013 297.123 446.901 297.608C446.789 298.093 446.733 298.56 446.733 299.008V303.544H454.293ZM448.525 285.456H444.213V281.144H448.525V285.456ZM452.389 281.144H456.701V285.456H452.389V281.144ZM475.655 308.36L482.151 291.224H486.183V319H482.207V300.632L476.551 315.024H474.647L468.991 300.632V319H465.015V291.224H468.991L475.655 308.36ZM506.195 291.224H521.875V319H517.675V294.752H510.395V319H506.195V291.224ZM540.259 311.216H544.459V311.608C544.459 312.28 544.347 313.083 544.123 314.016C543.937 314.912 543.563 315.771 543.003 316.592C542.443 317.376 541.659 318.048 540.651 318.608C539.643 319.168 538.337 319.448 536.731 319.448C534.977 319.448 533.577 319.149 532.531 318.552C531.486 317.917 530.665 317.171 530.067 316.312C529.47 315.453 529.078 314.576 528.891 313.68C528.705 312.747 528.611 311.981 528.611 311.384V298.504C528.611 297.944 528.705 297.235 528.891 296.376C529.078 295.517 529.451 294.677 530.011 293.856C530.571 292.997 531.355 292.269 532.363 291.672C533.409 291.075 534.771 290.776 536.451 290.776C538.094 290.776 539.438 291.075 540.483 291.672C541.566 292.269 542.406 292.997 543.003 293.856C543.601 294.677 544.011 295.555 544.235 296.488C544.459 297.384 544.571 298.131 544.571 298.728V306.68H532.811V311.104C532.811 312.597 533.129 313.68 533.763 314.352C534.435 315.024 535.425 315.36 536.731 315.36C537.963 315.36 538.859 315.024 539.419 314.352C539.979 313.643 540.259 312.709 540.259 311.552V311.216ZM540.371 303.544V298.784C540.371 298.336 540.315 297.888 540.203 297.44C540.091 296.955 539.886 296.525 539.587 296.152C539.289 295.779 538.897 295.48 538.411 295.256C537.926 294.995 537.329 294.864 536.619 294.864C535.873 294.864 535.257 294.995 534.771 295.256C534.286 295.517 533.894 295.853 533.595 296.264C533.297 296.675 533.091 297.123 532.979 297.608C532.867 298.093 532.811 298.56 532.811 299.008V303.544H540.371ZM551.093 291.224H555.293V293.968C556.189 292.773 557.16 291.952 558.205 291.504C559.288 291.019 560.314 290.776 561.285 290.776C562.517 290.776 563.506 290.981 564.253 291.392C565.037 291.803 565.634 292.344 566.045 293.016C566.456 293.651 566.736 294.341 566.885 295.088C567.034 295.835 567.109 296.544 567.109 297.216V313.008C567.109 313.68 567.034 314.389 566.885 315.136C566.736 315.883 566.456 316.592 566.045 317.264C565.634 317.899 565.037 318.421 564.253 318.832C563.506 319.243 562.517 319.448 561.285 319.448C560.314 319.448 559.288 319.224 558.205 318.776C557.16 318.291 556.189 317.451 555.293 316.256V330.424H551.093V291.224ZM559.381 315.36C560.053 315.36 560.613 315.248 561.061 315.024C561.509 314.763 561.864 314.427 562.125 314.016C562.424 313.605 562.629 313.139 562.741 312.616C562.853 312.093 562.909 311.571 562.909 311.048V299.176C562.909 298.653 562.853 298.131 562.741 297.608C562.629 297.085 562.424 296.619 562.125 296.208C561.864 295.797 561.509 295.48 561.061 295.256C560.613 294.995 560.053 294.864 559.381 294.864C558.522 294.864 557.832 295.051 557.309 295.424C556.786 295.797 556.376 296.245 556.077 296.768C555.778 297.291 555.573 297.851 555.461 298.448C555.349 299.008 555.293 299.512 555.293 299.96V310.264C555.293 310.712 555.349 311.235 555.461 311.832C555.573 312.392 555.778 312.933 556.077 313.456C556.376 313.979 556.786 314.427 557.309 314.8C557.832 315.173 558.522 315.36 559.381 315.36ZM585.486 311.216H589.686V311.608C589.686 312.28 589.574 313.083 589.35 314.016C589.163 314.912 588.79 315.771 588.23 316.592C587.67 317.376 586.886 318.048 585.878 318.608C584.87 319.168 583.563 319.448 581.958 319.448C580.203 319.448 578.803 319.149 577.758 318.552C576.713 317.917 575.891 317.171 575.294 316.312C574.697 315.453 574.305 314.576 574.118 313.68C573.931 312.747 573.838 311.981 573.838 311.384V298.504C573.838 297.944 573.931 297.235 574.118 296.376C574.305 295.517 574.678 294.677 575.238 293.856C575.798 292.997 576.582 292.269 577.59 291.672C578.635 291.075 579.998 290.776 581.678 290.776C583.321 290.776 584.665 291.075 585.71 291.672C586.793 292.269 587.633 292.997 588.23 293.856C588.827 294.677 589.238 295.555 589.462 296.488C589.686 297.384 589.798 298.131 589.798 298.728V306.68H578.038V311.104C578.038 312.597 578.355 313.68 578.99 314.352C579.662 315.024 580.651 315.36 581.958 315.36C583.19 315.36 584.086 315.024 584.646 314.352C585.206 313.643 585.486 312.709 585.486 311.552V311.216ZM585.598 303.544V298.784C585.598 298.336 585.542 297.888 585.43 297.44C585.318 296.955 585.113 296.525 584.814 296.152C584.515 295.779 584.123 295.48 583.638 295.256C583.153 294.995 582.555 294.864 581.846 294.864C581.099 294.864 580.483 294.995 579.998 295.256C579.513 295.517 579.121 295.853 578.822 296.264C578.523 296.675 578.318 297.123 578.206 297.608C578.094 298.093 578.038 298.56 578.038 299.008V303.544H585.598ZM603.936 294.752V319H599.736V294.752H593.856V291.224H609.816V294.752H603.936ZM625.512 319V306.904H621.648L617.504 319H613.024L617.504 306.456C616.085 305.821 615.115 305.019 614.592 304.048C614.107 303.04 613.864 301.827 613.864 300.408V297.72C613.864 296.264 614.125 295.107 614.648 294.248C615.171 293.389 615.824 292.736 616.608 292.288C617.392 291.84 618.232 291.56 619.128 291.448C620.061 291.299 620.901 291.224 621.648 291.224H629.712V319H625.512ZM625.512 294.304H621.984C620.976 294.304 620.061 294.621 619.24 295.256C618.456 295.891 618.064 296.973 618.064 298.504V300.016C618.064 301.397 618.437 302.387 619.184 302.984C619.968 303.581 620.901 303.88 621.984 303.88H625.512V294.304ZM636.679 291.224H649.671V294.752H640.879V319H636.679V291.224ZM658.434 291.224V309.648L667.226 294.64V291.224H671.426V319H667.226V301.08L658.434 316.088V319H654.234V291.224H658.434ZM686.527 291.224C687.908 291.224 689.066 291.411 689.999 291.784C690.97 292.12 691.735 292.587 692.295 293.184C692.892 293.744 693.322 294.416 693.583 295.2C693.844 295.947 693.975 296.712 693.975 297.496V299.176C693.975 300.595 693.714 301.771 693.191 302.704C692.668 303.6 691.698 304.309 690.279 304.832C691.922 305.243 692.986 305.952 693.471 306.96C693.994 307.931 694.255 309.069 694.255 310.376V312.504C694.255 313.811 693.994 314.893 693.471 315.752C692.948 316.573 692.276 317.227 691.455 317.712C690.634 318.197 689.738 318.533 688.767 318.72C687.834 318.907 686.956 319 686.135 319H678.351V291.224H686.527ZM682.551 315.472H686.079C687.162 315.472 688.095 315.211 688.879 314.688C689.663 314.165 690.055 313.251 690.055 311.944V310.544C690.055 309.051 689.644 308.005 688.823 307.408C688.002 306.773 687.087 306.456 686.079 306.456H682.551V315.472ZM682.551 303.376H685.967C687.124 303.376 688.039 303.021 688.711 302.312C689.42 301.603 689.775 300.688 689.775 299.568V298.112C689.775 297.365 689.626 296.768 689.327 296.32C689.028 295.872 688.674 295.536 688.263 295.312C687.852 295.088 687.423 294.939 686.975 294.864C686.564 294.789 686.228 294.752 685.967 294.752H682.551V303.376ZM712.199 316.256H712.143C711.807 316.667 711.453 317.059 711.079 317.432C710.706 317.805 710.277 318.141 709.791 318.44C709.306 318.739 708.746 318.981 708.111 319.168C707.514 319.355 706.767 319.448 705.871 319.448C704.751 319.448 703.818 319.261 703.071 318.888C702.362 318.477 701.783 317.917 701.335 317.208C700.925 316.499 700.626 315.677 700.439 314.744C700.253 313.811 700.159 312.784 700.159 311.664C700.159 310.208 700.29 308.92 700.551 307.8C700.813 306.643 701.261 305.672 701.895 304.888C702.53 304.104 703.351 303.507 704.359 303.096C705.405 302.685 706.711 302.48 708.279 302.48C708.578 302.48 709.007 302.499 709.567 302.536C710.127 302.536 711.005 302.592 712.199 302.704V298.616C712.199 298.243 712.125 297.832 711.975 297.384C711.826 296.936 711.583 296.525 711.247 296.152C710.949 295.779 710.557 295.48 710.071 295.256C709.586 294.995 708.989 294.864 708.279 294.864C707.906 294.864 707.514 294.92 707.103 295.032C706.73 295.107 706.357 295.275 705.983 295.536C705.647 295.797 705.33 296.152 705.031 296.6C704.77 297.048 704.583 297.608 704.471 298.28H700.439C700.439 297.123 700.645 296.077 701.055 295.144C701.503 294.211 702.082 293.427 702.791 292.792C703.538 292.12 704.397 291.616 705.367 291.28C706.375 290.944 707.439 290.776 708.559 290.776C710.165 290.776 711.471 291.056 712.479 291.616C713.525 292.139 714.327 292.811 714.887 293.632C715.485 294.416 715.877 295.312 716.063 296.32C716.287 297.291 716.399 298.224 716.399 299.12V319H712.199V316.256ZM712.199 305.784C711.602 305.709 711.061 305.653 710.575 305.616C710.09 305.541 709.679 305.504 709.343 305.504C708.746 305.504 708.149 305.597 707.551 305.784C706.954 305.933 706.413 306.232 705.927 306.68C705.479 307.091 705.106 307.651 704.807 308.36C704.509 309.032 704.359 309.872 704.359 310.88C704.359 312.859 704.658 314.184 705.255 314.856C705.853 315.528 706.749 315.864 707.943 315.864C708.391 315.864 708.858 315.733 709.343 315.472C709.829 315.211 710.277 314.837 710.687 314.352C711.135 313.867 711.49 313.325 711.751 312.728C712.05 312.093 712.199 311.403 712.199 310.656V305.784ZM723.359 291.224H727.559V303.096H735.175V291.224H739.375V319H735.175V306.68H727.559V319H723.359V291.224ZM750.527 291.224V309.648L759.319 294.64V291.224H763.519V319H759.319V301.08L750.527 316.088V319H746.327V291.224H750.527ZM781.645 319V306.904H777.781L773.637 319H769.157L773.637 306.456C772.218 305.821 771.247 305.019 770.725 304.048C770.239 303.04 769.997 301.827 769.997 300.408V297.72C769.997 296.264 770.258 295.107 770.781 294.248C771.303 293.389 771.957 292.736 772.741 292.288C773.525 291.84 774.365 291.56 775.261 291.448C776.194 291.299 777.034 291.224 777.781 291.224H785.845V319H781.645ZM781.645 294.304H778.117C777.109 294.304 776.194 294.621 775.373 295.256C774.589 295.891 774.197 296.973 774.197 298.504V300.016C774.197 301.397 774.57 302.387 775.317 302.984C776.101 303.581 777.034 303.88 778.117 303.88H781.645V294.304ZM378.894 378.16C378.894 379.691 379.212 380.773 379.846 381.408C380.481 382.043 381.414 382.36 382.646 382.36C383.953 382.36 384.942 381.987 385.614 381.24C386.324 380.456 386.678 379.317 386.678 377.824V373.736H380.518V370.152H386.678V366.4C386.678 364.832 386.286 363.693 385.502 362.984C384.718 362.237 383.785 361.864 382.702 361.864C381.62 361.864 380.724 362.219 380.014 362.928C379.305 363.637 378.95 364.776 378.95 366.344V366.736H374.75V365.56C374.75 364.888 374.844 364.123 375.03 363.264C375.254 362.368 375.646 361.509 376.206 360.688C376.804 359.867 377.625 359.176 378.67 358.616C379.716 358.056 381.06 357.776 382.702 357.776C384.42 357.776 385.82 358.093 386.902 358.728C387.985 359.325 388.806 360.053 389.366 360.912C389.964 361.771 390.356 362.667 390.542 363.6C390.766 364.496 390.878 365.224 390.878 365.784V378.384C390.878 378.981 390.766 379.747 390.542 380.68C390.356 381.576 389.964 382.453 389.366 383.312C388.769 384.171 387.929 384.917 386.846 385.552C385.764 386.149 384.364 386.448 382.646 386.448C381.041 386.448 379.716 386.187 378.67 385.664C377.662 385.104 376.86 384.432 376.262 383.648C375.665 382.864 375.254 382.024 375.03 381.128C374.806 380.195 374.694 379.355 374.694 378.608V377.544H378.894V378.16ZM413.433 386H409.233V361.752H403.913L403.801 365C403.801 365.485 403.783 366.232 403.745 367.24C403.708 368.248 403.652 369.368 403.577 370.6C403.503 371.795 403.409 373.027 403.297 374.296C403.223 375.528 403.111 376.648 402.961 377.656C402.775 378.851 402.513 379.952 402.177 380.96C401.879 381.968 401.431 382.845 400.833 383.592C400.236 384.339 399.489 384.936 398.593 385.384C397.697 385.795 396.577 386 395.233 386H394.561V382.528H395.065C395.961 382.528 396.689 382.267 397.249 381.744C397.809 381.221 398.239 380.531 398.537 379.672C398.873 378.776 399.097 377.787 399.209 376.704C399.359 375.584 399.489 374.464 399.601 373.344C399.639 372.784 399.676 372.112 399.713 371.328C399.751 370.507 399.769 369.685 399.769 368.864C399.807 368.043 399.844 367.277 399.881 366.568C399.919 365.821 399.937 365.243 399.937 364.832L400.105 358.224H413.433V386ZM431.814 378.216H436.014V378.608C436.014 379.28 435.902 380.083 435.678 381.016C435.491 381.912 435.118 382.771 434.558 383.592C433.998 384.376 433.214 385.048 432.206 385.608C431.198 386.168 429.891 386.448 428.286 386.448C426.531 386.448 425.131 386.149 424.086 385.552C423.041 384.917 422.219 384.171 421.622 383.312C421.025 382.453 420.633 381.576 420.446 380.68C420.259 379.747 420.166 378.981 420.166 378.384V365.504C420.166 364.944 420.259 364.235 420.446 363.376C420.633 362.517 421.006 361.677 421.566 360.856C422.126 359.997 422.91 359.269 423.918 358.672C424.963 358.075 426.326 357.776 428.006 357.776C429.649 357.776 430.993 358.075 432.038 358.672C433.121 359.269 433.961 359.997 434.558 360.856C435.155 361.677 435.566 362.555 435.79 363.488C436.014 364.384 436.126 365.131 436.126 365.728V373.68H424.366V378.104C424.366 379.597 424.683 380.68 425.318 381.352C425.99 382.024 426.979 382.36 428.286 382.36C429.518 382.36 430.414 382.024 430.974 381.352C431.534 380.643 431.814 379.709 431.814 378.552V378.216ZM431.926 370.544V365.784C431.926 365.336 431.87 364.888 431.758 364.44C431.646 363.955 431.441 363.525 431.142 363.152C430.843 362.779 430.451 362.48 429.966 362.256C429.481 361.995 428.883 361.864 428.174 361.864C427.427 361.864 426.811 361.995 426.326 362.256C425.841 362.517 425.449 362.853 425.15 363.264C424.851 363.675 424.646 364.123 424.534 364.608C424.422 365.093 424.366 365.56 424.366 366.008V370.544H431.926ZM453.288 375.36L459.784 358.224H463.816V386H459.84V367.632L454.184 382.024H452.28L446.624 367.632V386H442.648V358.224H446.624L453.288 375.36ZM482.181 378.216H486.381V378.608C486.381 379.28 486.269 380.083 486.045 381.016C485.858 381.912 485.485 382.771 484.925 383.592C484.365 384.376 483.581 385.048 482.573 385.608C481.565 386.168 480.258 386.448 478.653 386.448C476.898 386.448 475.498 386.149 474.453 385.552C473.408 384.917 472.586 384.171 471.989 383.312C471.392 382.453 471 381.576 470.813 380.68C470.626 379.747 470.533 378.981 470.533 378.384V365.504C470.533 364.944 470.626 364.235 470.813 363.376C471 362.517 471.373 361.677 471.933 360.856C472.493 359.997 473.277 359.269 474.285 358.672C475.33 358.075 476.693 357.776 478.373 357.776C480.016 357.776 481.36 358.075 482.405 358.672C483.488 359.269 484.328 359.997 484.925 360.856C485.522 361.677 485.933 362.555 486.157 363.488C486.381 364.384 486.493 365.131 486.493 365.728V373.68H474.733V378.104C474.733 379.597 475.05 380.68 475.685 381.352C476.357 382.024 477.346 382.36 478.653 382.36C479.885 382.36 480.781 382.024 481.341 381.352C481.901 380.643 482.181 379.709 482.181 378.552V378.216ZM482.293 370.544V365.784C482.293 365.336 482.237 364.888 482.125 364.44C482.013 363.955 481.808 363.525 481.509 363.152C481.21 362.779 480.818 362.48 480.333 362.256C479.848 361.995 479.25 361.864 478.541 361.864C477.794 361.864 477.178 361.995 476.693 362.256C476.208 362.517 475.816 362.853 475.517 363.264C475.218 363.675 475.013 364.123 474.901 364.608C474.789 365.093 474.733 365.56 474.733 366.008V370.544H482.293ZM493.015 358.224H497.215V370.096H504.831V358.224H509.031V386H504.831V373.68H497.215V386H493.015V358.224ZM523.6 361.752V386H519.4V361.752H513.52V358.224H529.48V361.752H523.6ZM533.752 365.616C533.752 365.093 533.845 364.403 534.032 363.544C534.219 362.648 534.592 361.771 535.152 360.912C535.749 360.053 536.571 359.325 537.616 358.728C538.661 358.093 540.043 357.776 541.76 357.776C543.477 357.776 544.859 358.093 545.904 358.728C546.949 359.325 547.752 360.053 548.312 360.912C548.909 361.771 549.301 362.648 549.488 363.544C549.675 364.403 549.768 365.075 549.768 365.56V378.496C549.768 379.056 549.675 379.784 549.488 380.68C549.301 381.576 548.909 382.453 548.312 383.312C547.752 384.171 546.949 384.917 545.904 385.552C544.859 386.149 543.477 386.448 541.76 386.448C540.043 386.448 538.661 386.149 537.616 385.552C536.571 384.917 535.749 384.171 535.152 383.312C534.592 382.453 534.219 381.576 534.032 380.68C533.845 379.784 533.752 379.056 533.752 378.496V365.616ZM545.568 366.4C545.568 364.832 545.195 363.693 544.448 362.984C543.701 362.237 542.805 361.864 541.76 361.864C540.715 361.864 539.819 362.237 539.072 362.984C538.325 363.693 537.952 364.832 537.952 366.4V377.824C537.952 379.28 538.269 380.4 538.904 381.184C539.576 381.968 540.528 382.36 541.76 382.36C542.955 382.36 543.888 381.987 544.56 381.24C545.232 380.493 545.568 379.355 545.568 377.824V366.4ZM564.683 358.224C566.064 358.224 567.222 358.411 568.155 358.784C569.126 359.12 569.891 359.587 570.451 360.184C571.048 360.744 571.478 361.416 571.739 362.2C572 362.947 572.131 363.712 572.131 364.496V366.176C572.131 367.595 571.87 368.771 571.347 369.704C570.824 370.6 569.854 371.309 568.435 371.832C570.078 372.243 571.142 372.952 571.627 373.96C572.15 374.931 572.411 376.069 572.411 377.376V379.504C572.411 380.811 572.15 381.893 571.627 382.752C571.104 383.573 570.432 384.227 569.611 384.712C568.79 385.197 567.894 385.533 566.923 385.72C565.99 385.907 565.112 386 564.291 386H556.507V358.224H564.683ZM560.707 382.472H564.235C565.318 382.472 566.251 382.211 567.035 381.688C567.819 381.165 568.211 380.251 568.211 378.944V377.544C568.211 376.051 567.8 375.005 566.979 374.408C566.158 373.773 565.243 373.456 564.235 373.456H560.707V382.472ZM560.707 370.376H564.123C565.28 370.376 566.195 370.021 566.867 369.312C567.576 368.603 567.931 367.688 567.931 366.568V365.112C567.931 364.365 567.782 363.768 567.483 363.32C567.184 362.872 566.83 362.536 566.419 362.312C566.008 362.088 565.579 361.939 565.131 361.864C564.72 361.789 564.384 361.752 564.123 361.752H560.707V370.376ZM583.524 381.24V386H578.708V381.24H583.524Z" fill="white"/>
</svg>
