<svg width="951" height="630" viewBox="0 0 951 630" fill="none" xmlns="http://www.w3.org/2000/svg">
<rect x="3" y="3" width="945" height="624" fill="#003EE3" stroke="white" stroke-width="6"/>
<path d="M114.123 219L112.163 210.264H103.315L101.411 219H97.3233L105.835 179.8H109.643L118.211 219H114.123ZM107.627 188.2L103.875 206.68H111.547L107.627 188.2ZM148.55 210.488H152.75V211.608C152.75 212.28 152.619 213.083 152.358 214.016C152.134 214.912 151.704 215.771 151.07 216.592C150.472 217.376 149.651 218.048 148.606 218.608C147.56 219.168 146.235 219.448 144.63 219.448C142.875 219.448 141.475 219.149 140.43 218.552C139.384 217.917 138.563 217.171 137.966 216.312C137.368 215.453 136.976 214.576 136.79 213.68C136.603 212.747 136.51 211.981 136.51 211.384V198.784C136.51 198.224 136.603 197.496 136.79 196.6C136.976 195.667 137.368 194.771 137.966 193.912C138.563 193.053 139.384 192.325 140.43 191.728C141.475 191.093 142.875 190.776 144.63 190.776C146.272 190.776 147.616 191.056 148.662 191.616C149.744 192.176 150.584 192.867 151.182 193.688C151.779 194.509 152.19 195.368 152.414 196.264C152.638 197.123 152.75 197.888 152.75 198.56V199.792H148.55V199.4C148.55 197.832 148.158 196.693 147.374 195.984C146.627 195.237 145.712 194.864 144.63 194.864C143.547 194.864 142.614 195.237 141.83 195.984C141.083 196.693 140.71 197.832 140.71 199.4V210.824C140.71 213.848 142.016 215.36 144.63 215.36C145.862 215.36 146.814 214.987 147.486 214.24C148.195 213.493 148.55 212.355 148.55 210.824V210.488ZM169.65 211.216H173.85V211.608C173.85 212.28 173.738 213.083 173.514 214.016C173.327 214.912 172.954 215.771 172.394 216.592C171.834 217.376 171.05 218.048 170.042 218.608C169.034 219.168 167.727 219.448 166.122 219.448C164.367 219.448 162.967 219.149 161.922 218.552C160.877 217.917 160.055 217.171 159.458 216.312C158.861 215.453 158.469 214.576 158.282 213.68C158.095 212.747 158.002 211.981 158.002 211.384V198.504C158.002 197.944 158.095 197.235 158.282 196.376C158.469 195.517 158.842 194.677 159.402 193.856C159.962 192.997 160.746 192.269 161.754 191.672C162.799 191.075 164.162 190.776 165.842 190.776C167.485 190.776 168.829 191.075 169.874 191.672C170.957 192.269 171.797 192.997 172.394 193.856C172.991 194.677 173.402 195.555 173.626 196.488C173.85 197.384 173.962 198.131 173.962 198.728V206.68H162.202V211.104C162.202 212.597 162.519 213.68 163.154 214.352C163.826 215.024 164.815 215.36 166.122 215.36C167.354 215.36 168.25 215.024 168.81 214.352C169.37 213.643 169.65 212.709 169.65 211.552V211.216ZM169.762 203.544V198.784C169.762 198.336 169.706 197.888 169.594 197.44C169.482 196.955 169.277 196.525 168.978 196.152C168.679 195.779 168.287 195.48 167.802 195.256C167.317 194.995 166.719 194.864 166.01 194.864C165.263 194.864 164.647 194.995 164.162 195.256C163.677 195.517 163.285 195.853 162.986 196.264C162.687 196.675 162.482 197.123 162.37 197.608C162.258 198.093 162.202 198.56 162.202 199.008V203.544H169.762ZM184.684 191.224V209.648L193.476 194.64V191.224H197.676V219H193.476V201.08L184.684 216.088V219H180.484V191.224H184.684ZM191.572 180.696H194.988V181.256C194.988 181.965 194.894 182.731 194.708 183.552C194.521 184.336 194.11 185.027 193.476 185.624C192.841 186.259 192.094 186.651 191.236 186.8C190.414 186.949 189.686 187.024 189.052 187.024C188.417 187.024 187.67 186.949 186.812 186.8C185.99 186.651 185.262 186.259 184.628 185.624C183.993 185.027 183.582 184.336 183.396 183.552C183.209 182.731 183.116 181.965 183.116 181.256V180.696H186.532V181.256C186.532 181.555 186.55 181.872 186.588 182.208C186.662 182.544 186.774 182.861 186.924 183.16C187.11 183.459 187.372 183.72 187.708 183.944C188.044 184.131 188.492 184.224 189.052 184.224C189.612 184.224 190.06 184.131 190.396 183.944C190.732 183.72 190.974 183.459 191.124 183.16C191.31 182.861 191.422 182.544 191.46 182.208C191.534 181.872 191.572 181.555 191.572 181.256V180.696ZM214.793 207.296C213.822 207.781 212.852 208.099 211.881 208.248C210.91 208.36 210.014 208.416 209.193 208.416C207.326 208.416 205.87 207.949 204.825 207.016C203.78 206.083 203.257 204.44 203.257 202.088V191.224H207.457V201.192C207.457 203.619 208.67 204.832 211.097 204.832C211.844 204.832 212.516 204.739 213.113 204.552C213.71 204.328 214.27 204.067 214.793 203.768V191.224H218.993V219H214.793V207.296ZM237.465 216.256H237.409C237.073 216.667 236.718 217.059 236.345 217.432C235.972 217.805 235.542 218.141 235.057 218.44C234.572 218.739 234.012 218.981 233.377 219.168C232.78 219.355 232.033 219.448 231.137 219.448C230.017 219.448 229.084 219.261 228.337 218.888C227.628 218.477 227.049 217.917 226.601 217.208C226.19 216.499 225.892 215.677 225.705 214.744C225.518 213.811 225.425 212.784 225.425 211.664C225.425 210.208 225.556 208.92 225.817 207.8C226.078 206.643 226.526 205.672 227.161 204.888C227.796 204.104 228.617 203.507 229.625 203.096C230.67 202.685 231.977 202.48 233.545 202.48C233.844 202.48 234.273 202.499 234.833 202.536C235.393 202.536 236.27 202.592 237.465 202.704V198.616C237.465 198.243 237.39 197.832 237.241 197.384C237.092 196.936 236.849 196.525 236.513 196.152C236.214 195.779 235.822 195.48 235.337 195.256C234.852 194.995 234.254 194.864 233.545 194.864C233.172 194.864 232.78 194.92 232.369 195.032C231.996 195.107 231.622 195.275 231.249 195.536C230.913 195.797 230.596 196.152 230.297 196.6C230.036 197.048 229.849 197.608 229.737 198.28H225.705C225.705 197.123 225.91 196.077 226.321 195.144C226.769 194.211 227.348 193.427 228.057 192.792C228.804 192.12 229.662 191.616 230.633 191.28C231.641 190.944 232.705 190.776 233.825 190.776C235.43 190.776 236.737 191.056 237.745 191.616C238.79 192.139 239.593 192.811 240.153 193.632C240.75 194.416 241.142 195.312 241.329 196.32C241.553 197.291 241.665 198.224 241.665 199.12V219H237.465V216.256ZM237.465 205.784C236.868 205.709 236.326 205.653 235.841 205.616C235.356 205.541 234.945 205.504 234.609 205.504C234.012 205.504 233.414 205.597 232.817 205.784C232.22 205.933 231.678 206.232 231.193 206.68C230.745 207.091 230.372 207.651 230.073 208.36C229.774 209.032 229.625 209.872 229.625 210.88C229.625 212.859 229.924 214.184 230.521 214.856C231.118 215.528 232.014 215.864 233.209 215.864C233.657 215.864 234.124 215.733 234.609 215.472C235.094 215.211 235.542 214.837 235.953 214.352C236.401 213.867 236.756 213.325 237.017 212.728C237.316 212.093 237.465 211.403 237.465 210.656V205.784ZM260.44 210.488H264.64V211.608C264.64 212.28 264.51 213.083 264.248 214.016C264.024 214.912 263.595 215.771 262.96 216.592C262.363 217.376 261.542 218.048 260.496 218.608C259.451 219.168 258.126 219.448 256.52 219.448C254.766 219.448 253.366 219.149 252.32 218.552C251.275 217.917 250.454 217.171 249.856 216.312C249.259 215.453 248.867 214.576 248.68 213.68C248.494 212.747 248.4 211.981 248.4 211.384V198.784C248.4 198.224 248.494 197.496 248.68 196.6C248.867 195.667 249.259 194.771 249.856 193.912C250.454 193.053 251.275 192.325 252.32 191.728C253.366 191.093 254.766 190.776 256.52 190.776C258.163 190.776 259.507 191.056 260.552 191.616C261.635 192.176 262.475 192.867 263.072 193.688C263.67 194.509 264.08 195.368 264.304 196.264C264.528 197.123 264.64 197.888 264.64 198.56V199.792H260.44V199.4C260.44 197.832 260.048 196.693 259.264 195.984C258.518 195.237 257.603 194.864 256.52 194.864C255.438 194.864 254.504 195.237 253.72 195.984C252.974 196.693 252.6 197.832 252.6 199.4V210.824C252.6 213.848 253.907 215.36 256.52 215.36C257.752 215.36 258.704 214.987 259.376 214.24C260.086 213.493 260.44 212.355 260.44 210.824V210.488ZM283.187 191.224H287.387V203.096H295.003V191.224H299.203V219H295.003V206.68H287.387V219H283.187V191.224ZM314.276 223.928C313.977 225.123 313.622 226.131 313.212 226.952C312.801 227.811 312.297 228.483 311.7 228.968C311.14 229.491 310.449 229.864 309.628 230.088C308.844 230.312 307.91 230.424 306.828 230.424H305.876V226.616H306.66C307.966 226.616 308.9 226.243 309.46 225.496C310.02 224.749 310.505 223.555 310.916 221.912L311.7 218.608L303.524 191.224H307.948L313.548 211.44H313.66L317.916 191.224H322.172L314.276 223.928ZM337.413 203.152V191.224H341.613V203.152H344.077C344.749 203.152 345.29 203.003 345.701 202.704C346.111 202.368 346.429 201.957 346.653 201.472C346.914 200.987 347.082 200.464 347.157 199.904C347.269 199.307 347.362 198.747 347.437 198.224L347.773 195.76C347.885 195.051 348.034 194.397 348.221 193.8C348.407 193.203 348.687 192.699 349.061 192.288C349.471 191.84 350.013 191.504 350.685 191.28C351.394 191.056 352.309 190.944 353.429 190.944H353.933V194.36H353.429C352.682 194.36 352.159 194.64 351.861 195.2C351.562 195.76 351.338 196.563 351.189 197.608L350.853 199.904C350.666 201.099 350.479 202.051 350.293 202.76C350.106 203.469 349.658 204.123 348.949 204.72L353.933 219H349.789L345.421 206.4H341.613V219H337.413V206.4H333.605L329.237 219H325.093L330.077 204.72C329.367 204.123 328.919 203.469 328.733 202.76C328.546 202.051 328.359 201.099 328.173 199.904L327.837 197.608C327.687 196.563 327.463 195.76 327.165 195.2C326.866 194.64 326.343 194.36 325.597 194.36H325.093V190.944H325.597C326.717 190.944 327.613 191.056 328.285 191.28C328.994 191.504 329.535 191.84 329.909 192.288C330.319 192.699 330.618 193.203 330.805 193.8C330.991 194.397 331.141 195.051 331.253 195.76L331.589 198.224C331.663 198.747 331.738 199.307 331.813 199.904C331.925 200.464 332.093 200.987 332.317 201.472C332.578 201.957 332.914 202.368 333.325 202.704C333.735 203.003 334.277 203.152 334.949 203.152H337.413ZM359.202 191.224H363.402V203.096H371.018V191.224H375.218V219H371.018V206.68H363.402V219H359.202V191.224ZM381.947 198.616C381.947 198.093 382.041 197.403 382.227 196.544C382.414 195.648 382.787 194.771 383.347 193.912C383.945 193.053 384.766 192.325 385.811 191.728C386.857 191.093 388.238 190.776 389.955 190.776C391.673 190.776 393.054 191.093 394.099 191.728C395.145 192.325 395.947 193.053 396.507 193.912C397.105 194.771 397.497 195.648 397.683 196.544C397.87 197.403 397.963 198.075 397.963 198.56V211.496C397.963 212.056 397.87 212.784 397.683 213.68C397.497 214.576 397.105 215.453 396.507 216.312C395.947 217.171 395.145 217.917 394.099 218.552C393.054 219.149 391.673 219.448 389.955 219.448C388.238 219.448 386.857 219.149 385.811 218.552C384.766 217.917 383.945 217.171 383.347 216.312C382.787 215.453 382.414 214.576 382.227 213.68C382.041 212.784 381.947 212.056 381.947 211.496V198.616ZM393.763 199.4C393.763 197.832 393.39 196.693 392.643 195.984C391.897 195.237 391.001 194.864 389.955 194.864C388.91 194.864 388.014 195.237 387.267 195.984C386.521 196.693 386.147 197.832 386.147 199.4V210.824C386.147 212.28 386.465 213.4 387.099 214.184C387.771 214.968 388.723 215.36 389.955 215.36C391.15 215.36 392.083 214.987 392.755 214.24C393.427 213.493 393.763 212.355 393.763 210.824V199.4ZM417.549 198.616C417.549 198.093 417.642 197.403 417.829 196.544C418.015 195.648 418.389 194.771 418.949 193.912C419.546 193.053 420.367 192.325 421.413 191.728C422.458 191.093 423.839 190.776 425.557 190.776C427.274 190.776 428.655 191.093 429.701 191.728C430.746 192.325 431.549 193.053 432.109 193.912C432.706 194.771 433.098 195.648 433.285 196.544C433.471 197.403 433.565 198.075 433.565 198.56V211.496C433.565 212.056 433.471 212.784 433.285 213.68C433.098 214.576 432.706 215.453 432.109 216.312C431.549 217.171 430.746 217.917 429.701 218.552C428.655 219.149 427.274 219.448 425.557 219.448C423.839 219.448 422.458 219.149 421.413 218.552C420.367 217.917 419.546 217.171 418.949 216.312C418.389 215.453 418.015 214.576 417.829 213.68C417.642 212.784 417.549 212.056 417.549 211.496V198.616ZM429.365 199.4C429.365 197.832 428.991 196.693 428.245 195.984C427.498 195.237 426.602 194.864 425.557 194.864C424.511 194.864 423.615 195.237 422.869 195.984C422.122 196.693 421.749 197.832 421.749 199.4V210.824C421.749 212.28 422.066 213.4 422.701 214.184C423.373 214.968 424.325 215.36 425.557 215.36C426.751 215.36 427.685 214.987 428.357 214.24C429.029 213.493 429.365 212.355 429.365 210.824V199.4ZM450.496 207.296C449.525 207.781 448.555 208.099 447.584 208.248C446.613 208.36 445.717 208.416 444.896 208.416C443.029 208.416 441.573 207.949 440.528 207.016C439.483 206.083 438.96 204.44 438.96 202.088V191.224H443.16V201.192C443.16 203.619 444.373 204.832 446.8 204.832C447.547 204.832 448.219 204.739 448.816 204.552C449.413 204.328 449.973 204.067 450.496 203.768V191.224H454.696V219H450.496V207.296ZM465.832 191.224V209.648L474.624 194.64V191.224H478.824V219H474.624V201.08L465.832 216.088V219H461.632V191.224H465.832ZM497.565 210.488H501.765V211.608C501.765 212.28 501.635 213.083 501.373 214.016C501.149 214.912 500.72 215.771 500.085 216.592C499.488 217.376 498.667 218.048 497.621 218.608C496.576 219.168 495.251 219.448 493.645 219.448C491.891 219.448 490.491 219.149 489.445 218.552C488.4 217.917 487.579 217.171 486.981 216.312C486.384 215.453 485.992 214.576 485.805 213.68C485.619 212.747 485.525 211.981 485.525 211.384V198.784C485.525 198.224 485.619 197.496 485.805 196.6C485.992 195.667 486.384 194.771 486.981 193.912C487.579 193.053 488.4 192.325 489.445 191.728C490.491 191.093 491.891 190.776 493.645 190.776C495.288 190.776 496.632 191.056 497.677 191.616C498.76 192.176 499.6 192.867 500.197 193.688C500.795 194.509 501.205 195.368 501.429 196.264C501.653 197.123 501.765 197.888 501.765 198.56V199.792H497.565V199.4C497.565 197.832 497.173 196.693 496.389 195.984C495.643 195.237 494.728 194.864 493.645 194.864C492.563 194.864 491.629 195.237 490.845 195.984C490.099 196.693 489.725 197.832 489.725 199.4V210.824C489.725 213.848 491.032 215.36 493.645 215.36C494.877 215.36 495.829 214.987 496.501 214.24C497.211 213.493 497.565 212.355 497.565 210.824V210.488ZM514.858 194.752V219H510.658V194.752H504.778V191.224H520.738V194.752H514.858ZM529.434 191.224V209.648L538.226 194.64V191.224H542.426V219H538.226V201.08L529.434 216.088V219H525.234V191.224H529.434ZM556.967 194.752V219H552.767V194.752H546.887V191.224H562.847V194.752H556.967ZM571.543 191.224V202.312H575.295C576.079 202.312 576.919 202.387 577.815 202.536C578.748 202.648 579.607 202.928 580.391 203.376C581.175 203.824 581.828 204.477 582.351 205.336C582.874 206.195 583.135 207.352 583.135 208.808V212.168C583.135 214.632 582.407 216.387 580.951 217.432C579.532 218.477 577.647 219 575.295 219H567.343V191.224H571.543ZM571.543 215.472H574.959C575.407 215.472 575.855 215.416 576.303 215.304C576.788 215.192 577.218 215.005 577.591 214.744C578.002 214.445 578.319 214.072 578.543 213.624C578.804 213.139 578.935 212.541 578.935 211.832V209.536C578.935 208.155 578.506 207.203 577.647 206.68C576.826 206.12 575.93 205.84 574.959 205.84H571.543V215.472ZM601.796 195.76C601.796 194.379 601.871 192.979 602.02 191.56C602.207 190.104 602.674 188.816 603.42 187.696C604.055 186.725 604.746 185.979 605.492 185.456C606.276 184.933 607.06 184.523 607.844 184.224C608.33 184.037 608.815 183.869 609.3 183.72C609.823 183.533 610.29 183.365 610.7 183.216C612.642 182.544 613.612 181.555 613.612 180.248V179.8H617.308V180.528C617.308 181.013 617.29 181.555 617.252 182.152C617.215 182.712 617.084 183.216 616.86 183.664C616.45 184.411 615.871 184.971 615.124 185.344C614.415 185.68 613.538 186.016 612.492 186.352L609.692 187.304C609.17 187.491 608.591 187.752 607.956 188.088C607.359 188.387 606.836 188.835 606.388 189.432C605.978 189.992 605.66 190.645 605.436 191.392C605.25 192.139 605.156 192.829 605.156 193.464V194.864H605.324C605.847 193.893 606.612 193.053 607.62 192.344C608.666 191.597 610.084 191.224 611.876 191.224C612.81 191.224 613.631 191.373 614.34 191.672C615.05 191.971 615.61 192.325 616.02 192.736C616.543 193.221 616.972 193.837 617.308 194.584C617.644 195.293 617.812 196.115 617.812 197.048V210.488C617.812 211.011 617.794 211.589 617.756 212.224C617.719 212.821 617.607 213.437 617.42 214.072C617.271 214.707 617.01 215.341 616.636 215.976C616.3 216.573 615.834 217.115 615.236 217.6C614.49 218.235 613.631 218.701 612.66 219C611.727 219.299 610.775 219.448 609.804 219.448C608.834 219.448 607.863 219.299 606.892 219C605.959 218.739 605.119 218.291 604.372 217.656C603.775 217.171 603.29 216.629 602.916 216.032C602.58 215.397 602.319 214.763 602.132 214.128C601.983 213.456 601.89 212.821 601.852 212.224C601.815 211.589 601.796 211.011 601.796 210.488V195.76ZM613.612 199.4C613.612 198.653 613.5 197.981 613.276 197.384C613.052 196.787 612.791 196.32 612.492 195.984C611.746 195.237 610.85 194.864 609.804 194.864C609.282 194.864 608.778 194.976 608.292 195.2C607.844 195.424 607.452 195.704 607.116 196.04C606.818 196.376 606.556 196.88 606.332 197.552C606.108 198.187 605.996 198.877 605.996 199.624V210.824C605.996 211.608 606.108 212.299 606.332 212.896C606.556 213.493 606.818 213.979 607.116 214.352C607.415 214.651 607.788 214.893 608.236 215.08C608.722 215.267 609.244 215.36 609.804 215.36C610.364 215.36 610.868 215.267 611.316 215.08C611.802 214.893 612.194 214.651 612.492 214.352C612.791 213.979 613.052 213.493 613.276 212.896C613.5 212.299 613.612 211.608 613.612 210.824V199.4ZM636.082 216.256H636.026C635.69 216.667 635.336 217.059 634.962 217.432C634.589 217.805 634.16 218.141 633.674 218.44C633.189 218.739 632.629 218.981 631.994 219.168C631.397 219.355 630.65 219.448 629.754 219.448C628.634 219.448 627.701 219.261 626.954 218.888C626.245 218.477 625.666 217.917 625.218 217.208C624.808 216.499 624.509 215.677 624.322 214.744C624.136 213.811 624.042 212.784 624.042 211.664C624.042 210.208 624.173 208.92 624.434 207.8C624.696 206.643 625.144 205.672 625.778 204.888C626.413 204.104 627.234 203.507 628.242 203.096C629.288 202.685 630.594 202.48 632.162 202.48C632.461 202.48 632.89 202.499 633.45 202.536C634.01 202.536 634.888 202.592 636.082 202.704V198.616C636.082 198.243 636.008 197.832 635.858 197.384C635.709 196.936 635.466 196.525 635.13 196.152C634.832 195.779 634.44 195.48 633.954 195.256C633.469 194.995 632.872 194.864 632.162 194.864C631.789 194.864 631.397 194.92 630.986 195.032C630.613 195.107 630.24 195.275 629.866 195.536C629.53 195.797 629.213 196.152 628.914 196.6C628.653 197.048 628.466 197.608 628.354 198.28H624.322C624.322 197.123 624.528 196.077 624.938 195.144C625.386 194.211 625.965 193.427 626.674 192.792C627.421 192.12 628.28 191.616 629.25 191.28C630.258 190.944 631.322 190.776 632.442 190.776C634.048 190.776 635.354 191.056 636.362 191.616C637.408 192.139 638.21 192.811 638.77 193.632C639.368 194.416 639.76 195.312 639.946 196.32C640.17 197.291 640.282 198.224 640.282 199.12V219H636.082V216.256ZM636.082 205.784C635.485 205.709 634.944 205.653 634.458 205.616C633.973 205.541 633.562 205.504 633.226 205.504C632.629 205.504 632.032 205.597 631.434 205.784C630.837 205.933 630.296 206.232 629.81 206.68C629.362 207.091 628.989 207.651 628.69 208.36C628.392 209.032 628.242 209.872 628.242 210.88C628.242 212.859 628.541 214.184 629.138 214.856C629.736 215.528 630.632 215.864 631.826 215.864C632.274 215.864 632.741 215.733 633.226 215.472C633.712 215.211 634.16 214.837 634.57 214.352C635.018 213.867 635.373 213.325 635.634 212.728C635.933 212.093 636.082 211.403 636.082 210.656V205.784ZM663.09 219H658.89V194.752H653.57L653.458 198C653.458 198.485 653.439 199.232 653.402 200.24C653.364 201.248 653.308 202.368 653.234 203.6C653.159 204.795 653.066 206.027 652.954 207.296C652.879 208.528 652.767 209.648 652.618 210.656C652.431 211.851 652.17 212.952 651.834 213.96C651.535 214.968 651.087 215.845 650.49 216.592C649.892 217.339 649.146 217.936 648.25 218.384C647.354 218.795 646.234 219 644.89 219H644.218V215.528H644.722C645.618 215.528 646.346 215.267 646.906 214.744C647.466 214.221 647.895 213.531 648.194 212.672C648.53 211.776 648.754 210.787 648.866 209.704C649.015 208.584 649.146 207.464 649.258 206.344C649.295 205.784 649.332 205.112 649.37 204.328C649.407 203.507 649.426 202.685 649.426 201.864C649.463 201.043 649.5 200.277 649.538 199.568C649.575 198.821 649.594 198.243 649.594 197.832L649.762 191.224H663.09V219ZM674.246 191.224V202.312H677.998C678.782 202.312 679.622 202.387 680.518 202.536C681.452 202.648 682.31 202.928 683.094 203.376C683.878 203.824 684.532 204.477 685.054 205.336C685.577 206.195 685.838 207.352 685.838 208.808V212.168C685.838 214.632 685.11 216.387 683.654 217.432C682.236 218.477 680.35 219 677.998 219H670.046V191.224H674.246ZM674.246 215.472H677.662C678.11 215.472 678.558 215.416 679.006 215.304C679.492 215.192 679.921 215.005 680.294 214.744C680.705 214.445 681.022 214.072 681.246 213.624C681.508 213.139 681.638 212.541 681.638 211.832V209.536C681.638 208.155 681.209 207.203 680.35 206.68C679.529 206.12 678.633 205.84 677.662 205.84H674.246V215.472ZM691.429 191.224H695.629V203.096H703.245V191.224H707.445V219H703.245V206.68H695.629V219H691.429V191.224ZM734.446 191.224H738.646V219H734.446V191.224ZM718.598 191.224V202.312H722.35C723.134 202.312 723.974 202.387 724.87 202.536C725.803 202.648 726.662 202.928 727.446 203.376C728.23 203.824 728.883 204.477 729.406 205.336C729.928 206.195 730.19 207.352 730.19 208.808V212.168C730.19 214.632 729.462 216.387 728.006 217.432C726.587 218.477 724.702 219 722.35 219H714.398V191.224H718.598ZM718.598 215.472H722.014C722.462 215.472 722.91 215.416 723.358 215.304C723.843 215.192 724.272 215.005 724.646 214.744C725.056 214.445 725.374 214.072 725.598 213.624C725.859 213.139 725.99 212.541 725.99 211.832V209.536C725.99 208.155 725.56 207.203 724.702 206.68C723.88 206.12 722.984 205.84 722.014 205.84H718.598V215.472ZM749.77 191.224V209.648L758.562 194.64V191.224H762.762V219H758.562V201.08L749.77 216.088V219H745.57V191.224H749.77ZM756.658 180.696H760.074V181.256C760.074 181.965 759.98 182.731 759.794 183.552C759.607 184.336 759.196 185.027 758.562 185.624C757.927 186.259 757.18 186.651 756.322 186.8C755.5 186.949 754.772 187.024 754.138 187.024C753.503 187.024 752.756 186.949 751.898 186.8C751.076 186.651 750.348 186.259 749.714 185.624C749.079 185.027 748.668 184.336 748.482 183.552C748.295 182.731 748.202 181.965 748.202 181.256V180.696H751.618V181.256C751.618 181.555 751.636 181.872 751.674 182.208C751.748 182.544 751.86 182.861 752.01 183.16C752.196 183.459 752.458 183.72 752.794 183.944C753.13 184.131 753.578 184.224 754.138 184.224C754.698 184.224 755.146 184.131 755.482 183.944C755.818 183.72 756.06 183.459 756.21 183.16C756.396 182.861 756.508 182.544 756.546 182.208C756.62 181.872 756.658 181.555 756.658 181.256V180.696ZM782.757 191.224H798.437V219H794.237V194.752H786.957V219H782.757V191.224ZM805.174 198.616C805.174 198.093 805.267 197.403 805.454 196.544C805.64 195.648 806.014 194.771 806.574 193.912C807.171 193.053 807.992 192.325 809.038 191.728C810.083 191.093 811.464 190.776 813.182 190.776C814.899 190.776 816.28 191.093 817.326 191.728C818.371 192.325 819.174 193.053 819.734 193.912C820.331 194.771 820.723 195.648 820.91 196.544C821.096 197.403 821.19 198.075 821.19 198.56V211.496C821.19 212.056 821.096 212.784 820.91 213.68C820.723 214.576 820.331 215.453 819.734 216.312C819.174 217.171 818.371 217.917 817.326 218.552C816.28 219.149 814.899 219.448 813.182 219.448C811.464 219.448 810.083 219.149 809.038 218.552C807.992 217.917 807.171 217.171 806.574 216.312C806.014 215.453 805.64 214.576 805.454 213.68C805.267 212.784 805.174 212.056 805.174 211.496V198.616ZM816.99 199.4C816.99 197.832 816.616 196.693 815.87 195.984C815.123 195.237 814.227 194.864 813.182 194.864C812.136 194.864 811.24 195.237 810.494 195.984C809.747 196.693 809.374 197.832 809.374 199.4V210.824C809.374 212.28 809.691 213.4 810.326 214.184C810.998 214.968 811.95 215.36 813.182 215.36C814.376 215.36 815.31 214.987 815.982 214.24C816.654 213.493 816.99 212.355 816.99 210.824V199.4ZM843.777 219H839.577V194.752H834.257L834.145 198C834.145 198.485 834.126 199.232 834.089 200.24C834.052 201.248 833.996 202.368 833.921 203.6C833.846 204.795 833.753 206.027 833.641 207.296C833.566 208.528 833.454 209.648 833.305 210.656C833.118 211.851 832.857 212.952 832.521 213.96C832.222 214.968 831.774 215.845 831.177 216.592C830.58 217.339 829.833 217.936 828.937 218.384C828.041 218.795 826.921 219 825.577 219H824.905V215.528H825.409C826.305 215.528 827.033 215.267 827.593 214.744C828.153 214.221 828.582 213.531 828.881 212.672C829.217 211.776 829.441 210.787 829.553 209.704C829.702 208.584 829.833 207.464 829.945 206.344C829.982 205.784 830.02 205.112 830.057 204.328C830.094 203.507 830.113 202.685 830.113 201.864C830.15 201.043 830.188 200.277 830.225 199.568C830.262 198.821 830.281 198.243 830.281 197.832L830.449 191.224H843.777V219ZM855.55 179.8L854.318 208.808H851.294L850.342 179.8H855.55ZM855.214 214.24V219H850.454V214.24H855.214ZM283.813 246.8V264.328H293.277V246.8H297.477V286H293.277V267.968H283.813V286H279.613V246.8H283.813ZM316.297 283.256H316.241C315.905 283.667 315.55 284.059 315.177 284.432C314.804 284.805 314.374 285.141 313.889 285.44C313.404 285.739 312.844 285.981 312.209 286.168C311.612 286.355 310.865 286.448 309.969 286.448C308.849 286.448 307.916 286.261 307.169 285.888C306.46 285.477 305.881 284.917 305.433 284.208C305.022 283.499 304.724 282.677 304.537 281.744C304.35 280.811 304.257 279.784 304.257 278.664C304.257 277.208 304.388 275.92 304.649 274.8C304.91 273.643 305.358 272.672 305.993 271.888C306.628 271.104 307.449 270.507 308.457 270.096C309.502 269.685 310.809 269.48 312.377 269.48C312.676 269.48 313.105 269.499 313.665 269.536C314.225 269.536 315.102 269.592 316.297 269.704V265.616C316.297 265.243 316.222 264.832 316.073 264.384C315.924 263.936 315.681 263.525 315.345 263.152C315.046 262.779 314.654 262.48 314.169 262.256C313.684 261.995 313.086 261.864 312.377 261.864C312.004 261.864 311.612 261.92 311.201 262.032C310.828 262.107 310.454 262.275 310.081 262.536C309.745 262.797 309.428 263.152 309.129 263.6C308.868 264.048 308.681 264.608 308.569 265.28H304.537C304.537 264.123 304.742 263.077 305.153 262.144C305.601 261.211 306.18 260.427 306.889 259.792C307.636 259.12 308.494 258.616 309.465 258.28C310.473 257.944 311.537 257.776 312.657 257.776C314.262 257.776 315.569 258.056 316.577 258.616C317.622 259.139 318.425 259.811 318.985 260.632C319.582 261.416 319.974 262.312 320.161 263.32C320.385 264.291 320.497 265.224 320.497 266.12V286H316.297V283.256ZM316.297 272.784C315.7 272.709 315.158 272.653 314.673 272.616C314.188 272.541 313.777 272.504 313.441 272.504C312.844 272.504 312.246 272.597 311.649 272.784C311.052 272.933 310.51 273.232 310.025 273.68C309.577 274.091 309.204 274.651 308.905 275.36C308.606 276.032 308.457 276.872 308.457 277.88C308.457 279.859 308.756 281.184 309.353 281.856C309.95 282.528 310.846 282.864 312.041 282.864C312.489 282.864 312.956 282.733 313.441 282.472C313.926 282.211 314.374 281.837 314.785 281.352C315.233 280.867 315.588 280.325 315.849 279.728C316.148 279.093 316.297 278.403 316.297 277.656V272.784ZM338.096 270.152V258.224H342.296V270.152H344.76C345.432 270.152 345.974 270.003 346.384 269.704C346.795 269.368 347.112 268.957 347.336 268.472C347.598 267.987 347.766 267.464 347.84 266.904C347.952 266.307 348.046 265.747 348.12 265.224L348.456 262.76C348.568 262.051 348.718 261.397 348.904 260.8C349.091 260.203 349.371 259.699 349.744 259.288C350.155 258.84 350.696 258.504 351.368 258.28C352.078 258.056 352.992 257.944 354.112 257.944H354.616V261.36H354.112C353.366 261.36 352.843 261.64 352.544 262.2C352.246 262.76 352.022 263.563 351.872 264.608L351.536 266.904C351.35 268.099 351.163 269.051 350.976 269.76C350.79 270.469 350.342 271.123 349.632 271.72L354.616 286H350.472L346.104 273.4H342.296V286H338.096V273.4H334.288L329.92 286H325.776L330.76 271.72C330.051 271.123 329.603 270.469 329.416 269.76C329.23 269.051 329.043 268.099 328.856 266.904L328.52 264.608C328.371 263.563 328.147 262.76 327.848 262.2C327.55 261.64 327.027 261.36 326.28 261.36H325.776V257.944H326.28C327.4 257.944 328.296 258.056 328.968 258.28C329.678 258.504 330.219 258.84 330.592 259.288C331.003 259.699 331.302 260.203 331.488 260.8C331.675 261.397 331.824 262.051 331.936 262.76L332.272 265.224C332.347 265.747 332.422 266.307 332.496 266.904C332.608 267.464 332.776 267.987 333 268.472C333.262 268.957 333.598 269.368 334.008 269.704C334.419 270.003 334.96 270.152 335.632 270.152H338.096ZM364.086 258.224V276.648L372.878 261.64V258.224H377.078V286H372.878V268.08L364.086 283.088V286H359.886V258.224H364.086ZM394.643 275.36L401.139 258.224H405.171V286H401.195V267.632L395.539 282.024H393.635L387.979 267.632V286H384.003V258.224H387.979L394.643 275.36ZM423.649 283.256H423.593C423.257 283.667 422.902 284.059 422.529 284.432C422.155 284.805 421.726 285.141 421.241 285.44C420.755 285.739 420.195 285.981 419.561 286.168C418.963 286.355 418.217 286.448 417.321 286.448C416.201 286.448 415.267 286.261 414.521 285.888C413.811 285.477 413.233 284.917 412.785 284.208C412.374 283.499 412.075 282.677 411.889 281.744C411.702 280.811 411.609 279.784 411.609 278.664C411.609 277.208 411.739 275.92 412.001 274.8C412.262 273.643 412.71 272.672 413.345 271.888C413.979 271.104 414.801 270.507 415.809 270.096C416.854 269.685 418.161 269.48 419.729 269.48C420.027 269.48 420.457 269.499 421.017 269.536C421.577 269.536 422.454 269.592 423.649 269.704V265.616C423.649 265.243 423.574 264.832 423.425 264.384C423.275 263.936 423.033 263.525 422.697 263.152C422.398 262.779 422.006 262.48 421.521 262.256C421.035 261.995 420.438 261.864 419.729 261.864C419.355 261.864 418.963 261.92 418.553 262.032C418.179 262.107 417.806 262.275 417.433 262.536C417.097 262.797 416.779 263.152 416.481 263.6C416.219 264.048 416.033 264.608 415.921 265.28H411.889C411.889 264.123 412.094 263.077 412.505 262.144C412.953 261.211 413.531 260.427 414.241 259.792C414.987 259.12 415.846 258.616 416.817 258.28C417.825 257.944 418.889 257.776 420.009 257.776C421.614 257.776 422.921 258.056 423.929 258.616C424.974 259.139 425.777 259.811 426.337 260.632C426.934 261.416 427.326 262.312 427.513 263.32C427.737 264.291 427.849 265.224 427.849 266.12V286H423.649V283.256ZM423.649 272.784C423.051 272.709 422.51 272.653 422.025 272.616C421.539 272.541 421.129 272.504 420.793 272.504C420.195 272.504 419.598 272.597 419.001 272.784C418.403 272.933 417.862 273.232 417.377 273.68C416.929 274.091 416.555 274.651 416.257 275.36C415.958 276.032 415.809 276.872 415.809 277.88C415.809 279.859 416.107 281.184 416.705 281.856C417.302 282.528 418.198 282.864 419.393 282.864C419.841 282.864 420.307 282.733 420.793 282.472C421.278 282.211 421.726 281.837 422.137 281.352C422.585 280.867 422.939 280.325 423.201 279.728C423.499 279.093 423.649 278.403 423.649 277.656V272.784ZM439.008 258.224V276.648L447.8 261.64V258.224H452V286H447.8V268.08L439.008 283.088V286H434.808V258.224H439.008ZM445.896 247.696H449.312V248.256C449.312 248.965 449.219 249.731 449.032 250.552C448.845 251.336 448.435 252.027 447.8 252.624C447.165 253.259 446.419 253.651 445.56 253.8C444.739 253.949 444.011 254.024 443.376 254.024C442.741 254.024 441.995 253.949 441.136 253.8C440.315 253.651 439.587 253.259 438.952 252.624C438.317 252.027 437.907 251.336 437.72 250.552C437.533 249.731 437.44 248.965 437.44 248.256V247.696H440.856V248.256C440.856 248.555 440.875 248.872 440.912 249.208C440.987 249.544 441.099 249.861 441.248 250.16C441.435 250.459 441.696 250.72 442.032 250.944C442.368 251.131 442.816 251.224 443.376 251.224C443.936 251.224 444.384 251.131 444.72 250.944C445.056 250.72 445.299 250.459 445.448 250.16C445.635 249.861 445.747 249.544 445.784 249.208C445.859 248.872 445.896 248.555 445.896 248.256V247.696ZM471.995 258.224H476.195V270.096H483.811V258.224H488.011V286H483.811V273.68H476.195V286H471.995V258.224ZM506.5 283.256H506.444C506.108 283.667 505.754 284.059 505.38 284.432C505.007 284.805 504.578 285.141 504.092 285.44C503.607 285.739 503.047 285.981 502.412 286.168C501.815 286.355 501.068 286.448 500.172 286.448C499.052 286.448 498.119 286.261 497.372 285.888C496.663 285.477 496.084 284.917 495.636 284.208C495.226 283.499 494.927 282.677 494.74 281.744C494.554 280.811 494.46 279.784 494.46 278.664C494.46 277.208 494.591 275.92 494.852 274.8C495.114 273.643 495.562 272.672 496.196 271.888C496.831 271.104 497.652 270.507 498.66 270.096C499.706 269.685 501.012 269.48 502.58 269.48C502.879 269.48 503.308 269.499 503.868 269.536C504.428 269.536 505.306 269.592 506.5 269.704V265.616C506.5 265.243 506.426 264.832 506.276 264.384C506.127 263.936 505.884 263.525 505.548 263.152C505.25 262.779 504.858 262.48 504.372 262.256C503.887 261.995 503.29 261.864 502.58 261.864C502.207 261.864 501.815 261.92 501.404 262.032C501.031 262.107 500.658 262.275 500.284 262.536C499.948 262.797 499.631 263.152 499.332 263.6C499.071 264.048 498.884 264.608 498.772 265.28H494.74C494.74 264.123 494.946 263.077 495.356 262.144C495.804 261.211 496.383 260.427 497.092 259.792C497.839 259.12 498.698 258.616 499.668 258.28C500.676 257.944 501.74 257.776 502.86 257.776C504.466 257.776 505.772 258.056 506.78 258.616C507.826 259.139 508.628 259.811 509.188 260.632C509.786 261.416 510.178 262.312 510.364 263.32C510.588 264.291 510.7 265.224 510.7 266.12V286H506.5V283.256ZM506.5 272.784C505.903 272.709 505.362 272.653 504.876 272.616C504.391 272.541 503.98 272.504 503.644 272.504C503.047 272.504 502.45 272.597 501.852 272.784C501.255 272.933 500.714 273.232 500.228 273.68C499.78 274.091 499.407 274.651 499.108 275.36C498.81 276.032 498.66 276.872 498.66 277.88C498.66 279.859 498.959 281.184 499.556 281.856C500.154 282.528 501.05 282.864 502.244 282.864C502.692 282.864 503.159 282.733 503.644 282.472C504.13 282.211 504.578 281.837 504.988 281.352C505.436 280.867 505.791 280.325 506.052 279.728C506.351 279.093 506.5 278.403 506.5 277.656V272.784ZM538.066 270.04C538.738 270.04 539.279 269.891 539.69 269.592C540.1 269.293 540.418 268.901 540.642 268.416C540.903 267.931 541.071 267.408 541.146 266.848C541.258 266.288 541.351 265.747 541.426 265.224L541.762 262.76C541.874 262.051 542.023 261.397 542.21 260.8C542.396 260.203 542.676 259.699 543.05 259.288C543.46 258.84 544.002 258.504 544.674 258.28C545.383 258.056 546.298 257.944 547.418 257.944H548.034V261.472H547.418C546.671 261.472 546.148 261.733 545.85 262.256C545.551 262.779 545.327 263.563 545.178 264.608L544.842 266.904C544.655 268.099 544.468 269.051 544.282 269.76C544.095 270.469 543.647 271.123 542.938 271.72L547.922 286H543.778L539.41 273.4H534.93V286H530.73V258.224H534.93V270.04H538.066ZM553.146 265.616C553.146 265.093 553.24 264.403 553.426 263.544C553.613 262.648 553.986 261.771 554.546 260.912C555.144 260.053 555.965 259.325 557.01 258.728C558.056 258.093 559.437 257.776 561.154 257.776C562.872 257.776 564.253 258.093 565.298 258.728C566.344 259.325 567.146 260.053 567.706 260.912C568.304 261.771 568.696 262.648 568.882 263.544C569.069 264.403 569.162 265.075 569.162 265.56V278.496C569.162 279.056 569.069 279.784 568.882 280.68C568.696 281.576 568.304 282.453 567.706 283.312C567.146 284.171 566.344 284.917 565.298 285.552C564.253 286.149 562.872 286.448 561.154 286.448C559.437 286.448 558.056 286.149 557.01 285.552C555.965 284.917 555.144 284.171 554.546 283.312C553.986 282.453 553.613 281.576 553.426 280.68C553.24 279.784 553.146 279.056 553.146 278.496V265.616ZM564.962 266.4C564.962 264.832 564.589 263.693 563.842 262.984C563.096 262.237 562.2 261.864 561.154 261.864C560.109 261.864 559.213 262.237 558.466 262.984C557.72 263.693 557.346 264.832 557.346 266.4V277.824C557.346 279.28 557.664 280.4 558.298 281.184C558.97 281.968 559.922 282.36 561.154 282.36C562.349 282.36 563.282 281.987 563.954 281.24C564.626 280.493 564.962 279.355 564.962 277.824V266.4ZM575.902 258.224H591.582V286H587.382V261.752H580.102V286H575.902V258.224ZM618.59 258.224H622.79V286H618.59V258.224ZM602.742 258.224V269.312H606.494C607.278 269.312 608.118 269.387 609.014 269.536C609.948 269.648 610.806 269.928 611.59 270.376C612.374 270.824 613.028 271.477 613.55 272.336C614.073 273.195 614.334 274.352 614.334 275.808V279.168C614.334 281.632 613.606 283.387 612.15 284.432C610.732 285.477 608.846 286 606.494 286H598.542V258.224H602.742ZM602.742 282.472H606.158C606.606 282.472 607.054 282.416 607.502 282.304C607.988 282.192 608.417 282.005 608.79 281.744C609.201 281.445 609.518 281.072 609.742 280.624C610.004 280.139 610.134 279.541 610.134 278.832V276.536C610.134 275.155 609.705 274.203 608.846 273.68C608.025 273.12 607.129 272.84 606.158 272.84H602.742V282.472ZM637.33 261.752V286H633.13V261.752H627.25V258.224H643.21V261.752H637.33ZM658.422 283.256H658.366C658.03 283.667 657.675 284.059 657.302 284.432C656.929 284.805 656.499 285.141 656.014 285.44C655.529 285.739 654.969 285.981 654.334 286.168C653.737 286.355 652.99 286.448 652.094 286.448C650.974 286.448 650.041 286.261 649.294 285.888C648.585 285.477 648.006 284.917 647.558 284.208C647.147 283.499 646.849 282.677 646.662 281.744C646.475 280.811 646.382 279.784 646.382 278.664C646.382 277.208 646.513 275.92 646.774 274.8C647.035 273.643 647.483 272.672 648.118 271.888C648.753 271.104 649.574 270.507 650.582 270.096C651.627 269.685 652.934 269.48 654.502 269.48C654.801 269.48 655.23 269.499 655.79 269.536C656.35 269.536 657.227 269.592 658.422 269.704V265.616C658.422 265.243 658.347 264.832 658.198 264.384C658.049 263.936 657.806 263.525 657.47 263.152C657.171 262.779 656.779 262.48 656.294 262.256C655.809 261.995 655.211 261.864 654.502 261.864C654.129 261.864 653.737 261.92 653.326 262.032C652.953 262.107 652.579 262.275 652.206 262.536C651.87 262.797 651.553 263.152 651.254 263.6C650.993 264.048 650.806 264.608 650.694 265.28H646.662C646.662 264.123 646.867 263.077 647.278 262.144C647.726 261.211 648.305 260.427 649.014 259.792C649.761 259.12 650.619 258.616 651.59 258.28C652.598 257.944 653.662 257.776 654.782 257.776C656.387 257.776 657.694 258.056 658.702 258.616C659.747 259.139 660.55 259.811 661.11 260.632C661.707 261.416 662.099 262.312 662.286 263.32C662.51 264.291 662.622 265.224 662.622 266.12V286H658.422V283.256ZM658.422 272.784C657.825 272.709 657.283 272.653 656.798 272.616C656.313 272.541 655.902 272.504 655.566 272.504C654.969 272.504 654.371 272.597 653.774 272.784C653.177 272.933 652.635 273.232 652.15 273.68C651.702 274.091 651.329 274.651 651.03 275.36C650.731 276.032 650.582 276.872 650.582 277.88C650.582 279.859 650.881 281.184 651.478 281.856C652.075 282.528 652.971 282.864 654.166 282.864C654.614 282.864 655.081 282.733 655.566 282.472C656.051 282.211 656.499 281.837 656.91 281.352C657.358 280.867 657.713 280.325 657.974 279.728C658.273 279.093 658.422 278.403 658.422 277.656V272.784ZM674.285 281.24V286.504L669.469 290.816V281.24H674.285ZM300.598 341.296C299.627 341.781 298.656 342.099 297.686 342.248C296.715 342.36 295.819 342.416 294.998 342.416C293.131 342.416 291.675 341.949 290.63 341.016C289.584 340.083 289.062 338.44 289.062 336.088V325.224H293.262V335.192C293.262 337.619 294.475 338.832 296.902 338.832C297.648 338.832 298.32 338.739 298.918 338.552C299.515 338.328 300.075 338.067 300.598 337.768V325.224H304.798V353H300.598V341.296ZM319.35 328.752V353H315.15V328.752H309.27V325.224H325.23V328.752H319.35ZM329.502 332.616C329.502 332.093 329.595 331.403 329.782 330.544C329.969 329.648 330.342 328.771 330.902 327.912C331.499 327.053 332.321 326.325 333.366 325.728C334.411 325.093 335.793 324.776 337.51 324.776C339.227 324.776 340.609 325.093 341.654 325.728C342.699 326.325 343.502 327.053 344.062 327.912C344.659 328.771 345.051 329.648 345.238 330.544C345.425 331.403 345.518 332.075 345.518 332.56V345.496C345.518 346.056 345.425 346.784 345.238 347.68C345.051 348.576 344.659 349.453 344.062 350.312C343.502 351.171 342.699 351.917 341.654 352.552C340.609 353.149 339.227 353.448 337.51 353.448C335.793 353.448 334.411 353.149 333.366 352.552C332.321 351.917 331.499 351.171 330.902 350.312C330.342 349.453 329.969 348.576 329.782 347.68C329.595 346.784 329.502 346.056 329.502 345.496V332.616ZM341.318 333.4C341.318 331.832 340.945 330.693 340.198 329.984C339.451 329.237 338.555 328.864 337.51 328.864C336.465 328.864 335.569 329.237 334.822 329.984C334.075 330.693 333.702 331.832 333.702 333.4V344.824C333.702 346.28 334.019 347.4 334.654 348.184C335.326 348.968 336.278 349.36 337.51 349.36C338.705 349.36 339.638 348.987 340.31 348.24C340.982 347.493 341.318 346.355 341.318 344.824V333.4ZM352.257 329.76C352.257 328.379 352.332 326.979 352.481 325.56C352.668 324.104 353.134 322.816 353.881 321.696C354.516 320.725 355.206 319.979 355.953 319.456C356.737 318.933 357.521 318.523 358.305 318.224C358.79 318.037 359.276 317.869 359.761 317.72C360.284 317.533 360.75 317.365 361.161 317.216C363.102 316.544 364.073 315.555 364.073 314.248V313.8H367.769V314.528C367.769 315.013 367.75 315.555 367.713 316.152C367.676 316.712 367.545 317.216 367.321 317.664C366.91 318.411 366.332 318.971 365.585 319.344C364.876 319.68 363.998 320.016 362.953 320.352L360.153 321.304C359.63 321.491 359.052 321.752 358.417 322.088C357.82 322.387 357.297 322.835 356.849 323.432C356.438 323.992 356.121 324.645 355.897 325.392C355.71 326.139 355.617 326.829 355.617 327.464V328.864H355.785C356.308 327.893 357.073 327.053 358.081 326.344C359.126 325.597 360.545 325.224 362.337 325.224C363.27 325.224 364.092 325.373 364.801 325.672C365.51 325.971 366.07 326.325 366.481 326.736C367.004 327.221 367.433 327.837 367.769 328.584C368.105 329.293 368.273 330.115 368.273 331.048V344.488C368.273 345.011 368.254 345.589 368.217 346.224C368.18 346.821 368.068 347.437 367.881 348.072C367.732 348.707 367.47 349.341 367.097 349.976C366.761 350.573 366.294 351.115 365.697 351.6C364.95 352.235 364.092 352.701 363.121 353C362.188 353.299 361.236 353.448 360.265 353.448C359.294 353.448 358.324 353.299 357.353 353C356.42 352.739 355.58 352.291 354.833 351.656C354.236 351.171 353.75 350.629 353.377 350.032C353.041 349.397 352.78 348.763 352.593 348.128C352.444 347.456 352.35 346.821 352.313 346.224C352.276 345.589 352.257 345.011 352.257 344.488V329.76ZM364.073 333.4C364.073 332.653 363.961 331.981 363.737 331.384C363.513 330.787 363.252 330.32 362.953 329.984C362.206 329.237 361.31 328.864 360.265 328.864C359.742 328.864 359.238 328.976 358.753 329.2C358.305 329.424 357.913 329.704 357.577 330.04C357.278 330.376 357.017 330.88 356.793 331.552C356.569 332.187 356.457 332.877 356.457 333.624V344.824C356.457 345.608 356.569 346.299 356.793 346.896C357.017 347.493 357.278 347.979 357.577 348.352C357.876 348.651 358.249 348.893 358.697 349.08C359.182 349.267 359.705 349.36 360.265 349.36C360.825 349.36 361.329 349.267 361.777 349.08C362.262 348.893 362.654 348.651 362.953 348.352C363.252 347.979 363.513 347.493 363.737 346.896C363.961 346.299 364.073 345.608 364.073 344.824V333.4ZM395.055 325.224H399.255V353H395.055V325.224ZM379.207 325.224V336.312H382.959C383.743 336.312 384.583 336.387 385.479 336.536C386.412 336.648 387.271 336.928 388.055 337.376C388.839 337.824 389.492 338.477 390.015 339.336C390.538 340.195 390.799 341.352 390.799 342.808V346.168C390.799 348.632 390.071 350.387 388.615 351.432C387.196 352.477 385.311 353 382.959 353H375.007V325.224H379.207ZM379.207 349.472H382.623C383.071 349.472 383.519 349.416 383.967 349.304C384.452 349.192 384.882 349.005 385.255 348.744C385.666 348.445 385.983 348.072 386.207 347.624C386.468 347.139 386.599 346.541 386.599 345.832V343.536C386.599 342.155 386.17 341.203 385.311 340.68C384.49 340.12 383.594 339.84 382.623 339.84H379.207V349.472ZM419.025 332.616C419.025 332.093 419.119 331.403 419.305 330.544C419.492 329.648 419.865 328.771 420.425 327.912C421.023 327.053 421.844 326.325 422.889 325.728C423.935 325.093 425.316 324.776 427.033 324.776C428.751 324.776 430.132 325.093 431.177 325.728C432.223 326.325 433.025 327.053 433.585 327.912C434.183 328.771 434.575 329.648 434.761 330.544C434.948 331.403 435.041 332.075 435.041 332.56V345.496C435.041 346.056 434.948 346.784 434.761 347.68C434.575 348.576 434.183 349.453 433.585 350.312C433.025 351.171 432.223 351.917 431.177 352.552C430.132 353.149 428.751 353.448 427.033 353.448C425.316 353.448 423.935 353.149 422.889 352.552C421.844 351.917 421.023 351.171 420.425 350.312C419.865 349.453 419.492 348.576 419.305 347.68C419.119 346.784 419.025 346.056 419.025 345.496V332.616ZM430.841 333.4C430.841 331.832 430.468 330.693 429.721 329.984C428.975 329.237 428.079 328.864 427.033 328.864C425.988 328.864 425.092 329.237 424.345 329.984C423.599 330.693 423.225 331.832 423.225 333.4V344.824C423.225 346.28 423.543 347.4 424.177 348.184C424.849 348.968 425.801 349.36 427.033 349.36C428.228 349.36 429.161 348.987 429.833 348.24C430.505 347.493 430.841 346.355 430.841 344.824V333.4ZM441.781 325.224H445.981V337.096H453.597V325.224H457.797V353H453.597V340.68H445.981V353H441.781V325.224ZM468.949 325.224V343.648L477.741 328.64V325.224H481.941V353H477.741V335.08L468.949 350.088V353H464.749V325.224H468.949ZM506.137 325.224V343.648L514.929 328.64V325.224H519.129V353H514.929V335.08L506.137 350.088V353H501.937V325.224H506.137ZM537.87 344.488H542.07V345.608C542.07 346.28 541.939 347.083 541.678 348.016C541.454 348.912 541.025 349.771 540.39 350.592C539.793 351.376 538.971 352.048 537.926 352.608C536.881 353.168 535.555 353.448 533.95 353.448C532.195 353.448 530.795 353.149 529.75 352.552C528.705 351.917 527.883 351.171 527.286 350.312C526.689 349.453 526.297 348.576 526.11 347.68C525.923 346.747 525.83 345.981 525.83 345.384V332.784C525.83 332.224 525.923 331.496 526.11 330.6C526.297 329.667 526.689 328.771 527.286 327.912C527.883 327.053 528.705 326.325 529.75 325.728C530.795 325.093 532.195 324.776 533.95 324.776C535.593 324.776 536.937 325.056 537.982 325.616C539.065 326.176 539.905 326.867 540.502 327.688C541.099 328.509 541.51 329.368 541.734 330.264C541.958 331.123 542.07 331.888 542.07 332.56V333.792H537.87V333.4C537.87 331.832 537.478 330.693 536.694 329.984C535.947 329.237 535.033 328.864 533.95 328.864C532.867 328.864 531.934 329.237 531.15 329.984C530.403 330.693 530.03 331.832 530.03 333.4V344.824C530.03 347.848 531.337 349.36 533.95 349.36C535.182 349.36 536.134 348.987 536.806 348.24C537.515 347.493 537.87 346.355 537.87 344.824V344.488ZM557.738 341.296C556.768 341.781 555.797 342.099 554.826 342.248C553.856 342.36 552.96 342.416 552.138 342.416C550.272 342.416 548.816 341.949 547.77 341.016C546.725 340.083 546.202 338.44 546.202 336.088V325.224H550.402V335.192C550.402 337.619 551.616 338.832 554.042 338.832C554.789 338.832 555.461 338.739 556.058 338.552C556.656 338.328 557.216 338.067 557.738 337.768V325.224H561.938V353H557.738V341.296ZM580.298 345.216H584.498V345.608C584.498 346.28 584.386 347.083 584.162 348.016C583.976 348.912 583.602 349.771 583.042 350.592C582.482 351.376 581.698 352.048 580.69 352.608C579.682 353.168 578.376 353.448 576.77 353.448C575.016 353.448 573.616 353.149 572.57 352.552C571.525 351.917 570.704 351.171 570.106 350.312C569.509 349.453 569.117 348.576 568.93 347.68C568.744 346.747 568.65 345.981 568.65 345.384V332.504C568.65 331.944 568.744 331.235 568.93 330.376C569.117 329.517 569.49 328.677 570.05 327.856C570.61 326.997 571.394 326.269 572.402 325.672C573.448 325.075 574.81 324.776 576.49 324.776C578.133 324.776 579.477 325.075 580.522 325.672C581.605 326.269 582.445 326.997 583.042 327.856C583.64 328.677 584.05 329.555 584.274 330.488C584.498 331.384 584.61 332.131 584.61 332.728V340.68H572.85V345.104C572.85 346.597 573.168 347.68 573.802 348.352C574.474 349.024 575.464 349.36 576.77 349.36C578.002 349.36 578.898 349.024 579.458 348.352C580.018 347.643 580.298 346.709 580.298 345.552V345.216ZM580.41 337.544V332.784C580.41 332.336 580.354 331.888 580.242 331.44C580.13 330.955 579.925 330.525 579.626 330.152C579.328 329.779 578.936 329.48 578.45 329.256C577.965 328.995 577.368 328.864 576.658 328.864C575.912 328.864 575.296 328.995 574.81 329.256C574.325 329.517 573.933 329.853 573.634 330.264C573.336 330.675 573.13 331.123 573.018 331.608C572.906 332.093 572.85 332.56 572.85 333.008V337.544H580.41ZM589.844 332.56C589.844 331.888 589.937 331.123 590.124 330.264C590.348 329.368 590.74 328.509 591.3 327.688C591.897 326.867 592.719 326.176 593.764 325.616C594.847 325.056 596.228 324.776 597.908 324.776C600.297 324.776 602.164 325.411 603.508 326.68C604.889 327.949 605.58 329.76 605.58 332.112V333.176C605.58 334.744 605.188 335.957 604.404 336.816C603.657 337.675 602.799 338.272 601.828 338.608C602.799 338.832 603.545 339.187 604.068 339.672C604.628 340.157 605.02 340.68 605.244 341.24C605.505 341.8 605.655 342.36 605.692 342.92C605.767 343.48 605.804 343.928 605.804 344.264V345.944C605.804 348.221 605.057 350.051 603.564 351.432C602.108 352.776 600.167 353.448 597.74 353.448C596.135 353.448 594.809 353.187 593.764 352.664C592.756 352.141 591.953 351.488 591.356 350.704C590.759 349.92 590.348 349.08 590.124 348.184C589.9 347.251 589.788 346.392 589.788 345.608V344.544H593.988V345.16C593.988 346.691 594.305 347.773 594.94 348.408C595.575 349.043 596.508 349.36 597.74 349.36C599.196 349.36 600.204 348.968 600.764 348.184C601.324 347.4 601.604 346.429 601.604 345.272V344.544C601.604 343.013 601.249 341.987 600.54 341.464C599.868 340.941 598.991 340.68 597.908 340.68H595.78V337.208H597.74C598.823 337.208 599.7 336.816 600.372 336.032C601.044 335.211 601.38 334.259 601.38 333.176V332.168C601.38 331.16 601.007 330.357 600.26 329.76C599.551 329.163 598.767 328.864 597.908 328.864C596.751 328.864 595.817 329.219 595.108 329.928C594.399 330.637 594.044 331.776 594.044 333.344V333.736H589.844V332.56ZM628.09 353H623.89V328.752H618.57L618.458 332C618.458 332.485 618.439 333.232 618.402 334.24C618.364 335.248 618.308 336.368 618.234 337.6C618.159 338.795 618.066 340.027 617.954 341.296C617.879 342.528 617.767 343.648 617.618 344.656C617.431 345.851 617.17 346.952 616.834 347.96C616.535 348.968 616.087 349.845 615.49 350.592C614.892 351.339 614.146 351.936 613.25 352.384C612.354 352.795 611.234 353 609.89 353H609.218V349.528H609.722C610.618 349.528 611.346 349.267 611.906 348.744C612.466 348.221 612.895 347.531 613.194 346.672C613.53 345.776 613.754 344.787 613.866 343.704C614.015 342.584 614.146 341.464 614.258 340.344C614.295 339.784 614.332 339.112 614.37 338.328C614.407 337.507 614.426 336.685 614.426 335.864C614.463 335.043 614.5 334.277 614.538 333.568C614.575 332.821 614.594 332.243 614.594 331.832L614.762 325.224H628.09V353ZM639.246 325.224V343.648L648.038 328.64V325.224H652.238V353H648.038V335.08L639.246 350.088V353H635.046V325.224H639.246ZM663.979 313.8L662.747 342.808H659.723L658.771 313.8H663.979ZM663.643 348.24V353H658.883V348.24H663.643Z" fill="white"/>
</svg>
