<svg width="951" height="630" viewBox="0 0 951 630" fill="none" xmlns="http://www.w3.org/2000/svg">
<rect x="3" y="3" width="945" height="624" fill="#003DE3" stroke="white" stroke-width="6"/>
<path d="M202.624 141.8V145.664H195.344V181H191.144V145.664H183.92V141.8H202.624ZM215.244 173.216H219.444V173.608C219.444 174.28 219.332 175.083 219.108 176.016C218.921 176.912 218.548 177.771 217.988 178.592C217.428 179.376 216.644 180.048 215.636 180.608C214.628 181.168 213.321 181.448 211.716 181.448C209.961 181.448 208.561 181.149 207.516 180.552C206.47 179.917 205.649 179.171 205.052 178.312C204.454 177.453 204.062 176.576 203.876 175.68C203.689 174.747 203.596 173.981 203.596 173.384V160.504C203.596 159.944 203.689 159.235 203.876 158.376C204.062 157.517 204.436 156.677 204.996 155.856C205.556 154.997 206.34 154.269 207.348 153.672C208.393 153.075 209.756 152.776 211.436 152.776C213.078 152.776 214.422 153.075 215.468 153.672C216.55 154.269 217.39 154.997 217.988 155.856C218.585 156.677 218.996 157.555 219.22 158.488C219.444 159.384 219.556 160.131 219.556 160.728V168.68H207.796V173.104C207.796 174.597 208.113 175.68 208.748 176.352C209.42 177.024 210.409 177.36 211.716 177.36C212.948 177.36 213.844 177.024 214.404 176.352C214.964 175.643 215.244 174.709 215.244 173.552V173.216ZM215.356 165.544V160.784C215.356 160.336 215.3 159.888 215.188 159.44C215.076 158.955 214.87 158.525 214.572 158.152C214.273 157.779 213.881 157.48 213.396 157.256C212.91 156.995 212.313 156.864 211.604 156.864C210.857 156.864 210.241 156.995 209.756 157.256C209.27 157.517 208.878 157.853 208.58 158.264C208.281 158.675 208.076 159.123 207.964 159.608C207.852 160.093 207.796 160.56 207.796 161.008V165.544H215.356ZM226.077 153.224H241.757V181H237.557V156.752H230.277V181H226.077V153.224ZM260.142 173.216H264.342V173.608C264.342 174.28 264.23 175.083 264.006 176.016C263.819 176.912 263.446 177.771 262.886 178.592C262.326 179.376 261.542 180.048 260.534 180.608C259.526 181.168 258.219 181.448 256.614 181.448C254.859 181.448 253.459 181.149 252.414 180.552C251.369 179.917 250.547 179.171 249.95 178.312C249.353 177.453 248.961 176.576 248.774 175.68C248.587 174.747 248.494 173.981 248.494 173.384V160.504C248.494 159.944 248.587 159.235 248.774 158.376C248.961 157.517 249.334 156.677 249.894 155.856C250.454 154.997 251.238 154.269 252.246 153.672C253.291 153.075 254.654 152.776 256.334 152.776C257.977 152.776 259.321 153.075 260.366 153.672C261.449 154.269 262.289 154.997 262.886 155.856C263.483 156.677 263.894 157.555 264.118 158.488C264.342 159.384 264.454 160.131 264.454 160.728V168.68H252.694V173.104C252.694 174.597 253.011 175.68 253.646 176.352C254.318 177.024 255.307 177.36 256.614 177.36C257.846 177.36 258.742 177.024 259.302 176.352C259.862 175.643 260.142 174.709 260.142 173.552V173.216ZM260.254 165.544V160.784C260.254 160.336 260.198 159.888 260.086 159.44C259.974 158.955 259.769 158.525 259.47 158.152C259.171 157.779 258.779 157.48 258.294 157.256C257.809 156.995 257.211 156.864 256.502 156.864C255.755 156.864 255.139 156.995 254.654 157.256C254.169 157.517 253.777 157.853 253.478 158.264C253.179 158.675 252.974 159.123 252.862 159.608C252.75 160.093 252.694 160.56 252.694 161.008V165.544H260.254ZM270.976 153.224H275.176V155.968C276.072 154.773 277.043 153.952 278.088 153.504C279.171 153.019 280.197 152.776 281.168 152.776C282.4 152.776 283.389 152.981 284.136 153.392C284.92 153.803 285.517 154.344 285.928 155.016C286.339 155.651 286.619 156.341 286.768 157.088C286.917 157.835 286.992 158.544 286.992 159.216V175.008C286.992 175.68 286.917 176.389 286.768 177.136C286.619 177.883 286.339 178.592 285.928 179.264C285.517 179.899 284.92 180.421 284.136 180.832C283.389 181.243 282.4 181.448 281.168 181.448C280.197 181.448 279.171 181.224 278.088 180.776C277.043 180.291 276.072 179.451 275.176 178.256V192.424H270.976V153.224ZM279.264 177.36C279.936 177.36 280.496 177.248 280.944 177.024C281.392 176.763 281.747 176.427 282.008 176.016C282.307 175.605 282.512 175.139 282.624 174.616C282.736 174.093 282.792 173.571 282.792 173.048V161.176C282.792 160.653 282.736 160.131 282.624 159.608C282.512 159.085 282.307 158.619 282.008 158.208C281.747 157.797 281.392 157.48 280.944 157.256C280.496 156.995 279.936 156.864 279.264 156.864C278.405 156.864 277.715 157.051 277.192 157.424C276.669 157.797 276.259 158.245 275.96 158.768C275.661 159.291 275.456 159.851 275.344 160.448C275.232 161.008 275.176 161.512 275.176 161.96V172.264C275.176 172.712 275.232 173.235 275.344 173.832C275.456 174.392 275.661 174.933 275.96 175.456C276.259 175.979 276.669 176.427 277.192 176.8C277.715 177.173 278.405 177.36 279.264 177.36ZM298.145 153.224V164.312H301.897C302.681 164.312 303.521 164.387 304.417 164.536C305.35 164.648 306.209 164.928 306.993 165.376C307.777 165.824 308.43 166.477 308.953 167.336C309.475 168.195 309.737 169.352 309.737 170.808V174.168C309.737 176.632 309.009 178.387 307.553 179.432C306.134 180.477 304.249 181 301.897 181H293.945V153.224H298.145ZM298.145 177.472H301.561C302.009 177.472 302.457 177.416 302.905 177.304C303.39 177.192 303.819 177.005 304.193 176.744C304.603 176.445 304.921 176.072 305.145 175.624C305.406 175.139 305.537 174.541 305.537 173.832V171.536C305.537 170.155 305.107 169.203 304.249 168.68C303.427 168.12 302.531 167.84 301.561 167.84H298.145V177.472ZM328.398 153.224H344.078V181H339.878V156.752H332.598V181H328.398V153.224ZM351.038 153.224H355.238V155.968C356.134 154.773 357.105 153.952 358.15 153.504C359.233 153.019 360.26 152.776 361.23 152.776C362.462 152.776 363.452 152.981 364.198 153.392C364.982 153.803 365.58 154.344 365.99 155.016C366.401 155.651 366.681 156.341 366.83 157.088C366.98 157.835 367.054 158.544 367.054 159.216V175.008C367.054 175.68 366.98 176.389 366.83 177.136C366.681 177.883 366.401 178.592 365.99 179.264C365.58 179.899 364.982 180.421 364.198 180.832C363.452 181.243 362.462 181.448 361.23 181.448C360.26 181.448 359.233 181.224 358.15 180.776C357.105 180.291 356.134 179.451 355.238 178.256V192.424H351.038V153.224ZM359.326 177.36C359.998 177.36 360.558 177.248 361.006 177.024C361.454 176.763 361.809 176.427 362.07 176.016C362.369 175.605 362.574 175.139 362.686 174.616C362.798 174.093 362.854 173.571 362.854 173.048V161.176C362.854 160.653 362.798 160.131 362.686 159.608C362.574 159.085 362.369 158.619 362.07 158.208C361.809 157.797 361.454 157.48 361.006 157.256C360.558 156.995 359.998 156.864 359.326 156.864C358.468 156.864 357.777 157.051 357.254 157.424C356.732 157.797 356.321 158.245 356.022 158.768C355.724 159.291 355.518 159.851 355.406 160.448C355.294 161.008 355.238 161.512 355.238 161.96V172.264C355.238 172.712 355.294 173.235 355.406 173.832C355.518 174.392 355.724 174.933 356.022 175.456C356.321 175.979 356.732 176.427 357.254 176.8C357.777 177.173 358.468 177.36 359.326 177.36ZM378.207 153.224V171.648L386.999 156.64V153.224H391.199V181H386.999V163.08L378.207 178.088V181H374.007V153.224H378.207ZM402.324 153.224V177.472H409.268V153.224H413.468V177.472H420.412V153.224H424.612V181H398.124V153.224H402.324ZM447.386 181H443.186V156.752H437.866L437.754 160C437.754 160.485 437.736 161.232 437.698 162.24C437.661 163.248 437.605 164.368 437.53 165.6C437.456 166.795 437.362 168.027 437.25 169.296C437.176 170.528 437.064 171.648 436.914 172.656C436.728 173.851 436.466 174.952 436.13 175.96C435.832 176.968 435.384 177.845 434.786 178.592C434.189 179.339 433.442 179.936 432.546 180.384C431.65 180.795 430.53 181 429.186 181H428.514V177.528H429.018C429.914 177.528 430.642 177.267 431.202 176.744C431.762 176.221 432.192 175.531 432.49 174.672C432.826 173.776 433.05 172.787 433.162 171.704C433.312 170.584 433.442 169.464 433.554 168.344C433.592 167.784 433.629 167.112 433.666 166.328C433.704 165.507 433.722 164.685 433.722 163.864C433.76 163.043 433.797 162.277 433.834 161.568C433.872 160.821 433.89 160.243 433.89 159.832L434.058 153.224H447.386V181ZM454.119 160.616C454.119 160.093 454.212 159.403 454.399 158.544C454.586 157.648 454.959 156.771 455.519 155.912C456.116 155.053 456.938 154.325 457.983 153.728C459.028 153.093 460.41 152.776 462.127 152.776C463.844 152.776 465.226 153.093 466.271 153.728C467.316 154.325 468.119 155.053 468.679 155.912C469.276 156.771 469.668 157.648 469.855 158.544C470.042 159.403 470.135 160.075 470.135 160.56V173.496C470.135 174.056 470.042 174.784 469.855 175.68C469.668 176.576 469.276 177.453 468.679 178.312C468.119 179.171 467.316 179.917 466.271 180.552C465.226 181.149 463.844 181.448 462.127 181.448C460.41 181.448 459.028 181.149 457.983 180.552C456.938 179.917 456.116 179.171 455.519 178.312C454.959 177.453 454.586 176.576 454.399 175.68C454.212 174.784 454.119 174.056 454.119 173.496V160.616ZM465.935 161.4C465.935 159.832 465.562 158.693 464.815 157.984C464.068 157.237 463.172 156.864 462.127 156.864C461.082 156.864 460.186 157.237 459.439 157.984C458.692 158.693 458.319 159.832 458.319 161.4V172.824C458.319 174.28 458.636 175.4 459.271 176.184C459.943 176.968 460.895 177.36 462.127 177.36C463.322 177.36 464.255 176.987 464.927 176.24C465.599 175.493 465.935 174.355 465.935 172.824V161.4ZM498.121 153.224C499.502 153.224 500.659 153.411 501.593 153.784C502.563 154.12 503.329 154.587 503.889 155.184C504.486 155.744 504.915 156.416 505.177 157.2C505.438 157.947 505.569 158.712 505.569 159.496V161.176C505.569 162.595 505.307 163.771 504.785 164.704C504.262 165.6 503.291 166.309 501.873 166.832C503.515 167.243 504.579 167.952 505.065 168.96C505.587 169.931 505.849 171.069 505.849 172.376V174.504C505.849 175.811 505.587 176.893 505.065 177.752C504.542 178.573 503.87 179.227 503.049 179.712C502.227 180.197 501.331 180.533 500.361 180.72C499.427 180.907 498.55 181 497.729 181H489.945V153.224H498.121ZM494.145 177.472H497.673C498.755 177.472 499.689 177.211 500.473 176.688C501.257 176.165 501.649 175.251 501.649 173.944V172.544C501.649 171.051 501.238 170.005 500.417 169.408C499.595 168.773 498.681 168.456 497.673 168.456H494.145V177.472ZM494.145 165.376H497.561C498.718 165.376 499.633 165.021 500.305 164.312C501.014 163.603 501.369 162.688 501.369 161.568V160.112C501.369 159.365 501.219 158.768 500.921 158.32C500.622 157.872 500.267 157.536 499.857 157.312C499.446 157.088 499.017 156.939 498.569 156.864C498.158 156.789 497.822 156.752 497.561 156.752H494.145V165.376ZM512.257 153.224H516.457V155.968C517.353 154.773 518.324 153.952 519.369 153.504C520.452 153.019 521.478 152.776 522.449 152.776C523.681 152.776 524.67 152.981 525.417 153.392C526.201 153.803 526.798 154.344 527.209 155.016C527.62 155.651 527.9 156.341 528.049 157.088C528.198 157.835 528.273 158.544 528.273 159.216V175.008C528.273 175.68 528.198 176.389 528.049 177.136C527.9 177.883 527.62 178.592 527.209 179.264C526.798 179.899 526.201 180.421 525.417 180.832C524.67 181.243 523.681 181.448 522.449 181.448C521.478 181.448 520.452 181.224 519.369 180.776C518.324 180.291 517.353 179.451 516.457 178.256V192.424H512.257V153.224ZM520.545 177.36C521.217 177.36 521.777 177.248 522.225 177.024C522.673 176.763 523.028 176.427 523.289 176.016C523.588 175.605 523.793 175.139 523.905 174.616C524.017 174.093 524.073 173.571 524.073 173.048V161.176C524.073 160.653 524.017 160.131 523.905 159.608C523.793 159.085 523.588 158.619 523.289 158.208C523.028 157.797 522.673 157.48 522.225 157.256C521.777 156.995 521.217 156.864 520.545 156.864C519.686 156.864 518.996 157.051 518.473 157.424C517.95 157.797 517.54 158.245 517.241 158.768C516.942 159.291 516.737 159.851 516.625 160.448C516.513 161.008 516.457 161.512 516.457 161.96V172.264C516.457 172.712 516.513 173.235 516.625 173.832C516.737 174.392 516.942 174.933 517.241 175.456C517.54 175.979 517.95 176.427 518.473 176.8C518.996 177.173 519.686 177.36 520.545 177.36ZM546.65 173.216H550.85V173.608C550.85 174.28 550.738 175.083 550.514 176.016C550.327 176.912 549.954 177.771 549.394 178.592C548.834 179.376 548.05 180.048 547.042 180.608C546.034 181.168 544.727 181.448 543.122 181.448C541.367 181.448 539.967 181.149 538.922 180.552C537.877 179.917 537.055 179.171 536.458 178.312C535.861 177.453 535.469 176.576 535.282 175.68C535.095 174.747 535.002 173.981 535.002 173.384V160.504C535.002 159.944 535.095 159.235 535.282 158.376C535.469 157.517 535.842 156.677 536.402 155.856C536.962 154.997 537.746 154.269 538.754 153.672C539.799 153.075 541.162 152.776 542.842 152.776C544.485 152.776 545.829 153.075 546.874 153.672C547.957 154.269 548.797 154.997 549.394 155.856C549.991 156.677 550.402 157.555 550.626 158.488C550.85 159.384 550.962 160.131 550.962 160.728V168.68H539.202V173.104C539.202 174.597 539.519 175.68 540.154 176.352C540.826 177.024 541.815 177.36 543.122 177.36C544.354 177.36 545.25 177.024 545.81 176.352C546.37 175.643 546.65 174.709 546.65 173.552V173.216ZM546.762 165.544V160.784C546.762 160.336 546.706 159.888 546.594 159.44C546.482 158.955 546.277 158.525 545.978 158.152C545.679 157.779 545.287 157.48 544.802 157.256C544.317 156.995 543.719 156.864 543.01 156.864C542.263 156.864 541.647 156.995 541.162 157.256C540.677 157.517 540.285 157.853 539.986 158.264C539.687 158.675 539.482 159.123 539.37 159.608C539.258 160.093 539.202 160.56 539.202 161.008V165.544H546.762ZM568.124 170.36L574.62 153.224H578.652V181H574.676V162.632L569.02 177.024H567.116L561.46 162.632V181H557.484V153.224H561.46L568.124 170.36ZM596.793 181V168.904H592.929L588.785 181H584.305L588.785 168.456C587.366 167.821 586.396 167.019 585.873 166.048C585.388 165.04 585.145 163.827 585.145 162.408V159.72C585.145 158.264 585.406 157.107 585.929 156.248C586.452 155.389 587.105 154.736 587.889 154.288C588.673 153.84 589.513 153.56 590.409 153.448C591.342 153.299 592.182 153.224 592.929 153.224H600.993V181H596.793ZM596.793 156.304H593.265C592.257 156.304 591.342 156.621 590.521 157.256C589.737 157.891 589.345 158.973 589.345 160.504V162.016C589.345 163.397 589.718 164.387 590.465 164.984C591.249 165.581 592.182 165.88 593.265 165.88H596.793V156.304ZM621.031 153.224H625.231V165.096H632.847V153.224H637.047V181H632.847V168.68H625.231V181H621.031V153.224ZM655.535 178.256H655.479C655.143 178.667 654.789 179.059 654.415 179.432C654.042 179.805 653.613 180.141 653.127 180.44C652.642 180.739 652.082 180.981 651.447 181.168C650.85 181.355 650.103 181.448 649.207 181.448C648.087 181.448 647.154 181.261 646.407 180.888C645.698 180.477 645.119 179.917 644.671 179.208C644.261 178.499 643.962 177.677 643.775 176.744C643.589 175.811 643.495 174.784 643.495 173.664C643.495 172.208 643.626 170.92 643.887 169.8C644.149 168.643 644.597 167.672 645.231 166.888C645.866 166.104 646.687 165.507 647.695 165.096C648.741 164.685 650.047 164.48 651.615 164.48C651.914 164.48 652.343 164.499 652.903 164.536C653.463 164.536 654.341 164.592 655.535 164.704V160.616C655.535 160.243 655.461 159.832 655.311 159.384C655.162 158.936 654.919 158.525 654.583 158.152C654.285 157.779 653.893 157.48 653.407 157.256C652.922 156.995 652.325 156.864 651.615 156.864C651.242 156.864 650.85 156.92 650.439 157.032C650.066 157.107 649.693 157.275 649.319 157.536C648.983 157.797 648.666 158.152 648.367 158.6C648.106 159.048 647.919 159.608 647.807 160.28H643.775C643.775 159.123 643.981 158.077 644.391 157.144C644.839 156.211 645.418 155.427 646.127 154.792C646.874 154.12 647.733 153.616 648.703 153.28C649.711 152.944 650.775 152.776 651.895 152.776C653.501 152.776 654.807 153.056 655.815 153.616C656.861 154.139 657.663 154.811 658.223 155.632C658.821 156.416 659.213 157.312 659.399 158.32C659.623 159.291 659.735 160.224 659.735 161.12V181H655.535V178.256ZM655.535 167.784C654.938 167.709 654.397 167.653 653.911 167.616C653.426 167.541 653.015 167.504 652.679 167.504C652.082 167.504 651.485 167.597 650.887 167.784C650.29 167.933 649.749 168.232 649.263 168.68C648.815 169.091 648.442 169.651 648.143 170.36C647.845 171.032 647.695 171.872 647.695 172.88C647.695 174.859 647.994 176.184 648.591 176.856C649.189 177.528 650.085 177.864 651.279 177.864C651.727 177.864 652.194 177.733 652.679 177.472C653.165 177.211 653.613 176.837 654.023 176.352C654.471 175.867 654.826 175.325 655.087 174.728C655.386 174.093 655.535 173.403 655.535 172.656V167.784ZM674.815 185.928C674.516 187.123 674.161 188.131 673.751 188.952C673.34 189.811 672.836 190.483 672.239 190.968C671.679 191.491 670.988 191.864 670.167 192.088C669.383 192.312 668.449 192.424 667.367 192.424H666.415V188.616H667.199C668.505 188.616 669.439 188.243 669.999 187.496C670.559 186.749 671.044 185.555 671.455 183.912L672.239 180.608L664.063 153.224H668.487L674.087 173.44H674.199L678.455 153.224H682.711L674.815 185.928ZM698.324 169.296C697.353 169.781 696.383 170.099 695.412 170.248C694.441 170.36 693.545 170.416 692.724 170.416C690.857 170.416 689.401 169.949 688.356 169.016C687.311 168.083 686.788 166.44 686.788 164.088V153.224H690.988V163.192C690.988 165.619 692.201 166.832 694.628 166.832C695.375 166.832 696.047 166.739 696.644 166.552C697.241 166.328 697.801 166.067 698.324 165.768V153.224H702.524V181H698.324V169.296ZM713.66 153.224V171.648L722.452 156.64V153.224H726.652V181H722.452V163.08L713.66 178.088V181H709.46V153.224H713.66ZM741.193 156.752V181H736.993V156.752H731.113V153.224H747.073V156.752H741.193ZM755.77 153.224V164.312H759.522C760.306 164.312 761.146 164.387 762.042 164.536C762.975 164.648 763.834 164.928 764.618 165.376C765.402 165.824 766.055 166.477 766.578 167.336C767.1 168.195 767.362 169.352 767.362 170.808V174.168C767.362 176.632 766.634 178.387 765.178 179.432C763.759 180.477 761.874 181 759.522 181H751.57V153.224H755.77ZM755.77 177.472H759.186C759.634 177.472 760.082 177.416 760.53 177.304C761.015 177.192 761.444 177.005 761.818 176.744C762.228 176.445 762.546 176.072 762.77 175.624C763.031 175.139 763.162 174.541 763.162 173.832V171.536C763.162 170.155 762.732 169.203 761.874 168.68C761.052 168.12 760.156 167.84 759.186 167.84H755.77V177.472ZM279.945 224.76C279.945 223.379 280.019 221.979 280.169 220.56C280.355 219.104 280.822 217.816 281.569 216.696C282.203 215.725 282.894 214.979 283.641 214.456C284.425 213.933 285.209 213.523 285.993 213.224C286.478 213.037 286.963 212.869 287.449 212.72C287.971 212.533 288.438 212.365 288.849 212.216C290.79 211.544 291.761 210.555 291.761 209.248V208.8H295.457V209.528C295.457 210.013 295.438 210.555 295.401 211.152C295.363 211.712 295.233 212.216 295.009 212.664C294.598 213.411 294.019 213.971 293.273 214.344C292.563 214.68 291.686 215.016 290.641 215.352L287.841 216.304C287.318 216.491 286.739 216.752 286.105 217.088C285.507 217.387 284.985 217.835 284.537 218.432C284.126 218.992 283.809 219.645 283.585 220.392C283.398 221.139 283.305 221.829 283.305 222.464V223.864H283.473C283.995 222.893 284.761 222.053 285.769 221.344C286.814 220.597 288.233 220.224 290.025 220.224C290.958 220.224 291.779 220.373 292.489 220.672C293.198 220.971 293.758 221.325 294.169 221.736C294.691 222.221 295.121 222.837 295.457 223.584C295.793 224.293 295.961 225.115 295.961 226.048V239.488C295.961 240.011 295.942 240.589 295.905 241.224C295.867 241.821 295.755 242.437 295.569 243.072C295.419 243.707 295.158 244.341 294.785 244.976C294.449 245.573 293.982 246.115 293.385 246.6C292.638 247.235 291.779 247.701 290.809 248C289.875 248.299 288.923 248.448 287.953 248.448C286.982 248.448 286.011 248.299 285.041 248C284.107 247.739 283.267 247.291 282.521 246.656C281.923 246.171 281.438 245.629 281.065 245.032C280.729 244.397 280.467 243.763 280.281 243.128C280.131 242.456 280.038 241.821 280.001 241.224C279.963 240.589 279.945 240.011 279.945 239.488V224.76ZM291.761 228.4C291.761 227.653 291.649 226.981 291.425 226.384C291.201 225.787 290.939 225.32 290.641 224.984C289.894 224.237 288.998 223.864 287.953 223.864C287.43 223.864 286.926 223.976 286.441 224.2C285.993 224.424 285.601 224.704 285.265 225.04C284.966 225.376 284.705 225.88 284.481 226.552C284.257 227.187 284.145 227.877 284.145 228.624V239.824C284.145 240.608 284.257 241.299 284.481 241.896C284.705 242.493 284.966 242.979 285.265 243.352C285.563 243.651 285.937 243.893 286.385 244.08C286.87 244.267 287.393 244.36 287.953 244.36C288.513 244.36 289.017 244.267 289.465 244.08C289.95 243.893 290.342 243.651 290.641 243.352C290.939 242.979 291.201 242.493 291.425 241.896C291.649 241.299 291.761 240.608 291.761 239.824V228.4ZM314.231 245.256H314.175C313.839 245.667 313.484 246.059 313.111 246.432C312.737 246.805 312.308 247.141 311.823 247.44C311.337 247.739 310.777 247.981 310.143 248.168C309.545 248.355 308.799 248.448 307.903 248.448C306.783 248.448 305.849 248.261 305.103 247.888C304.393 247.477 303.815 246.917 303.367 246.208C302.956 245.499 302.657 244.677 302.471 243.744C302.284 242.811 302.191 241.784 302.191 240.664C302.191 239.208 302.321 237.92 302.583 236.8C302.844 235.643 303.292 234.672 303.927 233.888C304.561 233.104 305.383 232.507 306.391 232.096C307.436 231.685 308.743 231.48 310.311 231.48C310.609 231.48 311.039 231.499 311.599 231.536C312.159 231.536 313.036 231.592 314.231 231.704V227.616C314.231 227.243 314.156 226.832 314.007 226.384C313.857 225.936 313.615 225.525 313.279 225.152C312.98 224.779 312.588 224.48 312.103 224.256C311.617 223.995 311.02 223.864 310.311 223.864C309.937 223.864 309.545 223.92 309.135 224.032C308.761 224.107 308.388 224.275 308.015 224.536C307.679 224.797 307.361 225.152 307.063 225.6C306.801 226.048 306.615 226.608 306.503 227.28H302.471C302.471 226.123 302.676 225.077 303.087 224.144C303.535 223.211 304.113 222.427 304.823 221.792C305.569 221.12 306.428 220.616 307.399 220.28C308.407 219.944 309.471 219.776 310.591 219.776C312.196 219.776 313.503 220.056 314.511 220.616C315.556 221.139 316.359 221.811 316.919 222.632C317.516 223.416 317.908 224.312 318.095 225.32C318.319 226.291 318.431 227.224 318.431 228.12V248H314.231V245.256ZM314.231 234.784C313.633 234.709 313.092 234.653 312.607 234.616C312.121 234.541 311.711 234.504 311.375 234.504C310.777 234.504 310.18 234.597 309.583 234.784C308.985 234.933 308.444 235.232 307.959 235.68C307.511 236.091 307.137 236.651 306.839 237.36C306.54 238.032 306.391 238.872 306.391 239.88C306.391 241.859 306.689 243.184 307.287 243.856C307.884 244.528 308.78 244.864 309.975 244.864C310.423 244.864 310.889 244.733 311.375 244.472C311.86 244.211 312.308 243.837 312.719 243.352C313.167 242.867 313.521 242.325 313.783 241.728C314.081 241.093 314.231 240.403 314.231 239.656V234.784ZM341.238 248H337.038V223.752H331.718L331.606 227C331.606 227.485 331.587 228.232 331.55 229.24C331.513 230.248 331.457 231.368 331.382 232.6C331.307 233.795 331.214 235.027 331.102 236.296C331.027 237.528 330.915 238.648 330.766 239.656C330.579 240.851 330.318 241.952 329.982 242.96C329.683 243.968 329.235 244.845 328.638 245.592C328.041 246.339 327.294 246.936 326.398 247.384C325.502 247.795 324.382 248 323.038 248H322.366V244.528H322.87C323.766 244.528 324.494 244.267 325.054 243.744C325.614 243.221 326.043 242.531 326.342 241.672C326.678 240.776 326.902 239.787 327.014 238.704C327.163 237.584 327.294 236.464 327.406 235.344C327.443 234.784 327.481 234.112 327.518 233.328C327.555 232.507 327.574 231.685 327.574 230.864C327.611 230.043 327.649 229.277 327.686 228.568C327.723 227.821 327.742 227.243 327.742 226.832L327.91 220.224H341.238V248ZM359.619 240.216H363.819V240.608C363.819 241.28 363.707 242.083 363.483 243.016C363.296 243.912 362.923 244.771 362.363 245.592C361.803 246.376 361.019 247.048 360.011 247.608C359.003 248.168 357.696 248.448 356.091 248.448C354.336 248.448 352.936 248.149 351.891 247.552C350.845 246.917 350.024 246.171 349.427 245.312C348.829 244.453 348.437 243.576 348.251 242.68C348.064 241.747 347.971 240.981 347.971 240.384V227.504C347.971 226.944 348.064 226.235 348.251 225.376C348.437 224.517 348.811 223.677 349.371 222.856C349.931 221.997 350.715 221.269 351.723 220.672C352.768 220.075 354.131 219.776 355.811 219.776C357.453 219.776 358.797 220.075 359.843 220.672C360.925 221.269 361.765 221.997 362.363 222.856C362.96 223.677 363.371 224.555 363.595 225.488C363.819 226.384 363.931 227.131 363.931 227.728V235.68H352.171V240.104C352.171 241.597 352.488 242.68 353.123 243.352C353.795 244.024 354.784 244.36 356.091 244.36C357.323 244.36 358.219 244.024 358.779 243.352C359.339 242.643 359.619 241.709 359.619 240.552V240.216ZM359.731 232.544V227.784C359.731 227.336 359.675 226.888 359.563 226.44C359.451 225.955 359.245 225.525 358.947 225.152C358.648 224.779 358.256 224.48 357.771 224.256C357.285 223.995 356.688 223.864 355.979 223.864C355.232 223.864 354.616 223.995 354.131 224.256C353.645 224.517 353.253 224.853 352.955 225.264C352.656 225.675 352.451 226.123 352.339 226.608C352.227 227.093 352.171 227.56 352.171 228.008V232.544H359.731ZM370.452 220.224H374.652V222.968C375.548 221.773 376.519 220.952 377.564 220.504C378.647 220.019 379.674 219.776 380.644 219.776C381.876 219.776 382.866 219.981 383.612 220.392C384.396 220.803 384.994 221.344 385.404 222.016C385.815 222.651 386.095 223.341 386.244 224.088C386.394 224.835 386.468 225.544 386.468 226.216V242.008C386.468 242.68 386.394 243.389 386.244 244.136C386.095 244.883 385.815 245.592 385.404 246.264C384.994 246.899 384.396 247.421 383.612 247.832C382.866 248.243 381.876 248.448 380.644 248.448C379.674 248.448 378.647 248.224 377.564 247.776C376.519 247.291 375.548 246.451 374.652 245.256V259.424H370.452V220.224ZM378.74 244.36C379.412 244.36 379.972 244.248 380.42 244.024C380.868 243.763 381.223 243.427 381.484 243.016C381.783 242.605 381.988 242.139 382.1 241.616C382.212 241.093 382.268 240.571 382.268 240.048V228.176C382.268 227.653 382.212 227.131 382.1 226.608C381.988 226.085 381.783 225.619 381.484 225.208C381.223 224.797 380.868 224.48 380.42 224.256C379.972 223.995 379.412 223.864 378.74 223.864C377.882 223.864 377.191 224.051 376.668 224.424C376.146 224.797 375.735 225.245 375.436 225.768C375.138 226.291 374.932 226.851 374.82 227.448C374.708 228.008 374.652 228.512 374.652 228.96V239.264C374.652 239.712 374.708 240.235 374.82 240.832C374.932 241.392 375.138 241.933 375.436 242.456C375.735 242.979 376.146 243.427 376.668 243.8C377.191 244.173 377.882 244.36 378.74 244.36ZM397.621 220.224V238.648L406.413 223.64V220.224H410.613V248H406.413V230.08L397.621 245.088V248H393.421V220.224H397.621ZM417.538 220.224H421.738V232.096H429.354V220.224H433.554V248H429.354V235.68H421.738V248H417.538V220.224ZM448.627 252.928C448.328 254.123 447.974 255.131 447.563 255.952C447.152 256.811 446.648 257.483 446.051 257.968C445.491 258.491 444.8 258.864 443.979 259.088C443.195 259.312 442.262 259.424 441.179 259.424H440.227V255.616H441.011C442.318 255.616 443.251 255.243 443.811 254.496C444.371 253.749 444.856 252.555 445.267 250.912L446.051 247.608L437.875 220.224H442.299L447.899 240.44H448.011L452.267 220.224H456.523L448.627 252.928ZM481.811 223.752V248H477.611V223.752H471.731V220.224H487.691V223.752H481.811ZM502.903 245.256H502.847C502.511 245.667 502.156 246.059 501.783 246.432C501.409 246.805 500.98 247.141 500.495 247.44C500.009 247.739 499.449 247.981 498.815 248.168C498.217 248.355 497.471 248.448 496.575 248.448C495.455 248.448 494.521 248.261 493.775 247.888C493.065 247.477 492.487 246.917 492.039 246.208C491.628 245.499 491.329 244.677 491.143 243.744C490.956 242.811 490.863 241.784 490.863 240.664C490.863 239.208 490.993 237.92 491.255 236.8C491.516 235.643 491.964 234.672 492.599 233.888C493.233 233.104 494.055 232.507 495.063 232.096C496.108 231.685 497.415 231.48 498.983 231.48C499.281 231.48 499.711 231.499 500.271 231.536C500.831 231.536 501.708 231.592 502.903 231.704V227.616C502.903 227.243 502.828 226.832 502.679 226.384C502.529 225.936 502.287 225.525 501.951 225.152C501.652 224.779 501.26 224.48 500.775 224.256C500.289 223.995 499.692 223.864 498.983 223.864C498.609 223.864 498.217 223.92 497.807 224.032C497.433 224.107 497.06 224.275 496.687 224.536C496.351 224.797 496.033 225.152 495.735 225.6C495.473 226.048 495.287 226.608 495.175 227.28H491.143C491.143 226.123 491.348 225.077 491.759 224.144C492.207 223.211 492.785 222.427 493.495 221.792C494.241 221.12 495.1 220.616 496.071 220.28C497.079 219.944 498.143 219.776 499.263 219.776C500.868 219.776 502.175 220.056 503.183 220.616C504.228 221.139 505.031 221.811 505.591 222.632C506.188 223.416 506.58 224.312 506.767 225.32C506.991 226.291 507.103 227.224 507.103 228.12V248H502.903V245.256ZM502.903 234.784C502.305 234.709 501.764 234.653 501.279 234.616C500.793 234.541 500.383 234.504 500.047 234.504C499.449 234.504 498.852 234.597 498.255 234.784C497.657 234.933 497.116 235.232 496.631 235.68C496.183 236.091 495.809 236.651 495.511 237.36C495.212 238.032 495.063 238.872 495.063 239.88C495.063 241.859 495.361 243.184 495.959 243.856C496.556 244.528 497.452 244.864 498.647 244.864C499.095 244.864 499.561 244.733 500.047 244.472C500.532 244.211 500.98 243.837 501.391 243.352C501.839 242.867 502.193 242.325 502.455 241.728C502.753 241.093 502.903 240.403 502.903 239.656V234.784ZM514.062 220.224H518.262V232.096H525.878V220.224H530.078V248H525.878V235.68H518.262V248H514.062V220.224ZM537.031 220.224H541.231V244.472H548.791V220.224H552.991V244.472H556.631V253.824H552.711V248H537.031V220.224ZM572.408 240.216H576.608V240.608C576.608 241.28 576.496 242.083 576.272 243.016C576.085 243.912 575.712 244.771 575.152 245.592C574.592 246.376 573.808 247.048 572.8 247.608C571.792 248.168 570.485 248.448 568.88 248.448C567.125 248.448 565.725 248.149 564.68 247.552C563.634 246.917 562.813 246.171 562.216 245.312C561.618 244.453 561.226 243.576 561.04 242.68C560.853 241.747 560.76 240.981 560.76 240.384V227.504C560.76 226.944 560.853 226.235 561.04 225.376C561.226 224.517 561.6 223.677 562.16 222.856C562.72 221.997 563.504 221.269 564.512 220.672C565.557 220.075 566.92 219.776 568.6 219.776C570.242 219.776 571.586 220.075 572.632 220.672C573.714 221.269 574.554 221.997 575.152 222.856C575.749 223.677 576.16 224.555 576.384 225.488C576.608 226.384 576.72 227.131 576.72 227.728V235.68H564.96V240.104C564.96 241.597 565.277 242.68 565.912 243.352C566.584 244.024 567.573 244.36 568.88 244.36C570.112 244.36 571.008 244.024 571.568 243.352C572.128 242.643 572.408 241.709 572.408 240.552V240.216ZM572.52 232.544V227.784C572.52 227.336 572.464 226.888 572.352 226.44C572.24 225.955 572.034 225.525 571.736 225.152C571.437 224.779 571.045 224.48 570.56 224.256C570.074 223.995 569.477 223.864 568.768 223.864C568.021 223.864 567.405 223.995 566.92 224.256C566.434 224.517 566.042 224.853 565.744 225.264C565.445 225.675 565.24 226.123 565.128 226.608C565.016 227.093 564.96 227.56 564.96 228.008V232.544H572.52ZM591.418 220.224C592.799 220.224 593.956 220.411 594.89 220.784C595.86 221.12 596.626 221.587 597.186 222.184C597.783 222.744 598.212 223.416 598.474 224.2C598.735 224.947 598.866 225.712 598.866 226.496V228.176C598.866 229.595 598.604 230.771 598.082 231.704C597.559 232.6 596.588 233.309 595.17 233.832C596.812 234.243 597.876 234.952 598.362 235.96C598.884 236.931 599.146 238.069 599.146 239.376V241.504C599.146 242.811 598.884 243.893 598.362 244.752C597.839 245.573 597.167 246.227 596.346 246.712C595.524 247.197 594.628 247.533 593.658 247.72C592.724 247.907 591.847 248 591.026 248H583.242V220.224H591.418ZM587.442 244.472H590.97C592.052 244.472 592.986 244.211 593.77 243.688C594.554 243.165 594.946 242.251 594.946 240.944V239.544C594.946 238.051 594.535 237.005 593.714 236.408C592.892 235.773 591.978 235.456 590.97 235.456H587.442V244.472ZM587.442 232.376H590.858C592.015 232.376 592.93 232.021 593.602 231.312C594.311 230.603 594.666 229.688 594.666 228.568V227.112C594.666 226.365 594.516 225.768 594.218 225.32C593.919 224.872 593.564 224.536 593.154 224.312C592.743 224.088 592.314 223.939 591.866 223.864C591.455 223.789 591.119 223.752 590.858 223.752H587.442V232.376ZM617.09 245.256H617.034C616.698 245.667 616.343 246.059 615.97 246.432C615.597 246.805 615.167 247.141 614.682 247.44C614.197 247.739 613.637 247.981 613.002 248.168C612.405 248.355 611.658 248.448 610.762 248.448C609.642 248.448 608.709 248.261 607.962 247.888C607.253 247.477 606.674 246.917 606.226 246.208C605.815 245.499 605.517 244.677 605.33 243.744C605.143 242.811 605.05 241.784 605.05 240.664C605.05 239.208 605.181 237.92 605.442 236.8C605.703 235.643 606.151 234.672 606.786 233.888C607.421 233.104 608.242 232.507 609.25 232.096C610.295 231.685 611.602 231.48 613.17 231.48C613.469 231.48 613.898 231.499 614.458 231.536C615.018 231.536 615.895 231.592 617.09 231.704V227.616C617.09 227.243 617.015 226.832 616.866 226.384C616.717 225.936 616.474 225.525 616.138 225.152C615.839 224.779 615.447 224.48 614.962 224.256C614.477 223.995 613.879 223.864 613.17 223.864C612.797 223.864 612.405 223.92 611.994 224.032C611.621 224.107 611.247 224.275 610.874 224.536C610.538 224.797 610.221 225.152 609.922 225.6C609.661 226.048 609.474 226.608 609.362 227.28H605.33C605.33 226.123 605.535 225.077 605.946 224.144C606.394 223.211 606.973 222.427 607.682 221.792C608.429 221.12 609.287 220.616 610.258 220.28C611.266 219.944 612.33 219.776 613.45 219.776C615.055 219.776 616.362 220.056 617.37 220.616C618.415 221.139 619.218 221.811 619.778 222.632C620.375 223.416 620.767 224.312 620.954 225.32C621.178 226.291 621.29 227.224 621.29 228.12V248H617.09V245.256ZM617.09 234.784C616.493 234.709 615.951 234.653 615.466 234.616C614.981 234.541 614.57 234.504 614.234 234.504C613.637 234.504 613.039 234.597 612.442 234.784C611.845 234.933 611.303 235.232 610.818 235.68C610.37 236.091 609.997 236.651 609.698 237.36C609.399 238.032 609.25 238.872 609.25 239.88C609.25 241.859 609.549 243.184 610.146 243.856C610.743 244.528 611.639 244.864 612.834 244.864C613.282 244.864 613.749 244.733 614.234 244.472C614.719 244.211 615.167 243.837 615.578 243.352C616.026 242.867 616.381 242.325 616.642 241.728C616.941 241.093 617.09 240.403 617.09 239.656V234.784ZM635.865 223.752V248H631.665V223.752H625.785V220.224H641.745V223.752H635.865ZM650.442 220.224V231.312H654.194C654.978 231.312 655.818 231.387 656.714 231.536C657.647 231.648 658.506 231.928 659.29 232.376C660.074 232.824 660.727 233.477 661.25 234.336C661.772 235.195 662.034 236.352 662.034 237.808V241.168C662.034 243.632 661.306 245.387 659.85 246.432C658.431 247.477 656.546 248 654.194 248H646.242V220.224H650.442ZM650.442 244.472H653.858C654.306 244.472 654.754 244.416 655.202 244.304C655.687 244.192 656.116 244.005 656.49 243.744C656.9 243.445 657.218 243.072 657.442 242.624C657.703 242.139 657.834 241.541 657.834 240.832V238.536C657.834 237.155 657.404 236.203 656.546 235.68C655.724 235.12 654.828 234.84 653.858 234.84H650.442V244.472ZM672.44 208.8L671.208 237.808H668.184L667.232 208.8H672.44ZM672.104 243.24V248H667.344V243.24H672.104ZM160.559 275.8V293.328H170.023V275.8H174.223V315H170.023V296.968H160.559V315H156.359V275.8H160.559ZM193.043 312.256H192.987C192.651 312.667 192.296 313.059 191.923 313.432C191.55 313.805 191.12 314.141 190.635 314.44C190.15 314.739 189.59 314.981 188.955 315.168C188.358 315.355 187.611 315.448 186.715 315.448C185.595 315.448 184.662 315.261 183.915 314.888C183.206 314.477 182.627 313.917 182.179 313.208C181.768 312.499 181.47 311.677 181.283 310.744C181.096 309.811 181.003 308.784 181.003 307.664C181.003 306.208 181.134 304.92 181.395 303.8C181.656 302.643 182.104 301.672 182.739 300.888C183.374 300.104 184.195 299.507 185.203 299.096C186.248 298.685 187.555 298.48 189.123 298.48C189.422 298.48 189.851 298.499 190.411 298.536C190.971 298.536 191.848 298.592 193.043 298.704V294.616C193.043 294.243 192.968 293.832 192.819 293.384C192.67 292.936 192.427 292.525 192.091 292.152C191.792 291.779 191.4 291.48 190.915 291.256C190.43 290.995 189.832 290.864 189.123 290.864C188.75 290.864 188.358 290.92 187.947 291.032C187.574 291.107 187.2 291.275 186.827 291.536C186.491 291.797 186.174 292.152 185.875 292.6C185.614 293.048 185.427 293.608 185.315 294.28H181.283C181.283 293.123 181.488 292.077 181.899 291.144C182.347 290.211 182.926 289.427 183.635 288.792C184.382 288.12 185.24 287.616 186.211 287.28C187.219 286.944 188.283 286.776 189.403 286.776C191.008 286.776 192.315 287.056 193.323 287.616C194.368 288.139 195.171 288.811 195.731 289.632C196.328 290.416 196.72 291.312 196.907 292.32C197.131 293.291 197.243 294.224 197.243 295.12V315H193.043V312.256ZM193.043 301.784C192.446 301.709 191.904 301.653 191.419 301.616C190.934 301.541 190.523 301.504 190.187 301.504C189.59 301.504 188.992 301.597 188.395 301.784C187.798 301.933 187.256 302.232 186.771 302.68C186.323 303.091 185.95 303.651 185.651 304.36C185.352 305.032 185.203 305.872 185.203 306.88C185.203 308.859 185.502 310.184 186.099 310.856C186.696 311.528 187.592 311.864 188.787 311.864C189.235 311.864 189.702 311.733 190.187 311.472C190.672 311.211 191.12 310.837 191.531 310.352C191.979 309.867 192.334 309.325 192.595 308.728C192.894 308.093 193.043 307.403 193.043 306.656V301.784ZM214.842 299.152V287.224H219.042V299.152H221.506C222.178 299.152 222.72 299.003 223.13 298.704C223.541 298.368 223.858 297.957 224.082 297.472C224.344 296.987 224.512 296.464 224.586 295.904C224.698 295.307 224.792 294.747 224.866 294.224L225.202 291.76C225.314 291.051 225.464 290.397 225.65 289.8C225.837 289.203 226.117 288.699 226.49 288.288C226.901 287.84 227.442 287.504 228.114 287.28C228.824 287.056 229.738 286.944 230.858 286.944H231.362V290.36H230.858C230.112 290.36 229.589 290.64 229.29 291.2C228.992 291.76 228.768 292.563 228.618 293.608L228.282 295.904C228.096 297.099 227.909 298.051 227.722 298.76C227.536 299.469 227.088 300.123 226.378 300.72L231.362 315H227.218L222.85 302.4H219.042V315H214.842V302.4H211.034L206.666 315H202.522L207.506 300.72C206.797 300.123 206.349 299.469 206.162 298.76C205.976 298.051 205.789 297.099 205.602 295.904L205.266 293.608C205.117 292.563 204.893 291.76 204.594 291.2C204.296 290.64 203.773 290.36 203.026 290.36H202.522V286.944H203.026C204.146 286.944 205.042 287.056 205.714 287.28C206.424 287.504 206.965 287.84 207.338 288.288C207.749 288.699 208.048 289.203 208.234 289.8C208.421 290.397 208.57 291.051 208.682 291.76L209.018 294.224C209.093 294.747 209.168 295.307 209.242 295.904C209.354 296.464 209.522 296.987 209.746 297.472C210.008 297.957 210.344 298.368 210.754 298.704C211.165 299.003 211.706 299.152 212.378 299.152H214.842ZM240.832 287.224V305.648L249.624 290.64V287.224H253.824V315H249.624V297.08L240.832 312.088V315H236.632V287.224H240.832ZM271.389 304.36L277.885 287.224H281.917V315H277.941V296.632L272.285 311.024H270.381L264.725 296.632V315H260.749V287.224H264.725L271.389 304.36ZM300.395 312.256H300.339C300.003 312.667 299.648 313.059 299.275 313.432C298.901 313.805 298.472 314.141 297.987 314.44C297.501 314.739 296.941 314.981 296.307 315.168C295.709 315.355 294.963 315.448 294.067 315.448C292.947 315.448 292.013 315.261 291.267 314.888C290.557 314.477 289.979 313.917 289.531 313.208C289.12 312.499 288.821 311.677 288.635 310.744C288.448 309.811 288.355 308.784 288.355 307.664C288.355 306.208 288.485 304.92 288.747 303.8C289.008 302.643 289.456 301.672 290.091 300.888C290.725 300.104 291.547 299.507 292.555 299.096C293.6 298.685 294.907 298.48 296.475 298.48C296.773 298.48 297.203 298.499 297.763 298.536C298.323 298.536 299.2 298.592 300.395 298.704V294.616C300.395 294.243 300.32 293.832 300.171 293.384C300.021 292.936 299.779 292.525 299.443 292.152C299.144 291.779 298.752 291.48 298.267 291.256C297.781 290.995 297.184 290.864 296.475 290.864C296.101 290.864 295.709 290.92 295.299 291.032C294.925 291.107 294.552 291.275 294.179 291.536C293.843 291.797 293.525 292.152 293.227 292.6C292.965 293.048 292.779 293.608 292.667 294.28H288.635C288.635 293.123 288.84 292.077 289.251 291.144C289.699 290.211 290.277 289.427 290.987 288.792C291.733 288.12 292.592 287.616 293.563 287.28C294.571 286.944 295.635 286.776 296.755 286.776C298.36 286.776 299.667 287.056 300.675 287.616C301.72 288.139 302.523 288.811 303.083 289.632C303.68 290.416 304.072 291.312 304.259 292.32C304.483 293.291 304.595 294.224 304.595 295.12V315H300.395V312.256ZM300.395 301.784C299.797 301.709 299.256 301.653 298.771 301.616C298.285 301.541 297.875 301.504 297.539 301.504C296.941 301.504 296.344 301.597 295.747 301.784C295.149 301.933 294.608 302.232 294.123 302.68C293.675 303.091 293.301 303.651 293.003 304.36C292.704 305.032 292.555 305.872 292.555 306.88C292.555 308.859 292.853 310.184 293.451 310.856C294.048 311.528 294.944 311.864 296.139 311.864C296.587 311.864 297.053 311.733 297.539 311.472C298.024 311.211 298.472 310.837 298.883 310.352C299.331 309.867 299.685 309.325 299.947 308.728C300.245 308.093 300.395 307.403 300.395 306.656V301.784ZM315.754 287.224V305.648L324.546 290.64V287.224H328.746V315H324.546V297.08L315.754 312.088V315H311.554V287.224H315.754ZM322.642 276.696H326.058V277.256C326.058 277.965 325.965 278.731 325.778 279.552C325.591 280.336 325.181 281.027 324.546 281.624C323.911 282.259 323.165 282.651 322.306 282.8C321.485 282.949 320.757 283.024 320.122 283.024C319.487 283.024 318.741 282.949 317.882 282.8C317.061 282.651 316.333 282.259 315.698 281.624C315.063 281.027 314.653 280.336 314.466 279.552C314.279 278.731 314.186 277.965 314.186 277.256V276.696H317.602V277.256C317.602 277.555 317.621 277.872 317.658 278.208C317.733 278.544 317.845 278.861 317.994 279.16C318.181 279.459 318.442 279.72 318.778 279.944C319.114 280.131 319.562 280.224 320.122 280.224C320.682 280.224 321.13 280.131 321.466 279.944C321.802 279.72 322.045 279.459 322.194 279.16C322.381 278.861 322.493 278.544 322.53 278.208C322.605 277.872 322.642 277.555 322.642 277.256V276.696ZM348.742 287.224H352.942V299.096H360.558V287.224H364.758V315H360.558V302.68H352.942V315H348.742V287.224ZM383.246 312.256H383.19C382.854 312.667 382.5 313.059 382.126 313.432C381.753 313.805 381.324 314.141 380.838 314.44C380.353 314.739 379.793 314.981 379.158 315.168C378.561 315.355 377.814 315.448 376.918 315.448C375.798 315.448 374.865 315.261 374.118 314.888C373.409 314.477 372.83 313.917 372.382 313.208C371.972 312.499 371.673 311.677 371.486 310.744C371.3 309.811 371.206 308.784 371.206 307.664C371.206 306.208 371.337 304.92 371.598 303.8C371.86 302.643 372.308 301.672 372.942 300.888C373.577 300.104 374.398 299.507 375.406 299.096C376.452 298.685 377.758 298.48 379.326 298.48C379.625 298.48 380.054 298.499 380.614 298.536C381.174 298.536 382.052 298.592 383.246 298.704V294.616C383.246 294.243 383.172 293.832 383.022 293.384C382.873 292.936 382.63 292.525 382.294 292.152C381.996 291.779 381.604 291.48 381.118 291.256C380.633 290.995 380.036 290.864 379.326 290.864C378.953 290.864 378.561 290.92 378.15 291.032C377.777 291.107 377.404 291.275 377.03 291.536C376.694 291.797 376.377 292.152 376.078 292.6C375.817 293.048 375.63 293.608 375.518 294.28H371.486C371.486 293.123 371.692 292.077 372.102 291.144C372.55 290.211 373.129 289.427 373.838 288.792C374.585 288.12 375.444 287.616 376.414 287.28C377.422 286.944 378.486 286.776 379.606 286.776C381.212 286.776 382.518 287.056 383.526 287.616C384.572 288.139 385.374 288.811 385.934 289.632C386.532 290.416 386.924 291.312 387.11 292.32C387.334 293.291 387.446 294.224 387.446 295.12V315H383.246V312.256ZM383.246 301.784C382.649 301.709 382.108 301.653 381.622 301.616C381.137 301.541 380.726 301.504 380.39 301.504C379.793 301.504 379.196 301.597 378.598 301.784C378.001 301.933 377.46 302.232 376.974 302.68C376.526 303.091 376.153 303.651 375.854 304.36C375.556 305.032 375.406 305.872 375.406 306.88C375.406 308.859 375.705 310.184 376.302 310.856C376.9 311.528 377.796 311.864 378.99 311.864C379.438 311.864 379.905 311.733 380.39 311.472C380.876 311.211 381.324 310.837 381.734 310.352C382.182 309.867 382.537 309.325 382.798 308.728C383.097 308.093 383.246 307.403 383.246 306.656V301.784ZM419.292 306.488H423.492V307.608C423.492 308.28 423.361 309.083 423.1 310.016C422.876 310.912 422.447 311.771 421.812 312.592C421.215 313.376 420.393 314.048 419.348 314.608C418.303 315.168 416.977 315.448 415.372 315.448C413.617 315.448 412.217 315.149 411.172 314.552C410.127 313.917 409.305 313.171 408.708 312.312C408.111 311.453 407.719 310.576 407.532 309.68C407.345 308.747 407.252 307.981 407.252 307.384V294.784C407.252 294.224 407.345 293.496 407.532 292.6C407.719 291.667 408.111 290.771 408.708 289.912C409.305 289.053 410.127 288.325 411.172 287.728C412.217 287.093 413.617 286.776 415.372 286.776C417.015 286.776 418.359 287.056 419.404 287.616C420.487 288.176 421.327 288.867 421.924 289.688C422.521 290.509 422.932 291.368 423.156 292.264C423.38 293.123 423.492 293.888 423.492 294.56V295.792H419.292V295.4C419.292 293.832 418.9 292.693 418.116 291.984C417.369 291.237 416.455 290.864 415.372 290.864C414.289 290.864 413.356 291.237 412.572 291.984C411.825 292.693 411.452 293.832 411.452 295.4V306.824C411.452 309.848 412.759 311.36 415.372 311.36C416.604 311.36 417.556 310.987 418.228 310.24C418.937 309.493 419.292 308.355 419.292 306.824V306.488ZM436.584 290.752V315H432.384V290.752H426.504V287.224H442.464V290.752H436.584ZM446.96 287.224H451.16V289.968C452.056 288.773 453.027 287.952 454.072 287.504C455.155 287.019 456.182 286.776 457.152 286.776C458.384 286.776 459.374 286.981 460.12 287.392C460.904 287.803 461.502 288.344 461.912 289.016C462.323 289.651 462.603 290.341 462.752 291.088C462.902 291.835 462.976 292.544 462.976 293.216V309.008C462.976 309.68 462.902 310.389 462.752 311.136C462.603 311.883 462.323 312.592 461.912 313.264C461.502 313.899 460.904 314.421 460.12 314.832C459.374 315.243 458.384 315.448 457.152 315.448C456.182 315.448 455.155 315.224 454.072 314.776C453.027 314.291 452.056 313.451 451.16 312.256V326.424H446.96V287.224ZM455.248 311.36C455.92 311.36 456.48 311.248 456.928 311.024C457.376 310.763 457.731 310.427 457.992 310.016C458.291 309.605 458.496 309.139 458.608 308.616C458.72 308.093 458.776 307.571 458.776 307.048V295.176C458.776 294.653 458.72 294.131 458.608 293.608C458.496 293.085 458.291 292.619 457.992 292.208C457.731 291.797 457.376 291.48 456.928 291.256C456.48 290.995 455.92 290.864 455.248 290.864C454.39 290.864 453.699 291.051 453.176 291.424C452.654 291.797 452.243 292.245 451.944 292.768C451.646 293.291 451.44 293.851 451.328 294.448C451.216 295.008 451.16 295.512 451.16 295.96V306.264C451.16 306.712 451.216 307.235 451.328 307.832C451.44 308.392 451.646 308.933 451.944 309.456C452.243 309.979 452.654 310.427 453.176 310.8C453.699 311.173 454.39 311.36 455.248 311.36ZM481.353 307.216H485.553V307.608C485.553 308.28 485.441 309.083 485.217 310.016C485.03 310.912 484.657 311.771 484.097 312.592C483.537 313.376 482.753 314.048 481.745 314.608C480.737 315.168 479.43 315.448 477.825 315.448C476.07 315.448 474.67 315.149 473.625 314.552C472.58 313.917 471.758 313.171 471.161 312.312C470.564 311.453 470.172 310.576 469.985 309.68C469.798 308.747 469.705 307.981 469.705 307.384V294.504C469.705 293.944 469.798 293.235 469.985 292.376C470.172 291.517 470.545 290.677 471.105 289.856C471.665 288.997 472.449 288.269 473.457 287.672C474.502 287.075 475.865 286.776 477.545 286.776C479.188 286.776 480.532 287.075 481.577 287.672C482.66 288.269 483.5 288.997 484.097 289.856C484.694 290.677 485.105 291.555 485.329 292.488C485.553 293.384 485.665 294.131 485.665 294.728V302.68H473.905V307.104C473.905 308.597 474.222 309.68 474.857 310.352C475.529 311.024 476.518 311.36 477.825 311.36C479.057 311.36 479.953 311.024 480.513 310.352C481.073 309.643 481.353 308.709 481.353 307.552V307.216ZM481.465 299.544V294.784C481.465 294.336 481.409 293.888 481.297 293.44C481.185 292.955 480.98 292.525 480.681 292.152C480.382 291.779 479.99 291.48 479.505 291.256C479.02 290.995 478.422 290.864 477.713 290.864C476.966 290.864 476.35 290.995 475.865 291.256C475.38 291.517 474.988 291.853 474.689 292.264C474.39 292.675 474.185 293.123 474.073 293.608C473.961 294.093 473.905 294.56 473.905 295.008V299.544H481.465ZM508.035 315H503.835V290.752H498.515L498.403 294C498.403 294.485 498.384 295.232 498.347 296.24C498.31 297.248 498.254 298.368 498.179 299.6C498.104 300.795 498.011 302.027 497.899 303.296C497.824 304.528 497.712 305.648 497.563 306.656C497.376 307.851 497.115 308.952 496.779 309.96C496.48 310.968 496.032 311.845 495.435 312.592C494.838 313.339 494.091 313.936 493.195 314.384C492.299 314.795 491.179 315 489.835 315H489.163V311.528H489.667C490.563 311.528 491.291 311.267 491.851 310.744C492.411 310.221 492.84 309.531 493.139 308.672C493.475 307.776 493.699 306.787 493.811 305.704C493.96 304.584 494.091 303.464 494.203 302.344C494.24 301.784 494.278 301.112 494.315 300.328C494.352 299.507 494.371 298.685 494.371 297.864C494.408 297.043 494.446 296.277 494.483 295.568C494.52 294.821 494.539 294.243 494.539 293.832L494.707 287.224H508.035V315ZM522.328 299.04C523 299.04 523.541 298.891 523.952 298.592C524.362 298.293 524.68 297.901 524.904 297.416C525.165 296.931 525.333 296.408 525.408 295.848C525.52 295.288 525.613 294.747 525.688 294.224L526.024 291.76C526.136 291.051 526.285 290.397 526.472 289.8C526.658 289.203 526.938 288.699 527.312 288.288C527.722 287.84 528.264 287.504 528.936 287.28C529.645 287.056 530.56 286.944 531.68 286.944H532.296V290.472H531.68C530.933 290.472 530.41 290.733 530.112 291.256C529.813 291.779 529.589 292.563 529.44 293.608L529.104 295.904C528.917 297.099 528.73 298.051 528.544 298.76C528.357 299.469 527.909 300.123 527.2 300.72L532.184 315H528.04L523.672 302.4H519.192V315H514.992V287.224H519.192V299.04H522.328ZM546.299 319.928C546 321.123 545.646 322.131 545.235 322.952C544.824 323.811 544.32 324.483 543.723 324.968C543.163 325.491 542.472 325.864 541.651 326.088C540.867 326.312 539.934 326.424 538.851 326.424H537.899V322.616H538.683C539.99 322.616 540.923 322.243 541.483 321.496C542.043 320.749 542.528 319.555 542.939 317.912L543.723 314.608L535.547 287.224H539.971L545.571 307.44H545.683L549.939 287.224H554.195L546.299 319.928ZM576.067 287.224V305.648L584.859 290.64V287.224H589.059V315H584.859V297.08L576.067 312.088V315H571.867V287.224H576.067ZM609.054 287.224H613.254V299.096H620.87V287.224H625.07V315H620.87V302.68H613.254V315H609.054V287.224ZM643.559 312.256H643.503C643.167 312.667 642.812 313.059 642.439 313.432C642.065 313.805 641.636 314.141 641.151 314.44C640.665 314.739 640.105 314.981 639.471 315.168C638.873 315.355 638.127 315.448 637.231 315.448C636.111 315.448 635.177 315.261 634.431 314.888C633.721 314.477 633.143 313.917 632.695 313.208C632.284 312.499 631.985 311.677 631.799 310.744C631.612 309.811 631.519 308.784 631.519 307.664C631.519 306.208 631.649 304.92 631.911 303.8C632.172 302.643 632.62 301.672 633.255 300.888C633.889 300.104 634.711 299.507 635.719 299.096C636.764 298.685 638.071 298.48 639.639 298.48C639.937 298.48 640.367 298.499 640.927 298.536C641.487 298.536 642.364 298.592 643.559 298.704V294.616C643.559 294.243 643.484 293.832 643.335 293.384C643.185 292.936 642.943 292.525 642.607 292.152C642.308 291.779 641.916 291.48 641.431 291.256C640.945 290.995 640.348 290.864 639.639 290.864C639.265 290.864 638.873 290.92 638.463 291.032C638.089 291.107 637.716 291.275 637.343 291.536C637.007 291.797 636.689 292.152 636.391 292.6C636.129 293.048 635.943 293.608 635.831 294.28H631.799C631.799 293.123 632.004 292.077 632.415 291.144C632.863 290.211 633.441 289.427 634.151 288.792C634.897 288.12 635.756 287.616 636.727 287.28C637.735 286.944 638.799 286.776 639.919 286.776C641.524 286.776 642.831 287.056 643.839 287.616C644.884 288.139 645.687 288.811 646.247 289.632C646.844 290.416 647.236 291.312 647.423 292.32C647.647 293.291 647.759 294.224 647.759 295.12V315H643.559V312.256ZM643.559 301.784C642.961 301.709 642.42 301.653 641.935 301.616C641.449 301.541 641.039 301.504 640.703 301.504C640.105 301.504 639.508 301.597 638.911 301.784C638.313 301.933 637.772 302.232 637.287 302.68C636.839 303.091 636.465 303.651 636.167 304.36C635.868 305.032 635.719 305.872 635.719 306.88C635.719 308.859 636.017 310.184 636.615 310.856C637.212 311.528 638.108 311.864 639.303 311.864C639.751 311.864 640.217 311.733 640.703 311.472C641.188 311.211 641.636 310.837 642.047 310.352C642.495 309.867 642.849 309.325 643.111 308.728C643.409 308.093 643.559 307.403 643.559 306.656V301.784ZM654.718 291.76C654.718 290.379 654.793 288.979 654.942 287.56C655.129 286.104 655.595 284.816 656.342 283.696C656.977 282.725 657.667 281.979 658.414 281.456C659.198 280.933 659.982 280.523 660.766 280.224C661.251 280.037 661.737 279.869 662.222 279.72C662.745 279.533 663.211 279.365 663.622 279.216C665.563 278.544 666.534 277.555 666.534 276.248V275.8H670.23V276.528C670.23 277.013 670.211 277.555 670.174 278.152C670.137 278.712 670.006 279.216 669.782 279.664C669.371 280.411 668.793 280.971 668.046 281.344C667.337 281.68 666.459 282.016 665.414 282.352L662.614 283.304C662.091 283.491 661.513 283.752 660.878 284.088C660.281 284.387 659.758 284.835 659.31 285.432C658.899 285.992 658.582 286.645 658.358 287.392C658.171 288.139 658.078 288.829 658.078 289.464V290.864H658.246C658.769 289.893 659.534 289.053 660.542 288.344C661.587 287.597 663.006 287.224 664.798 287.224C665.731 287.224 666.553 287.373 667.262 287.672C667.971 287.971 668.531 288.325 668.942 288.736C669.465 289.221 669.894 289.837 670.23 290.584C670.566 291.293 670.734 292.115 670.734 293.048V306.488C670.734 307.011 670.715 307.589 670.678 308.224C670.641 308.821 670.529 309.437 670.342 310.072C670.193 310.707 669.931 311.341 669.558 311.976C669.222 312.573 668.755 313.115 668.158 313.6C667.411 314.235 666.553 314.701 665.582 315C664.649 315.299 663.697 315.448 662.726 315.448C661.755 315.448 660.785 315.299 659.814 315C658.881 314.739 658.041 314.291 657.294 313.656C656.697 313.171 656.211 312.629 655.838 312.032C655.502 311.397 655.241 310.763 655.054 310.128C654.905 309.456 654.811 308.821 654.774 308.224C654.737 307.589 654.718 307.011 654.718 306.488V291.76ZM666.534 295.4C666.534 294.653 666.422 293.981 666.198 293.384C665.974 292.787 665.713 292.32 665.414 291.984C664.667 291.237 663.771 290.864 662.726 290.864C662.203 290.864 661.699 290.976 661.214 291.2C660.766 291.424 660.374 291.704 660.038 292.04C659.739 292.376 659.478 292.88 659.254 293.552C659.03 294.187 658.918 294.877 658.918 295.624V306.824C658.918 307.608 659.03 308.299 659.254 308.896C659.478 309.493 659.739 309.979 660.038 310.352C660.337 310.651 660.71 310.893 661.158 311.08C661.643 311.267 662.166 311.36 662.726 311.36C663.286 311.36 663.79 311.267 664.238 311.08C664.723 310.893 665.115 310.651 665.414 310.352C665.713 309.979 665.974 309.493 666.198 308.896C666.422 308.299 666.534 307.608 666.534 306.824V295.4ZM693.316 315H689.116V290.752H683.796L683.684 294C683.684 294.485 683.665 295.232 683.628 296.24C683.591 297.248 683.535 298.368 683.46 299.6C683.385 300.795 683.292 302.027 683.18 303.296C683.105 304.528 682.993 305.648 682.844 306.656C682.657 307.851 682.396 308.952 682.06 309.96C681.761 310.968 681.313 311.845 680.716 312.592C680.119 313.339 679.372 313.936 678.476 314.384C677.58 314.795 676.46 315 675.116 315H674.444V311.528H674.948C675.844 311.528 676.572 311.267 677.132 310.744C677.692 310.221 678.121 309.531 678.42 308.672C678.756 307.776 678.98 306.787 679.092 305.704C679.241 304.584 679.372 303.464 679.484 302.344C679.521 301.784 679.559 301.112 679.596 300.328C679.633 299.507 679.652 298.685 679.652 297.864C679.689 297.043 679.727 296.277 679.764 295.568C679.801 294.821 679.82 294.243 679.82 293.832L679.988 287.224H693.316V315ZM709.345 302.68H704.473V315H700.273V287.224H704.473V299.096H709.345V294.616C709.345 294.093 709.438 293.403 709.625 292.544C709.811 291.648 710.185 290.771 710.745 289.912C711.305 289.053 712.107 288.325 713.153 287.728C714.198 287.093 715.579 286.776 717.297 286.776C719.014 286.776 720.395 287.093 721.441 287.728C722.486 288.325 723.289 289.053 723.849 289.912C724.446 290.771 724.838 291.648 725.025 292.544C725.211 293.403 725.305 294.075 725.305 294.56V307.496C725.305 308.056 725.211 308.784 725.025 309.68C724.838 310.576 724.446 311.453 723.849 312.312C723.289 313.171 722.486 313.917 721.441 314.552C720.395 315.149 719.014 315.448 717.297 315.448C715.579 315.448 714.198 315.149 713.153 314.552C712.107 313.917 711.305 313.171 710.745 312.312C710.185 311.453 709.811 310.576 709.625 309.68C709.438 308.784 709.345 308.056 709.345 307.496V302.68ZM721.105 295.4C721.105 293.832 720.731 292.693 719.985 291.984C719.238 291.237 718.342 290.864 717.297 290.864C716.251 290.864 715.355 291.237 714.609 291.984C713.862 292.693 713.489 293.832 713.489 295.4V306.824C713.489 308.28 713.806 309.4 714.441 310.184C715.113 310.968 716.065 311.36 717.297 311.36C718.491 311.36 719.425 310.987 720.097 310.24C720.769 309.493 721.105 308.355 721.105 306.824V295.4ZM751.758 311.472V320.824H747.838V315H733.054V320.824H729.134V311.472H731.878C732.625 309.792 733.185 308.243 733.558 306.824C733.969 305.405 734.286 303.968 734.51 302.512C734.622 301.691 734.716 300.776 734.79 299.768C734.865 298.723 734.921 297.677 734.958 296.632C735.033 295.549 735.089 294.485 735.126 293.44C735.164 292.357 735.182 291.368 735.182 290.472V287.224H748.454V311.472H751.758ZM738.878 290.696V294.224C738.878 295.792 738.822 297.341 738.71 298.872C738.636 300.365 738.449 301.989 738.15 303.744C737.964 304.827 737.702 306.021 737.366 307.328C737.068 308.597 736.564 310.016 735.854 311.584H744.254V290.696H738.878ZM767.645 312.256H767.589C767.253 312.667 766.898 313.059 766.525 313.432C766.151 313.805 765.722 314.141 765.237 314.44C764.751 314.739 764.191 314.981 763.557 315.168C762.959 315.355 762.213 315.448 761.317 315.448C760.197 315.448 759.263 315.261 758.517 314.888C757.807 314.477 757.229 313.917 756.781 313.208C756.37 312.499 756.071 311.677 755.885 310.744C755.698 309.811 755.605 308.784 755.605 307.664C755.605 306.208 755.735 304.92 755.997 303.8C756.258 302.643 756.706 301.672 757.341 300.888C757.975 300.104 758.797 299.507 759.805 299.096C760.85 298.685 762.157 298.48 763.725 298.48C764.023 298.48 764.453 298.499 765.013 298.536C765.573 298.536 766.45 298.592 767.645 298.704V294.616C767.645 294.243 767.57 293.832 767.421 293.384C767.271 292.936 767.029 292.525 766.693 292.152C766.394 291.779 766.002 291.48 765.517 291.256C765.031 290.995 764.434 290.864 763.725 290.864C763.351 290.864 762.959 290.92 762.549 291.032C762.175 291.107 761.802 291.275 761.429 291.536C761.093 291.797 760.775 292.152 760.477 292.6C760.215 293.048 760.029 293.608 759.917 294.28H755.885C755.885 293.123 756.09 292.077 756.501 291.144C756.949 290.211 757.527 289.427 758.237 288.792C758.983 288.12 759.842 287.616 760.813 287.28C761.821 286.944 762.885 286.776 764.005 286.776C765.61 286.776 766.917 287.056 767.925 287.616C768.97 288.139 769.773 288.811 770.333 289.632C770.93 290.416 771.322 291.312 771.509 292.32C771.733 293.291 771.845 294.224 771.845 295.12V315H767.645V312.256ZM767.645 301.784C767.047 301.709 766.506 301.653 766.021 301.616C765.535 301.541 765.125 301.504 764.789 301.504C764.191 301.504 763.594 301.597 762.997 301.784C762.399 301.933 761.858 302.232 761.373 302.68C760.925 303.091 760.551 303.651 760.253 304.36C759.954 305.032 759.805 305.872 759.805 306.88C759.805 308.859 760.103 310.184 760.701 310.856C761.298 311.528 762.194 311.864 763.389 311.864C763.837 311.864 764.303 311.733 764.789 311.472C765.274 311.211 765.722 310.837 766.133 310.352C766.581 309.867 766.935 309.325 767.197 308.728C767.495 308.093 767.645 307.403 767.645 306.656V301.784ZM783.004 287.224V305.648L791.796 290.64V287.224H795.996V315H791.796V297.08L783.004 312.088V315H778.804V287.224H783.004ZM789.892 276.696H793.308V277.256C793.308 277.965 793.215 278.731 793.028 279.552C792.841 280.336 792.431 281.027 791.796 281.624C791.161 282.259 790.415 282.651 789.556 282.8C788.735 282.949 788.007 283.024 787.372 283.024C786.737 283.024 785.991 282.949 785.132 282.8C784.311 282.651 783.583 282.259 782.948 281.624C782.313 281.027 781.903 280.336 781.716 279.552C781.529 278.731 781.436 277.965 781.436 277.256V276.696H784.852V277.256C784.852 277.555 784.871 277.872 784.908 278.208C784.983 278.544 785.095 278.861 785.244 279.16C785.431 279.459 785.692 279.72 786.028 279.944C786.364 280.131 786.812 280.224 787.372 280.224C787.932 280.224 788.38 280.131 788.716 279.944C789.052 279.72 789.295 279.459 789.444 279.16C789.631 278.861 789.743 278.544 789.78 278.208C789.855 277.872 789.892 277.555 789.892 277.256V276.696ZM105.188 361.56C105.188 360.888 105.281 360.123 105.468 359.264C105.692 358.368 106.084 357.509 106.644 356.688C107.241 355.867 108.063 355.176 109.108 354.616C110.191 354.056 111.572 353.776 113.252 353.776C115.641 353.776 117.508 354.411 118.852 355.68C120.233 356.949 120.924 358.76 120.924 361.112V362.176C120.924 363.744 120.532 364.957 119.748 365.816C119.001 366.675 118.143 367.272 117.172 367.608C118.143 367.832 118.889 368.187 119.412 368.672C119.972 369.157 120.364 369.68 120.588 370.24C120.849 370.8 120.999 371.36 121.036 371.92C121.111 372.48 121.148 372.928 121.148 373.264V374.944C121.148 377.221 120.401 379.051 118.908 380.432C117.452 381.776 115.511 382.448 113.084 382.448C111.479 382.448 110.153 382.187 109.108 381.664C108.1 381.141 107.297 380.488 106.7 379.704C106.103 378.92 105.692 378.08 105.468 377.184C105.244 376.251 105.132 375.392 105.132 374.608V373.544H109.332V374.16C109.332 375.691 109.649 376.773 110.284 377.408C110.919 378.043 111.852 378.36 113.084 378.36C114.54 378.36 115.548 377.968 116.108 377.184C116.668 376.4 116.948 375.429 116.948 374.272V373.544C116.948 372.013 116.593 370.987 115.884 370.464C115.212 369.941 114.335 369.68 113.252 369.68H111.124V366.208H113.084C114.167 366.208 115.044 365.816 115.716 365.032C116.388 364.211 116.724 363.259 116.724 362.176V361.168C116.724 360.16 116.351 359.357 115.604 358.76C114.895 358.163 114.111 357.864 113.252 357.864C112.095 357.864 111.161 358.219 110.452 358.928C109.743 359.637 109.388 360.776 109.388 362.344V362.736H105.188V361.56ZM139.121 379.256H139.065C138.729 379.667 138.375 380.059 138.001 380.432C137.628 380.805 137.199 381.141 136.713 381.44C136.228 381.739 135.668 381.981 135.033 382.168C134.436 382.355 133.689 382.448 132.793 382.448C131.673 382.448 130.74 382.261 129.993 381.888C129.284 381.477 128.705 380.917 128.257 380.208C127.847 379.499 127.548 378.677 127.361 377.744C127.175 376.811 127.081 375.784 127.081 374.664C127.081 373.208 127.212 371.92 127.473 370.8C127.735 369.643 128.183 368.672 128.817 367.888C129.452 367.104 130.273 366.507 131.281 366.096C132.327 365.685 133.633 365.48 135.201 365.48C135.5 365.48 135.929 365.499 136.489 365.536C137.049 365.536 137.927 365.592 139.121 365.704V361.616C139.121 361.243 139.047 360.832 138.897 360.384C138.748 359.936 138.505 359.525 138.169 359.152C137.871 358.779 137.479 358.48 136.993 358.256C136.508 357.995 135.911 357.864 135.201 357.864C134.828 357.864 134.436 357.92 134.025 358.032C133.652 358.107 133.279 358.275 132.905 358.536C132.569 358.797 132.252 359.152 131.953 359.6C131.692 360.048 131.505 360.608 131.393 361.28H127.361C127.361 360.123 127.567 359.077 127.977 358.144C128.425 357.211 129.004 356.427 129.713 355.792C130.46 355.12 131.319 354.616 132.289 354.28C133.297 353.944 134.361 353.776 135.481 353.776C137.087 353.776 138.393 354.056 139.401 354.616C140.447 355.139 141.249 355.811 141.809 356.632C142.407 357.416 142.799 358.312 142.985 359.32C143.209 360.291 143.321 361.224 143.321 362.12V382H139.121V379.256ZM139.121 368.784C138.524 368.709 137.983 368.653 137.497 368.616C137.012 368.541 136.601 368.504 136.265 368.504C135.668 368.504 135.071 368.597 134.473 368.784C133.876 368.933 133.335 369.232 132.849 369.68C132.401 370.091 132.028 370.651 131.729 371.36C131.431 372.032 131.281 372.872 131.281 373.88C131.281 375.859 131.58 377.184 132.177 377.856C132.775 378.528 133.671 378.864 134.865 378.864C135.313 378.864 135.78 378.733 136.265 378.472C136.751 378.211 137.199 377.837 137.609 377.352C138.057 376.867 138.412 376.325 138.673 375.728C138.972 375.093 139.121 374.403 139.121 373.656V368.784ZM170.967 357.752V382H166.767V357.752H160.887V354.224H176.847V357.752H170.967ZM192.767 374.216H196.967V374.608C196.967 375.28 196.855 376.083 196.631 377.016C196.444 377.912 196.071 378.771 195.511 379.592C194.951 380.376 194.167 381.048 193.159 381.608C192.151 382.168 190.844 382.448 189.239 382.448C187.484 382.448 186.084 382.149 185.039 381.552C183.994 380.917 183.172 380.171 182.575 379.312C181.978 378.453 181.586 377.576 181.399 376.68C181.212 375.747 181.119 374.981 181.119 374.384V361.504C181.119 360.944 181.212 360.235 181.399 359.376C181.586 358.517 181.959 357.677 182.519 356.856C183.079 355.997 183.863 355.269 184.871 354.672C185.916 354.075 187.279 353.776 188.959 353.776C190.602 353.776 191.946 354.075 192.991 354.672C194.074 355.269 194.914 355.997 195.511 356.856C196.108 357.677 196.519 358.555 196.743 359.488C196.967 360.384 197.079 361.131 197.079 361.728V369.68H185.319V374.104C185.319 375.597 185.636 376.68 186.271 377.352C186.943 378.024 187.932 378.36 189.239 378.36C190.471 378.36 191.367 378.024 191.927 377.352C192.487 376.643 192.767 375.709 192.767 374.552V374.216ZM192.879 366.544V361.784C192.879 361.336 192.823 360.888 192.711 360.44C192.599 359.955 192.394 359.525 192.095 359.152C191.796 358.779 191.404 358.48 190.919 358.256C190.434 357.995 189.836 357.864 189.127 357.864C188.38 357.864 187.764 357.995 187.279 358.256C186.794 358.517 186.402 358.853 186.103 359.264C185.804 359.675 185.599 360.123 185.487 360.608C185.375 361.093 185.319 361.56 185.319 362.008V366.544H192.879ZM214.241 371.36L220.737 354.224H224.769V382H220.793V363.632L215.137 378.024H213.233L207.577 363.632V382H203.601V354.224H207.577L214.241 371.36ZM236.414 377.24V382.504L231.598 386.816V377.24H236.414ZM264.203 366.04C264.875 366.04 265.416 365.891 265.827 365.592C266.237 365.293 266.555 364.901 266.779 364.416C267.04 363.931 267.208 363.408 267.283 362.848C267.395 362.288 267.488 361.747 267.563 361.224L267.899 358.76C268.011 358.051 268.16 357.397 268.347 356.8C268.533 356.203 268.813 355.699 269.187 355.288C269.597 354.84 270.139 354.504 270.811 354.28C271.52 354.056 272.435 353.944 273.555 353.944H274.171V357.472H273.555C272.808 357.472 272.285 357.733 271.987 358.256C271.688 358.779 271.464 359.563 271.315 360.608L270.979 362.904C270.792 364.099 270.605 365.051 270.419 365.76C270.232 366.469 269.784 367.123 269.075 367.72L274.059 382H269.915L265.547 369.4H261.067V382H256.867V354.224H261.067V366.04H264.203ZM291.043 379.256H290.987C290.651 379.667 290.296 380.059 289.923 380.432C289.55 380.805 289.12 381.141 288.635 381.44C288.15 381.739 287.59 381.981 286.955 382.168C286.358 382.355 285.611 382.448 284.715 382.448C283.595 382.448 282.662 382.261 281.915 381.888C281.206 381.477 280.627 380.917 280.179 380.208C279.768 379.499 279.47 378.677 279.283 377.744C279.096 376.811 279.003 375.784 279.003 374.664C279.003 373.208 279.134 371.92 279.395 370.8C279.656 369.643 280.104 368.672 280.739 367.888C281.374 367.104 282.195 366.507 283.203 366.096C284.248 365.685 285.555 365.48 287.123 365.48C287.422 365.48 287.851 365.499 288.411 365.536C288.971 365.536 289.848 365.592 291.043 365.704V361.616C291.043 361.243 290.968 360.832 290.819 360.384C290.67 359.936 290.427 359.525 290.091 359.152C289.792 358.779 289.4 358.48 288.915 358.256C288.43 357.995 287.832 357.864 287.123 357.864C286.75 357.864 286.358 357.92 285.947 358.032C285.574 358.107 285.2 358.275 284.827 358.536C284.491 358.797 284.174 359.152 283.875 359.6C283.614 360.048 283.427 360.608 283.315 361.28H279.283C279.283 360.123 279.488 359.077 279.899 358.144C280.347 357.211 280.926 356.427 281.635 355.792C282.382 355.12 283.24 354.616 284.211 354.28C285.219 353.944 286.283 353.776 287.403 353.776C289.008 353.776 290.315 354.056 291.323 354.616C292.368 355.139 293.171 355.811 293.731 356.632C294.328 357.416 294.72 358.312 294.907 359.32C295.131 360.291 295.243 361.224 295.243 362.12V382H291.043V379.256ZM291.043 368.784C290.446 368.709 289.904 368.653 289.419 368.616C288.934 368.541 288.523 368.504 288.187 368.504C287.59 368.504 286.992 368.597 286.395 368.784C285.798 368.933 285.256 369.232 284.771 369.68C284.323 370.091 283.95 370.651 283.651 371.36C283.352 372.032 283.203 372.872 283.203 373.88C283.203 375.859 283.502 377.184 284.099 377.856C284.696 378.528 285.592 378.864 286.787 378.864C287.235 378.864 287.702 378.733 288.187 378.472C288.672 378.211 289.12 377.837 289.531 377.352C289.979 376.867 290.334 376.325 290.595 375.728C290.894 375.093 291.043 374.403 291.043 373.656V368.784ZM309.538 366.04C310.21 366.04 310.752 365.891 311.162 365.592C311.573 365.293 311.89 364.901 312.114 364.416C312.376 363.931 312.544 363.408 312.618 362.848C312.73 362.288 312.824 361.747 312.898 361.224L313.234 358.76C313.346 358.051 313.496 357.397 313.682 356.8C313.869 356.203 314.149 355.699 314.522 355.288C314.933 354.84 315.474 354.504 316.146 354.28C316.856 354.056 317.77 353.944 318.89 353.944H319.506V357.472H318.89C318.144 357.472 317.621 357.733 317.322 358.256C317.024 358.779 316.8 359.563 316.65 360.608L316.314 362.904C316.128 364.099 315.941 365.051 315.754 365.76C315.568 366.469 315.12 367.123 314.41 367.72L319.394 382H315.25L310.882 369.4H306.402V382H302.202V354.224H306.402V366.04H309.538ZM345.249 366.04C345.921 366.04 346.463 365.891 346.873 365.592C347.284 365.293 347.601 364.901 347.825 364.416C348.087 363.931 348.255 363.408 348.329 362.848C348.441 362.288 348.535 361.747 348.609 361.224L348.945 358.76C349.057 358.051 349.207 357.397 349.393 356.8C349.58 356.203 349.86 355.699 350.233 355.288C350.644 354.84 351.185 354.504 351.857 354.28C352.567 354.056 353.481 353.944 354.601 353.944H355.217V357.472H354.601C353.855 357.472 353.332 357.733 353.033 358.256C352.735 358.779 352.511 359.563 352.361 360.608L352.025 362.904C351.839 364.099 351.652 365.051 351.465 365.76C351.279 366.469 350.831 367.123 350.121 367.72L355.105 382H350.961L346.593 369.4H342.113V382H337.913V354.224H342.113V366.04H345.249ZM360.33 361.616C360.33 361.093 360.423 360.403 360.61 359.544C360.797 358.648 361.17 357.771 361.73 356.912C362.327 356.053 363.149 355.325 364.194 354.728C365.239 354.093 366.621 353.776 368.338 353.776C370.055 353.776 371.437 354.093 372.482 354.728C373.527 355.325 374.33 356.053 374.89 356.912C375.487 357.771 375.879 358.648 376.066 359.544C376.253 360.403 376.346 361.075 376.346 361.56V374.496C376.346 375.056 376.253 375.784 376.066 376.68C375.879 377.576 375.487 378.453 374.89 379.312C374.33 380.171 373.527 380.917 372.482 381.552C371.437 382.149 370.055 382.448 368.338 382.448C366.621 382.448 365.239 382.149 364.194 381.552C363.149 380.917 362.327 380.171 361.73 379.312C361.17 378.453 360.797 377.576 360.61 376.68C360.423 375.784 360.33 375.056 360.33 374.496V361.616ZM372.146 362.4C372.146 360.832 371.773 359.693 371.026 358.984C370.279 358.237 369.383 357.864 368.338 357.864C367.293 357.864 366.397 358.237 365.65 358.984C364.903 359.693 364.53 360.832 364.53 362.4V373.824C364.53 375.28 364.847 376.4 365.482 377.184C366.154 377.968 367.106 378.36 368.338 378.36C369.533 378.36 370.466 377.987 371.138 377.24C371.81 376.493 372.146 375.355 372.146 373.824V362.4ZM383.085 354.224H398.765V382H394.565V357.752H387.285V382H383.085V354.224ZM425.774 354.224H429.974V382H425.774V354.224ZM409.926 354.224V365.312H413.678C414.462 365.312 415.302 365.387 416.198 365.536C417.131 365.648 417.99 365.928 418.774 366.376C419.558 366.824 420.211 367.477 420.734 368.336C421.257 369.195 421.518 370.352 421.518 371.808V375.168C421.518 377.632 420.79 379.387 419.334 380.432C417.915 381.477 416.03 382 413.678 382H405.726V354.224H409.926ZM409.926 378.472H413.342C413.79 378.472 414.238 378.416 414.686 378.304C415.171 378.192 415.601 378.005 415.974 377.744C416.385 377.445 416.702 377.072 416.926 376.624C417.187 376.139 417.318 375.541 417.318 374.832V372.536C417.318 371.155 416.889 370.203 416.03 369.68C415.209 369.12 414.313 368.84 413.342 368.84H409.926V378.472ZM444.514 357.752V382H440.314V357.752H434.434V354.224H450.394V357.752H444.514ZM465.606 379.256H465.55C465.214 379.667 464.859 380.059 464.486 380.432C464.112 380.805 463.683 381.141 463.198 381.44C462.712 381.739 462.152 381.981 461.518 382.168C460.92 382.355 460.174 382.448 459.278 382.448C458.158 382.448 457.224 382.261 456.478 381.888C455.768 381.477 455.19 380.917 454.742 380.208C454.331 379.499 454.032 378.677 453.846 377.744C453.659 376.811 453.566 375.784 453.566 374.664C453.566 373.208 453.696 371.92 453.958 370.8C454.219 369.643 454.667 368.672 455.302 367.888C455.936 367.104 456.758 366.507 457.766 366.096C458.811 365.685 460.118 365.48 461.686 365.48C461.984 365.48 462.414 365.499 462.974 365.536C463.534 365.536 464.411 365.592 465.606 365.704V361.616C465.606 361.243 465.531 360.832 465.382 360.384C465.232 359.936 464.99 359.525 464.654 359.152C464.355 358.779 463.963 358.48 463.478 358.256C462.992 357.995 462.395 357.864 461.686 357.864C461.312 357.864 460.92 357.92 460.51 358.032C460.136 358.107 459.763 358.275 459.39 358.536C459.054 358.797 458.736 359.152 458.438 359.6C458.176 360.048 457.99 360.608 457.878 361.28H453.846C453.846 360.123 454.051 359.077 454.462 358.144C454.91 357.211 455.488 356.427 456.198 355.792C456.944 355.12 457.803 354.616 458.774 354.28C459.782 353.944 460.846 353.776 461.966 353.776C463.571 353.776 464.878 354.056 465.886 354.616C466.931 355.139 467.734 355.811 468.294 356.632C468.891 357.416 469.283 358.312 469.47 359.32C469.694 360.291 469.806 361.224 469.806 362.12V382H465.606V379.256ZM465.606 368.784C465.008 368.709 464.467 368.653 463.982 368.616C463.496 368.541 463.086 368.504 462.75 368.504C462.152 368.504 461.555 368.597 460.958 368.784C460.36 368.933 459.819 369.232 459.334 369.68C458.886 370.091 458.512 370.651 458.214 371.36C457.915 372.032 457.766 372.872 457.766 373.88C457.766 375.859 458.064 377.184 458.662 377.856C459.259 378.528 460.155 378.864 461.35 378.864C461.798 378.864 462.264 378.733 462.75 378.472C463.235 378.211 463.683 377.837 464.094 377.352C464.542 376.867 464.896 376.325 465.158 375.728C465.456 375.093 465.606 374.403 465.606 373.656V368.784ZM489.835 354.224H494.035V356.968C494.931 355.773 495.902 354.952 496.947 354.504C498.03 354.019 499.057 353.776 500.027 353.776C501.259 353.776 502.249 353.981 502.995 354.392C503.779 354.803 504.377 355.344 504.787 356.016C505.198 356.651 505.478 357.341 505.627 358.088C505.777 358.835 505.851 359.544 505.851 360.216V376.008C505.851 376.68 505.777 377.389 505.627 378.136C505.478 378.883 505.198 379.592 504.787 380.264C504.377 380.899 503.779 381.421 502.995 381.832C502.249 382.243 501.259 382.448 500.027 382.448C499.057 382.448 498.03 382.224 496.947 381.776C495.902 381.291 494.931 380.451 494.035 379.256V393.424H489.835V354.224ZM498.123 378.36C498.795 378.36 499.355 378.248 499.803 378.024C500.251 377.763 500.606 377.427 500.867 377.016C501.166 376.605 501.371 376.139 501.483 375.616C501.595 375.093 501.651 374.571 501.651 374.048V362.176C501.651 361.653 501.595 361.131 501.483 360.608C501.371 360.085 501.166 359.619 500.867 359.208C500.606 358.797 500.251 358.48 499.803 358.256C499.355 357.995 498.795 357.864 498.123 357.864C497.265 357.864 496.574 358.051 496.051 358.424C495.529 358.797 495.118 359.245 494.819 359.768C494.521 360.291 494.315 360.851 494.203 361.448C494.091 362.008 494.035 362.512 494.035 362.96V373.264C494.035 373.712 494.091 374.235 494.203 374.832C494.315 375.392 494.521 375.933 494.819 376.456C495.118 376.979 495.529 377.427 496.051 377.8C496.574 378.173 497.265 378.36 498.123 378.36ZM524.34 379.256H524.284C523.948 379.667 523.593 380.059 523.22 380.432C522.847 380.805 522.417 381.141 521.932 381.44C521.447 381.739 520.887 381.981 520.252 382.168C519.655 382.355 518.908 382.448 518.012 382.448C516.892 382.448 515.959 382.261 515.212 381.888C514.503 381.477 513.924 380.917 513.476 380.208C513.065 379.499 512.767 378.677 512.58 377.744C512.393 376.811 512.3 375.784 512.3 374.664C512.3 373.208 512.431 371.92 512.692 370.8C512.953 369.643 513.401 368.672 514.036 367.888C514.671 367.104 515.492 366.507 516.5 366.096C517.545 365.685 518.852 365.48 520.42 365.48C520.719 365.48 521.148 365.499 521.708 365.536C522.268 365.536 523.145 365.592 524.34 365.704V361.616C524.34 361.243 524.265 360.832 524.116 360.384C523.967 359.936 523.724 359.525 523.388 359.152C523.089 358.779 522.697 358.48 522.212 358.256C521.727 357.995 521.129 357.864 520.42 357.864C520.047 357.864 519.655 357.92 519.244 358.032C518.871 358.107 518.497 358.275 518.124 358.536C517.788 358.797 517.471 359.152 517.172 359.6C516.911 360.048 516.724 360.608 516.612 361.28H512.58C512.58 360.123 512.785 359.077 513.196 358.144C513.644 357.211 514.223 356.427 514.932 355.792C515.679 355.12 516.537 354.616 517.508 354.28C518.516 353.944 519.58 353.776 520.7 353.776C522.305 353.776 523.612 354.056 524.62 354.616C525.665 355.139 526.468 355.811 527.028 356.632C527.625 357.416 528.017 358.312 528.204 359.32C528.428 360.291 528.54 361.224 528.54 362.12V382H524.34V379.256ZM524.34 368.784C523.743 368.709 523.201 368.653 522.716 368.616C522.231 368.541 521.82 368.504 521.484 368.504C520.887 368.504 520.289 368.597 519.692 368.784C519.095 368.933 518.553 369.232 518.068 369.68C517.62 370.091 517.247 370.651 516.948 371.36C516.649 372.032 516.5 372.872 516.5 373.88C516.5 375.859 516.799 377.184 517.396 377.856C517.993 378.528 518.889 378.864 520.084 378.864C520.532 378.864 520.999 378.733 521.484 378.472C521.969 378.211 522.417 377.837 522.828 377.352C523.276 376.867 523.631 376.325 523.892 375.728C524.191 375.093 524.34 374.403 524.34 373.656V368.784ZM534.211 361.56C534.211 360.888 534.305 360.123 534.491 359.264C534.715 358.368 535.107 357.509 535.667 356.688C536.265 355.867 537.086 355.176 538.131 354.616C539.214 354.056 540.595 353.776 542.275 353.776C544.665 353.776 546.531 354.411 547.875 355.68C549.257 356.949 549.947 358.76 549.947 361.112V362.176C549.947 363.744 549.555 364.957 548.771 365.816C548.025 366.675 547.166 367.272 546.195 367.608C547.166 367.832 547.913 368.187 548.435 368.672C548.995 369.157 549.387 369.68 549.611 370.24C549.873 370.8 550.022 371.36 550.059 371.92C550.134 372.48 550.171 372.928 550.171 373.264V374.944C550.171 377.221 549.425 379.051 547.931 380.432C546.475 381.776 544.534 382.448 542.107 382.448C540.502 382.448 539.177 382.187 538.131 381.664C537.123 381.141 536.321 380.488 535.723 379.704C535.126 378.92 534.715 378.08 534.491 377.184C534.267 376.251 534.155 375.392 534.155 374.608V373.544H538.355V374.16C538.355 375.691 538.673 376.773 539.307 377.408C539.942 378.043 540.875 378.36 542.107 378.36C543.563 378.36 544.571 377.968 545.131 377.184C545.691 376.4 545.971 375.429 545.971 374.272V373.544C545.971 372.013 545.617 370.987 544.907 370.464C544.235 369.941 543.358 369.68 542.275 369.68H540.147V366.208H542.107C543.19 366.208 544.067 365.816 544.739 365.032C545.411 364.211 545.747 363.259 545.747 362.176V361.168C545.747 360.16 545.374 359.357 544.627 358.76C543.918 358.163 543.134 357.864 542.275 357.864C541.118 357.864 540.185 358.219 539.475 358.928C538.766 359.637 538.411 360.776 538.411 362.344V362.736H534.211V361.56ZM564.729 386.928C564.43 388.123 564.075 389.131 563.665 389.952C563.254 390.811 562.75 391.483 562.153 391.968C561.593 392.491 560.902 392.864 560.081 393.088C559.297 393.312 558.363 393.424 557.281 393.424H556.329V389.616H557.113C558.419 389.616 559.353 389.243 559.913 388.496C560.473 387.749 560.958 386.555 561.369 384.912L562.153 381.608L553.977 354.224H558.401L564.001 374.44H564.113L568.369 354.224H572.625L564.729 386.928ZM588.238 370.296C587.268 370.781 586.297 371.099 585.326 371.248C584.356 371.36 583.46 371.416 582.638 371.416C580.772 371.416 579.316 370.949 578.27 370.016C577.225 369.083 576.702 367.44 576.702 365.088V354.224H580.902V364.192C580.902 366.619 582.116 367.832 584.542 367.832C585.289 367.832 585.961 367.739 586.558 367.552C587.156 367.328 587.716 367.067 588.238 366.768V354.224H592.438V382H588.238V370.296ZM603.574 354.224V372.648L612.366 357.64V354.224H616.566V382H612.366V364.08L603.574 379.088V382H599.374V354.224H603.574ZM631.668 354.224C633.049 354.224 634.206 354.411 635.14 354.784C636.11 355.12 636.876 355.587 637.436 356.184C638.033 356.744 638.462 357.416 638.724 358.2C638.985 358.947 639.116 359.712 639.116 360.496V362.176C639.116 363.595 638.854 364.771 638.332 365.704C637.809 366.6 636.838 367.309 635.42 367.832C637.062 368.243 638.126 368.952 638.612 369.96C639.134 370.931 639.396 372.069 639.396 373.376V375.504C639.396 376.811 639.134 377.893 638.612 378.752C638.089 379.573 637.417 380.227 636.596 380.712C635.774 381.197 634.878 381.533 633.908 381.72C632.974 381.907 632.097 382 631.276 382H623.492V354.224H631.668ZM627.692 378.472H631.22C632.302 378.472 633.236 378.211 634.02 377.688C634.804 377.165 635.196 376.251 635.196 374.944V373.544C635.196 372.051 634.785 371.005 633.964 370.408C633.142 369.773 632.228 369.456 631.22 369.456H627.692V378.472ZM627.692 366.376H631.108C632.265 366.376 633.18 366.021 633.852 365.312C634.561 364.603 634.916 363.688 634.916 362.568V361.112C634.916 360.365 634.766 359.768 634.468 359.32C634.169 358.872 633.814 358.536 633.404 358.312C632.993 358.088 632.564 357.939 632.116 357.864C631.705 357.789 631.369 357.752 631.108 357.752H627.692V366.376ZM657.34 379.256H657.284C656.948 379.667 656.593 380.059 656.22 380.432C655.847 380.805 655.417 381.141 654.932 381.44C654.447 381.739 653.887 381.981 653.252 382.168C652.655 382.355 651.908 382.448 651.012 382.448C649.892 382.448 648.959 382.261 648.212 381.888C647.503 381.477 646.924 380.917 646.476 380.208C646.065 379.499 645.767 378.677 645.58 377.744C645.393 376.811 645.3 375.784 645.3 374.664C645.3 373.208 645.431 371.92 645.692 370.8C645.953 369.643 646.401 368.672 647.036 367.888C647.671 367.104 648.492 366.507 649.5 366.096C650.545 365.685 651.852 365.48 653.42 365.48C653.719 365.48 654.148 365.499 654.708 365.536C655.268 365.536 656.145 365.592 657.34 365.704V361.616C657.34 361.243 657.265 360.832 657.116 360.384C656.967 359.936 656.724 359.525 656.388 359.152C656.089 358.779 655.697 358.48 655.212 358.256C654.727 357.995 654.129 357.864 653.42 357.864C653.047 357.864 652.655 357.92 652.244 358.032C651.871 358.107 651.497 358.275 651.124 358.536C650.788 358.797 650.471 359.152 650.172 359.6C649.911 360.048 649.724 360.608 649.612 361.28H645.58C645.58 360.123 645.785 359.077 646.196 358.144C646.644 357.211 647.223 356.427 647.932 355.792C648.679 355.12 649.537 354.616 650.508 354.28C651.516 353.944 652.58 353.776 653.7 353.776C655.305 353.776 656.612 354.056 657.62 354.616C658.665 355.139 659.468 355.811 660.028 356.632C660.625 357.416 661.017 358.312 661.204 359.32C661.428 360.291 661.54 361.224 661.54 362.12V382H657.34V379.256ZM657.34 368.784C656.743 368.709 656.201 368.653 655.716 368.616C655.231 368.541 654.82 368.504 654.484 368.504C653.887 368.504 653.289 368.597 652.692 368.784C652.095 368.933 651.553 369.232 651.068 369.68C650.62 370.091 650.247 370.651 649.948 371.36C649.649 372.032 649.5 372.872 649.5 373.88C649.5 375.859 649.799 377.184 650.396 377.856C650.993 378.528 651.889 378.864 653.084 378.864C653.532 378.864 653.999 378.733 654.484 378.472C654.969 378.211 655.417 377.837 655.828 377.352C656.276 376.867 656.631 376.325 656.892 375.728C657.191 375.093 657.34 374.403 657.34 373.656V368.784ZM677.571 369.68H672.699V382H668.499V354.224H672.699V366.096H677.571V361.616C677.571 361.093 677.665 360.403 677.851 359.544C678.038 358.648 678.411 357.771 678.971 356.912C679.531 356.053 680.334 355.325 681.379 354.728C682.425 354.093 683.806 353.776 685.523 353.776C687.241 353.776 688.622 354.093 689.667 354.728C690.713 355.325 691.515 356.053 692.075 356.912C692.673 357.771 693.065 358.648 693.251 359.544C693.438 360.403 693.531 361.075 693.531 361.56V374.496C693.531 375.056 693.438 375.784 693.251 376.68C693.065 377.576 692.673 378.453 692.075 379.312C691.515 380.171 690.713 380.917 689.667 381.552C688.622 382.149 687.241 382.448 685.523 382.448C683.806 382.448 682.425 382.149 681.379 381.552C680.334 380.917 679.531 380.171 678.971 379.312C678.411 378.453 678.038 377.576 677.851 376.68C677.665 375.784 677.571 375.056 677.571 374.496V369.68ZM689.331 362.4C689.331 360.832 688.958 359.693 688.211 358.984C687.465 358.237 686.569 357.864 685.523 357.864C684.478 357.864 683.582 358.237 682.835 358.984C682.089 359.693 681.715 360.832 681.715 362.4V373.824C681.715 375.28 682.033 376.4 682.667 377.184C683.339 377.968 684.291 378.36 685.523 378.36C686.718 378.36 687.651 377.987 688.323 377.24C688.995 376.493 689.331 375.355 689.331 373.824V362.4ZM707.889 357.752V382H703.689V357.752H697.809V354.224H713.769V357.752H707.889ZM738.951 357.752V382H734.751V357.752H728.871V354.224H744.831V357.752H738.951ZM760.043 379.256H759.987C759.651 379.667 759.296 380.059 758.923 380.432C758.55 380.805 758.12 381.141 757.635 381.44C757.15 381.739 756.59 381.981 755.955 382.168C755.358 382.355 754.611 382.448 753.715 382.448C752.595 382.448 751.662 382.261 750.915 381.888C750.206 381.477 749.627 380.917 749.179 380.208C748.768 379.499 748.47 378.677 748.283 377.744C748.096 376.811 748.003 375.784 748.003 374.664C748.003 373.208 748.134 371.92 748.395 370.8C748.656 369.643 749.104 368.672 749.739 367.888C750.374 367.104 751.195 366.507 752.203 366.096C753.248 365.685 754.555 365.48 756.123 365.48C756.422 365.48 756.851 365.499 757.411 365.536C757.971 365.536 758.848 365.592 760.043 365.704V361.616C760.043 361.243 759.968 360.832 759.819 360.384C759.67 359.936 759.427 359.525 759.091 359.152C758.792 358.779 758.4 358.48 757.915 358.256C757.43 357.995 756.832 357.864 756.123 357.864C755.75 357.864 755.358 357.92 754.947 358.032C754.574 358.107 754.2 358.275 753.827 358.536C753.491 358.797 753.174 359.152 752.875 359.6C752.614 360.048 752.427 360.608 752.315 361.28H748.283C748.283 360.123 748.488 359.077 748.899 358.144C749.347 357.211 749.926 356.427 750.635 355.792C751.382 355.12 752.24 354.616 753.211 354.28C754.219 353.944 755.283 353.776 756.403 353.776C758.008 353.776 759.315 354.056 760.323 354.616C761.368 355.139 762.171 355.811 762.731 356.632C763.328 357.416 763.72 358.312 763.907 359.32C764.131 360.291 764.243 361.224 764.243 362.12V382H760.043V379.256ZM760.043 368.784C759.446 368.709 758.904 368.653 758.419 368.616C757.934 368.541 757.523 368.504 757.187 368.504C756.59 368.504 755.992 368.597 755.395 368.784C754.798 368.933 754.256 369.232 753.771 369.68C753.323 370.091 752.95 370.651 752.651 371.36C752.352 372.032 752.203 372.872 752.203 373.88C752.203 375.859 752.502 377.184 753.099 377.856C753.696 378.528 754.592 378.864 755.787 378.864C756.235 378.864 756.702 378.733 757.187 378.472C757.672 378.211 758.12 377.837 758.531 377.352C758.979 376.867 759.334 376.325 759.595 375.728C759.894 375.093 760.043 374.403 760.043 373.656V368.784ZM771.202 354.224H775.402V366.096H783.018V354.224H787.218V382H783.018V369.68H775.402V382H771.202V354.224ZM805.595 374.216H809.795V374.608C809.795 375.28 809.683 376.083 809.459 377.016C809.273 377.912 808.899 378.771 808.339 379.592C807.779 380.376 806.995 381.048 805.987 381.608C804.979 382.168 803.673 382.448 802.067 382.448C800.313 382.448 798.913 382.149 797.867 381.552C796.822 380.917 796.001 380.171 795.403 379.312C794.806 378.453 794.414 377.576 794.227 376.68C794.041 375.747 793.947 374.981 793.947 374.384V361.504C793.947 360.944 794.041 360.235 794.227 359.376C794.414 358.517 794.787 357.677 795.347 356.856C795.907 355.997 796.691 355.269 797.699 354.672C798.745 354.075 800.107 353.776 801.787 353.776C803.43 353.776 804.774 354.075 805.819 354.672C806.902 355.269 807.742 355.997 808.339 356.856C808.937 357.677 809.347 358.555 809.571 359.488C809.795 360.384 809.907 361.131 809.907 361.728V369.68H798.147V374.104C798.147 375.597 798.465 376.68 799.099 377.352C799.771 378.024 800.761 378.36 802.067 378.36C803.299 378.36 804.195 378.024 804.755 377.352C805.315 376.643 805.595 375.709 805.595 374.552V374.216ZM805.707 366.544V361.784C805.707 361.336 805.651 360.888 805.539 360.44C805.427 359.955 805.222 359.525 804.923 359.152C804.625 358.779 804.233 358.48 803.747 358.256C803.262 357.995 802.665 357.864 801.955 357.864C801.209 357.864 800.593 357.995 800.107 358.256C799.622 358.517 799.23 358.853 798.931 359.264C798.633 359.675 798.427 360.123 798.315 360.608C798.203 361.093 798.147 361.56 798.147 362.008V366.544H805.707ZM816.429 354.224H820.629V378.472H828.189V354.224H832.389V378.472H836.029V387.824H832.109V382H816.429V354.224ZM845.086 377.24V382H840.27V377.24H845.086Z" fill="white"/>
</svg>
