<svg width="124" height="407" viewBox="0 0 124 407" fill="none" xmlns="http://www.w3.org/2000/svg">
<path d="M90.1702 403.954L41.7545 403.621C39.0191 403.602 36.8067 401.388 36.7891 398.653L34.788 87.6842C34.7701 84.9001 32.4816 82.667 29.698 82.7172L14.6969 82.9877C10.6393 83.0609 8.18943 78.5247 10.4757 75.1717L56.949 7.0151C58.8908 4.16735 63.0639 4.09215 65.107 6.86809L114.004 73.3048C116.41 76.5731 114.125 81.1946 110.068 81.2677L93.073 81.5742C90.3032 81.6242 88.1019 83.9166 88.1644 86.6861L95.2033 398.842C95.2669 401.66 92.9892 403.974 90.1702 403.954Z" fill="#003DE3" stroke="#003DE3" stroke-width="6" stroke-linejoin="round"/>
</svg>
