<svg width="749" height="981" viewBox="0 0 749 981" fill="none" xmlns="http://www.w3.org/2000/svg">
<path d="M247.618 543.87L377.788 128.658L501.034 543.87H247.618Z" fill="#FD5B7D"/>
<path d="M266.624 749.032L239.333 548.737L356.782 543.863L319.744 749.032V978.568L294.403 958.1L266.624 978.568V749.032Z" fill="#FD5B7D"/>
<path d="M493.724 749.032L518.091 543.863H403.566L440.604 749.032V978.568L467.407 959.075L493.724 978.568V749.032Z" fill="#FD5B7D"/>
<circle cx="380.661" cy="140.841" r="104.778" fill="#FD5B7D"/>
<path d="M610.685 333.333L403.566 261.208L459.61 384.504H610.685L746.652 355.264L716.924 339.182L727.646 308.967L610.685 333.333Z" fill="#FD5B7D"/>
<path d="M137.967 333.333L345.086 261.208L289.042 384.504H137.967L2.00003 355.264L31.7276 339.182L21.0062 308.967L137.967 333.333Z" fill="#FD5B7D"/>
<path d="M40.987 363.549L55.6071 316.277L21.0062 308.479L31.7276 339.182L2 355.264L40.987 363.549Z" fill="white" stroke="white"/>
<path d="M702.792 365.01L685.735 318.226L727.646 308.967L716.924 339.669L746.652 354.776L702.792 365.01Z" fill="white" stroke="white"/>
<path d="M319.257 943.967H267.112H266.624V978.568L293.915 958.587L319.257 979.056V943.967Z" fill="white" stroke="white"/>
<path d="M493.236 945.917H441.091V977.594L467.895 959.562L493.236 977.594V945.917Z" fill="white" stroke="white"/>
<ellipse cx="380.661" cy="183.24" rx="46.2971" ry="34.1136" fill="white"/>
<circle cx="366.528" cy="187.139" r="7.7974" fill="#003DE3"/>
<circle cx="397.718" cy="187.139" r="7.7974" fill="#003DE3"/>
<path d="M287.58 7.44838L311.946 86.7466L361.655 51.2595L317.795 0.000488281L311.946 22.7823L287.58 7.44838Z" fill="#FD5B7D"/>
<path d="M470.819 10.3727L446.452 89.6709L396.744 54.1839L440.604 2.9248L446.452 25.7066L470.819 10.3727Z" fill="#FD5B7D"/>
<path d="M317.282 67.6668L316.228 30.6841L343.647 51.926L317.282 67.6668Z" fill="white"/>
<path d="M444.196 67.7222L444.427 30.7252L417.488 52.5717L444.196 67.7222Z" fill="white"/>
<path d="M376.763 356.578L303.662 300.195L242.257 528.859L99.4675 571.668L219.353 601.948L203.27 713.67L319.257 649.456L387.971 739.773L451.813 649.456L561.464 707.609L539.046 601.948L662.83 571.668L502.008 523.395L444.503 300.195L376.763 356.578Z" fill="#55C9BB" stroke="#55C9BB"/>
</svg>
