<svg width="1668" height="1154" viewBox="0 0 1668 1154" fill="none" xmlns="http://www.w3.org/2000/svg">
<circle cx="997.886" cy="1047.02" r="105.211" transform="rotate(90 997.886 1047.02)" fill="#FD5B7D"/>
<circle cx="693.839" cy="1047.02" r="105.211" transform="rotate(90 693.839 1047.02)" fill="#FFCF01"/>
<circle cx="997.886" cy="110.779" r="105.211" transform="rotate(90 997.886 110.779)" fill="#FFCF01"/>
<circle cx="693.839" cy="110.779" r="105.211" transform="rotate(90 693.839 110.779)" fill="#FD5B7D"/>
<circle cx="394.427" cy="110.779" r="105.211" transform="rotate(90 394.427 110.779)" fill="white"/>
<circle cx="394.427" cy="417.607" r="105.211" transform="rotate(90 394.427 417.607)" fill="#FFCF01"/>
<circle cx="394.427" cy="725.362" r="105.211" transform="rotate(90 394.427 725.362)" fill="white"/>
<circle cx="394.427" cy="1047.02" r="105.211" transform="rotate(90 394.427 1047.02)" fill="#FD5B7D"/>
<circle cx="105.211" cy="110.779" r="105.211" transform="rotate(90 105.211 110.779)" fill="#FD5B7D"/>
<circle cx="105.211" cy="417.607" r="105.211" transform="rotate(90 105.211 417.607)" fill="white"/>
<circle cx="105.211" cy="725.361" r="105.211" transform="rotate(90 105.211 725.361)" fill="#FD5B7D"/>
<circle cx="105.211" cy="1047.02" r="105.211" transform="rotate(90 105.211 1047.02)" fill="#FFCF01"/>
<path d="M392.2 419.982L388.956 361.028C381.144 359.011 374.294 364.627 371.915 366.668L371.164 367.029L338.859 399.449C334.952 405.212 336.48 412.657 337.732 415.659C340.612 423.824 346.597 441.956 347.499 449.16C348.4 456.365 356.389 461.288 360.27 462.849L396.882 473.07C406.198 476.24 413.832 473.911 416.336 471.629L447.794 439.074C453.504 433.598 452.677 425.745 451.55 422.503L439.754 385.526C415.713 404.546 398.21 416.259 392.2 419.982Z" fill="white"/>
<path d="M688.548 1049.76L685.436 993.206C677.941 991.271 671.37 996.658 669.087 998.616L668.367 998.962L637.375 1030.06C633.627 1035.59 635.093 1042.74 636.294 1045.62C639.057 1053.45 644.799 1070.84 645.664 1077.75C646.529 1084.67 654.192 1089.39 657.916 1090.89L693.04 1100.69C701.977 1103.73 709.301 1101.5 711.703 1099.31L741.882 1068.08C747.36 1062.83 746.567 1055.29 745.486 1052.18L734.168 1016.71C711.105 1034.95 694.314 1046.19 688.548 1049.76Z" fill="white"/>
<circle cx="1562.41" cy="105.217" r="105.211" transform="rotate(90 1562.41 105.217)" fill="#FD5B7D"/>
<circle cx="1562.41" cy="417.607" r="105.211" transform="rotate(90 1562.41 417.607)" fill="#FFCF01"/>
<circle cx="1562.41" cy="726.288" r="105.211" transform="rotate(90 1562.41 726.288)" fill="white"/>
<circle cx="1294.52" cy="105.217" r="105.211" transform="rotate(90 1294.52 105.217)" fill="white"/>
<circle cx="1294.52" cy="417.607" r="105.211" transform="rotate(90 1294.52 417.607)" fill="#FD5B7D"/>
<circle cx="1294.52" cy="726.288" r="105.211" transform="rotate(90 1294.52 726.288)" fill="#FFCF01"/>
<circle cx="1562.41" cy="1047.95" r="105.211" transform="rotate(90 1562.41 1047.95)" fill="#FD5B7D"/>
<circle cx="1294.52" cy="1047.02" r="105.211" transform="rotate(90 1294.52 1047.02)" fill="white"/>
<path d="M1292.01 729.03L1288.89 672.473C1281.4 670.538 1274.83 675.926 1272.55 677.884L1271.82 678.23L1240.83 709.332C1237.08 714.862 1238.55 722.004 1239.75 724.883C1242.51 732.717 1248.26 750.111 1249.12 757.023C1249.99 763.934 1257.65 768.657 1261.37 770.155L1296.5 779.961C1305.43 783.002 1312.76 780.767 1315.16 778.578L1345.34 747.346C1350.82 742.093 1350.02 734.56 1348.94 731.45L1337.63 695.976C1314.56 714.222 1297.77 725.459 1292.01 729.03Z" fill="white"/>
<path d="M1559.9 421.276L1556.79 364.719C1549.29 362.784 1542.72 368.171 1540.44 370.129L1539.72 370.475L1508.73 401.578C1504.98 407.107 1506.45 414.249 1507.65 417.129C1510.41 424.962 1516.15 442.356 1517.02 449.268C1517.88 456.18 1525.54 460.903 1529.27 462.4L1564.39 472.206C1573.33 475.247 1580.65 473.012 1583.06 470.824L1613.23 439.592C1618.71 434.339 1617.92 426.805 1616.84 423.695L1605.52 388.221C1582.46 406.468 1565.67 417.705 1559.9 421.276Z" fill="white"/>
<path d="M992.595 113.521L989.483 56.9642C981.988 55.0289 975.417 60.4166 973.134 62.3749L972.414 62.7205L941.422 93.8229C937.674 99.3522 939.14 106.494 940.341 109.374C943.104 117.207 948.846 134.602 949.711 141.513C950.575 148.425 958.239 153.148 961.963 154.645L997.087 164.452C1006.02 167.493 1013.35 165.258 1015.75 163.069L1045.93 131.837C1051.41 126.584 1050.61 119.05 1049.53 115.94L1038.22 80.4662C1015.15 98.713 998.361 109.95 992.595 113.521Z" fill="white"/>
<path d="M102.701 1049.76L99.5899 993.206C92.0947 991.271 85.5237 996.658 83.2411 998.617L82.5203 998.962L51.5288 1030.06C47.7809 1035.59 49.2464 1042.74 50.4477 1045.62C53.2105 1053.45 58.9523 1070.84 59.8172 1077.76C60.6821 1084.67 68.3459 1089.39 72.0697 1090.89L107.193 1100.69C116.131 1103.73 123.454 1101.5 125.857 1099.31L156.036 1068.08C161.513 1062.83 160.72 1055.29 159.639 1052.18L148.322 1016.71C125.259 1034.95 108.467 1046.19 102.701 1049.76Z" fill="white"/>
<circle cx="843.081" cy="578.9" r="285.044" transform="rotate(90 843.081 578.9)" fill="#55C9BB"/>
<circle cx="1056.75" cy="537.65" r="41.7137" transform="rotate(90 1056.75 537.65)" fill="#FD5B7D"/>
<circle cx="860.23" cy="788.859" r="41.7137" transform="rotate(90 860.23 788.859)" fill="#FD5B7D"/>
<circle cx="638.684" cy="561.751" r="41.7137" transform="rotate(90 638.684 561.751)" fill="#FD5B7D"/>
<circle cx="889.893" cy="370.795" r="41.7137" transform="rotate(90 889.893 370.795)" fill="#FFCF01"/>
<circle cx="1040.99" cy="652.594" r="41.7137" transform="rotate(90 1040.99 652.594)" fill="#FFCF01"/>
<circle cx="994.641" cy="431.975" r="41.7137" transform="rotate(90 994.641 431.975)" fill="white"/>
<circle cx="743.432" cy="767.539" r="41.7137" transform="rotate(90 743.432 767.539)" fill="#FFCF01"/>
<circle cx="674.836" cy="454.222" r="41.7137" transform="rotate(90 674.836 454.222)" fill="#FFCF01"/>
<circle cx="973.32" cy="747.145" r="41.7137" transform="rotate(90 973.32 747.145)" fill="white"/>
<circle cx="660.004" cy="678.549" r="41.7137" transform="rotate(90 660.004 678.549)" fill="white"/>
<circle cx="771.24" cy="382.845" r="41.7137" transform="rotate(90 771.24 382.845)" fill="white"/>
<circle cx="842.618" cy="579.364" r="140.9" transform="rotate(90 842.618 579.364)" fill="#FD5B7D"/>
<path d="M759.585 723.511L897.706 355.497L852.815 743.901C793.457 815.282 766.23 764.221 759.585 723.511Z" fill="white"/>
<circle cx="843.081" cy="585.389" r="10.6602" fill="#003DE3"/>
</svg>
