<svg width="669" height="157" viewBox="0 0 669 157" fill="none" xmlns="http://www.w3.org/2000/svg">
<rect x="3" y="3" width="652.541" height="150.676" fill="#003DE3" stroke="white" stroke-width="6"/>
<path d="M97.158 59.482C97.158 58.646 97.18 57.81 97.224 56.974C97.312 56.094 97.466 55.258 97.686 54.466C97.906 53.674 98.236 52.904 98.676 52.156C99.116 51.364 99.71 50.616 100.458 49.912C102.394 48.064 104.99 47.14 108.246 47.14C111.502 47.14 114.098 48.064 116.034 49.912C117.53 51.32 118.454 52.838 118.806 54.466C119.158 56.094 119.334 57.766 119.334 59.482V82.318C119.334 84.034 119.158 85.706 118.806 87.334C118.454 88.962 117.53 90.48 116.034 91.888C114.098 93.736 111.502 94.66 108.246 94.66C104.99 94.66 102.394 93.736 100.458 91.888C99.71 91.184 99.116 90.458 98.676 89.71C98.236 88.918 97.906 88.126 97.686 87.334C97.466 86.542 97.312 85.728 97.224 84.892C97.18 84.056 97.158 83.198 97.158 82.318V59.482ZM114.384 58.426C114.384 57.59 114.296 56.776 114.12 55.984C113.944 55.148 113.46 54.356 112.668 53.608C112.184 53.124 111.568 52.728 110.82 52.42C110.116 52.112 109.258 51.958 108.246 51.958C107.234 51.958 106.354 52.112 105.606 52.42C104.902 52.728 104.308 53.124 103.824 53.608C103.032 54.356 102.548 55.148 102.372 55.984C102.196 56.776 102.108 57.59 102.108 58.426V83.374C102.108 84.21 102.196 85.046 102.372 85.882C102.548 86.674 103.032 87.466 103.824 88.258C104.308 88.698 104.902 89.072 105.606 89.38C106.354 89.688 107.234 89.842 108.246 89.842C109.258 89.842 110.116 89.688 110.82 89.38C111.568 89.072 112.184 88.698 112.668 88.258C113.46 87.466 113.944 86.674 114.12 85.882C114.296 85.046 114.384 84.21 114.384 83.374V58.426ZM139.59 80.206C138.446 80.778 137.302 81.152 136.158 81.328C135.014 81.46 133.958 81.526 132.99 81.526C130.79 81.526 129.074 80.976 127.842 79.876C126.61 78.776 125.994 76.84 125.994 74.068V61.264H130.944V73.012C130.944 75.872 132.374 77.302 135.234 77.302C136.114 77.302 136.906 77.192 137.61 76.972C138.314 76.708 138.974 76.4 139.59 76.048V61.264H144.54V94H139.59V80.206ZM157.665 61.264V82.978L168.027 65.29V61.264H172.977V94H168.027V72.88L157.665 90.568V94H152.715V61.264H157.665ZM195.065 83.968H200.015V85.288C200.015 86.08 199.861 87.026 199.553 88.126C199.289 89.182 198.783 90.194 198.035 91.162C197.331 92.086 196.363 92.878 195.131 93.538C193.899 94.198 192.337 94.528 190.445 94.528C188.377 94.528 186.727 94.176 185.495 93.472C184.263 92.724 183.295 91.844 182.591 90.832C181.887 89.82 181.425 88.786 181.205 87.73C180.985 86.63 180.875 85.728 180.875 85.024V70.174C180.875 69.514 180.985 68.656 181.205 67.6C181.425 66.5 181.887 65.444 182.591 64.432C183.295 63.42 184.263 62.562 185.495 61.858C186.727 61.11 188.377 60.736 190.445 60.736C192.381 60.736 193.965 61.066 195.197 61.726C196.473 62.386 197.463 63.2 198.167 64.168C198.871 65.136 199.355 66.148 199.619 67.204C199.883 68.216 200.015 69.118 200.015 69.91V71.362H195.065V70.9C195.065 69.052 194.603 67.71 193.679 66.874C192.799 65.994 191.721 65.554 190.445 65.554C189.169 65.554 188.069 65.994 187.145 66.874C186.265 67.71 185.825 69.052 185.825 70.9V84.364C185.825 87.928 187.365 89.71 190.445 89.71C191.897 89.71 193.019 89.27 193.811 88.39C194.647 87.51 195.065 86.168 195.065 84.364V83.968ZM215.445 65.422V94H210.495V65.422H203.565V61.264H222.375V65.422H215.445ZM232.624 61.264V82.978L242.986 65.29V61.264H247.936V94H242.986V72.88L232.624 90.568V94H227.674V61.264H232.624ZM271.502 66.61C271.502 64.982 271.59 63.332 271.766 61.66C271.986 59.944 272.536 58.426 273.416 57.106C274.164 55.962 274.978 55.082 275.858 54.466C276.782 53.85 277.706 53.366 278.63 53.014C279.202 52.794 279.774 52.596 280.346 52.42C280.962 52.2 281.512 52.002 281.996 51.826C284.284 51.034 285.428 49.868 285.428 48.328V47.8H289.784V48.658C289.784 49.23 289.762 49.868 289.718 50.572C289.674 51.232 289.52 51.826 289.256 52.354C288.772 53.234 288.09 53.894 287.21 54.334C286.374 54.73 285.34 55.126 284.108 55.522L280.808 56.644C280.192 56.864 279.51 57.172 278.762 57.568C278.058 57.92 277.442 58.448 276.914 59.152C276.43 59.812 276.056 60.582 275.792 61.462C275.572 62.342 275.462 63.156 275.462 63.904V65.554H275.66C276.276 64.41 277.178 63.42 278.366 62.584C279.598 61.704 281.27 61.264 283.382 61.264C284.482 61.264 285.45 61.44 286.286 61.792C287.122 62.144 287.782 62.562 288.266 63.046C288.882 63.618 289.388 64.344 289.784 65.224C290.18 66.06 290.378 67.028 290.378 68.128V83.968C290.378 84.584 290.356 85.266 290.312 86.014C290.268 86.718 290.136 87.444 289.916 88.192C289.74 88.94 289.432 89.688 288.992 90.436C288.596 91.14 288.046 91.778 287.342 92.35C286.462 93.098 285.45 93.648 284.306 94C283.206 94.352 282.084 94.528 280.94 94.528C279.796 94.528 278.652 94.352 277.508 94C276.408 93.692 275.418 93.164 274.538 92.416C273.834 91.844 273.262 91.206 272.822 90.502C272.426 89.754 272.118 89.006 271.898 88.258C271.722 87.466 271.612 86.718 271.568 86.014C271.524 85.266 271.502 84.584 271.502 83.968V66.61ZM285.428 70.9C285.428 70.02 285.296 69.228 285.032 68.524C284.768 67.82 284.46 67.27 284.108 66.874C283.228 65.994 282.172 65.554 280.94 65.554C280.324 65.554 279.73 65.686 279.158 65.95C278.63 66.214 278.168 66.544 277.772 66.94C277.42 67.336 277.112 67.93 276.848 68.722C276.584 69.47 276.452 70.284 276.452 71.164V84.364C276.452 85.288 276.584 86.102 276.848 86.806C277.112 87.51 277.42 88.082 277.772 88.522C278.124 88.874 278.564 89.16 279.092 89.38C279.664 89.6 280.28 89.71 280.94 89.71C281.6 89.71 282.194 89.6 282.722 89.38C283.294 89.16 283.756 88.874 284.108 88.522C284.46 88.082 284.768 87.51 285.032 86.806C285.296 86.102 285.428 85.288 285.428 84.364V70.9ZM311.911 90.766H311.845C311.449 91.25 311.031 91.712 310.591 92.152C310.151 92.592 309.645 92.988 309.073 93.34C308.501 93.692 307.841 93.978 307.093 94.198C306.389 94.418 305.509 94.528 304.453 94.528C303.133 94.528 302.033 94.308 301.153 93.868C300.317 93.384 299.635 92.724 299.107 91.888C298.623 91.052 298.271 90.084 298.051 88.984C297.831 87.884 297.721 86.674 297.721 85.354C297.721 83.638 297.875 82.12 298.183 80.8C298.491 79.436 299.019 78.292 299.767 77.368C300.515 76.444 301.483 75.74 302.671 75.256C303.903 74.772 305.443 74.53 307.291 74.53C307.643 74.53 308.149 74.552 308.809 74.596C309.469 74.596 310.503 74.662 311.911 74.794V69.976C311.911 69.536 311.823 69.052 311.647 68.524C311.471 67.996 311.185 67.512 310.789 67.072C310.437 66.632 309.975 66.28 309.403 66.016C308.831 65.708 308.127 65.554 307.291 65.554C306.851 65.554 306.389 65.62 305.905 65.752C305.465 65.84 305.025 66.038 304.585 66.346C304.189 66.654 303.815 67.072 303.463 67.6C303.155 68.128 302.935 68.788 302.803 69.58H298.051C298.051 68.216 298.293 66.984 298.777 65.884C299.305 64.784 299.987 63.86 300.823 63.112C301.703 62.32 302.715 61.726 303.859 61.33C305.047 60.934 306.301 60.736 307.621 60.736C309.513 60.736 311.053 61.066 312.241 61.726C313.473 62.342 314.419 63.134 315.079 64.102C315.783 65.026 316.245 66.082 316.465 67.27C316.729 68.414 316.861 69.514 316.861 70.57V94H311.911V90.766ZM311.911 78.424C311.207 78.336 310.569 78.27 309.997 78.226C309.425 78.138 308.941 78.094 308.545 78.094C307.841 78.094 307.137 78.204 306.433 78.424C305.729 78.6 305.091 78.952 304.519 79.48C303.991 79.964 303.551 80.624 303.199 81.46C302.847 82.252 302.671 83.242 302.671 84.43C302.671 86.762 303.023 88.324 303.727 89.116C304.431 89.908 305.487 90.304 306.895 90.304C307.423 90.304 307.973 90.15 308.545 89.842C309.117 89.534 309.645 89.094 310.129 88.522C310.657 87.95 311.075 87.312 311.383 86.608C311.735 85.86 311.911 85.046 311.911 84.166V78.424ZM343.741 94H338.791V65.422H332.521L332.389 69.25C332.389 69.822 332.367 70.702 332.323 71.89C332.279 73.078 332.213 74.398 332.125 75.85C332.037 77.258 331.927 78.71 331.795 80.206C331.707 81.658 331.575 82.978 331.399 84.166C331.179 85.574 330.871 86.872 330.475 88.06C330.123 89.248 329.595 90.282 328.891 91.162C328.187 92.042 327.307 92.746 326.251 93.274C325.195 93.758 323.875 94 322.291 94H321.499V89.908H322.093C323.149 89.908 324.007 89.6 324.667 88.984C325.327 88.368 325.833 87.554 326.185 86.542C326.581 85.486 326.845 84.32 326.977 83.044C327.153 81.724 327.307 80.404 327.439 79.084C327.483 78.424 327.527 77.632 327.571 76.708C327.615 75.74 327.637 74.772 327.637 73.804C327.681 72.836 327.725 71.934 327.769 71.098C327.813 70.218 327.835 69.536 327.835 69.052L328.033 61.264H343.741V94ZM356.89 61.264V74.332H361.312C362.236 74.332 363.226 74.42 364.282 74.596C365.382 74.728 366.394 75.058 367.318 75.586C368.242 76.114 369.012 76.884 369.628 77.896C370.244 78.908 370.552 80.272 370.552 81.988V85.948C370.552 88.852 369.694 90.92 367.978 92.152C366.306 93.384 364.084 94 361.312 94H351.94V61.264H356.89ZM356.89 89.842H360.916C361.444 89.842 361.972 89.776 362.5 89.644C363.072 89.512 363.578 89.292 364.018 88.984C364.502 88.632 364.876 88.192 365.14 87.664C365.448 87.092 365.602 86.388 365.602 85.552V82.846C365.602 81.218 365.096 80.096 364.084 79.48C363.116 78.82 362.06 78.49 360.916 78.49H356.89V89.842ZM377.141 61.264H382.091V75.256H391.067V61.264H396.017V94H391.067V79.48H382.091V94H377.141V61.264ZM427.839 61.264H432.789V94H427.839V61.264ZM409.161 61.264V74.332H413.583C414.507 74.332 415.497 74.42 416.553 74.596C417.653 74.728 418.665 75.058 419.589 75.586C420.513 76.114 421.283 76.884 421.899 77.896C422.515 78.908 422.823 80.272 422.823 81.988V85.948C422.823 88.852 421.965 90.92 420.249 92.152C418.577 93.384 416.355 94 413.583 94H404.211V61.264H409.161ZM409.161 89.842H413.187C413.715 89.842 414.243 89.776 414.771 89.644C415.343 89.512 415.849 89.292 416.289 88.984C416.773 88.632 417.147 88.192 417.411 87.664C417.719 87.092 417.873 86.388 417.873 85.552V82.846C417.873 81.218 417.367 80.096 416.355 79.48C415.387 78.82 414.331 78.49 413.187 78.49H409.161V89.842ZM445.899 61.264V82.978L456.261 65.29V61.264H461.211V94H456.261V72.88L445.899 90.568V94H440.949V61.264H445.899ZM454.017 48.856H458.043V49.516C458.043 50.352 457.933 51.254 457.713 52.222C457.493 53.146 457.009 53.96 456.261 54.664C455.513 55.412 454.633 55.874 453.621 56.05C452.653 56.226 451.795 56.314 451.047 56.314C450.299 56.314 449.419 56.226 448.407 56.05C447.439 55.874 446.581 55.412 445.833 54.664C445.085 53.96 444.601 53.146 444.381 52.222C444.161 51.254 444.051 50.352 444.051 49.516V48.856H448.077V49.516C448.077 49.868 448.099 50.242 448.143 50.638C448.231 51.034 448.363 51.408 448.539 51.76C448.759 52.112 449.067 52.42 449.463 52.684C449.859 52.904 450.387 53.014 451.047 53.014C451.707 53.014 452.235 52.904 452.631 52.684C453.027 52.42 453.313 52.112 453.489 51.76C453.709 51.408 453.841 51.034 453.885 50.638C453.973 50.242 454.017 49.868 454.017 49.516V48.856ZM484.778 61.264H503.258V94H498.308V65.422H489.728V94H484.778V61.264ZM511.197 69.976C511.197 69.36 511.307 68.546 511.527 67.534C511.747 66.478 512.187 65.444 512.847 64.432C513.551 63.42 514.519 62.562 515.751 61.858C516.983 61.11 518.611 60.736 520.635 60.736C522.659 60.736 524.287 61.11 525.519 61.858C526.751 62.562 527.697 63.42 528.357 64.432C529.061 65.444 529.523 66.478 529.743 67.534C529.963 68.546 530.073 69.338 530.073 69.91V85.156C530.073 85.816 529.963 86.674 529.743 87.73C529.523 88.786 529.061 89.82 528.357 90.832C527.697 91.844 526.751 92.724 525.519 93.472C524.287 94.176 522.659 94.528 520.635 94.528C518.611 94.528 516.983 94.176 515.751 93.472C514.519 92.724 513.551 91.844 512.847 90.832C512.187 89.82 511.747 88.786 511.527 87.73C511.307 86.674 511.197 85.816 511.197 85.156V69.976ZM525.123 70.9C525.123 69.052 524.683 67.71 523.803 66.874C522.923 65.994 521.867 65.554 520.635 65.554C519.403 65.554 518.347 65.994 517.467 66.874C516.587 67.71 516.147 69.052 516.147 70.9V84.364C516.147 86.08 516.521 87.4 517.269 88.324C518.061 89.248 519.183 89.71 520.635 89.71C522.043 89.71 523.143 89.27 523.935 88.39C524.727 87.51 525.123 86.168 525.123 84.364V70.9ZM556.694 94H551.744V65.422H545.474L545.342 69.25C545.342 69.822 545.32 70.702 545.276 71.89C545.232 73.078 545.166 74.398 545.078 75.85C544.99 77.258 544.88 78.71 544.748 80.206C544.66 81.658 544.528 82.978 544.352 84.166C544.132 85.574 543.824 86.872 543.428 88.06C543.076 89.248 542.548 90.282 541.844 91.162C541.14 92.042 540.26 92.746 539.204 93.274C538.148 93.758 536.828 94 535.244 94H534.452V89.908H535.046C536.102 89.908 536.96 89.6 537.62 88.984C538.28 88.368 538.786 87.554 539.138 86.542C539.534 85.486 539.798 84.32 539.93 83.044C540.106 81.724 540.26 80.404 540.392 79.084C540.436 78.424 540.48 77.632 540.524 76.708C540.568 75.74 540.59 74.772 540.59 73.804C540.634 72.836 540.678 71.934 540.722 71.098C540.766 70.218 540.788 69.536 540.788 69.052L540.986 61.264H556.694V94Z" fill="white"/>
</svg>
