<svg width="707" height="157" viewBox="0 0 707 157" fill="none" xmlns="http://www.w3.org/2000/svg">
<rect x="3" y="3" width="652.541" height="150.676" fill="#003DE3" stroke="white" stroke-width="6"/>
<path d="M147.438 46.8V67.458H158.592V46.8H163.542V93H158.592V71.748H147.438V93H142.488V46.8H147.438ZM185.723 89.766H185.657C185.261 90.25 184.843 90.712 184.403 91.152C183.963 91.592 183.457 91.988 182.885 92.34C182.313 92.692 181.653 92.978 180.905 93.198C180.201 93.418 179.321 93.528 178.265 93.528C176.945 93.528 175.845 93.308 174.965 92.868C174.129 92.384 173.447 91.724 172.919 90.888C172.435 90.052 172.083 89.084 171.863 87.984C171.643 86.884 171.533 85.674 171.533 84.354C171.533 82.638 171.687 81.12 171.995 79.8C172.303 78.436 172.831 77.292 173.579 76.368C174.327 75.444 175.295 74.74 176.483 74.256C177.715 73.772 179.255 73.53 181.103 73.53C181.455 73.53 181.961 73.552 182.621 73.596C183.281 73.596 184.315 73.662 185.723 73.794V68.976C185.723 68.536 185.635 68.052 185.459 67.524C185.283 66.996 184.997 66.512 184.601 66.072C184.249 65.632 183.787 65.28 183.215 65.016C182.643 64.708 181.939 64.554 181.103 64.554C180.663 64.554 180.201 64.62 179.717 64.752C179.277 64.84 178.837 65.038 178.397 65.346C178.001 65.654 177.627 66.072 177.275 66.6C176.967 67.128 176.747 67.788 176.615 68.58H171.863C171.863 67.216 172.105 65.984 172.589 64.884C173.117 63.784 173.799 62.86 174.635 62.112C175.515 61.32 176.527 60.726 177.671 60.33C178.859 59.934 180.113 59.736 181.433 59.736C183.325 59.736 184.865 60.066 186.053 60.726C187.285 61.342 188.231 62.134 188.891 63.102C189.595 64.026 190.057 65.082 190.277 66.27C190.541 67.414 190.673 68.514 190.673 69.57V93H185.723V89.766ZM185.723 77.424C185.019 77.336 184.381 77.27 183.809 77.226C183.237 77.138 182.753 77.094 182.357 77.094C181.653 77.094 180.949 77.204 180.245 77.424C179.541 77.6 178.903 77.952 178.331 78.48C177.803 78.964 177.363 79.624 177.011 80.46C176.659 81.252 176.483 82.242 176.483 83.43C176.483 85.762 176.835 87.324 177.539 88.116C178.243 88.908 179.299 89.304 180.707 89.304C181.235 89.304 181.785 89.15 182.357 88.842C182.929 88.534 183.457 88.094 183.941 87.522C184.469 86.95 184.887 86.312 185.195 85.608C185.547 84.86 185.723 84.046 185.723 83.166V77.424ZM198.875 60.264H203.825V63.498C204.881 62.09 206.025 61.122 207.257 60.594C208.533 60.022 209.743 59.736 210.887 59.736C212.339 59.736 213.505 59.978 214.385 60.462C215.309 60.946 216.013 61.584 216.497 62.376C216.981 63.124 217.311 63.938 217.487 64.818C217.663 65.698 217.751 66.534 217.751 67.326V85.938C217.751 86.73 217.663 87.566 217.487 88.446C217.311 89.326 216.981 90.162 216.497 90.954C216.013 91.702 215.309 92.318 214.385 92.802C213.505 93.286 212.339 93.528 210.887 93.528C209.743 93.528 208.533 93.264 207.257 92.736C206.025 92.164 204.881 91.174 203.825 89.766V106.464H198.875V60.264ZM208.643 88.71C209.435 88.71 210.095 88.578 210.623 88.314C211.151 88.006 211.569 87.61 211.877 87.126C212.229 86.642 212.471 86.092 212.603 85.476C212.735 84.86 212.801 84.244 212.801 83.628V69.636C212.801 69.02 212.735 68.404 212.603 67.788C212.471 67.172 212.229 66.622 211.877 66.138C211.569 65.654 211.151 65.28 210.623 65.016C210.095 64.708 209.435 64.554 208.643 64.554C207.631 64.554 206.817 64.774 206.201 65.214C205.585 65.654 205.101 66.182 204.749 66.798C204.397 67.414 204.155 68.074 204.023 68.778C203.891 69.438 203.825 70.032 203.825 70.56V82.704C203.825 83.232 203.891 83.848 204.023 84.552C204.155 85.212 204.397 85.85 204.749 86.466C205.101 87.082 205.585 87.61 206.201 88.05C206.817 88.49 207.631 88.71 208.643 88.71ZM239.146 93V78.744H234.592L229.708 93H224.428L229.708 78.216C228.036 77.468 226.892 76.522 226.276 75.378C225.704 74.19 225.418 72.76 225.418 71.088V67.92C225.418 66.204 225.726 64.84 226.342 63.828C226.958 62.816 227.728 62.046 228.652 61.518C229.576 60.99 230.566 60.66 231.622 60.528C232.722 60.352 233.712 60.264 234.592 60.264H244.096V93H239.146ZM239.146 63.894H234.988C233.8 63.894 232.722 64.268 231.754 65.016C230.83 65.764 230.368 67.04 230.368 68.844V70.626C230.368 72.254 230.808 73.42 231.688 74.124C232.612 74.828 233.712 75.18 234.988 75.18H239.146V63.894ZM275.539 88.842V99.864H270.919V93H253.495V99.864H248.875V88.842H252.109C252.989 86.862 253.649 85.036 254.089 83.364C254.573 81.692 254.947 79.998 255.211 78.282C255.343 77.314 255.453 76.236 255.541 75.048C255.629 73.816 255.695 72.584 255.739 71.352C255.827 70.076 255.893 68.822 255.937 67.59C255.981 66.314 256.003 65.148 256.003 64.092V60.264H271.645V88.842H275.539ZM260.359 64.356V68.514C260.359 70.362 260.293 72.188 260.161 73.992C260.073 75.752 259.853 77.666 259.501 79.734C259.281 81.01 258.973 82.418 258.577 83.958C258.225 85.454 257.631 87.126 256.795 88.974H266.695V64.356H260.359ZM285.616 60.264V81.978L295.978 64.29V60.264H300.928V93H295.978V71.88L285.616 89.568V93H280.666V60.264H285.616ZM324.494 65.61C324.494 63.982 324.582 62.332 324.758 60.66C324.978 58.944 325.528 57.426 326.408 56.106C327.156 54.962 327.97 54.082 328.85 53.466C329.774 52.85 330.698 52.366 331.622 52.014C332.194 51.794 332.766 51.596 333.338 51.42C333.954 51.2 334.504 51.002 334.988 50.826C337.276 50.034 338.42 48.868 338.42 47.328V46.8H342.776V47.658C342.776 48.23 342.754 48.868 342.71 49.572C342.666 50.232 342.512 50.826 342.248 51.354C341.764 52.234 341.082 52.894 340.202 53.334C339.366 53.73 338.332 54.126 337.1 54.522L333.8 55.644C333.184 55.864 332.502 56.172 331.754 56.568C331.05 56.92 330.434 57.448 329.906 58.152C329.422 58.812 329.048 59.582 328.784 60.462C328.564 61.342 328.454 62.156 328.454 62.904V64.554H328.652C329.268 63.41 330.17 62.42 331.358 61.584C332.59 60.704 334.262 60.264 336.374 60.264C337.474 60.264 338.442 60.44 339.278 60.792C340.114 61.144 340.774 61.562 341.258 62.046C341.874 62.618 342.38 63.344 342.776 64.224C343.172 65.06 343.37 66.028 343.37 67.128V82.968C343.37 83.584 343.348 84.266 343.304 85.014C343.26 85.718 343.128 86.444 342.908 87.192C342.732 87.94 342.424 88.688 341.984 89.436C341.588 90.14 341.038 90.778 340.334 91.35C339.454 92.098 338.442 92.648 337.298 93C336.198 93.352 335.076 93.528 333.932 93.528C332.788 93.528 331.644 93.352 330.5 93C329.4 92.692 328.41 92.164 327.53 91.416C326.826 90.844 326.254 90.206 325.814 89.502C325.418 88.754 325.11 88.006 324.89 87.258C324.714 86.466 324.604 85.718 324.56 85.014C324.516 84.266 324.494 83.584 324.494 82.968V65.61ZM338.42 69.9C338.42 69.02 338.288 68.228 338.024 67.524C337.76 66.82 337.452 66.27 337.1 65.874C336.22 64.994 335.164 64.554 333.932 64.554C333.316 64.554 332.722 64.686 332.15 64.95C331.622 65.214 331.16 65.544 330.764 65.94C330.412 66.336 330.104 66.93 329.84 67.722C329.576 68.47 329.444 69.284 329.444 70.164V83.364C329.444 84.288 329.576 85.102 329.84 85.806C330.104 86.51 330.412 87.082 330.764 87.522C331.116 87.874 331.556 88.16 332.084 88.38C332.656 88.6 333.272 88.71 333.932 88.71C334.592 88.71 335.186 88.6 335.714 88.38C336.286 88.16 336.748 87.874 337.1 87.522C337.452 87.082 337.76 86.51 338.024 85.806C338.288 85.102 338.42 84.288 338.42 83.364V69.9ZM364.903 89.766H364.837C364.441 90.25 364.023 90.712 363.583 91.152C363.143 91.592 362.637 91.988 362.065 92.34C361.493 92.692 360.833 92.978 360.085 93.198C359.381 93.418 358.501 93.528 357.445 93.528C356.125 93.528 355.025 93.308 354.145 92.868C353.309 92.384 352.627 91.724 352.099 90.888C351.615 90.052 351.263 89.084 351.043 87.984C350.823 86.884 350.713 85.674 350.713 84.354C350.713 82.638 350.867 81.12 351.175 79.8C351.483 78.436 352.011 77.292 352.759 76.368C353.507 75.444 354.475 74.74 355.663 74.256C356.895 73.772 358.435 73.53 360.283 73.53C360.635 73.53 361.141 73.552 361.801 73.596C362.461 73.596 363.495 73.662 364.903 73.794V68.976C364.903 68.536 364.815 68.052 364.639 67.524C364.463 66.996 364.177 66.512 363.781 66.072C363.429 65.632 362.967 65.28 362.395 65.016C361.823 64.708 361.119 64.554 360.283 64.554C359.843 64.554 359.381 64.62 358.897 64.752C358.457 64.84 358.017 65.038 357.577 65.346C357.181 65.654 356.807 66.072 356.455 66.6C356.147 67.128 355.927 67.788 355.795 68.58H351.043C351.043 67.216 351.285 65.984 351.769 64.884C352.297 63.784 352.979 62.86 353.815 62.112C354.695 61.32 355.707 60.726 356.851 60.33C358.039 59.934 359.293 59.736 360.613 59.736C362.505 59.736 364.045 60.066 365.233 60.726C366.465 61.342 367.411 62.134 368.071 63.102C368.775 64.026 369.237 65.082 369.457 66.27C369.721 67.414 369.853 68.514 369.853 69.57V93H364.903V89.766ZM364.903 77.424C364.199 77.336 363.561 77.27 362.989 77.226C362.417 77.138 361.933 77.094 361.537 77.094C360.833 77.094 360.129 77.204 359.425 77.424C358.721 77.6 358.083 77.952 357.511 78.48C356.983 78.964 356.543 79.624 356.191 80.46C355.839 81.252 355.663 82.242 355.663 83.43C355.663 85.762 356.015 87.324 356.719 88.116C357.423 88.908 358.479 89.304 359.887 89.304C360.415 89.304 360.965 89.15 361.537 88.842C362.109 88.534 362.637 88.094 363.121 87.522C363.649 86.95 364.067 86.312 364.375 85.608C364.727 84.86 364.903 84.046 364.903 83.166V77.424ZM396.733 93H391.783V64.422H385.513L385.381 68.25C385.381 68.822 385.359 69.702 385.315 70.89C385.271 72.078 385.205 73.398 385.117 74.85C385.029 76.258 384.919 77.71 384.787 79.206C384.699 80.658 384.567 81.978 384.391 83.166C384.171 84.574 383.863 85.872 383.467 87.06C383.115 88.248 382.587 89.282 381.883 90.162C381.179 91.042 380.299 91.746 379.243 92.274C378.187 92.758 376.867 93 375.283 93H374.491V88.908H375.085C376.141 88.908 376.999 88.6 377.659 87.984C378.319 87.368 378.825 86.554 379.177 85.542C379.573 84.486 379.837 83.32 379.969 82.044C380.145 80.724 380.299 79.404 380.431 78.084C380.475 77.424 380.519 76.632 380.563 75.708C380.607 74.74 380.629 73.772 380.629 72.804C380.673 71.836 380.717 70.934 380.761 70.098C380.805 69.218 380.827 68.536 380.827 68.052L381.025 60.264H396.733V93ZM418.396 83.826H423.346V84.288C423.346 85.08 423.214 86.026 422.95 87.126C422.73 88.182 422.29 89.194 421.63 90.162C420.97 91.086 420.046 91.878 418.858 92.538C417.67 93.198 416.13 93.528 414.238 93.528C412.17 93.528 410.52 93.176 409.288 92.472C408.056 91.724 407.088 90.844 406.384 89.832C405.68 88.82 405.218 87.786 404.998 86.73C404.778 85.63 404.668 84.728 404.668 84.024V68.844C404.668 68.184 404.778 67.348 404.998 66.336C405.218 65.324 405.658 64.334 406.318 63.366C406.978 62.354 407.902 61.496 409.09 60.792C410.322 60.088 411.928 59.736 413.908 59.736C415.844 59.736 417.428 60.088 418.66 60.792C419.936 61.496 420.926 62.354 421.63 63.366C422.334 64.334 422.818 65.368 423.082 66.468C423.346 67.524 423.478 68.404 423.478 69.108V78.48H409.618V83.694C409.618 85.454 409.992 86.73 410.74 87.522C411.532 88.314 412.698 88.71 414.238 88.71C415.69 88.71 416.746 88.314 417.406 87.522C418.066 86.686 418.396 85.586 418.396 84.222V83.826ZM418.528 74.784V69.174C418.528 68.646 418.462 68.118 418.33 67.59C418.198 67.018 417.956 66.512 417.604 66.072C417.252 65.632 416.79 65.28 416.218 65.016C415.646 64.708 414.942 64.554 414.106 64.554C413.226 64.554 412.5 64.708 411.928 65.016C411.356 65.324 410.894 65.72 410.542 66.204C410.19 66.688 409.948 67.216 409.816 67.788C409.684 68.36 409.618 68.91 409.618 69.438V74.784H418.528ZM431.164 60.264H436.114V63.498C437.17 62.09 438.314 61.122 439.546 60.594C440.822 60.022 442.032 59.736 443.176 59.736C444.628 59.736 445.794 59.978 446.674 60.462C447.598 60.946 448.302 61.584 448.786 62.376C449.27 63.124 449.6 63.938 449.776 64.818C449.952 65.698 450.04 66.534 450.04 67.326V85.938C450.04 86.73 449.952 87.566 449.776 88.446C449.6 89.326 449.27 90.162 448.786 90.954C448.302 91.702 447.598 92.318 446.674 92.802C445.794 93.286 444.628 93.528 443.176 93.528C442.032 93.528 440.822 93.264 439.546 92.736C438.314 92.164 437.17 91.174 436.114 89.766V106.464H431.164V60.264ZM440.932 88.71C441.724 88.71 442.384 88.578 442.912 88.314C443.44 88.006 443.858 87.61 444.166 87.126C444.518 86.642 444.76 86.092 444.892 85.476C445.024 84.86 445.09 84.244 445.09 83.628V69.636C445.09 69.02 445.024 68.404 444.892 67.788C444.76 67.172 444.518 66.622 444.166 66.138C443.858 65.654 443.44 65.28 442.912 65.016C442.384 64.708 441.724 64.554 440.932 64.554C439.92 64.554 439.106 64.774 438.49 65.214C437.874 65.654 437.39 66.182 437.038 66.798C436.686 67.414 436.444 68.074 436.312 68.778C436.18 69.438 436.114 70.032 436.114 70.56V82.704C436.114 83.232 436.18 83.848 436.312 84.552C436.444 85.212 436.686 85.85 437.038 86.466C437.39 87.082 437.874 87.61 438.49 88.05C439.106 88.49 439.92 88.71 440.932 88.71ZM463.185 60.264V81.978L473.547 64.29V60.264H478.497V93H473.547V71.88L463.185 89.568V93H458.235V60.264H463.185ZM486.658 60.264H491.608V74.256H500.584V60.264H505.534V93H500.584V78.48H491.608V93H486.658V60.264ZM523.299 98.808C522.947 100.216 522.529 101.404 522.045 102.372C521.561 103.384 520.967 104.176 520.263 104.748C519.603 105.364 518.789 105.804 517.821 106.068C516.897 106.332 515.797 106.464 514.521 106.464H513.399V101.976H514.323C515.863 101.976 516.963 101.536 517.623 100.656C518.283 99.776 518.855 98.368 519.339 96.432L520.263 92.538L510.627 60.264H515.841L522.441 84.09H522.573L527.589 60.264H532.605L523.299 98.808Z" fill="white"/>
</svg>
