<svg width="659" height="158" viewBox="0 0 659 158" fill="none" xmlns="http://www.w3.org/2000/svg">
<rect x="3" y="3.5946" width="652.541" height="150.676" fill="#003DE3" stroke="white" stroke-width="6"/>
<path d="M178.488 48.7999H188.52C190.588 48.7999 192.348 49.1299 193.8 49.7899C195.252 50.4059 196.418 51.2419 197.298 52.2979C198.222 53.3539 198.882 54.6079 199.278 56.0599C199.718 57.4679 199.938 58.9639 199.938 60.5479V64.6399C199.938 66.1359 199.696 67.5659 199.212 68.9299C198.772 70.2939 198.09 71.5039 197.166 72.5599C196.286 73.5719 195.186 74.3859 193.866 75.0019C192.59 75.6179 191.138 75.9259 189.51 75.9259H183.438V94.9999H178.488V48.7999ZM183.438 71.7019H188.124C189.268 71.7019 190.258 71.5259 191.094 71.1739C191.974 70.8219 192.7 70.3599 193.272 69.7879C193.844 69.2159 194.262 68.5559 194.526 67.8079C194.834 67.0159 194.988 66.2239 194.988 65.4319V59.9539C194.988 57.8419 194.438 56.1699 193.338 54.9379C192.238 53.7059 190.522 53.0899 188.19 53.0899H183.438V71.7019ZM218.565 91.7659H218.499C218.103 92.2499 217.685 92.7119 217.245 93.1519C216.805 93.5919 216.299 93.9879 215.727 94.3399C215.155 94.6919 214.495 94.9779 213.747 95.1979C213.043 95.4179 212.163 95.5279 211.107 95.5279C209.787 95.5279 208.687 95.3079 207.807 94.8679C206.971 94.3839 206.289 93.7239 205.761 92.8879C205.277 92.0519 204.925 91.0839 204.705 89.9839C204.485 88.8839 204.375 87.6739 204.375 86.3539C204.375 84.6379 204.529 83.1199 204.837 81.7999C205.145 80.4359 205.673 79.2919 206.421 78.3679C207.169 77.4439 208.137 76.7399 209.325 76.2559C210.557 75.7719 212.097 75.5299 213.945 75.5299C214.297 75.5299 214.803 75.5519 215.463 75.5959C216.123 75.5959 217.157 75.6619 218.565 75.7939V70.9759C218.565 70.5359 218.477 70.0519 218.301 69.5239C218.125 68.9959 217.839 68.5119 217.443 68.0719C217.091 67.6319 216.629 67.2799 216.057 67.0159C215.485 66.7079 214.781 66.5539 213.945 66.5539C213.505 66.5539 213.043 66.6199 212.559 66.7519C212.119 66.8399 211.679 67.0379 211.239 67.3459C210.843 67.6539 210.469 68.0719 210.117 68.5999C209.809 69.1279 209.589 69.7879 209.457 70.5799H204.705C204.705 69.2159 204.947 67.9839 205.431 66.8839C205.959 65.7839 206.641 64.8599 207.477 64.1119C208.357 63.3199 209.369 62.7259 210.513 62.3299C211.701 61.9339 212.955 61.7359 214.275 61.7359C216.167 61.7359 217.707 62.0659 218.895 62.7259C220.127 63.3419 221.073 64.1339 221.733 65.1019C222.437 66.0259 222.899 67.0819 223.119 68.2699C223.383 69.4139 223.515 70.5139 223.515 71.5699V94.9999H218.565V91.7659ZM218.565 79.4239C217.861 79.3359 217.223 79.2699 216.651 79.2259C216.079 79.1379 215.595 79.0939 215.199 79.0939C214.495 79.0939 213.791 79.2039 213.087 79.4239C212.383 79.5999 211.745 79.9519 211.173 80.4799C210.645 80.9639 210.205 81.6239 209.853 82.4599C209.501 83.2519 209.325 84.2419 209.325 85.4299C209.325 87.7619 209.677 89.3239 210.381 90.1159C211.085 90.9079 212.141 91.3039 213.549 91.3039C214.077 91.3039 214.627 91.1499 215.199 90.8419C215.771 90.5339 216.299 90.0939 216.783 89.5219C217.311 88.9499 217.729 88.3119 218.037 87.6079C218.389 86.8599 218.565 86.0459 218.565 85.1659V79.4239ZM230.199 70.9099C230.199 70.1179 230.309 69.2159 230.529 68.2039C230.793 67.1479 231.255 66.1359 231.915 65.1679C232.619 64.1999 233.587 63.3859 234.819 62.7259C236.095 62.0659 237.723 61.7359 239.703 61.7359C242.519 61.7359 244.719 62.4839 246.303 63.9799C247.931 65.4759 248.745 67.6099 248.745 70.3819V71.6359C248.745 73.4839 248.283 74.9139 247.359 75.9259C246.479 76.9379 245.467 77.6419 244.323 78.0379C245.467 78.3019 246.347 78.7199 246.963 79.2919C247.623 79.8639 248.085 80.4799 248.349 81.1399C248.657 81.7999 248.833 82.4599 248.877 83.1199C248.965 83.7799 249.009 84.3079 249.009 84.7039V86.6839C249.009 89.3679 248.129 91.5239 246.369 93.1519C244.653 94.7359 242.365 95.5279 239.505 95.5279C237.613 95.5279 236.051 95.2199 234.819 94.6039C233.631 93.9879 232.685 93.2179 231.981 92.2939C231.277 91.3699 230.793 90.3799 230.529 89.3239C230.265 88.2239 230.133 87.2119 230.133 86.2879V85.0339H235.083V85.7599C235.083 87.5639 235.457 88.8399 236.205 89.5879C236.953 90.3359 238.053 90.7099 239.505 90.7099C241.221 90.7099 242.409 90.2479 243.069 89.3239C243.729 88.3999 244.059 87.2559 244.059 85.8919V85.0339C244.059 83.2299 243.641 82.0199 242.805 81.4039C242.013 80.7879 240.979 80.4799 239.703 80.4799H237.195V76.3879H239.505C240.781 76.3879 241.815 75.9259 242.607 75.0019C243.399 74.0339 243.795 72.9119 243.795 71.6359V70.4479C243.795 69.2599 243.355 68.3139 242.475 67.6099C241.639 66.9059 240.715 66.5539 239.703 66.5539C238.339 66.5539 237.239 66.9719 236.403 67.8079C235.567 68.6439 235.149 69.9859 235.149 71.8339V72.2959H230.199V70.9099ZM266.166 100.808C265.814 102.216 265.396 103.404 264.912 104.372C264.428 105.384 263.834 106.176 263.13 106.748C262.47 107.364 261.656 107.804 260.688 108.068C259.764 108.332 258.664 108.464 257.388 108.464H256.266V103.976H257.19C258.73 103.976 259.83 103.536 260.49 102.656C261.15 101.776 261.722 100.368 262.206 98.4319L263.13 94.5379L253.494 62.2639H258.708L265.308 86.0899H265.44L270.456 62.2639H275.472L266.166 100.808ZM293.874 81.2059C292.73 81.7779 291.586 82.1519 290.442 82.3279C289.298 82.4599 288.242 82.5259 287.274 82.5259C285.074 82.5259 283.358 81.9759 282.126 80.8759C280.894 79.7759 280.278 77.8399 280.278 75.0679V62.2639H285.228V74.0119C285.228 76.8719 286.658 78.3019 289.518 78.3019C290.398 78.3019 291.19 78.1919 291.894 77.9719C292.598 77.7079 293.258 77.3999 293.874 77.0479V62.2639H298.824V94.9999H293.874V81.2059ZM311.948 62.2639V83.9779L322.31 66.2899V62.2639H327.26V94.9999H322.31V73.8799L311.948 91.5679V94.9999H306.998V62.2639H311.948ZM359.802 66.4219V94.9999H354.852V66.4219H347.922V62.2639H366.732V66.4219H359.802ZM384.661 91.7659H384.595C384.199 92.2499 383.781 92.7119 383.341 93.1519C382.901 93.5919 382.395 93.9879 381.823 94.3399C381.251 94.6919 380.591 94.9779 379.843 95.1979C379.139 95.4179 378.259 95.5279 377.203 95.5279C375.883 95.5279 374.783 95.3079 373.903 94.8679C373.067 94.3839 372.385 93.7239 371.857 92.8879C371.373 92.0519 371.021 91.0839 370.801 89.9839C370.581 88.8839 370.471 87.6739 370.471 86.3539C370.471 84.6379 370.625 83.1199 370.933 81.7999C371.241 80.4359 371.769 79.2919 372.517 78.3679C373.265 77.4439 374.233 76.7399 375.421 76.2559C376.653 75.7719 378.193 75.5299 380.041 75.5299C380.393 75.5299 380.899 75.5519 381.559 75.5959C382.219 75.5959 383.253 75.6619 384.661 75.7939V70.9759C384.661 70.5359 384.573 70.0519 384.397 69.5239C384.221 68.9959 383.935 68.5119 383.539 68.0719C383.187 67.6319 382.725 67.2799 382.153 67.0159C381.581 66.7079 380.877 66.5539 380.041 66.5539C379.601 66.5539 379.139 66.6199 378.655 66.7519C378.215 66.8399 377.775 67.0379 377.335 67.3459C376.939 67.6539 376.565 68.0719 376.213 68.5999C375.905 69.1279 375.685 69.7879 375.553 70.5799H370.801C370.801 69.2159 371.043 67.9839 371.527 66.8839C372.055 65.7839 372.737 64.8599 373.573 64.1119C374.453 63.3199 375.465 62.7259 376.609 62.3299C377.797 61.9339 379.051 61.7359 380.371 61.7359C382.263 61.7359 383.803 62.0659 384.991 62.7259C386.223 63.3419 387.169 64.1339 387.829 65.1019C388.533 66.0259 388.995 67.0819 389.215 68.2699C389.479 69.4139 389.611 70.5139 389.611 71.5699V94.9999H384.661V91.7659ZM384.661 79.4239C383.957 79.3359 383.319 79.2699 382.747 79.2259C382.175 79.1379 381.691 79.0939 381.295 79.0939C380.591 79.0939 379.887 79.2039 379.183 79.4239C378.479 79.5999 377.841 79.9519 377.269 80.4799C376.741 80.9639 376.301 81.6239 375.949 82.4599C375.597 83.2519 375.421 84.2419 375.421 85.4299C375.421 87.7619 375.773 89.3239 376.477 90.1159C377.181 90.9079 378.237 91.3039 379.645 91.3039C380.173 91.3039 380.723 91.1499 381.295 90.8419C381.867 90.5339 382.395 90.0939 382.879 89.5219C383.407 88.9499 383.825 88.3119 384.133 87.6079C384.485 86.8599 384.661 86.0459 384.661 85.1659V79.4239ZM397.813 62.2639H402.763V76.2559H411.739V62.2639H416.689V94.9999H411.739V80.4799H402.763V94.9999H397.813V62.2639ZM438.347 85.8259H443.297V86.2879C443.297 87.0799 443.165 88.0259 442.901 89.1259C442.681 90.1819 442.241 91.1939 441.581 92.1619C440.921 93.0859 439.997 93.8779 438.809 94.5379C437.621 95.1979 436.081 95.5279 434.189 95.5279C432.121 95.5279 430.471 95.1759 429.239 94.4719C428.007 93.7239 427.039 92.8439 426.335 91.8319C425.631 90.8199 425.169 89.7859 424.949 88.7299C424.729 87.6299 424.619 86.7279 424.619 86.0239V70.8439C424.619 70.1839 424.729 69.3479 424.949 68.3359C425.169 67.3239 425.609 66.3339 426.269 65.3659C426.929 64.3539 427.853 63.4959 429.041 62.7919C430.273 62.0879 431.879 61.7359 433.859 61.7359C435.795 61.7359 437.379 62.0879 438.611 62.7919C439.887 63.4959 440.877 64.3539 441.581 65.3659C442.285 66.3339 442.769 67.3679 443.033 68.4679C443.297 69.5239 443.429 70.4039 443.429 71.1079V80.4799H429.569V85.6939C429.569 87.4539 429.943 88.7299 430.691 89.5219C431.483 90.3139 432.649 90.7099 434.189 90.7099C435.641 90.7099 436.697 90.3139 437.357 89.5219C438.017 88.6859 438.347 87.5859 438.347 86.2219V85.8259ZM438.479 76.7839V71.1739C438.479 70.6459 438.413 70.1179 438.281 69.5899C438.149 69.0179 437.907 68.5119 437.555 68.0719C437.203 67.6319 436.741 67.2799 436.169 67.0159C435.597 66.7079 434.893 66.5539 434.057 66.5539C433.177 66.5539 432.451 66.7079 431.879 67.0159C431.307 67.3239 430.845 67.7199 430.493 68.2039C430.141 68.6879 429.899 69.2159 429.767 69.7879C429.635 70.3599 429.569 70.9099 429.569 71.4379V76.7839H438.479ZM451.115 62.2639H456.065V90.8419H464.975V62.2639H469.925V90.8419H474.215V101.864H469.595V94.9999H451.115V62.2639Z" fill="white"/>
</svg>
