<svg width="134" height="98" viewBox="0 0 134 98" fill="none" xmlns="http://www.w3.org/2000/svg">
<path d="M122.29 97.7324C78.6247 30.6748 21.8986 67.3551 4.84178 97.7324L1.43042 87.4986C43.5364 8.35495 107.508 57.6083 127.164 87.4983L122.29 97.7324Z" fill="#FFCF01"/>
<path d="M41.3916 55.3338C49.3514 14.145 70.047 -43.5192 89.1507 55.3338C83.4651 51.6521 65.9534 46.4977 41.3916 55.3338Z" fill="#FFCF01"/>
<path d="M66.7336 48.4275C87.8304 23.8024 124.614 -6.75947 102.972 67.9942C100.004 63.1722 88.6006 52.5081 66.7336 48.4275Z" fill="#FFCF01"/>
<path d="M94.9993 63.0751C113.585 48.0703 143.122 30.19 112.582 78.7064C111.888 75.2714 107.4 67.3362 94.9993 63.0751Z" fill="#FFCF01"/>
<path d="M38.7844 61.1261C20.1986 46.1214 -9.33805 28.241 21.2015 76.7574C21.8953 73.3224 26.3833 65.3873 38.7844 61.1261Z" fill="#FFCF01"/>
<path d="M66.3936 48.4275C45.2968 23.8024 8.51358 -6.75947 30.1553 67.9942C33.1235 63.1722 44.5266 52.5081 66.3936 48.4275Z" fill="#FFCF01"/>
<ellipse cx="66.2461" cy="31.4545" rx="7.31006" ry="9.25941" fill="white"/>
<ellipse cx="95.3964" cy="43.6581" rx="6.11564" ry="7.74647" transform="rotate(30 95.3964 43.6581)" fill="white"/>
<ellipse cx="6.11564" cy="7.74647" rx="6.11564" ry="7.74647" transform="matrix(-0.866025 0.5 0.5 0.866025 38.3391 33.8916)" fill="white"/>
<ellipse cx="3.80941" cy="4.82525" rx="3.80941" ry="4.82525" transform="matrix(-0.866025 0.5 0.5 0.866025 21.6736 53.385)" fill="white"/>
<ellipse cx="112.407" cy="61.4182" rx="3.80941" ry="4.82525" transform="rotate(30 112.407 61.4182)" fill="white"/>
</svg>
