<svg width="951" height="499" viewBox="0 0 951 499" fill="none" xmlns="http://www.w3.org/2000/svg">
<rect x="3" y="3" width="945" height="493" fill="#003DE3" stroke="white" stroke-width="6"/>
<path d="M237.961 166.8V206H233.761V170.44H224.297V206H220.097V166.8H237.961ZM245.245 178.224H249.445V180.968C250.341 179.773 251.312 178.952 252.357 178.504C253.44 178.019 254.467 177.776 255.437 177.776C256.669 177.776 257.659 177.981 258.405 178.392C259.189 178.803 259.787 179.344 260.197 180.016C260.608 180.651 260.888 181.341 261.037 182.088C261.187 182.835 261.261 183.544 261.261 184.216V200.008C261.261 200.68 261.187 201.389 261.037 202.136C260.888 202.883 260.608 203.592 260.197 204.264C259.787 204.899 259.189 205.421 258.405 205.832C257.659 206.243 256.669 206.448 255.437 206.448C254.467 206.448 253.44 206.224 252.357 205.776C251.312 205.291 250.341 204.451 249.445 203.256V217.424H245.245V178.224ZM253.533 202.36C254.205 202.36 254.765 202.248 255.213 202.024C255.661 201.763 256.016 201.427 256.277 201.016C256.576 200.605 256.781 200.139 256.893 199.616C257.005 199.093 257.061 198.571 257.061 198.048V186.176C257.061 185.653 257.005 185.131 256.893 184.608C256.781 184.085 256.576 183.619 256.277 183.208C256.016 182.797 255.661 182.48 255.213 182.256C254.765 181.995 254.205 181.864 253.533 181.864C252.675 181.864 251.984 182.051 251.461 182.424C250.939 182.797 250.528 183.245 250.229 183.768C249.931 184.291 249.725 184.851 249.613 185.448C249.501 186.008 249.445 186.512 249.445 186.96V197.264C249.445 197.712 249.501 198.235 249.613 198.832C249.725 199.392 249.931 199.933 250.229 200.456C250.528 200.979 250.939 201.427 251.461 201.8C251.984 202.173 252.675 202.36 253.533 202.36ZM279.638 198.216H283.838V198.608C283.838 199.28 283.726 200.083 283.502 201.016C283.316 201.912 282.942 202.771 282.382 203.592C281.822 204.376 281.038 205.048 280.03 205.608C279.022 206.168 277.716 206.448 276.11 206.448C274.356 206.448 272.956 206.149 271.91 205.552C270.865 204.917 270.044 204.171 269.446 203.312C268.849 202.453 268.457 201.576 268.27 200.68C268.084 199.747 267.99 198.981 267.99 198.384V185.504C267.99 184.944 268.084 184.235 268.27 183.376C268.457 182.517 268.83 181.677 269.39 180.856C269.95 179.997 270.734 179.269 271.742 178.672C272.788 178.075 274.15 177.776 275.83 177.776C277.473 177.776 278.817 178.075 279.862 178.672C280.945 179.269 281.785 179.997 282.382 180.856C282.98 181.677 283.39 182.555 283.614 183.488C283.838 184.384 283.95 185.131 283.95 185.728V193.68H272.19V198.104C272.19 199.597 272.508 200.68 273.142 201.352C273.814 202.024 274.804 202.36 276.11 202.36C277.342 202.36 278.238 202.024 278.798 201.352C279.358 200.643 279.638 199.709 279.638 198.552V198.216ZM279.75 190.544V185.784C279.75 185.336 279.694 184.888 279.582 184.44C279.47 183.955 279.265 183.525 278.966 183.152C278.668 182.779 278.276 182.48 277.79 182.256C277.305 181.995 276.708 181.864 275.998 181.864C275.252 181.864 274.636 181.995 274.15 182.256C273.665 182.517 273.273 182.853 272.974 183.264C272.676 183.675 272.47 184.123 272.358 184.608C272.246 185.093 272.19 185.56 272.19 186.008V190.544H279.75ZM297.808 190.04C298.48 190.04 299.021 189.891 299.432 189.592C299.843 189.293 300.16 188.901 300.384 188.416C300.645 187.931 300.813 187.408 300.888 186.848C301 186.288 301.093 185.747 301.168 185.224L301.504 182.76C301.616 182.051 301.765 181.397 301.952 180.8C302.139 180.203 302.419 179.699 302.792 179.288C303.203 178.84 303.744 178.504 304.416 178.28C305.125 178.056 306.04 177.944 307.16 177.944H307.776V181.472H307.16C306.413 181.472 305.891 181.733 305.592 182.256C305.293 182.779 305.069 183.563 304.92 184.608L304.584 186.904C304.397 188.099 304.211 189.051 304.024 189.76C303.837 190.469 303.389 191.123 302.68 191.72L307.664 206H303.52L299.152 193.4H294.672V206H290.472V178.224H294.672V190.04H297.808ZM313.113 178.224H317.313V180.968C318.209 179.773 319.179 178.952 320.225 178.504C321.307 178.019 322.334 177.776 323.305 177.776C324.537 177.776 325.526 177.981 326.273 178.392C327.057 178.803 327.654 179.344 328.065 180.016C328.475 180.651 328.755 181.341 328.905 182.088C329.054 182.835 329.129 183.544 329.129 184.216V200.008C329.129 200.68 329.054 201.389 328.905 202.136C328.755 202.883 328.475 203.592 328.065 204.264C327.654 204.899 327.057 205.421 326.273 205.832C325.526 206.243 324.537 206.448 323.305 206.448C322.334 206.448 321.307 206.224 320.225 205.776C319.179 205.291 318.209 204.451 317.313 203.256V217.424H313.113V178.224ZM321.401 202.36C322.073 202.36 322.633 202.248 323.081 202.024C323.529 201.763 323.883 201.427 324.145 201.016C324.443 200.605 324.649 200.139 324.761 199.616C324.873 199.093 324.929 198.571 324.929 198.048V186.176C324.929 185.653 324.873 185.131 324.761 184.608C324.649 184.085 324.443 183.619 324.145 183.208C323.883 182.797 323.529 182.48 323.081 182.256C322.633 181.995 322.073 181.864 321.401 181.864C320.542 181.864 319.851 182.051 319.329 182.424C318.806 182.797 318.395 183.245 318.097 183.768C317.798 184.291 317.593 184.851 317.481 185.448C317.369 186.008 317.313 186.512 317.313 186.96V197.264C317.313 197.712 317.369 198.235 317.481 198.832C317.593 199.392 317.798 199.933 318.097 200.456C318.395 200.979 318.806 201.427 319.329 201.8C319.851 202.173 320.542 202.36 321.401 202.36ZM347.617 203.256H347.561C347.225 203.667 346.871 204.059 346.497 204.432C346.124 204.805 345.695 205.141 345.209 205.44C344.724 205.739 344.164 205.981 343.529 206.168C342.932 206.355 342.185 206.448 341.289 206.448C340.169 206.448 339.236 206.261 338.489 205.888C337.78 205.477 337.201 204.917 336.753 204.208C336.343 203.499 336.044 202.677 335.857 201.744C335.671 200.811 335.577 199.784 335.577 198.664C335.577 197.208 335.708 195.92 335.969 194.8C336.231 193.643 336.679 192.672 337.313 191.888C337.948 191.104 338.769 190.507 339.777 190.096C340.823 189.685 342.129 189.48 343.697 189.48C343.996 189.48 344.425 189.499 344.985 189.536C345.545 189.536 346.423 189.592 347.617 189.704V185.616C347.617 185.243 347.543 184.832 347.393 184.384C347.244 183.936 347.001 183.525 346.665 183.152C346.367 182.779 345.975 182.48 345.489 182.256C345.004 181.995 344.407 181.864 343.697 181.864C343.324 181.864 342.932 181.92 342.521 182.032C342.148 182.107 341.775 182.275 341.401 182.536C341.065 182.797 340.748 183.152 340.449 183.6C340.188 184.048 340.001 184.608 339.889 185.28H335.857C335.857 184.123 336.063 183.077 336.473 182.144C336.921 181.211 337.5 180.427 338.209 179.792C338.956 179.12 339.815 178.616 340.785 178.28C341.793 177.944 342.857 177.776 343.977 177.776C345.583 177.776 346.889 178.056 347.897 178.616C348.943 179.139 349.745 179.811 350.305 180.632C350.903 181.416 351.295 182.312 351.481 183.32C351.705 184.291 351.817 185.224 351.817 186.12V206H347.617V203.256ZM347.617 192.784C347.02 192.709 346.479 192.653 345.993 192.616C345.508 192.541 345.097 192.504 344.761 192.504C344.164 192.504 343.567 192.597 342.969 192.784C342.372 192.933 341.831 193.232 341.345 193.68C340.897 194.091 340.524 194.651 340.225 195.36C339.927 196.032 339.777 196.872 339.777 197.88C339.777 199.859 340.076 201.184 340.673 201.856C341.271 202.528 342.167 202.864 343.361 202.864C343.809 202.864 344.276 202.733 344.761 202.472C345.247 202.211 345.695 201.837 346.105 201.352C346.553 200.867 346.908 200.325 347.169 199.728C347.468 199.093 347.617 198.403 347.617 197.656V192.784ZM370.593 197.488H374.793V198.608C374.793 199.28 374.662 200.083 374.401 201.016C374.177 201.912 373.747 202.771 373.113 203.592C372.515 204.376 371.694 205.048 370.649 205.608C369.603 206.168 368.278 206.448 366.673 206.448C364.918 206.448 363.518 206.149 362.473 205.552C361.427 204.917 360.606 204.171 360.009 203.312C359.411 202.453 359.019 201.576 358.833 200.68C358.646 199.747 358.553 198.981 358.553 198.384V185.784C358.553 185.224 358.646 184.496 358.833 183.6C359.019 182.667 359.411 181.771 360.009 180.912C360.606 180.053 361.427 179.325 362.473 178.728C363.518 178.093 364.918 177.776 366.673 177.776C368.315 177.776 369.659 178.056 370.705 178.616C371.787 179.176 372.627 179.867 373.225 180.688C373.822 181.509 374.233 182.368 374.457 183.264C374.681 184.123 374.793 184.888 374.793 185.56V186.792H370.593V186.4C370.593 184.832 370.201 183.693 369.417 182.984C368.67 182.237 367.755 181.864 366.673 181.864C365.59 181.864 364.657 182.237 363.873 182.984C363.126 183.693 362.753 184.832 362.753 186.4V197.824C362.753 200.848 364.059 202.36 366.673 202.36C367.905 202.36 368.857 201.987 369.529 201.24C370.238 200.493 370.593 199.355 370.593 197.824V197.488ZM380.269 178.224H384.469V190.096H392.085V178.224H396.285V206H392.085V193.68H384.469V206H380.269V178.224ZM403.014 185.616C403.014 185.093 403.107 184.403 403.294 183.544C403.48 182.648 403.854 181.771 404.414 180.912C405.011 180.053 405.832 179.325 406.878 178.728C407.923 178.093 409.304 177.776 411.022 177.776C412.739 177.776 414.12 178.093 415.166 178.728C416.211 179.325 417.014 180.053 417.574 180.912C418.171 181.771 418.563 182.648 418.75 183.544C418.936 184.403 419.03 185.075 419.03 185.56V198.496C419.03 199.056 418.936 199.784 418.75 200.68C418.563 201.576 418.171 202.453 417.574 203.312C417.014 204.171 416.211 204.917 415.166 205.552C414.12 206.149 412.739 206.448 411.022 206.448C409.304 206.448 407.923 206.149 406.878 205.552C405.832 204.917 405.011 204.171 404.414 203.312C403.854 202.453 403.48 201.576 403.294 200.68C403.107 199.784 403.014 199.056 403.014 198.496V185.616ZM414.83 186.4C414.83 184.832 414.456 183.693 413.71 182.984C412.963 182.237 412.067 181.864 411.022 181.864C409.976 181.864 409.08 182.237 408.334 182.984C407.587 183.693 407.214 184.832 407.214 186.4V197.824C407.214 199.28 407.531 200.4 408.166 201.184C408.838 201.968 409.79 202.36 411.022 202.36C412.216 202.36 413.15 201.987 413.822 201.24C414.494 200.493 414.83 199.355 414.83 197.824V186.4ZM430.473 201.24V206.504L425.657 210.816V201.24H430.473ZM458.541 181.752V206H454.341V181.752H448.461V178.224H464.421V181.752H458.541ZM479.633 203.256H479.577C479.241 203.667 478.886 204.059 478.513 204.432C478.14 204.805 477.71 205.141 477.225 205.44C476.74 205.739 476.18 205.981 475.545 206.168C474.948 206.355 474.201 206.448 473.305 206.448C472.185 206.448 471.252 206.261 470.505 205.888C469.796 205.477 469.217 204.917 468.769 204.208C468.358 203.499 468.06 202.677 467.873 201.744C467.686 200.811 467.593 199.784 467.593 198.664C467.593 197.208 467.724 195.92 467.985 194.8C468.246 193.643 468.694 192.672 469.329 191.888C469.964 191.104 470.785 190.507 471.793 190.096C472.838 189.685 474.145 189.48 475.713 189.48C476.012 189.48 476.441 189.499 477.001 189.536C477.561 189.536 478.438 189.592 479.633 189.704V185.616C479.633 185.243 479.558 184.832 479.409 184.384C479.26 183.936 479.017 183.525 478.681 183.152C478.382 182.779 477.99 182.48 477.505 182.256C477.02 181.995 476.422 181.864 475.713 181.864C475.34 181.864 474.948 181.92 474.537 182.032C474.164 182.107 473.79 182.275 473.417 182.536C473.081 182.797 472.764 183.152 472.465 183.6C472.204 184.048 472.017 184.608 471.905 185.28H467.873C467.873 184.123 468.078 183.077 468.489 182.144C468.937 181.211 469.516 180.427 470.225 179.792C470.972 179.12 471.83 178.616 472.801 178.28C473.809 177.944 474.873 177.776 475.993 177.776C477.598 177.776 478.905 178.056 479.913 178.616C480.958 179.139 481.761 179.811 482.321 180.632C482.918 181.416 483.31 182.312 483.497 183.32C483.721 184.291 483.833 185.224 483.833 186.12V206H479.633V203.256ZM479.633 192.784C479.036 192.709 478.494 192.653 478.009 192.616C477.524 192.541 477.113 192.504 476.777 192.504C476.18 192.504 475.582 192.597 474.985 192.784C474.388 192.933 473.846 193.232 473.361 193.68C472.913 194.091 472.54 194.651 472.241 195.36C471.942 196.032 471.793 196.872 471.793 197.88C471.793 199.859 472.092 201.184 472.689 201.856C473.286 202.528 474.182 202.864 475.377 202.864C475.825 202.864 476.292 202.733 476.777 202.472C477.262 202.211 477.71 201.837 478.121 201.352C478.569 200.867 478.924 200.325 479.185 199.728C479.484 199.093 479.633 198.403 479.633 197.656V192.784ZM490.792 178.224H494.992V190.096H502.608V178.224H506.808V206H502.608V193.68H494.992V206H490.792V178.224ZM525.185 198.216H529.385V198.608C529.385 199.28 529.273 200.083 529.049 201.016C528.862 201.912 528.489 202.771 527.929 203.592C527.369 204.376 526.585 205.048 525.577 205.608C524.569 206.168 523.262 206.448 521.657 206.448C519.902 206.448 518.502 206.149 517.457 205.552C516.412 204.917 515.59 204.171 514.993 203.312C514.396 202.453 514.004 201.576 513.817 200.68C513.63 199.747 513.537 198.981 513.537 198.384V185.504C513.537 184.944 513.63 184.235 513.817 183.376C514.004 182.517 514.377 181.677 514.937 180.856C515.497 179.997 516.281 179.269 517.289 178.672C518.334 178.075 519.697 177.776 521.377 177.776C523.02 177.776 524.364 178.075 525.409 178.672C526.492 179.269 527.332 179.997 527.929 180.856C528.526 181.677 528.937 182.555 529.161 183.488C529.385 184.384 529.497 185.131 529.497 185.728V193.68H517.737V198.104C517.737 199.597 518.054 200.68 518.689 201.352C519.361 202.024 520.35 202.36 521.657 202.36C522.889 202.36 523.785 202.024 524.345 201.352C524.905 200.643 525.185 199.709 525.185 198.552V198.216ZM525.297 190.544V185.784C525.297 185.336 525.241 184.888 525.129 184.44C525.017 183.955 524.812 183.525 524.513 183.152C524.214 182.779 523.822 182.48 523.337 182.256C522.852 181.995 522.254 181.864 521.545 181.864C520.798 181.864 520.182 181.995 519.697 182.256C519.212 182.517 518.82 182.853 518.521 183.264C518.222 183.675 518.017 184.123 517.905 184.608C517.793 185.093 517.737 185.56 517.737 186.008V190.544H525.297ZM536.019 178.224H540.219V202.472H547.779V178.224H551.979V202.472H555.619V211.824H551.699V206H536.019V178.224ZM573.042 178.224H577.242V180.968C578.138 179.773 579.109 178.952 580.154 178.504C581.237 178.019 582.264 177.776 583.234 177.776C584.466 177.776 585.456 177.981 586.202 178.392C586.986 178.803 587.584 179.344 587.994 180.016C588.405 180.651 588.685 181.341 588.834 182.088C588.984 182.835 589.058 183.544 589.058 184.216V200.008C589.058 200.68 588.984 201.389 588.834 202.136C588.685 202.883 588.405 203.592 587.994 204.264C587.584 204.899 586.986 205.421 586.202 205.832C585.456 206.243 584.466 206.448 583.234 206.448C582.264 206.448 581.237 206.224 580.154 205.776C579.109 205.291 578.138 204.451 577.242 203.256V217.424H573.042V178.224ZM581.33 202.36C582.002 202.36 582.562 202.248 583.01 202.024C583.458 201.763 583.813 201.427 584.074 201.016C584.373 200.605 584.578 200.139 584.69 199.616C584.802 199.093 584.858 198.571 584.858 198.048V186.176C584.858 185.653 584.802 185.131 584.69 184.608C584.578 184.085 584.373 183.619 584.074 183.208C583.813 182.797 583.458 182.48 583.01 182.256C582.562 181.995 582.002 181.864 581.33 181.864C580.472 181.864 579.781 182.051 579.258 182.424C578.736 182.797 578.325 183.245 578.026 183.768C577.728 184.291 577.522 184.851 577.41 185.448C577.298 186.008 577.242 186.512 577.242 186.96V197.264C577.242 197.712 577.298 198.235 577.41 198.832C577.522 199.392 577.728 199.933 578.026 200.456C578.325 200.979 578.736 201.427 579.258 201.8C579.781 202.173 580.472 202.36 581.33 202.36ZM607.547 203.256H607.491C607.155 203.667 606.8 204.059 606.427 204.432C606.054 204.805 605.624 205.141 605.139 205.44C604.654 205.739 604.094 205.981 603.459 206.168C602.862 206.355 602.115 206.448 601.219 206.448C600.099 206.448 599.166 206.261 598.419 205.888C597.71 205.477 597.131 204.917 596.683 204.208C596.272 203.499 595.974 202.677 595.787 201.744C595.6 200.811 595.507 199.784 595.507 198.664C595.507 197.208 595.638 195.92 595.899 194.8C596.16 193.643 596.608 192.672 597.243 191.888C597.878 191.104 598.699 190.507 599.707 190.096C600.752 189.685 602.059 189.48 603.627 189.48C603.926 189.48 604.355 189.499 604.915 189.536C605.475 189.536 606.352 189.592 607.547 189.704V185.616C607.547 185.243 607.472 184.832 607.323 184.384C607.174 183.936 606.931 183.525 606.595 183.152C606.296 182.779 605.904 182.48 605.419 182.256C604.934 181.995 604.336 181.864 603.627 181.864C603.254 181.864 602.862 181.92 602.451 182.032C602.078 182.107 601.704 182.275 601.331 182.536C600.995 182.797 600.678 183.152 600.379 183.6C600.118 184.048 599.931 184.608 599.819 185.28H595.787C595.787 184.123 595.992 183.077 596.403 182.144C596.851 181.211 597.43 180.427 598.139 179.792C598.886 179.12 599.744 178.616 600.715 178.28C601.723 177.944 602.787 177.776 603.907 177.776C605.512 177.776 606.819 178.056 607.827 178.616C608.872 179.139 609.675 179.811 610.235 180.632C610.832 181.416 611.224 182.312 611.411 183.32C611.635 184.291 611.747 185.224 611.747 186.12V206H607.547V203.256ZM607.547 192.784C606.95 192.709 606.408 192.653 605.923 192.616C605.438 192.541 605.027 192.504 604.691 192.504C604.094 192.504 603.496 192.597 602.899 192.784C602.302 192.933 601.76 193.232 601.275 193.68C600.827 194.091 600.454 194.651 600.155 195.36C599.856 196.032 599.707 196.872 599.707 197.88C599.707 199.859 600.006 201.184 600.603 201.856C601.2 202.528 602.096 202.864 603.291 202.864C603.739 202.864 604.206 202.733 604.691 202.472C605.176 202.211 605.624 201.837 606.035 201.352C606.483 200.867 606.838 200.325 607.099 199.728C607.398 199.093 607.547 198.403 607.547 197.656V192.784ZM617.418 185.56C617.418 184.888 617.512 184.123 617.698 183.264C617.922 182.368 618.314 181.509 618.874 180.688C619.472 179.867 620.293 179.176 621.338 178.616C622.421 178.056 623.802 177.776 625.482 177.776C627.872 177.776 629.738 178.411 631.082 179.68C632.464 180.949 633.154 182.76 633.154 185.112V186.176C633.154 187.744 632.762 188.957 631.978 189.816C631.232 190.675 630.373 191.272 629.402 191.608C630.373 191.832 631.12 192.187 631.642 192.672C632.202 193.157 632.594 193.68 632.818 194.24C633.08 194.8 633.229 195.36 633.266 195.92C633.341 196.48 633.378 196.928 633.378 197.264V198.944C633.378 201.221 632.632 203.051 631.138 204.432C629.682 205.776 627.741 206.448 625.314 206.448C623.709 206.448 622.384 206.187 621.338 205.664C620.33 205.141 619.528 204.488 618.93 203.704C618.333 202.92 617.922 202.08 617.698 201.184C617.474 200.251 617.362 199.392 617.362 198.608V197.544H621.562V198.16C621.562 199.691 621.88 200.773 622.514 201.408C623.149 202.043 624.082 202.36 625.314 202.36C626.77 202.36 627.778 201.968 628.338 201.184C628.898 200.4 629.178 199.429 629.178 198.272V197.544C629.178 196.013 628.824 194.987 628.114 194.464C627.442 193.941 626.565 193.68 625.482 193.68H623.354V190.208H625.314C626.397 190.208 627.274 189.816 627.946 189.032C628.618 188.211 628.954 187.259 628.954 186.176V185.168C628.954 184.16 628.581 183.357 627.834 182.76C627.125 182.163 626.341 181.864 625.482 181.864C624.325 181.864 623.392 182.219 622.682 182.928C621.973 183.637 621.618 184.776 621.618 186.344V186.736H617.418V185.56ZM647.936 210.928C647.637 212.123 647.282 213.131 646.872 213.952C646.461 214.811 645.957 215.483 645.36 215.968C644.8 216.491 644.109 216.864 643.288 217.088C642.504 217.312 641.57 217.424 640.488 217.424H639.536V213.616H640.32C641.626 213.616 642.56 213.243 643.12 212.496C643.68 211.749 644.165 210.555 644.576 208.912L645.36 205.608L637.184 178.224H641.608L647.208 198.44H647.32L651.576 178.224H655.832L647.936 210.928ZM671.445 194.296C670.475 194.781 669.504 195.099 668.533 195.248C667.563 195.36 666.667 195.416 665.845 195.416C663.979 195.416 662.523 194.949 661.477 194.016C660.432 193.083 659.909 191.44 659.909 189.088V178.224H664.109V188.192C664.109 190.619 665.323 191.832 667.749 191.832C668.496 191.832 669.168 191.739 669.765 191.552C670.363 191.328 670.923 191.067 671.445 190.768V178.224H675.645V206H671.445V194.296ZM694.005 198.216H698.205V198.608C698.205 199.28 698.093 200.083 697.869 201.016C697.683 201.912 697.309 202.771 696.749 203.592C696.189 204.376 695.405 205.048 694.397 205.608C693.389 206.168 692.083 206.448 690.477 206.448C688.723 206.448 687.323 206.149 686.277 205.552C685.232 204.917 684.411 204.171 683.813 203.312C683.216 202.453 682.824 201.576 682.637 200.68C682.451 199.747 682.357 198.981 682.357 198.384V185.504C682.357 184.944 682.451 184.235 682.637 183.376C682.824 182.517 683.197 181.677 683.757 180.856C684.317 179.997 685.101 179.269 686.109 178.672C687.155 178.075 688.517 177.776 690.197 177.776C691.84 177.776 693.184 178.075 694.229 178.672C695.312 179.269 696.152 179.997 696.749 180.856C697.347 181.677 697.757 182.555 697.981 183.488C698.205 184.384 698.317 185.131 698.317 185.728V193.68H686.557V198.104C686.557 199.597 686.875 200.68 687.509 201.352C688.181 202.024 689.171 202.36 690.477 202.36C691.709 202.36 692.605 202.024 693.165 201.352C693.725 200.643 694.005 199.709 694.005 198.552V198.216ZM694.117 190.544V185.784C694.117 185.336 694.061 184.888 693.949 184.44C693.837 183.955 693.632 183.525 693.333 183.152C693.035 182.779 692.643 182.48 692.157 182.256C691.672 181.995 691.075 181.864 690.365 181.864C689.619 181.864 689.003 181.995 688.517 182.256C688.032 182.517 687.64 182.853 687.341 183.264C687.043 183.675 686.837 184.123 686.725 184.608C686.613 185.093 686.557 185.56 686.557 186.008V190.544H694.117ZM704.839 178.224H709.039V190.096H716.655V178.224H720.855V206H716.655V193.68H709.039V206H704.839V178.224ZM732.624 166.8L731.392 195.808H728.368L727.416 166.8H732.624ZM732.288 201.24V206H727.528V201.24H732.288ZM127.401 233.8V237.664H120.121V273H115.921V237.664H108.697V233.8H127.401ZM140.021 265.216H144.221V265.608C144.221 266.28 144.109 267.083 143.885 268.016C143.698 268.912 143.325 269.771 142.765 270.592C142.205 271.376 141.421 272.048 140.413 272.608C139.405 273.168 138.098 273.448 136.493 273.448C134.738 273.448 133.338 273.149 132.293 272.552C131.248 271.917 130.426 271.171 129.829 270.312C129.232 269.453 128.84 268.576 128.653 267.68C128.466 266.747 128.373 265.981 128.373 265.384V252.504C128.373 251.944 128.466 251.235 128.653 250.376C128.84 249.517 129.213 248.677 129.773 247.856C130.333 246.997 131.117 246.269 132.125 245.672C133.17 245.075 134.533 244.776 136.213 244.776C137.856 244.776 139.2 245.075 140.245 245.672C141.328 246.269 142.168 246.997 142.765 247.856C143.362 248.677 143.773 249.555 143.997 250.488C144.221 251.384 144.333 252.131 144.333 252.728V260.68H132.573V265.104C132.573 266.597 132.89 267.68 133.525 268.352C134.197 269.024 135.186 269.36 136.493 269.36C137.725 269.36 138.621 269.024 139.181 268.352C139.741 267.643 140.021 266.709 140.021 265.552V265.216ZM140.133 257.544V252.784C140.133 252.336 140.077 251.888 139.965 251.44C139.853 250.955 139.648 250.525 139.349 250.152C139.05 249.779 138.658 249.48 138.173 249.256C137.688 248.995 137.09 248.864 136.381 248.864C135.634 248.864 135.018 248.995 134.533 249.256C134.048 249.517 133.656 249.853 133.357 250.264C133.058 250.675 132.853 251.123 132.741 251.608C132.629 252.093 132.573 252.56 132.573 253.008V257.544H140.133ZM150.855 245.224H166.535V273H162.335V248.752H155.055V273H150.855V245.224ZM184.919 265.216H189.119V265.608C189.119 266.28 189.007 267.083 188.783 268.016C188.597 268.912 188.223 269.771 187.663 270.592C187.103 271.376 186.319 272.048 185.311 272.608C184.303 273.168 182.997 273.448 181.391 273.448C179.637 273.448 178.237 273.149 177.191 272.552C176.146 271.917 175.325 271.171 174.727 270.312C174.13 269.453 173.738 268.576 173.551 267.68C173.365 266.747 173.271 265.981 173.271 265.384V252.504C173.271 251.944 173.365 251.235 173.551 250.376C173.738 249.517 174.111 248.677 174.671 247.856C175.231 246.997 176.015 246.269 177.023 245.672C178.069 245.075 179.431 244.776 181.111 244.776C182.754 244.776 184.098 245.075 185.143 245.672C186.226 246.269 187.066 246.997 187.663 247.856C188.261 248.677 188.671 249.555 188.895 250.488C189.119 251.384 189.231 252.131 189.231 252.728V260.68H177.471V265.104C177.471 266.597 177.789 267.68 178.423 268.352C179.095 269.024 180.085 269.36 181.391 269.36C182.623 269.36 183.519 269.024 184.079 268.352C184.639 267.643 184.919 266.709 184.919 265.552V265.216ZM185.031 257.544V252.784C185.031 252.336 184.975 251.888 184.863 251.44C184.751 250.955 184.546 250.525 184.247 250.152C183.949 249.779 183.557 249.48 183.071 249.256C182.586 248.995 181.989 248.864 181.279 248.864C180.533 248.864 179.917 248.995 179.431 249.256C178.946 249.517 178.554 249.853 178.255 250.264C177.957 250.675 177.751 251.123 177.639 251.608C177.527 252.093 177.471 252.56 177.471 253.008V257.544H185.031ZM195.753 245.224H199.953V247.968C200.849 246.773 201.82 245.952 202.865 245.504C203.948 245.019 204.975 244.776 205.945 244.776C207.177 244.776 208.167 244.981 208.913 245.392C209.697 245.803 210.295 246.344 210.705 247.016C211.116 247.651 211.396 248.341 211.545 249.088C211.695 249.835 211.769 250.544 211.769 251.216V267.008C211.769 267.68 211.695 268.389 211.545 269.136C211.396 269.883 211.116 270.592 210.705 271.264C210.295 271.899 209.697 272.421 208.913 272.832C208.167 273.243 207.177 273.448 205.945 273.448C204.975 273.448 203.948 273.224 202.865 272.776C201.82 272.291 200.849 271.451 199.953 270.256V284.424H195.753V245.224ZM204.041 269.36C204.713 269.36 205.273 269.248 205.721 269.024C206.169 268.763 206.524 268.427 206.785 268.016C207.084 267.605 207.289 267.139 207.401 266.616C207.513 266.093 207.569 265.571 207.569 265.048V253.176C207.569 252.653 207.513 252.131 207.401 251.608C207.289 251.085 207.084 250.619 206.785 250.208C206.524 249.797 206.169 249.48 205.721 249.256C205.273 248.995 204.713 248.864 204.041 248.864C203.183 248.864 202.492 249.051 201.969 249.424C201.447 249.797 201.036 250.245 200.737 250.768C200.439 251.291 200.233 251.851 200.121 252.448C200.009 253.008 199.953 253.512 199.953 253.96V264.264C199.953 264.712 200.009 265.235 200.121 265.832C200.233 266.392 200.439 266.933 200.737 267.456C201.036 267.979 201.447 268.427 201.969 268.8C202.492 269.173 203.183 269.36 204.041 269.36ZM222.922 245.224V256.312H226.674C227.458 256.312 228.298 256.387 229.194 256.536C230.127 256.648 230.986 256.928 231.77 257.376C232.554 257.824 233.207 258.477 233.73 259.336C234.253 260.195 234.514 261.352 234.514 262.808V266.168C234.514 268.632 233.786 270.387 232.33 271.432C230.911 272.477 229.026 273 226.674 273H218.722V245.224H222.922ZM222.922 269.472H226.338C226.786 269.472 227.234 269.416 227.682 269.304C228.167 269.192 228.597 269.005 228.97 268.744C229.381 268.445 229.698 268.072 229.922 267.624C230.183 267.139 230.314 266.541 230.314 265.832V263.536C230.314 262.155 229.885 261.203 229.026 260.68C228.205 260.12 227.309 259.84 226.338 259.84H222.922V269.472ZM263.815 262.36L270.311 245.224H274.343V273H270.367V254.632L264.711 269.024H262.807L257.151 254.632V273H253.175V245.224H257.151L263.815 262.36ZM281.061 252.616C281.061 252.093 281.154 251.403 281.341 250.544C281.527 249.648 281.901 248.771 282.461 247.912C283.058 247.053 283.879 246.325 284.925 245.728C285.97 245.093 287.351 244.776 289.069 244.776C290.786 244.776 292.167 245.093 293.213 245.728C294.258 246.325 295.061 247.053 295.621 247.912C296.218 248.771 296.61 249.648 296.797 250.544C296.983 251.403 297.077 252.075 297.077 252.56V265.496C297.077 266.056 296.983 266.784 296.797 267.68C296.61 268.576 296.218 269.453 295.621 270.312C295.061 271.171 294.258 271.917 293.213 272.552C292.167 273.149 290.786 273.448 289.069 273.448C287.351 273.448 285.97 273.149 284.925 272.552C283.879 271.917 283.058 271.171 282.461 270.312C281.901 269.453 281.527 268.576 281.341 267.68C281.154 266.784 281.061 266.056 281.061 265.496V252.616ZM292.877 253.4C292.877 251.832 292.503 250.693 291.757 249.984C291.01 249.237 290.114 248.864 289.069 248.864C288.023 248.864 287.127 249.237 286.381 249.984C285.634 250.693 285.261 251.832 285.261 253.4V264.824C285.261 266.28 285.578 267.4 286.213 268.184C286.885 268.968 287.837 269.36 289.069 269.36C290.263 269.36 291.197 268.987 291.869 268.24C292.541 267.493 292.877 266.355 292.877 264.824V253.4ZM314.456 257.152V245.224H318.656V257.152H321.12C321.792 257.152 322.333 257.003 322.744 256.704C323.154 256.368 323.472 255.957 323.696 255.472C323.957 254.987 324.125 254.464 324.2 253.904C324.312 253.307 324.405 252.747 324.48 252.224L324.816 249.76C324.928 249.051 325.077 248.397 325.264 247.8C325.45 247.203 325.73 246.699 326.104 246.288C326.514 245.84 327.056 245.504 327.728 245.28C328.437 245.056 329.352 244.944 330.472 244.944H330.976V248.36H330.472C329.725 248.36 329.202 248.64 328.904 249.2C328.605 249.76 328.381 250.563 328.232 251.608L327.896 253.904C327.709 255.099 327.522 256.051 327.336 256.76C327.149 257.469 326.701 258.123 325.992 258.72L330.976 273H326.832L322.464 260.4H318.656V273H314.456V260.4H310.648L306.28 273H302.136L307.12 258.72C306.41 258.123 305.962 257.469 305.776 256.76C305.589 256.051 305.402 255.099 305.216 253.904L304.88 251.608C304.73 250.563 304.506 249.76 304.208 249.2C303.909 248.64 303.386 248.36 302.64 248.36H302.136V244.944H302.64C303.76 244.944 304.656 245.056 305.328 245.28C306.037 245.504 306.578 245.84 306.952 246.288C307.362 246.699 307.661 247.203 307.848 247.8C308.034 248.397 308.184 249.051 308.296 249.76L308.632 252.224C308.706 252.747 308.781 253.307 308.856 253.904C308.968 254.464 309.136 254.987 309.36 255.472C309.621 255.957 309.957 256.368 310.368 256.704C310.778 257.003 311.32 257.152 311.992 257.152H314.456ZM336.245 245.224H340.445V257.096H348.061V245.224H352.261V273H348.061V260.68H340.445V273H336.245V245.224ZM358.99 252.616C358.99 252.093 359.084 251.403 359.27 250.544C359.457 249.648 359.83 248.771 360.39 247.912C360.988 247.053 361.809 246.325 362.854 245.728C363.9 245.093 365.281 244.776 366.998 244.776C368.716 244.776 370.097 245.093 371.142 245.728C372.188 246.325 372.99 247.053 373.55 247.912C374.148 248.771 374.54 249.648 374.726 250.544C374.913 251.403 375.006 252.075 375.006 252.56V265.496C375.006 266.056 374.913 266.784 374.726 267.68C374.54 268.576 374.148 269.453 373.55 270.312C372.99 271.171 372.188 271.917 371.142 272.552C370.097 273.149 368.716 273.448 366.998 273.448C365.281 273.448 363.9 273.149 362.854 272.552C361.809 271.917 360.988 271.171 360.39 270.312C359.83 269.453 359.457 268.576 359.27 267.68C359.084 266.784 358.99 266.056 358.99 265.496V252.616ZM370.806 253.4C370.806 251.832 370.433 250.693 369.686 249.984C368.94 249.237 368.044 248.864 366.998 248.864C365.953 248.864 365.057 249.237 364.31 249.984C363.564 250.693 363.19 251.832 363.19 253.4V264.824C363.19 266.28 363.508 267.4 364.142 268.184C364.814 268.968 365.766 269.36 366.998 269.36C368.193 269.36 369.126 268.987 369.798 268.24C370.47 267.493 370.806 266.355 370.806 264.824V253.4ZM394.816 245.224H410.496V273H406.296V248.752H399.016V273H394.816V245.224ZM428.88 265.216H433.08V265.608C433.08 266.28 432.968 267.083 432.744 268.016C432.558 268.912 432.184 269.771 431.624 270.592C431.064 271.376 430.28 272.048 429.272 272.608C428.264 273.168 426.958 273.448 425.352 273.448C423.598 273.448 422.198 273.149 421.152 272.552C420.107 271.917 419.286 271.171 418.688 270.312C418.091 269.453 417.699 268.576 417.512 267.68C417.326 266.747 417.232 265.981 417.232 265.384V252.504C417.232 251.944 417.326 251.235 417.512 250.376C417.699 249.517 418.072 248.677 418.632 247.856C419.192 246.997 419.976 246.269 420.984 245.672C422.03 245.075 423.392 244.776 425.072 244.776C426.715 244.776 428.059 245.075 429.104 245.672C430.187 246.269 431.027 246.997 431.624 247.856C432.222 248.677 432.632 249.555 432.856 250.488C433.08 251.384 433.192 252.131 433.192 252.728V260.68H421.432V265.104C421.432 266.597 421.75 267.68 422.384 268.352C423.056 269.024 424.046 269.36 425.352 269.36C426.584 269.36 427.48 269.024 428.04 268.352C428.6 267.643 428.88 266.709 428.88 265.552V265.216ZM428.992 257.544V252.784C428.992 252.336 428.936 251.888 428.824 251.44C428.712 250.955 428.507 250.525 428.208 250.152C427.91 249.779 427.518 249.48 427.032 249.256C426.547 248.995 425.95 248.864 425.24 248.864C424.494 248.864 423.878 248.995 423.392 249.256C422.907 249.517 422.515 249.853 422.216 250.264C421.918 250.675 421.712 251.123 421.6 251.608C421.488 252.093 421.432 252.56 421.432 253.008V257.544H428.992ZM439.714 245.224H443.914V247.968C444.81 246.773 445.781 245.952 446.826 245.504C447.909 245.019 448.936 244.776 449.906 244.776C451.138 244.776 452.128 244.981 452.874 245.392C453.658 245.803 454.256 246.344 454.666 247.016C455.077 247.651 455.357 248.341 455.506 249.088C455.656 249.835 455.73 250.544 455.73 251.216V267.008C455.73 267.68 455.656 268.389 455.506 269.136C455.357 269.883 455.077 270.592 454.666 271.264C454.256 271.899 453.658 272.421 452.874 272.832C452.128 273.243 451.138 273.448 449.906 273.448C448.936 273.448 447.909 273.224 446.826 272.776C445.781 272.291 444.81 271.451 443.914 270.256V284.424H439.714V245.224ZM448.002 269.36C448.674 269.36 449.234 269.248 449.682 269.024C450.13 268.763 450.485 268.427 450.746 268.016C451.045 267.605 451.25 267.139 451.362 266.616C451.474 266.093 451.53 265.571 451.53 265.048V253.176C451.53 252.653 451.474 252.131 451.362 251.608C451.25 251.085 451.045 250.619 450.746 250.208C450.485 249.797 450.13 249.48 449.682 249.256C449.234 248.995 448.674 248.864 448.002 248.864C447.144 248.864 446.453 249.051 445.93 249.424C445.408 249.797 444.997 250.245 444.698 250.768C444.4 251.291 444.194 251.851 444.082 252.448C443.97 253.008 443.914 253.512 443.914 253.96V264.264C443.914 264.712 443.97 265.235 444.082 265.832C444.194 266.392 444.4 266.933 444.698 267.456C444.997 267.979 445.408 268.427 445.93 268.8C446.453 269.173 447.144 269.36 448.002 269.36ZM474.107 265.216H478.307V265.608C478.307 266.28 478.195 267.083 477.971 268.016C477.784 268.912 477.411 269.771 476.851 270.592C476.291 271.376 475.507 272.048 474.499 272.608C473.491 273.168 472.184 273.448 470.579 273.448C468.824 273.448 467.424 273.149 466.379 272.552C465.334 271.917 464.512 271.171 463.915 270.312C463.318 269.453 462.926 268.576 462.739 267.68C462.552 266.747 462.459 265.981 462.459 265.384V252.504C462.459 251.944 462.552 251.235 462.739 250.376C462.926 249.517 463.299 248.677 463.859 247.856C464.419 246.997 465.203 246.269 466.211 245.672C467.256 245.075 468.619 244.776 470.299 244.776C471.942 244.776 473.286 245.075 474.331 245.672C475.414 246.269 476.254 246.997 476.851 247.856C477.448 248.677 477.859 249.555 478.083 250.488C478.307 251.384 478.419 252.131 478.419 252.728V260.68H466.659V265.104C466.659 266.597 466.976 267.68 467.611 268.352C468.283 269.024 469.272 269.36 470.579 269.36C471.811 269.36 472.707 269.024 473.267 268.352C473.827 267.643 474.107 266.709 474.107 265.552V265.216ZM474.219 257.544V252.784C474.219 252.336 474.163 251.888 474.051 251.44C473.939 250.955 473.734 250.525 473.435 250.152C473.136 249.779 472.744 249.48 472.259 249.256C471.774 248.995 471.176 248.864 470.467 248.864C469.72 248.864 469.104 248.995 468.619 249.256C468.134 249.517 467.742 249.853 467.443 250.264C467.144 250.675 466.939 251.123 466.827 251.608C466.715 252.093 466.659 252.56 466.659 253.008V257.544H474.219ZM489.141 245.224V263.648L497.933 248.64V245.224H502.133V273H497.933V255.08L489.141 270.088V273H484.941V245.224H489.141ZM496.029 234.696H499.445V235.256C499.445 235.965 499.351 236.731 499.165 237.552C498.978 238.336 498.567 239.027 497.933 239.624C497.298 240.259 496.551 240.651 495.693 240.8C494.871 240.949 494.143 241.024 493.509 241.024C492.874 241.024 492.127 240.949 491.269 240.8C490.447 240.651 489.719 240.259 489.085 239.624C488.45 239.027 488.039 238.336 487.853 237.552C487.666 236.731 487.573 235.965 487.573 235.256V234.696H490.989V235.256C490.989 235.555 491.007 235.872 491.045 236.208C491.119 236.544 491.231 236.861 491.381 237.16C491.567 237.459 491.829 237.72 492.165 237.944C492.501 238.131 492.949 238.224 493.509 238.224C494.069 238.224 494.517 238.131 494.853 237.944C495.189 237.72 495.431 237.459 495.581 237.16C495.767 236.861 495.879 236.544 495.917 236.208C495.991 235.872 496.029 235.555 496.029 235.256V234.696ZM516.674 248.752V273H512.474V248.752H506.594V245.224H522.554V248.752H516.674ZM531.25 245.224V263.648L540.042 248.64V245.224H544.242V273H540.042V255.08L531.25 270.088V273H527.05V245.224H531.25ZM564.238 245.224H568.438V257.096H576.054V245.224H580.254V273H576.054V260.68H568.438V273H564.238V245.224ZM598.742 270.256H598.686C598.35 270.667 597.996 271.059 597.622 271.432C597.249 271.805 596.82 272.141 596.334 272.44C595.849 272.739 595.289 272.981 594.654 273.168C594.057 273.355 593.31 273.448 592.414 273.448C591.294 273.448 590.361 273.261 589.614 272.888C588.905 272.477 588.326 271.917 587.878 271.208C587.468 270.499 587.169 269.677 586.982 268.744C586.796 267.811 586.702 266.784 586.702 265.664C586.702 264.208 586.833 262.92 587.094 261.8C587.356 260.643 587.804 259.672 588.438 258.888C589.073 258.104 589.894 257.507 590.902 257.096C591.948 256.685 593.254 256.48 594.822 256.48C595.121 256.48 595.55 256.499 596.11 256.536C596.67 256.536 597.548 256.592 598.742 256.704V252.616C598.742 252.243 598.668 251.832 598.518 251.384C598.369 250.936 598.126 250.525 597.79 250.152C597.492 249.779 597.1 249.48 596.614 249.256C596.129 248.995 595.532 248.864 594.822 248.864C594.449 248.864 594.057 248.92 593.646 249.032C593.273 249.107 592.9 249.275 592.526 249.536C592.19 249.797 591.873 250.152 591.574 250.6C591.313 251.048 591.126 251.608 591.014 252.28H586.982C586.982 251.123 587.188 250.077 587.598 249.144C588.046 248.211 588.625 247.427 589.334 246.792C590.081 246.12 590.94 245.616 591.91 245.28C592.918 244.944 593.982 244.776 595.102 244.776C596.708 244.776 598.014 245.056 599.022 245.616C600.068 246.139 600.87 246.811 601.43 247.632C602.028 248.416 602.42 249.312 602.606 250.32C602.83 251.291 602.942 252.224 602.942 253.12V273H598.742V270.256ZM598.742 259.784C598.145 259.709 597.604 259.653 597.118 259.616C596.633 259.541 596.222 259.504 595.886 259.504C595.289 259.504 594.692 259.597 594.094 259.784C593.497 259.933 592.956 260.232 592.47 260.68C592.022 261.091 591.649 261.651 591.35 262.36C591.052 263.032 590.902 263.872 590.902 264.88C590.902 266.859 591.201 268.184 591.798 268.856C592.396 269.528 593.292 269.864 594.486 269.864C594.934 269.864 595.401 269.733 595.886 269.472C596.372 269.211 596.82 268.837 597.23 268.352C597.678 267.867 598.033 267.325 598.294 266.728C598.593 266.093 598.742 265.403 598.742 264.656V259.784ZM634.788 264.488H638.988V265.608C638.988 266.28 638.857 267.083 638.596 268.016C638.372 268.912 637.943 269.771 637.308 270.592C636.711 271.376 635.889 272.048 634.844 272.608C633.799 273.168 632.473 273.448 630.868 273.448C629.113 273.448 627.713 273.149 626.668 272.552C625.623 271.917 624.801 271.171 624.204 270.312C623.607 269.453 623.215 268.576 623.028 267.68C622.841 266.747 622.748 265.981 622.748 265.384V252.784C622.748 252.224 622.841 251.496 623.028 250.6C623.215 249.667 623.607 248.771 624.204 247.912C624.801 247.053 625.623 246.325 626.668 245.728C627.713 245.093 629.113 244.776 630.868 244.776C632.511 244.776 633.855 245.056 634.9 245.616C635.983 246.176 636.823 246.867 637.42 247.688C638.017 248.509 638.428 249.368 638.652 250.264C638.876 251.123 638.988 251.888 638.988 252.56V253.792H634.788V253.4C634.788 251.832 634.396 250.693 633.612 249.984C632.865 249.237 631.951 248.864 630.868 248.864C629.785 248.864 628.852 249.237 628.068 249.984C627.321 250.693 626.948 251.832 626.948 253.4V264.824C626.948 267.848 628.255 269.36 630.868 269.36C632.1 269.36 633.052 268.987 633.724 268.24C634.433 267.493 634.788 266.355 634.788 264.824V264.488ZM660.312 273H656.112V248.752H650.792L650.68 252C650.68 252.485 650.662 253.232 650.624 254.24C650.587 255.248 650.531 256.368 650.456 257.6C650.382 258.795 650.288 260.027 650.176 261.296C650.102 262.528 649.99 263.648 649.84 264.656C649.654 265.851 649.392 266.952 649.056 267.96C648.758 268.968 648.31 269.845 647.712 270.592C647.115 271.339 646.368 271.936 645.472 272.384C644.576 272.795 643.456 273 642.112 273H641.44V269.528H641.944C642.84 269.528 643.568 269.267 644.128 268.744C644.688 268.221 645.118 267.531 645.416 266.672C645.752 265.776 645.976 264.787 646.088 263.704C646.238 262.584 646.368 261.464 646.48 260.344C646.518 259.784 646.555 259.112 646.592 258.328C646.63 257.507 646.648 256.685 646.648 255.864C646.686 255.043 646.723 254.277 646.76 253.568C646.798 252.821 646.816 252.243 646.816 251.832L646.984 245.224H660.312V273ZM678.693 265.216H682.893V265.608C682.893 266.28 682.781 267.083 682.557 268.016C682.37 268.912 681.997 269.771 681.437 270.592C680.877 271.376 680.093 272.048 679.085 272.608C678.077 273.168 676.77 273.448 675.165 273.448C673.41 273.448 672.01 273.149 670.965 272.552C669.92 271.917 669.098 271.171 668.501 270.312C667.904 269.453 667.512 268.576 667.325 267.68C667.138 266.747 667.045 265.981 667.045 265.384V252.504C667.045 251.944 667.138 251.235 667.325 250.376C667.512 249.517 667.885 248.677 668.445 247.856C669.005 246.997 669.789 246.269 670.797 245.672C671.842 245.075 673.205 244.776 674.885 244.776C676.528 244.776 677.872 245.075 678.917 245.672C680 246.269 680.84 246.997 681.437 247.856C682.034 248.677 682.445 249.555 682.669 250.488C682.893 251.384 683.005 252.131 683.005 252.728V260.68H671.245V265.104C671.245 266.597 671.562 267.68 672.197 268.352C672.869 269.024 673.858 269.36 675.165 269.36C676.397 269.36 677.293 269.024 677.853 268.352C678.413 267.643 678.693 266.709 678.693 265.552V265.216ZM678.805 257.544V252.784C678.805 252.336 678.749 251.888 678.637 251.44C678.525 250.955 678.32 250.525 678.021 250.152C677.722 249.779 677.33 249.48 676.845 249.256C676.36 248.995 675.762 248.864 675.053 248.864C674.306 248.864 673.69 248.995 673.205 249.256C672.72 249.517 672.328 249.853 672.029 250.264C671.73 250.675 671.525 251.123 671.413 251.608C671.301 252.093 671.245 252.56 671.245 253.008V257.544H678.805ZM708.692 269.472V278.824H704.772V273H689.988V278.824H686.068V269.472H688.812C689.558 267.792 690.118 266.243 690.492 264.824C690.902 263.405 691.22 261.968 691.444 260.512C691.556 259.691 691.649 258.776 691.724 257.768C691.798 256.723 691.854 255.677 691.892 254.632C691.966 253.549 692.022 252.485 692.06 251.44C692.097 250.357 692.116 249.368 692.116 248.472V245.224H705.388V269.472H708.692ZM695.812 248.696V252.224C695.812 253.792 695.756 255.341 695.644 256.872C695.569 258.365 695.382 259.989 695.084 261.744C694.897 262.827 694.636 264.021 694.3 265.328C694.001 266.597 693.497 268.016 692.788 269.584H701.188V248.696H695.812ZM721.162 277.928C720.864 279.123 720.509 280.131 720.098 280.952C719.688 281.811 719.184 282.483 718.586 282.968C718.026 283.491 717.336 283.864 716.514 284.088C715.73 284.312 714.797 284.424 713.714 284.424H712.762V280.616H713.546C714.853 280.616 715.786 280.243 716.346 279.496C716.906 278.749 717.392 277.555 717.802 275.912L718.586 272.608L710.41 245.224H714.834L720.434 265.44H720.546L724.802 245.224H729.058L721.162 277.928ZM742.732 260.68H737.86V273H733.66V245.224H737.86V257.096H742.732V252.616C742.732 252.093 742.825 251.403 743.012 250.544C743.198 249.648 743.572 248.771 744.132 247.912C744.692 247.053 745.494 246.325 746.54 245.728C747.585 245.093 748.966 244.776 750.684 244.776C752.401 244.776 753.782 245.093 754.828 245.728C755.873 246.325 756.676 247.053 757.236 247.912C757.833 248.771 758.225 249.648 758.412 250.544C758.598 251.403 758.692 252.075 758.692 252.56V265.496C758.692 266.056 758.598 266.784 758.412 267.68C758.225 268.576 757.833 269.453 757.236 270.312C756.676 271.171 755.873 271.917 754.828 272.552C753.782 273.149 752.401 273.448 750.684 273.448C748.966 273.448 747.585 273.149 746.54 272.552C745.494 271.917 744.692 271.171 744.132 270.312C743.572 269.453 743.198 268.576 743.012 267.68C742.825 266.784 742.732 266.056 742.732 265.496V260.68ZM754.492 253.4C754.492 251.832 754.118 250.693 753.372 249.984C752.625 249.237 751.729 248.864 750.684 248.864C749.638 248.864 748.742 249.237 747.996 249.984C747.249 250.693 746.876 251.832 746.876 253.4V264.824C746.876 266.28 747.193 267.4 747.828 268.184C748.5 268.968 749.452 269.36 750.684 269.36C751.878 269.36 752.812 268.987 753.484 268.24C754.156 267.493 754.492 266.355 754.492 264.824V253.4ZM765.433 273V245.224H769.633V269.472H776.577V245.224H780.777V269.472H787.721V245.224H791.921V269.472H795.561V278.824H791.641V273H765.433ZM804.141 245.224V263.648L812.933 248.64V245.224H817.133V273H812.933V255.08L804.141 270.088V273H799.941V245.224H804.141ZM828.258 245.224V263.648L837.05 248.64V245.224H841.25V273H837.05V255.08L828.258 270.088V273H824.058V245.224H828.258ZM835.146 234.696H838.562V235.256C838.562 235.965 838.469 236.731 838.282 237.552C838.095 238.336 837.685 239.027 837.05 239.624C836.415 240.259 835.669 240.651 834.81 240.8C833.989 240.949 833.261 241.024 832.626 241.024C831.991 241.024 831.245 240.949 830.386 240.8C829.565 240.651 828.837 240.259 828.202 239.624C827.567 239.027 827.157 238.336 826.97 237.552C826.783 236.731 826.69 235.965 826.69 235.256V234.696H830.106V235.256C830.106 235.555 830.125 235.872 830.162 236.208C830.237 236.544 830.349 236.861 830.498 237.16C830.685 237.459 830.946 237.72 831.282 237.944C831.618 238.131 832.066 238.224 832.626 238.224C833.186 238.224 833.634 238.131 833.97 237.944C834.306 237.72 834.549 237.459 834.698 237.16C834.885 236.861 834.997 236.544 835.034 236.208C835.109 235.872 835.146 235.555 835.146 235.256V234.696ZM404.385 344.928C404.086 346.123 403.732 347.131 403.321 347.952C402.91 348.811 402.406 349.483 401.809 349.968C401.249 350.491 400.558 350.864 399.737 351.088C398.953 351.312 398.02 351.424 396.937 351.424H395.985V347.616H396.769C398.076 347.616 399.009 347.243 399.569 346.496C400.129 345.749 400.614 344.555 401.025 342.912L401.809 339.608L393.633 312.224H398.057L403.657 332.44H403.769L408.025 312.224H412.281L404.385 344.928ZM416.882 312.224H421.082V314.968C421.978 313.773 422.949 312.952 423.994 312.504C425.077 312.019 426.103 311.776 427.074 311.776C428.306 311.776 429.295 311.981 430.042 312.392C430.826 312.803 431.423 313.344 431.834 314.016C432.245 314.651 432.525 315.341 432.674 316.088C432.823 316.835 432.898 317.544 432.898 318.216V334.008C432.898 334.68 432.823 335.389 432.674 336.136C432.525 336.883 432.245 337.592 431.834 338.264C431.423 338.899 430.826 339.421 430.042 339.832C429.295 340.243 428.306 340.448 427.074 340.448C426.103 340.448 425.077 340.224 423.994 339.776C422.949 339.291 421.978 338.451 421.082 337.256V351.424H416.882V312.224ZM425.17 336.36C425.842 336.36 426.402 336.248 426.85 336.024C427.298 335.763 427.653 335.427 427.914 335.016C428.213 334.605 428.418 334.139 428.53 333.616C428.642 333.093 428.698 332.571 428.698 332.048V320.176C428.698 319.653 428.642 319.131 428.53 318.608C428.418 318.085 428.213 317.619 427.914 317.208C427.653 316.797 427.298 316.48 426.85 316.256C426.402 315.995 425.842 315.864 425.17 315.864C424.311 315.864 423.621 316.051 423.098 316.424C422.575 316.797 422.165 317.245 421.866 317.768C421.567 318.291 421.362 318.851 421.25 319.448C421.138 320.008 421.082 320.512 421.082 320.96V331.264C421.082 331.712 421.138 332.235 421.25 332.832C421.362 333.392 421.567 333.933 421.866 334.456C422.165 334.979 422.575 335.427 423.098 335.8C423.621 336.173 424.311 336.36 425.17 336.36ZM439.627 319.616C439.627 319.093 439.72 318.403 439.907 317.544C440.094 316.648 440.467 315.771 441.027 314.912C441.624 314.053 442.446 313.325 443.491 312.728C444.536 312.093 445.918 311.776 447.635 311.776C449.352 311.776 450.734 312.093 451.779 312.728C452.824 313.325 453.627 314.053 454.187 314.912C454.784 315.771 455.176 316.648 455.363 317.544C455.55 318.403 455.643 319.075 455.643 319.56V332.496C455.643 333.056 455.55 333.784 455.363 334.68C455.176 335.576 454.784 336.453 454.187 337.312C453.627 338.171 452.824 338.917 451.779 339.552C450.734 340.149 449.352 340.448 447.635 340.448C445.918 340.448 444.536 340.149 443.491 339.552C442.446 338.917 441.624 338.171 441.027 337.312C440.467 336.453 440.094 335.576 439.907 334.68C439.72 333.784 439.627 333.056 439.627 332.496V319.616ZM451.443 320.4C451.443 318.832 451.07 317.693 450.323 316.984C449.576 316.237 448.68 315.864 447.635 315.864C446.59 315.864 445.694 316.237 444.947 316.984C444.2 317.693 443.827 318.832 443.827 320.4V331.824C443.827 333.28 444.144 334.4 444.779 335.184C445.451 335.968 446.403 336.36 447.635 336.36C448.83 336.36 449.763 335.987 450.435 335.24C451.107 334.493 451.443 333.355 451.443 331.824V320.4ZM470.558 312.224C471.939 312.224 473.097 312.411 474.03 312.784C475.001 313.12 475.766 313.587 476.326 314.184C476.923 314.744 477.353 315.416 477.614 316.2C477.875 316.947 478.006 317.712 478.006 318.496V320.176C478.006 321.595 477.745 322.771 477.222 323.704C476.699 324.6 475.729 325.309 474.31 325.832C475.953 326.243 477.017 326.952 477.502 327.96C478.025 328.931 478.286 330.069 478.286 331.376V333.504C478.286 334.811 478.025 335.893 477.502 336.752C476.979 337.573 476.307 338.227 475.486 338.712C474.665 339.197 473.769 339.533 472.798 339.72C471.865 339.907 470.987 340 470.166 340H462.382V312.224H470.558ZM466.582 336.472H470.11C471.193 336.472 472.126 336.211 472.91 335.688C473.694 335.165 474.086 334.251 474.086 332.944V331.544C474.086 330.051 473.675 329.005 472.854 328.408C472.033 327.773 471.118 327.456 470.11 327.456H466.582V336.472ZM466.582 324.376H469.998C471.155 324.376 472.07 324.021 472.742 323.312C473.451 322.603 473.806 321.688 473.806 320.568V319.112C473.806 318.365 473.657 317.768 473.358 317.32C473.059 316.872 472.705 316.536 472.294 316.312C471.883 316.088 471.454 315.939 471.006 315.864C470.595 315.789 470.259 315.752 469.998 315.752H466.582V324.376ZM496.119 332.216H500.319V332.608C500.319 333.28 500.207 334.083 499.983 335.016C499.796 335.912 499.423 336.771 498.863 337.592C498.303 338.376 497.519 339.048 496.511 339.608C495.503 340.168 494.196 340.448 492.591 340.448C490.836 340.448 489.436 340.149 488.391 339.552C487.345 338.917 486.524 338.171 485.927 337.312C485.329 336.453 484.937 335.576 484.751 334.68C484.564 333.747 484.471 332.981 484.471 332.384V319.504C484.471 318.944 484.564 318.235 484.751 317.376C484.937 316.517 485.311 315.677 485.871 314.856C486.431 313.997 487.215 313.269 488.223 312.672C489.268 312.075 490.631 311.776 492.311 311.776C493.953 311.776 495.297 312.075 496.343 312.672C497.425 313.269 498.265 313.997 498.863 314.856C499.46 315.677 499.871 316.555 500.095 317.488C500.319 318.384 500.431 319.131 500.431 319.728V327.68H488.671V332.104C488.671 333.597 488.988 334.68 489.623 335.352C490.295 336.024 491.284 336.36 492.591 336.36C493.823 336.36 494.719 336.024 495.279 335.352C495.839 334.643 496.119 333.709 496.119 332.552V332.216ZM496.231 324.544V319.784C496.231 319.336 496.175 318.888 496.063 318.44C495.951 317.955 495.745 317.525 495.447 317.152C495.148 316.779 494.756 316.48 494.271 316.256C493.785 315.995 493.188 315.864 492.479 315.864C491.732 315.864 491.116 315.995 490.631 316.256C490.145 316.517 489.753 316.853 489.455 317.264C489.156 317.675 488.951 318.123 488.839 318.608C488.727 319.093 488.671 319.56 488.671 320.008V324.544H496.231ZM506.952 312.224H511.152V324.096H518.768V312.224H522.968V340H518.768V327.68H511.152V340H506.952V312.224ZM534.121 312.224V323.312H537.873C538.657 323.312 539.497 323.387 540.393 323.536C541.327 323.648 542.185 323.928 542.969 324.376C543.753 324.824 544.407 325.477 544.929 326.336C545.452 327.195 545.713 328.352 545.713 329.808V333.168C545.713 335.632 544.985 337.387 543.529 338.432C542.111 339.477 540.225 340 537.873 340H529.921V312.224H534.121ZM534.121 336.472H537.537C537.985 336.472 538.433 336.416 538.881 336.304C539.367 336.192 539.796 336.005 540.169 335.744C540.58 335.445 540.897 335.072 541.121 334.624C541.383 334.139 541.513 333.541 541.513 332.832V330.536C541.513 329.155 541.084 328.203 540.225 327.68C539.404 327.12 538.508 326.84 537.537 326.84H534.121V336.472ZM556.12 300.8L554.888 329.808H551.864L550.912 300.8H556.12ZM555.784 335.24V340H551.024V335.24H555.784Z" fill="white"/>
</svg>
