<svg width="571" height="571" viewBox="0 0 571 571" fill="none" xmlns="http://www.w3.org/2000/svg">
<circle cx="285.044" cy="285.044" r="285.044" transform="rotate(90 285.044 285.044)" fill="#55C9BB"/>
<circle cx="493.714" cy="251.714" r="41.7137" transform="rotate(90 493.714 251.714)" fill="white"/>
<circle cx="266.714" cy="493.714" r="41.7137" transform="rotate(90 266.714 493.714)" fill="#FFCF01"/>
<circle cx="75.7137" cy="327.714" r="41.7137" transform="rotate(90 75.7137 327.714)" fill="#FFCF01"/>
<circle cx="304.714" cy="77.7137" r="41.7137" transform="rotate(90 304.714 77.7137)" fill="white"/>
<circle cx="477.714" cy="378.714" r="41.7137" transform="rotate(90 477.714 378.714)" fill="#FFCF01"/>
<circle cx="427.714" cy="132.714" r="41.7137" transform="rotate(90 427.714 132.714)" fill="#FFCF01"/>
<circle cx="98.7137" cy="201.714" r="41.7137" transform="rotate(90 98.7137 201.714)" fill="white"/>
<circle cx="394.714" cy="467.714" r="41.7137" transform="rotate(90 394.714 467.714)" fill="white"/>
<circle cx="139.714" cy="441.714" r="41.7137" transform="rotate(90 139.714 441.714)" fill="white"/>
<circle cx="181.714" cy="106.714" r="41.7137" transform="rotate(90 181.714 106.714)" fill="#FFCF01"/>
<circle cx="284.581" cy="285.508" r="140.9" transform="rotate(90 284.581 285.508)" fill="#FD5B7D"/>
</svg>
