<svg width="1921" height="1356" viewBox="0 0 1921 1356" fill="none" xmlns="http://www.w3.org/2000/svg">
<rect x="2.99976" y="3" width="187.983" height="188.126" fill="#FD5B7D" stroke="white" stroke-width="6"/>
<rect x="1168.78" y="3" width="187.983" height="188.126" fill="#FD5B7D" stroke="white" stroke-width="6"/>
<rect x="779.875" y="3" width="187.983" height="188.126" fill="#FD5B7D" stroke="white" stroke-width="6"/>
<rect x="391" y="3" width="189" height="188.143" fill="#FD5B7D" stroke="white" stroke-width="6"/>
<rect x="585.892" y="197.126" width="187.983" height="188.126" fill="#FFCF01" stroke="white" stroke-width="6"/>
<rect x="196.983" y="585.379" width="187.983" height="188.126" fill="#FFCF01" stroke="white" stroke-width="6"/>
<rect x="587" y="973.715" width="187" height="182.139" fill="#FFCF01" stroke="white" stroke-width="6"/>
<rect x="197" y="974" width="188" height="182" fill="#FFCF01" stroke="white" stroke-width="6"/>
<rect x="981.392" y="973.632" width="187.983" height="182.472" fill="#FFCF01" stroke="white" stroke-width="6"/>
<rect x="1553" y="776.57" width="188" height="191.145" fill="#FD5B7D" stroke="white" stroke-width="6"/>
<rect x="1742.26" y="197.126" width="175.742" height="188.126" fill="#FFCF01" stroke="white" stroke-width="6"/>
<rect x="196.983" y="197.126" width="187.983" height="188.126" fill="#FFCF01" stroke="white" stroke-width="6"/>
<rect x="780.816" y="391.253" width="187.983" height="188.126" fill="#FD5B7D" stroke="white" stroke-width="6"/>
<rect x="779.875" y="779.506" width="195.517" height="188.126" fill="#FD5B7D" stroke="white" stroke-width="6"/>
<rect x="391" y="779.572" width="190" height="188.143" fill="#FD5B7D" stroke="white" stroke-width="6"/>
<rect x="391" y="391.286" width="190" height="188.143" fill="#FD5B7D" stroke="white" stroke-width="6"/>
<rect x="1175" y="779.572" width="186" height="188.143" fill="#FD5B7D" stroke="white" stroke-width="6"/>
<rect x="1169.73" y="1162.1" width="195.517" height="191.896" fill="#FD5B7D" stroke="white" stroke-width="6"/>
<rect x="779.875" y="1162.1" width="195.517" height="191.896" fill="#FD5B7D" stroke="white" stroke-width="6"/>
<rect x="3" y="1162" width="188" height="192" fill="#FD5B7D" stroke="white" stroke-width="6"/>
<rect x="1553" y="1161.85" width="187.983" height="191.896" fill="#FD5B7D" stroke="white" stroke-width="6"/>
<rect x="1362.77" y="197.126" width="187.983" height="188.126" fill="#FFCF01" stroke="white" stroke-width="6"/>
<rect x="2.99976" y="391.253" width="187.983" height="188.126" fill="#FD5B7D" stroke="white" stroke-width="6"/>
<rect x="587" y="585.429" width="188" height="188.143" fill="#FFCF01" stroke="white" stroke-width="6"/>
<rect x="2.99976" y="779.505" width="187.983" height="188.126" fill="#FD5B7D" stroke="white" stroke-width="6"/>
<rect x="1170" y="391.286" width="188" height="188.143" fill="#FD5B7D" stroke="white" stroke-width="6"/>
<rect x="1742" y="585.429" width="176" height="188.143" fill="#FFCF01" stroke="white" stroke-width="6"/>
<rect x="1363" y="585.429" width="188" height="191.145" fill="#FFCF01" stroke="white" stroke-width="6"/>
<rect x="975" y="585" width="194" height="189" fill="#FFCF01" stroke="white" stroke-width="6"/>
<rect x="1557" y="391.286" width="179" height="188.143" fill="#FD5B7D" stroke="white" stroke-width="6"/>
<rect x="1747" y="973.715" width="171" height="182.139" fill="#FFCF01" stroke="white" stroke-width="6"/>
<rect x="1367" y="973.715" width="180" height="182.139" fill="#FFCF01" stroke="white" stroke-width="6"/>
<rect x="391" y="1162" width="190" height="192" fill="#FD5B7D" stroke="white" stroke-width="6"/>
<rect x="974" y="197.143" width="190" height="188.143" fill="#FFCF01" stroke="white" stroke-width="6"/>
<rect x="1555.81" y="3" width="180.45" height="188.126" fill="#FD5B7D" stroke="white" stroke-width="6"/>
</svg>
