<svg width="116" height="72" viewBox="0 0 116 72" fill="none" xmlns="http://www.w3.org/2000/svg">
<path d="M112.17 62.0581C68.5043 -4.99958 20.5503 41.4276 3.49348 71.8049L0.569458 71.8049C42.6754 -7.33874 95.9252 27.2946 115.581 57.1847L112.17 62.0581Z" fill="white"/>
<path d="M11.1409 37.5678C7.52327 21.3886 16.5242 22.128 21.4769 24.5201C25.6113 9.90653 31.3822 18.4311 33.7509 24.5201C45.1205 16.6914 46.2402 26.0423 45.3789 31.6964C57.7821 34.3059 50.5469 40.1774 45.3789 42.787C50.0301 57.4005 36.9809 54.53 29.8749 51.268C26.7741 65.8815 19.5388 57.357 16.3088 51.268C-2.29598 49.7023 5.11152 41.4822 11.1409 37.5678Z" fill="#FFCF01"/>
<ellipse cx="28.0732" cy="37.4228" rx="6.42292" ry="7.9342" transform="rotate(63.6753 28.0732 37.4228)" fill="white"/>
<path d="M46.7737 23.6959C42.8608 6.19594 52.5965 6.99567 57.9535 9.58304C62.4254 -6.22343 68.6674 2.99701 71.2294 9.58304C83.5272 1.11527 84.7383 11.2296 83.8067 17.3452C97.2224 20.1677 89.3965 26.5185 83.8067 29.3411C88.8376 45.1476 74.7231 42.0427 67.037 38.5145C63.6831 54.3209 55.8572 45.1005 52.3635 38.5145C32.24 36.8209 40.2522 27.9298 46.7737 23.6959Z" fill="#FFCF01"/>
<ellipse cx="65.0885" cy="23.5393" rx="6.94724" ry="8.58189" transform="rotate(63.6753 65.0885 23.5393)" fill="white"/>
<path d="M77.8766 35.9322C74.5392 21.0061 82.8429 21.6882 87.412 23.8951C91.2262 10.4135 96.5501 18.2777 98.7353 23.8951C109.224 16.6728 110.257 25.2994 109.463 30.5155C120.905 32.9229 114.23 38.3396 109.463 40.747C113.754 54.2286 101.715 51.5804 95.1595 48.5712C92.2989 62.0527 85.6241 54.1885 82.6442 48.5712C65.4805 47.1267 72.3143 39.5433 77.8766 35.9322Z" fill="#FFCF01"/>
<ellipse cx="93.4975" cy="35.7971" rx="5.92542" ry="7.31963" transform="rotate(63.6753 93.4975 35.7971)" fill="white"/>
</svg>
