<svg width="194" height="50" viewBox="0 0 194 50" fill="none" xmlns="http://www.w3.org/2000/svg">
<path d="M2 20.5486H91.6701C79.1427 44.0492 43.6702 71.7703 2 20.5486Z" fill="#55C9BB" stroke="#55C9BB"/>
<path d="M192.062 20.5486H102.392C114.919 44.0492 150.392 71.7703 192.062 20.5486Z" fill="#55C9BB" stroke="#55C9BB"/>
<rect x="82.8978" y="28.3457" width="31.1896" height="5.84805" fill="#55C9BB"/>
<path d="M9.30994 0.0803223L32.0882 24.0841L27.953 28.2193L5.89861 6.16487L9.30994 0.0803223Z" fill="#55C9BB"/>
<path d="M187.187 0.0803223L164.408 24.0841L168.543 28.2193L190.598 6.16487L187.187 0.0803223Z" fill="#55C9BB"/>
<path d="M22.4678 27.3711H70.2268C63.5546 40.0404 44.6617 54.985 22.4678 27.3711Z" fill="white" stroke="white"/>
<path d="M170.619 27.3711H122.859C129.532 40.0404 148.425 54.985 170.619 27.3711Z" fill="white" stroke="white"/>
</svg>
