<svg width="182" height="127" viewBox="0 0 182 127" fill="none" xmlns="http://www.w3.org/2000/svg">
<path d="M67.0019 2.38403L85.0334 44.2951L163.007 17.9788L181.039 97.4149H77.7233L49.4577 125.193L53.3564 92.5415L15.3441 105.7L36.787 75.1113L2.67334 61.8392L39.8344 53.5545L24.1162 21.3902L61.1539 42.3457L67.0019 2.38403Z" fill="white"/>
<path d="M39.8344 53.5545L24.1162 21.3902L61.1539 42.3457L67.0019 2.38403L85.0334 44.2951L163.007 17.9788L181.039 97.4149H77.7233L49.4577 125.193L53.3564 92.5415L15.3441 105.7L36.787 75.1113M39.8344 53.5545L49.4577 66.2253L36.787 75.1113M39.8344 53.5545L2.67334 61.8392L36.787 75.1113" stroke="white"/>
</svg>
