<svg width="182" height="127" viewBox="0 0 182 127" fill="none" xmlns="http://www.w3.org/2000/svg">
<path d="M115.632 1.85059L97.6009 43.7616L19.6269 17.4454L1.59538 96.8814H104.911L133.177 124.66L129.278 92.008L167.29 105.166L145.847 74.5778L179.961 61.3058L142.8 53.021L158.518 20.8568L121.48 41.8123L115.632 1.85059Z" fill="white"/>
<path d="M142.8 53.021L158.518 20.8568L121.48 41.8123L115.632 1.85059L97.6009 43.7616L19.6269 17.4454L1.59538 96.8814H104.911L133.177 124.66L129.278 92.008L167.29 105.166L145.847 74.5778M142.8 53.021L133.177 65.6918L145.847 74.5778M142.8 53.021L179.961 61.3058L145.847 74.5778" stroke="white"/>
</svg>
