<svg width="384" height="102" viewBox="0 0 384 102" fill="none" xmlns="http://www.w3.org/2000/svg">
<rect x="3" y="3" width="378" height="96" fill="#003DE3" stroke="white" stroke-width="6"/>
<path d="M120.672 27.8L125.152 40.12L129.688 27.8H135.848L128.288 46.28L136.632 67H130.696L125.152 52.832L120 67H113.84L122.072 46.28L114.736 27.8H120.672ZM138.386 48.184C138.386 47.624 138.405 47.0267 138.442 46.392C138.479 45.7573 138.591 45.1227 138.778 44.488C138.965 43.816 139.245 43.1627 139.618 42.528C139.991 41.8933 140.495 41.296 141.13 40.736C141.877 40.1013 142.754 39.616 143.762 39.28C144.77 38.944 145.797 38.776 146.842 38.776C147.887 38.776 148.914 38.944 149.922 39.28C150.93 39.616 151.807 40.1013 152.554 40.736C153.189 41.296 153.693 41.8933 154.066 42.528C154.439 43.1627 154.719 43.816 154.906 44.488C155.093 45.1227 155.205 45.7573 155.242 46.392C155.279 47.0267 155.298 47.624 155.298 48.184V58.04C155.298 58.6 155.279 59.1973 155.242 59.832C155.205 60.4667 155.093 61.12 154.906 61.792C154.719 62.4267 154.439 63.0613 154.066 63.696C153.693 64.3307 153.189 64.928 152.554 65.488C151.807 66.1227 150.93 66.608 149.922 66.944C148.914 67.28 147.887 67.448 146.842 67.448C145.797 67.448 144.77 67.28 143.762 66.944C142.754 66.608 141.877 66.1227 141.13 65.488C140.495 64.928 139.991 64.3307 139.618 63.696C139.245 63.0613 138.965 62.4267 138.778 61.792C138.591 61.12 138.479 60.4667 138.442 59.832C138.405 59.1973 138.386 58.6 138.386 58.04V48.184ZM149.698 47.848C149.698 46.616 149.418 45.6827 148.858 45.048C148.335 44.5253 147.663 44.264 146.842 44.264C146.021 44.264 145.349 44.5253 144.826 45.048C144.266 45.6827 143.986 46.616 143.986 47.848V58.376C143.986 59.608 144.266 60.5413 144.826 61.176C145.349 61.6987 146.021 61.96 146.842 61.96C147.253 61.96 147.626 61.8853 147.962 61.736C148.335 61.5867 148.634 61.4 148.858 61.176C149.418 60.5413 149.698 59.608 149.698 58.376V47.848ZM166.741 41.688H166.797C167.021 41.3147 167.301 40.96 167.637 40.624C167.973 40.288 168.328 39.9893 168.701 39.728C169.224 39.392 169.784 39.1493 170.381 39C170.979 38.8507 171.557 38.776 172.117 38.776C172.827 38.776 173.443 38.8693 173.965 39.056C174.488 39.2053 174.936 39.392 175.309 39.616C175.683 39.84 175.981 40.0827 176.205 40.344C176.467 40.568 176.653 40.7547 176.765 40.904C177.4 41.7627 177.773 42.7147 177.885 43.76C177.997 44.8053 178.053 45.776 178.053 46.672V61.12C178.053 61.792 177.96 62.5573 177.773 63.416C177.624 64.2747 177.176 65.0773 176.429 65.824C175.869 66.4213 175.235 66.832 174.525 67.056C173.853 67.3173 173.107 67.448 172.285 67.448C171.464 67.448 170.773 67.336 170.213 67.112C169.653 66.9253 169.112 66.6827 168.589 66.384C167.88 65.9733 167.264 65.432 166.741 64.76V78.424H161.141V39.224H166.741V41.688ZM166.741 58.264C166.741 58.712 166.779 59.1787 166.853 59.664C166.965 60.1493 167.227 60.616 167.637 61.064C167.824 61.2507 168.085 61.456 168.421 61.68C168.795 61.8667 169.243 61.96 169.765 61.96C170.549 61.96 171.203 61.68 171.725 61.12C172.061 60.7467 172.267 60.3733 172.341 60C172.416 59.5893 172.453 59.216 172.453 58.88V47.624C172.453 47.1387 172.416 46.7093 172.341 46.336C172.304 45.9253 172.099 45.5147 171.725 45.104C171.203 44.544 170.549 44.264 169.765 44.264C169.243 44.264 168.795 44.376 168.421 44.6C168.085 44.7867 167.824 44.9733 167.637 45.16C167.227 45.608 166.965 46.0747 166.853 46.56C166.779 47.0453 166.741 47.512 166.741 47.96V58.264ZM183.886 48.184C183.886 47.624 183.905 47.0267 183.942 46.392C183.979 45.7573 184.091 45.1227 184.278 44.488C184.465 43.816 184.745 43.1627 185.118 42.528C185.491 41.8933 185.995 41.296 186.63 40.736C187.377 40.1013 188.254 39.616 189.262 39.28C190.27 38.944 191.297 38.776 192.342 38.776C193.387 38.776 194.414 38.944 195.422 39.28C196.43 39.616 197.307 40.1013 198.054 40.736C198.689 41.296 199.193 41.8933 199.566 42.528C199.939 43.1627 200.219 43.816 200.406 44.488C200.593 45.1227 200.705 45.7573 200.742 46.392C200.779 47.0267 200.798 47.624 200.798 48.184V58.04C200.798 58.6 200.779 59.1973 200.742 59.832C200.705 60.4667 200.593 61.12 200.406 61.792C200.219 62.4267 199.939 63.0613 199.566 63.696C199.193 64.3307 198.689 64.928 198.054 65.488C197.307 66.1227 196.43 66.608 195.422 66.944C194.414 67.28 193.387 67.448 192.342 67.448C191.297 67.448 190.27 67.28 189.262 66.944C188.254 66.608 187.377 66.1227 186.63 65.488C185.995 64.928 185.491 64.3307 185.118 63.696C184.745 63.0613 184.465 62.4267 184.278 61.792C184.091 61.12 183.979 60.4667 183.942 59.832C183.905 59.1973 183.886 58.6 183.886 58.04V48.184ZM195.198 47.848C195.198 46.616 194.918 45.6827 194.358 45.048C193.835 44.5253 193.163 44.264 192.342 44.264C191.521 44.264 190.849 44.5253 190.326 45.048C189.766 45.6827 189.486 46.616 189.486 47.848V58.376C189.486 59.608 189.766 60.5413 190.326 61.176C190.849 61.6987 191.521 61.96 192.342 61.96C192.753 61.96 193.126 61.8853 193.462 61.736C193.835 61.5867 194.134 61.4 194.358 61.176C194.918 60.5413 195.198 59.608 195.198 58.376V47.848ZM212.241 39.224V61.96H217.561V39.224H223.161V61.96H228.481V39.224H234.081V67H206.641V39.224H212.241ZM239.886 48.184C239.886 47.624 239.905 47.0267 239.942 46.392C239.979 45.7573 240.091 45.1227 240.278 44.488C240.465 43.816 240.745 43.1627 241.118 42.528C241.491 41.8933 241.995 41.296 242.63 40.736C243.377 40.1013 244.254 39.616 245.262 39.28C246.27 38.944 247.297 38.776 248.342 38.776C249.387 38.776 250.414 38.944 251.422 39.28C252.43 39.616 253.307 40.1013 254.054 40.736C254.689 41.296 255.193 41.8933 255.566 42.528C255.939 43.1627 256.219 43.816 256.406 44.488C256.593 45.1227 256.705 45.7573 256.742 46.392C256.779 47.0267 256.798 47.624 256.798 48.184V58.04C256.798 58.6 256.779 59.1973 256.742 59.832C256.705 60.4667 256.593 61.12 256.406 61.792C256.219 62.4267 255.939 63.0613 255.566 63.696C255.193 64.3307 254.689 64.928 254.054 65.488C253.307 66.1227 252.43 66.608 251.422 66.944C250.414 67.28 249.387 67.448 248.342 67.448C247.297 67.448 246.27 67.28 245.262 66.944C244.254 66.608 243.377 66.1227 242.63 65.488C241.995 64.928 241.491 64.3307 241.118 63.696C240.745 63.0613 240.465 62.4267 240.278 61.792C240.091 61.12 239.979 60.4667 239.942 59.832C239.905 59.1973 239.886 58.6 239.886 58.04V48.184ZM251.198 47.848C251.198 46.616 250.918 45.6827 250.358 45.048C249.835 44.5253 249.163 44.264 248.342 44.264C247.521 44.264 246.849 44.5253 246.326 45.048C245.766 45.6827 245.486 46.616 245.486 47.848V58.376C245.486 59.608 245.766 60.5413 246.326 61.176C246.849 61.6987 247.521 61.96 248.342 61.96C248.753 61.96 249.126 61.8853 249.462 61.736C249.835 61.5867 250.134 61.4 250.358 61.176C250.918 60.5413 251.198 59.608 251.198 58.376V47.848ZM268.857 27.8L267.569 57.2H263.089L262.137 27.8H268.857ZM268.409 60.84V67H262.249V60.84H268.409Z" fill="white"/>
</svg>
