<svg width="362" height="145" viewBox="0 0 362 145" fill="none" xmlns="http://www.w3.org/2000/svg">
<path d="M260.102 60.9544C205.911 -47.0398 135.179 15.9568 110.975 60.9544C74.2622 70.3763 8.44117 90.0974 3.76273 93.6062C-2.08532 97.9922 0.351365 119.435 15.4588 112.612C27.5448 107.154 31.541 114.887 32.0283 119.435C36.9017 130.157 45.1864 136.005 58.3445 123.821C68.871 114.074 75.0765 121.384 76.8634 126.258C87.7797 148.87 98.6311 137.954 102.692 129.669C113.998 119.922 123.323 128.207 126.572 133.568C140.607 153.061 151.264 141.69 154.837 133.568C158.411 126.908 169.068 117.583 183.103 133.568C197.138 149.553 206.495 140.228 209.419 133.568C224.234 122.262 234.111 128.857 237.197 133.568C254.352 153.061 263.839 141.69 266.438 133.568C276.574 116.803 288.205 123.659 292.754 129.182C313.807 145.167 321.994 132.268 323.456 123.821C320.727 105.107 338.564 106.277 347.823 109.201C371.605 99.8441 357.732 85.159 347.823 78.9861L260.102 60.9544Z" fill="#55C9BB" stroke="#55C9BB"/>
</svg>
