<svg width="450" height="696" viewBox="0 0 450 696" fill="none" xmlns="http://www.w3.org/2000/svg">
<path d="M449.971 -2.99843e-06L218.838 461.695L4.94232e-05 3.4458e-05L449.971 -2.99843e-06Z" fill="#55C9BB"/>
<ellipse cx="213.737" cy="440.401" rx="186.031" ry="189.538" transform="rotate(180 213.737 440.401)" fill="#55C9BB"/>
<ellipse cx="261" cy="491.5" rx="35" ry="35.5" transform="rotate(180 261 491.5)" fill="white"/>
<ellipse cx="170" cy="490.5" rx="35" ry="35.5" transform="rotate(180 170 490.5)" fill="white"/>
<ellipse cx="213.737" cy="363.705" rx="82.1995" ry="61.71" transform="rotate(180 213.737 363.705)" fill="#FD5B7D"/>
<ellipse cx="239.844" cy="357.105" rx="13.8441" ry="14.1051" transform="rotate(180 239.844 357.105)" fill="white"/>
<ellipse cx="260.844" cy="491.105" rx="13.8441" ry="14.1051" transform="rotate(180 260.844 491.105)" fill="#003DE3"/>
<ellipse cx="168.844" cy="491.105" rx="13.8441" ry="14.1051" transform="rotate(180 168.844 491.105)" fill="#003DE3"/>
<ellipse cx="190.844" cy="357.105" rx="13.8441" ry="14.1051" transform="rotate(180 190.844 357.105)" fill="white"/>
<path d="M379.001 681.703L335.739 538.256L247.482 602.45L325.355 695.176L335.739 653.964L379.001 681.703Z" fill="#55C9BB"/>
<path d="M53.6645 676.413L96.9275 532.966L185.184 597.16L107.311 689.885L96.9275 648.674L53.6645 676.413Z" fill="#55C9BB"/>
<path d="M326.265 572.769L328.136 639.669L279.455 601.243L326.265 572.769Z" fill="#FD5B7D"/>
<path d="M100.932 572.669L100.522 639.595L148.352 600.075L100.932 572.669Z" fill="#FD5B7D"/>
</svg>
