<svg width="603" height="258" viewBox="0 0 603 258" fill="none" xmlns="http://www.w3.org/2000/svg">
<path d="M81.0366 156.938L82.7286 155.515L81.8714 153.478C78.4863 145.432 76.7234 137.141 76.7234 128.671C76.7234 94.9292 104.892 63.528 152.403 40.3839C199.713 17.3384 265.281 3 337.868 3C410.456 3 476.023 17.3384 523.333 40.3839C570.845 63.528 599.013 94.9292 599.013 128.671C599.013 162.413 570.845 193.814 523.333 216.958C476.023 240.004 410.456 254.342 337.868 254.342C243.22 254.342 160.664 229.973 114.851 193.853L113.735 192.974L112.347 193.28L11.2765 215.581L81.0366 156.938Z" fill="#003DE3" stroke="white" stroke-width="6"/>
<path d="M213.641 81.9285C213.641 81.3205 213.657 80.7125 213.689 80.1045C213.753 79.4645 213.865 78.8565 214.025 78.2805C214.185 77.7045 214.425 77.1445 214.745 76.6005C215.065 76.0245 215.497 75.4805 216.041 74.9685C217.449 73.6245 219.337 72.9525 221.705 72.9525C224.073 72.9525 225.961 73.6245 227.369 74.9685C228.457 75.9925 229.129 77.0965 229.385 78.2805C229.641 79.4645 229.769 80.6805 229.769 81.9285V98.5365C229.769 99.7845 229.641 101 229.385 102.184C229.129 103.368 228.457 104.472 227.369 105.496C225.961 106.84 224.073 107.512 221.705 107.512C219.337 107.512 217.449 106.84 216.041 105.496C215.497 104.984 215.065 104.456 214.745 103.912C214.425 103.336 214.185 102.76 214.025 102.184C213.865 101.608 213.753 101.016 213.689 100.408C213.657 99.8005 213.641 99.1765 213.641 98.5365V81.9285ZM226.169 81.1605C226.169 80.5525 226.105 79.9605 225.977 79.3845C225.849 78.7765 225.497 78.2005 224.921 77.6565C224.569 77.3045 224.121 77.0165 223.577 76.7925C223.065 76.5685 222.441 76.4565 221.705 76.4565C220.969 76.4565 220.329 76.5685 219.785 76.7925C219.273 77.0165 218.841 77.3045 218.489 77.6565C217.913 78.2005 217.561 78.7765 217.433 79.3845C217.305 79.9605 217.241 80.5525 217.241 81.1605V99.3045C217.241 99.9125 217.305 100.52 217.433 101.128C217.561 101.704 217.913 102.28 218.489 102.856C218.841 103.176 219.273 103.448 219.785 103.672C220.329 103.896 220.969 104.008 221.705 104.008C222.441 104.008 223.065 103.896 223.577 103.672C224.121 103.448 224.569 103.176 224.921 102.856C225.497 102.28 225.849 101.704 225.977 101.128C226.105 100.52 226.169 99.9125 226.169 99.3045V81.1605ZM242.293 86.2485V107.032H238.693V86.2485H233.653V83.2245H247.333V86.2485H242.293ZM264.068 107.032H260.468V86.2485H255.908L255.812 89.0325C255.812 89.4485 255.796 90.0885 255.764 90.9525C255.732 91.8165 255.684 92.7765 255.62 93.8325C255.556 94.8565 255.476 95.9125 255.38 97.0005C255.316 98.0565 255.22 99.0165 255.092 99.8805C254.932 100.904 254.708 101.848 254.42 102.712C254.164 103.576 253.78 104.328 253.268 104.968C252.756 105.608 252.116 106.12 251.348 106.504C250.58 106.856 249.62 107.032 248.468 107.032H247.892V104.056H248.324C249.092 104.056 249.716 103.832 250.196 103.384C250.676 102.936 251.044 102.344 251.3 101.608C251.588 100.84 251.78 99.9925 251.876 99.0645C252.004 98.1045 252.116 97.1445 252.212 96.1845C252.244 95.7045 252.276 95.1285 252.308 94.4565C252.34 93.7525 252.356 93.0485 252.356 92.3445C252.388 91.6405 252.42 90.9845 252.452 90.3765C252.484 89.7365 252.5 89.2405 252.5 88.8885L252.644 83.2245H264.068V107.032ZM273.63 83.2245V99.0165L281.166 86.1525V83.2245H284.766V107.032H281.166V91.6725L273.63 104.536V107.032H270.03V83.2245H273.63ZM299.438 97.0005C298.606 97.4165 297.774 97.6885 296.942 97.8165C296.11 97.9125 295.342 97.9605 294.638 97.9605C293.038 97.9605 291.79 97.5605 290.894 96.7605C289.998 95.9605 289.55 94.5525 289.55 92.5365V83.2245H293.15V91.7685C293.15 93.8485 294.19 94.8885 296.27 94.8885C296.91 94.8885 297.486 94.8085 297.998 94.6485C298.51 94.4565 298.99 94.2325 299.438 93.9765V83.2245H303.038V107.032H299.438V97.0005ZM308.984 83.2245H312.584V93.4005H319.112V83.2245H322.712V107.032H319.112V96.4725H312.584V107.032H308.984V83.2245ZM328.479 89.5605C328.479 89.1125 328.559 88.5205 328.719 87.7845C328.879 87.0165 329.199 86.2645 329.679 85.5285C330.191 84.7925 330.895 84.1685 331.791 83.6565C332.687 83.1125 333.871 82.8405 335.343 82.8405C336.815 82.8405 337.999 83.1125 338.895 83.6565C339.791 84.1685 340.479 84.7925 340.959 85.5285C341.471 86.2645 341.807 87.0165 341.967 87.7845C342.127 88.5205 342.207 89.0965 342.207 89.5125V100.6C342.207 101.08 342.127 101.704 341.967 102.472C341.807 103.24 341.471 103.992 340.959 104.728C340.479 105.464 339.791 106.104 338.895 106.648C337.999 107.16 336.815 107.416 335.343 107.416C333.871 107.416 332.687 107.16 331.791 106.648C330.895 106.104 330.191 105.464 329.679 104.728C329.199 103.992 328.879 103.24 328.719 102.472C328.559 101.704 328.479 101.08 328.479 100.6V89.5605ZM338.607 90.2325C338.607 88.8885 338.287 87.9125 337.647 87.3045C337.007 86.6645 336.239 86.3445 335.343 86.3445C334.447 86.3445 333.679 86.6645 333.039 87.3045C332.399 87.9125 332.079 88.8885 332.079 90.2325V100.024C332.079 101.272 332.351 102.232 332.895 102.904C333.471 103.576 334.287 103.912 335.343 103.912C336.367 103.912 337.167 103.592 337.743 102.952C338.319 102.312 338.607 101.336 338.607 100.024V90.2325ZM352.016 102.952V107.464L347.888 111.16V102.952H352.016ZM376.074 86.2485V107.032H372.474V86.2485H367.434V83.2245H381.114V86.2485H376.074ZM394.76 100.36H398.36V100.696C398.36 101.272 398.264 101.96 398.072 102.76C397.912 103.528 397.592 104.264 397.112 104.968C396.632 105.64 395.96 106.216 395.096 106.696C394.232 107.176 393.112 107.416 391.736 107.416C390.232 107.416 389.032 107.16 388.136 106.648C387.24 106.104 386.536 105.464 386.024 104.728C385.512 103.992 385.176 103.24 385.016 102.472C384.856 101.672 384.776 101.016 384.776 100.504V89.4645C384.776 88.9845 384.856 88.3765 385.016 87.6405C385.176 86.9045 385.496 86.1845 385.976 85.4805C386.456 84.7445 387.128 84.1205 387.992 83.6085C388.888 83.0965 390.056 82.8405 391.496 82.8405C392.904 82.8405 394.056 83.0965 394.952 83.6085C395.88 84.1205 396.6 84.7445 397.112 85.4805C397.624 86.1845 397.976 86.9365 398.168 87.7365C398.36 88.5045 398.456 89.1445 398.456 89.6565V96.4725H388.376V100.264C388.376 101.544 388.648 102.472 389.192 103.048C389.768 103.624 390.616 103.912 391.736 103.912C392.792 103.912 393.56 103.624 394.04 103.048C394.52 102.44 394.76 101.64 394.76 100.648V100.36ZM394.856 93.7845V89.7045C394.856 89.3205 394.808 88.9365 394.712 88.5525C394.616 88.1365 394.44 87.7685 394.184 87.4485C393.928 87.1285 393.592 86.8725 393.176 86.6805C392.76 86.4565 392.248 86.3445 391.64 86.3445C391 86.3445 390.472 86.4565 390.056 86.6805C389.64 86.9045 389.304 87.1925 389.048 87.5445C388.792 87.8965 388.616 88.2805 388.52 88.6965C388.424 89.1125 388.376 89.5125 388.376 89.8965V93.7845H394.856ZM404.046 83.2245H417.486V107.032H413.886V86.2485H407.646V107.032H404.046V83.2245ZM433.244 100.36H436.844V100.696C436.844 101.272 436.748 101.96 436.556 102.76C436.396 103.528 436.076 104.264 435.596 104.968C435.116 105.64 434.444 106.216 433.58 106.696C432.716 107.176 431.596 107.416 430.22 107.416C428.716 107.416 427.516 107.16 426.62 106.648C425.724 106.104 425.02 105.464 424.508 104.728C423.996 103.992 423.66 103.24 423.5 102.472C423.34 101.672 423.26 101.016 423.26 100.504V89.4645C423.26 88.9845 423.34 88.3765 423.5 87.6405C423.66 86.9045 423.98 86.1845 424.46 85.4805C424.94 84.7445 425.612 84.1205 426.476 83.6085C427.372 83.0965 428.54 82.8405 429.98 82.8405C431.388 82.8405 432.54 83.0965 433.436 83.6085C434.364 84.1205 435.084 84.7445 435.596 85.4805C436.108 86.1845 436.46 86.9365 436.652 87.7365C436.844 88.5045 436.94 89.1445 436.94 89.6565V96.4725H426.86V100.264C426.86 101.544 427.132 102.472 427.676 103.048C428.252 103.624 429.1 103.912 430.22 103.912C431.276 103.912 432.044 103.624 432.524 103.048C433.004 102.44 433.244 101.64 433.244 100.648V100.36ZM433.34 93.7845V89.7045C433.34 89.3205 433.292 88.9365 433.196 88.5525C433.1 88.1365 432.924 87.7685 432.668 87.4485C432.412 87.1285 432.076 86.8725 431.66 86.6805C431.244 86.4565 430.732 86.3445 430.124 86.3445C429.484 86.3445 428.956 86.4565 428.54 86.6805C428.124 86.9045 427.788 87.1925 427.532 87.5445C427.276 87.8965 427.1 88.2805 427.004 88.6965C426.908 89.1125 426.86 89.5125 426.86 89.8965V93.7845H433.34ZM442.53 83.2245H446.13V85.5765C446.898 84.5525 447.73 83.8485 448.626 83.4645C449.554 83.0485 450.434 82.8405 451.266 82.8405C452.322 82.8405 453.17 83.0165 453.81 83.3685C454.482 83.7205 454.994 84.1845 455.346 84.7605C455.698 85.3045 455.938 85.8965 456.066 86.5365C456.194 87.1765 456.258 87.7845 456.258 88.3605V101.896C456.258 102.472 456.194 103.08 456.066 103.72C455.938 104.36 455.698 104.968 455.346 105.544C454.994 106.088 454.482 106.536 453.81 106.888C453.17 107.24 452.322 107.416 451.266 107.416C450.434 107.416 449.554 107.224 448.626 106.84C447.73 106.424 446.898 105.704 446.13 104.68V116.824H442.53V83.2245ZM449.634 103.912C450.21 103.912 450.69 103.816 451.074 103.624C451.458 103.4 451.762 103.112 451.986 102.76C452.242 102.408 452.418 102.008 452.514 101.56C452.61 101.112 452.658 100.664 452.658 100.216V90.0405C452.658 89.5925 452.61 89.1445 452.514 88.6965C452.418 88.2485 452.242 87.8485 451.986 87.4965C451.762 87.1445 451.458 86.8725 451.074 86.6805C450.69 86.4565 450.21 86.3445 449.634 86.3445C448.898 86.3445 448.306 86.5045 447.858 86.8245C447.41 87.1445 447.058 87.5285 446.802 87.9765C446.546 88.4245 446.37 88.9045 446.274 89.4165C446.178 89.8965 446.13 90.3285 446.13 90.7125V99.5445C446.13 99.9285 446.178 100.376 446.274 100.888C446.37 101.368 446.546 101.832 446.802 102.28C447.058 102.728 447.41 103.112 447.858 103.432C448.306 103.752 448.898 103.912 449.634 103.912ZM465.818 83.2245V92.7285H469.034C469.706 92.7285 470.426 92.7925 471.194 92.9205C471.994 93.0165 472.73 93.2565 473.402 93.6405C474.074 94.0245 474.634 94.5845 475.082 95.3205C475.53 96.0565 475.754 97.0485 475.754 98.2965V101.176C475.754 103.288 475.13 104.792 473.882 105.688C472.666 106.584 471.05 107.032 469.034 107.032H462.218V83.2245H465.818ZM465.818 104.008H468.746C469.13 104.008 469.514 103.96 469.898 103.864C470.314 103.768 470.682 103.608 471.002 103.384C471.354 103.128 471.626 102.808 471.818 102.424C472.042 102.008 472.154 101.496 472.154 100.888V98.9205C472.154 97.7365 471.786 96.9205 471.05 96.4725C470.346 95.9925 469.578 95.7525 468.746 95.7525H465.818V104.008ZM194.74 165.032V154.664H191.428L187.876 165.032H184.036L187.876 154.28C186.66 153.736 185.828 153.048 185.38 152.216C184.964 151.352 184.756 150.312 184.756 149.096V146.792C184.756 145.544 184.98 144.552 185.428 143.816C185.876 143.08 186.436 142.52 187.108 142.136C187.78 141.752 188.5 141.512 189.268 141.416C190.068 141.288 190.788 141.224 191.428 141.224H198.34V165.032H194.74ZM194.74 143.864H191.716C190.852 143.864 190.068 144.136 189.364 144.68C188.692 145.224 188.356 146.152 188.356 147.464V148.76C188.356 149.944 188.676 150.792 189.316 151.304C189.988 151.816 190.788 152.072 191.716 152.072H194.74V143.864ZM215.515 141.224H226.651V144.248H219.115V165.032H215.515V141.224ZM229.432 147.56C229.432 147.112 229.512 146.52 229.672 145.784C229.832 145.016 230.152 144.264 230.632 143.528C231.144 142.792 231.848 142.168 232.744 141.656C233.64 141.112 234.824 140.84 236.296 140.84C237.768 140.84 238.952 141.112 239.848 141.656C240.744 142.168 241.432 142.792 241.912 143.528C242.424 144.264 242.76 145.016 242.92 145.784C243.08 146.52 243.16 147.096 243.16 147.512V158.6C243.16 159.08 243.08 159.704 242.92 160.472C242.76 161.24 242.424 161.992 241.912 162.728C241.432 163.464 240.744 164.104 239.848 164.648C238.952 165.16 237.768 165.416 236.296 165.416C234.824 165.416 233.64 165.16 232.744 164.648C231.848 164.104 231.144 163.464 230.632 162.728C230.152 161.992 229.832 161.24 229.672 160.472C229.512 159.704 229.432 159.08 229.432 158.6V147.56ZM239.56 148.232C239.56 146.888 239.24 145.912 238.6 145.304C237.96 144.664 237.192 144.344 236.296 144.344C235.4 144.344 234.632 144.664 233.992 145.304C233.352 145.912 233.032 146.888 233.032 148.232V158.024C233.032 159.272 233.304 160.232 233.848 160.904C234.424 161.576 235.24 161.912 236.296 161.912C237.32 161.912 238.12 161.592 238.696 160.952C239.272 160.312 239.56 159.336 239.56 158.024V148.232ZM255.465 144.248V165.032H251.865V144.248H246.825V141.224H260.505V144.248H255.465ZM264.167 147.56C264.167 147.112 264.247 146.52 264.407 145.784C264.567 145.016 264.887 144.264 265.367 143.528C265.879 142.792 266.583 142.168 267.479 141.656C268.375 141.112 269.559 140.84 271.031 140.84C272.503 140.84 273.687 141.112 274.583 141.656C275.479 142.168 276.167 142.792 276.647 143.528C277.159 144.264 277.495 145.016 277.655 145.784C277.815 146.52 277.895 147.096 277.895 147.512V158.6C277.895 159.08 277.815 159.704 277.655 160.472C277.495 161.24 277.159 161.992 276.647 162.728C276.167 163.464 275.479 164.104 274.583 164.648C273.687 165.16 272.503 165.416 271.031 165.416C269.559 165.416 268.375 165.16 267.479 164.648C266.583 164.104 265.879 163.464 265.367 162.728C264.887 161.992 264.567 161.24 264.407 160.472C264.247 159.704 264.167 159.08 264.167 158.6V147.56ZM274.295 148.232C274.295 146.888 273.975 145.912 273.335 145.304C272.695 144.664 271.927 144.344 271.031 144.344C270.135 144.344 269.367 144.664 268.727 145.304C268.087 145.912 267.767 146.888 267.767 148.232V158.024C267.767 159.272 268.039 160.232 268.583 160.904C269.159 161.576 269.975 161.912 271.031 161.912C272.055 161.912 272.855 161.592 273.431 160.952C274.007 160.312 274.295 159.336 274.295 158.024V148.232ZM290.679 141.224C291.863 141.224 292.855 141.384 293.655 141.704C294.487 141.992 295.143 142.392 295.623 142.904C296.135 143.384 296.503 143.96 296.727 144.632C296.951 145.272 297.063 145.928 297.063 146.6V148.04C297.063 149.256 296.839 150.264 296.391 151.064C295.943 151.832 295.111 152.44 293.895 152.888C295.303 153.24 296.215 153.848 296.631 154.712C297.079 155.544 297.303 156.52 297.303 157.64V159.464C297.303 160.584 297.079 161.512 296.631 162.248C296.183 162.952 295.607 163.512 294.903 163.928C294.199 164.344 293.431 164.632 292.599 164.792C291.799 164.952 291.047 165.032 290.343 165.032H283.671V141.224H290.679ZM287.271 162.008H290.295C291.223 162.008 292.023 161.784 292.695 161.336C293.367 160.888 293.703 160.104 293.703 158.984V157.784C293.703 156.504 293.351 155.608 292.647 155.096C291.943 154.552 291.159 154.28 290.295 154.28H287.271V162.008ZM287.271 151.64H290.199C291.191 151.64 291.975 151.336 292.551 150.728C293.159 150.12 293.463 149.336 293.463 148.376V147.128C293.463 146.488 293.335 145.976 293.079 145.592C292.823 145.208 292.519 144.92 292.167 144.728C291.815 144.536 291.447 144.408 291.063 144.344C290.711 144.28 290.423 144.248 290.199 144.248H287.271V151.64ZM312.684 162.68H312.636C312.348 163.032 312.044 163.368 311.724 163.688C311.404 164.008 311.036 164.296 310.62 164.552C310.204 164.808 309.724 165.016 309.18 165.176C308.668 165.336 308.028 165.416 307.26 165.416C306.3 165.416 305.5 165.256 304.86 164.936C304.252 164.584 303.756 164.104 303.372 163.496C303.02 162.888 302.764 162.184 302.604 161.384C302.444 160.584 302.364 159.704 302.364 158.744C302.364 157.496 302.476 156.392 302.7 155.432C302.924 154.44 303.308 153.608 303.852 152.936C304.396 152.264 305.1 151.752 305.964 151.4C306.86 151.048 307.98 150.872 309.324 150.872C309.58 150.872 309.948 150.888 310.428 150.92C310.908 150.92 311.66 150.968 312.684 151.064V147.56C312.684 147.24 312.62 146.888 312.492 146.504C312.364 146.12 312.156 145.768 311.868 145.448C311.612 145.128 311.276 144.872 310.86 144.68C310.444 144.456 309.932 144.344 309.324 144.344C309.004 144.344 308.668 144.392 308.316 144.488C307.996 144.552 307.676 144.696 307.356 144.92C307.068 145.144 306.796 145.448 306.54 145.832C306.316 146.216 306.156 146.696 306.06 147.272H302.604C302.604 146.28 302.78 145.384 303.132 144.584C303.516 143.784 304.012 143.112 304.62 142.568C305.26 141.992 305.996 141.56 306.828 141.272C307.692 140.984 308.604 140.84 309.564 140.84C310.94 140.84 312.06 141.08 312.924 141.56C313.82 142.008 314.508 142.584 314.988 143.288C315.5 143.96 315.836 144.728 315.996 145.592C316.188 146.424 316.284 147.224 316.284 147.992V165.032H312.684V162.68ZM312.684 153.704C312.172 153.64 311.708 153.592 311.292 153.56C310.876 153.496 310.524 153.464 310.236 153.464C309.724 153.464 309.212 153.544 308.7 153.704C308.188 153.832 307.724 154.088 307.308 154.472C306.924 154.824 306.604 155.304 306.348 155.912C306.092 156.488 305.964 157.208 305.964 158.072C305.964 159.768 306.22 160.904 306.732 161.48C307.244 162.056 308.012 162.344 309.036 162.344C309.42 162.344 309.82 162.232 310.236 162.008C310.652 161.784 311.036 161.464 311.388 161.048C311.772 160.632 312.076 160.168 312.3 159.656C312.556 159.112 312.684 158.52 312.684 157.88V153.704ZM339.98 144.248V165.032H336.38V144.248H331.34V141.224H345.02V144.248H339.98ZM358.059 162.68H358.011C357.723 163.032 357.419 163.368 357.099 163.688C356.779 164.008 356.411 164.296 355.995 164.552C355.579 164.808 355.099 165.016 354.555 165.176C354.043 165.336 353.403 165.416 352.635 165.416C351.675 165.416 350.875 165.256 350.235 164.936C349.627 164.584 349.131 164.104 348.747 163.496C348.395 162.888 348.139 162.184 347.979 161.384C347.819 160.584 347.739 159.704 347.739 158.744C347.739 157.496 347.851 156.392 348.075 155.432C348.299 154.44 348.683 153.608 349.227 152.936C349.771 152.264 350.475 151.752 351.339 151.4C352.235 151.048 353.355 150.872 354.699 150.872C354.955 150.872 355.323 150.888 355.803 150.92C356.283 150.92 357.035 150.968 358.059 151.064V147.56C358.059 147.24 357.995 146.888 357.867 146.504C357.739 146.12 357.531 145.768 357.243 145.448C356.987 145.128 356.651 144.872 356.235 144.68C355.819 144.456 355.307 144.344 354.699 144.344C354.379 144.344 354.043 144.392 353.691 144.488C353.371 144.552 353.051 144.696 352.731 144.92C352.443 145.144 352.171 145.448 351.915 145.832C351.691 146.216 351.531 146.696 351.435 147.272H347.979C347.979 146.28 348.155 145.384 348.507 144.584C348.891 143.784 349.387 143.112 349.995 142.568C350.635 141.992 351.371 141.56 352.203 141.272C353.067 140.984 353.979 140.84 354.939 140.84C356.315 140.84 357.435 141.08 358.299 141.56C359.195 142.008 359.883 142.584 360.363 143.288C360.875 143.96 361.211 144.728 361.371 145.592C361.563 146.424 361.659 147.224 361.659 147.992V165.032H358.059V162.68ZM358.059 153.704C357.547 153.64 357.083 153.592 356.667 153.56C356.251 153.496 355.899 153.464 355.611 153.464C355.099 153.464 354.587 153.544 354.075 153.704C353.563 153.832 353.099 154.088 352.683 154.472C352.299 154.824 351.979 155.304 351.723 155.912C351.467 156.488 351.339 157.208 351.339 158.072C351.339 159.768 351.595 160.904 352.107 161.48C352.619 162.056 353.387 162.344 354.411 162.344C354.795 162.344 355.195 162.232 355.611 162.008C356.027 161.784 356.411 161.464 356.763 161.048C357.147 160.632 357.451 160.168 357.675 159.656C357.931 159.112 358.059 158.52 358.059 157.88V153.704ZM367.624 141.224H371.224V151.4H377.752V141.224H381.352V165.032H377.752V154.472H371.224V165.032H367.624V141.224ZM387.312 141.224H390.912V162.008H397.392V141.224H400.992V162.008H404.112V170.024H400.752V165.032H387.312V141.224ZM417.635 158.36H421.235V158.696C421.235 159.272 421.139 159.96 420.947 160.76C420.787 161.528 420.467 162.264 419.987 162.968C419.507 163.64 418.835 164.216 417.971 164.696C417.107 165.176 415.987 165.416 414.611 165.416C413.107 165.416 411.907 165.16 411.011 164.648C410.115 164.104 409.411 163.464 408.899 162.728C408.387 161.992 408.051 161.24 407.891 160.472C407.731 159.672 407.651 159.016 407.651 158.504V147.464C407.651 146.984 407.731 146.376 407.891 145.64C408.051 144.904 408.371 144.184 408.851 143.48C409.331 142.744 410.003 142.12 410.867 141.608C411.763 141.096 412.931 140.84 414.371 140.84C415.779 140.84 416.931 141.096 417.827 141.608C418.755 142.12 419.475 142.744 419.987 143.48C420.499 144.184 420.851 144.936 421.043 145.736C421.235 146.504 421.331 147.144 421.331 147.656V154.472H411.251V158.264C411.251 159.544 411.523 160.472 412.067 161.048C412.643 161.624 413.491 161.912 414.611 161.912C415.667 161.912 416.435 161.624 416.915 161.048C417.395 160.44 417.635 159.64 417.635 158.648V158.36ZM417.731 151.784V147.704C417.731 147.32 417.683 146.936 417.587 146.552C417.491 146.136 417.315 145.768 417.059 145.448C416.803 145.128 416.467 144.872 416.051 144.68C415.635 144.456 415.123 144.344 414.515 144.344C413.875 144.344 413.347 144.456 412.931 144.68C412.515 144.904 412.179 145.192 411.923 145.544C411.667 145.896 411.491 146.28 411.395 146.696C411.299 147.112 411.251 147.512 411.251 147.896V151.784H417.731ZM433.929 141.224C435.113 141.224 436.105 141.384 436.905 141.704C437.737 141.992 438.393 142.392 438.873 142.904C439.385 143.384 439.753 143.96 439.977 144.632C440.201 145.272 440.313 145.928 440.313 146.6V148.04C440.313 149.256 440.089 150.264 439.641 151.064C439.193 151.832 438.361 152.44 437.145 152.888C438.553 153.24 439.465 153.848 439.881 154.712C440.329 155.544 440.553 156.52 440.553 157.64V159.464C440.553 160.584 440.329 161.512 439.881 162.248C439.433 162.952 438.857 163.512 438.153 163.928C437.449 164.344 436.681 164.632 435.849 164.792C435.049 164.952 434.297 165.032 433.593 165.032H426.921V141.224H433.929ZM430.521 162.008H433.545C434.473 162.008 435.273 161.784 435.945 161.336C436.617 160.888 436.953 160.104 436.953 158.984V157.784C436.953 156.504 436.601 155.608 435.897 155.096C435.193 154.552 434.409 154.28 433.545 154.28H430.521V162.008ZM430.521 151.64H433.449C434.441 151.64 435.225 151.336 435.801 150.728C436.409 150.12 436.713 149.336 436.713 148.376V147.128C436.713 146.488 436.585 145.976 436.329 145.592C436.073 145.208 435.769 144.92 435.417 144.728C435.065 144.536 434.697 144.408 434.313 144.344C433.961 144.28 433.673 144.248 433.449 144.248H430.521V151.64ZM455.934 162.68H455.886C455.598 163.032 455.294 163.368 454.974 163.688C454.654 164.008 454.286 164.296 453.87 164.552C453.454 164.808 452.974 165.016 452.43 165.176C451.918 165.336 451.278 165.416 450.51 165.416C449.55 165.416 448.75 165.256 448.11 164.936C447.502 164.584 447.006 164.104 446.622 163.496C446.27 162.888 446.014 162.184 445.854 161.384C445.694 160.584 445.614 159.704 445.614 158.744C445.614 157.496 445.726 156.392 445.95 155.432C446.174 154.44 446.558 153.608 447.102 152.936C447.646 152.264 448.35 151.752 449.214 151.4C450.11 151.048 451.23 150.872 452.574 150.872C452.83 150.872 453.198 150.888 453.678 150.92C454.158 150.92 454.91 150.968 455.934 151.064V147.56C455.934 147.24 455.87 146.888 455.742 146.504C455.614 146.12 455.406 145.768 455.118 145.448C454.862 145.128 454.526 144.872 454.11 144.68C453.694 144.456 453.182 144.344 452.574 144.344C452.254 144.344 451.918 144.392 451.566 144.488C451.246 144.552 450.926 144.696 450.606 144.92C450.318 145.144 450.046 145.448 449.79 145.832C449.566 146.216 449.406 146.696 449.31 147.272H445.854C445.854 146.28 446.03 145.384 446.382 144.584C446.766 143.784 447.262 143.112 447.87 142.568C448.51 141.992 449.246 141.56 450.078 141.272C450.942 140.984 451.854 140.84 452.814 140.84C454.19 140.84 455.31 141.08 456.174 141.56C457.07 142.008 457.758 142.584 458.238 143.288C458.75 143.96 459.086 144.728 459.246 145.592C459.438 146.424 459.534 147.224 459.534 147.992V165.032H455.934V162.68ZM455.934 153.704C455.422 153.64 454.958 153.592 454.542 153.56C454.126 153.496 453.774 153.464 453.486 153.464C452.974 153.464 452.462 153.544 451.95 153.704C451.438 153.832 450.974 154.088 450.558 154.472C450.174 154.824 449.854 155.304 449.598 155.912C449.342 156.488 449.214 157.208 449.214 158.072C449.214 159.768 449.47 160.904 449.982 161.48C450.494 162.056 451.262 162.344 452.286 162.344C452.67 162.344 453.07 162.232 453.486 162.008C453.902 161.784 454.286 161.464 454.638 161.048C455.022 160.632 455.326 160.168 455.55 159.656C455.806 159.112 455.934 158.52 455.934 157.88V153.704ZM472.027 144.248V165.032H468.427V144.248H463.387V141.224H477.067V144.248H472.027ZM484.521 141.224V150.728H487.737C488.409 150.728 489.129 150.792 489.897 150.92C490.697 151.016 491.433 151.256 492.105 151.64C492.777 152.024 493.337 152.584 493.785 153.32C494.233 154.056 494.457 155.048 494.457 156.296V159.176C494.457 161.288 493.833 162.792 492.585 163.688C491.369 164.584 489.753 165.032 487.737 165.032H480.921V141.224H484.521ZM484.521 162.008H487.449C487.833 162.008 488.217 161.96 488.601 161.864C489.017 161.768 489.385 161.608 489.705 161.384C490.057 161.128 490.329 160.808 490.521 160.424C490.745 160.008 490.857 159.496 490.857 158.888V156.92C490.857 155.736 490.489 154.92 489.753 154.472C489.049 153.992 488.281 153.752 487.449 153.752H484.521V162.008ZM503.377 131.432L502.321 156.296H499.729L498.913 131.432H503.377ZM503.089 160.952V165.032H499.009V160.952H503.089Z" fill="white"/>
</svg>
