<svg width="951" height="499" viewBox="0 0 951 499" fill="none" xmlns="http://www.w3.org/2000/svg">
<rect x="3" y="3" width="945" height="493" fill="#003DE3" stroke="white" stroke-width="6"/>
<path d="M208.734 210.256C208.734 209.92 208.678 209.472 208.566 208.912C208.491 208.352 208.286 207.811 207.95 207.288C207.614 206.728 207.147 206.261 206.55 205.888C205.952 205.515 205.15 205.328 204.142 205.328C203.022 205.328 202.144 205.533 201.51 205.944C200.875 206.355 200.39 206.877 200.054 207.512C199.755 208.109 199.55 208.763 199.438 209.472C199.363 210.144 199.326 210.741 199.326 211.264V232.376C199.326 232.712 199.382 233.179 199.494 233.776C199.606 234.336 199.811 234.896 200.11 235.456C200.446 236.016 200.912 236.501 201.51 236.912C202.107 237.285 202.891 237.472 203.862 237.472C204.422 237.472 204.982 237.397 205.542 237.248C206.102 237.099 206.624 236.837 207.11 236.464C207.595 236.053 207.987 235.493 208.286 234.784C208.584 234.037 208.734 233.104 208.734 231.984V230.752H212.99V232.208C212.99 235.008 212.28 237.267 210.862 238.984C209.443 240.701 207.054 241.56 203.694 241.56C201.715 241.56 200.166 241.224 199.046 240.552C197.926 239.843 197.067 239.021 196.47 238.088C195.872 237.155 195.499 236.203 195.35 235.232C195.2 234.261 195.126 233.496 195.126 232.936V209.752C195.126 208.632 195.312 207.568 195.686 206.56C196.059 205.515 196.619 204.6 197.366 203.816C198.112 203.032 199.027 202.416 200.11 201.968C201.23 201.483 202.499 201.24 203.918 201.24C205.15 201.24 206.288 201.408 207.334 201.744C208.416 202.043 209.368 202.528 210.19 203.2C211.011 203.872 211.646 204.749 212.094 205.832C212.579 206.915 212.822 208.24 212.822 209.808V212.328H208.734V210.256ZM218.312 213.224H233.992V241H229.792V216.752H222.512V241H218.312V213.224ZM252.488 238.256H252.432C252.096 238.667 251.742 239.059 251.368 239.432C250.995 239.805 250.566 240.141 250.08 240.44C249.595 240.739 249.035 240.981 248.4 241.168C247.803 241.355 247.056 241.448 246.16 241.448C245.04 241.448 244.107 241.261 243.36 240.888C242.651 240.477 242.072 239.917 241.624 239.208C241.214 238.499 240.915 237.677 240.728 236.744C240.542 235.811 240.448 234.784 240.448 233.664C240.448 232.208 240.579 230.92 240.84 229.8C241.102 228.643 241.55 227.672 242.184 226.888C242.819 226.104 243.64 225.507 244.648 225.096C245.694 224.685 247 224.48 248.568 224.48C248.867 224.48 249.296 224.499 249.856 224.536C250.416 224.536 251.294 224.592 252.488 224.704V220.616C252.488 220.243 252.414 219.832 252.264 219.384C252.115 218.936 251.872 218.525 251.536 218.152C251.238 217.779 250.846 217.48 250.36 217.256C249.875 216.995 249.278 216.864 248.568 216.864C248.195 216.864 247.803 216.92 247.392 217.032C247.019 217.107 246.646 217.275 246.272 217.536C245.936 217.797 245.619 218.152 245.32 218.6C245.059 219.048 244.872 219.608 244.76 220.28H240.728C240.728 219.123 240.934 218.077 241.344 217.144C241.792 216.211 242.371 215.427 243.08 214.792C243.827 214.12 244.686 213.616 245.656 213.28C246.664 212.944 247.728 212.776 248.848 212.776C250.454 212.776 251.76 213.056 252.768 213.616C253.814 214.139 254.616 214.811 255.176 215.632C255.774 216.416 256.166 217.312 256.352 218.32C256.576 219.291 256.688 220.224 256.688 221.12V241H252.488V238.256ZM252.488 227.784C251.891 227.709 251.35 227.653 250.864 227.616C250.379 227.541 249.968 227.504 249.632 227.504C249.035 227.504 248.438 227.597 247.84 227.784C247.243 227.933 246.702 228.232 246.216 228.68C245.768 229.091 245.395 229.651 245.096 230.36C244.798 231.032 244.648 231.872 244.648 232.88C244.648 234.859 244.947 236.184 245.544 236.856C246.142 237.528 247.038 237.864 248.232 237.864C248.68 237.864 249.147 237.733 249.632 237.472C250.118 237.211 250.566 236.837 250.976 236.352C251.424 235.867 251.779 235.325 252.04 234.728C252.339 234.093 252.488 233.403 252.488 232.656V227.784ZM275.464 232.488H279.664V233.608C279.664 234.28 279.533 235.083 279.272 236.016C279.048 236.912 278.618 237.771 277.984 238.592C277.386 239.376 276.565 240.048 275.52 240.608C274.474 241.168 273.149 241.448 271.544 241.448C269.789 241.448 268.389 241.149 267.344 240.552C266.298 239.917 265.477 239.171 264.88 238.312C264.282 237.453 263.89 236.576 263.704 235.68C263.517 234.747 263.424 233.981 263.424 233.384V220.784C263.424 220.224 263.517 219.496 263.704 218.6C263.89 217.667 264.282 216.771 264.88 215.912C265.477 215.053 266.298 214.325 267.344 213.728C268.389 213.093 269.789 212.776 271.544 212.776C273.186 212.776 274.53 213.056 275.576 213.616C276.658 214.176 277.498 214.867 278.096 215.688C278.693 216.509 279.104 217.368 279.328 218.264C279.552 219.123 279.664 219.888 279.664 220.56V221.792H275.464V221.4C275.464 219.832 275.072 218.693 274.288 217.984C273.541 217.237 272.626 216.864 271.544 216.864C270.461 216.864 269.528 217.237 268.744 217.984C267.997 218.693 267.624 219.832 267.624 221.4V232.824C267.624 235.848 268.93 237.36 271.544 237.36C272.776 237.36 273.728 236.987 274.4 236.24C275.109 235.493 275.464 234.355 275.464 232.824V232.488ZM289.34 213.224V231.648L298.132 216.64V213.224H302.332V241H298.132V223.08L289.34 238.088V241H285.14V213.224H289.34ZM309.257 217.76C309.257 216.379 309.332 214.979 309.481 213.56C309.668 212.104 310.134 210.816 310.881 209.696C311.516 208.725 312.206 207.979 312.953 207.456C313.737 206.933 314.521 206.523 315.305 206.224C315.79 206.037 316.276 205.869 316.761 205.72C317.284 205.533 317.75 205.365 318.161 205.216C320.102 204.544 321.073 203.555 321.073 202.248V201.8H324.769V202.528C324.769 203.013 324.75 203.555 324.713 204.152C324.676 204.712 324.545 205.216 324.321 205.664C323.91 206.411 323.332 206.971 322.585 207.344C321.876 207.68 320.998 208.016 319.953 208.352L317.153 209.304C316.63 209.491 316.052 209.752 315.417 210.088C314.82 210.387 314.297 210.835 313.849 211.432C313.438 211.992 313.121 212.645 312.897 213.392C312.71 214.139 312.617 214.829 312.617 215.464V216.864H312.785C313.308 215.893 314.073 215.053 315.081 214.344C316.126 213.597 317.545 213.224 319.337 213.224C320.27 213.224 321.092 213.373 321.801 213.672C322.51 213.971 323.07 214.325 323.481 214.736C324.004 215.221 324.433 215.837 324.769 216.584C325.105 217.293 325.273 218.115 325.273 219.048V232.488C325.273 233.011 325.254 233.589 325.217 234.224C325.18 234.821 325.068 235.437 324.881 236.072C324.732 236.707 324.47 237.341 324.097 237.976C323.761 238.573 323.294 239.115 322.697 239.6C321.95 240.235 321.092 240.701 320.121 241C319.188 241.299 318.236 241.448 317.265 241.448C316.294 241.448 315.324 241.299 314.353 241C313.42 240.739 312.58 240.291 311.833 239.656C311.236 239.171 310.75 238.629 310.377 238.032C310.041 237.397 309.78 236.763 309.593 236.128C309.444 235.456 309.35 234.821 309.313 234.224C309.276 233.589 309.257 233.011 309.257 232.488V217.76ZM321.073 221.4C321.073 220.653 320.961 219.981 320.737 219.384C320.513 218.787 320.252 218.32 319.953 217.984C319.206 217.237 318.31 216.864 317.265 216.864C316.742 216.864 316.238 216.976 315.753 217.2C315.305 217.424 314.913 217.704 314.577 218.04C314.278 218.376 314.017 218.88 313.793 219.552C313.569 220.187 313.457 220.877 313.457 221.624V232.824C313.457 233.608 313.569 234.299 313.793 234.896C314.017 235.493 314.278 235.979 314.577 236.352C314.876 236.651 315.249 236.893 315.697 237.08C316.182 237.267 316.705 237.36 317.265 237.36C317.825 237.36 318.329 237.267 318.777 237.08C319.262 236.893 319.654 236.651 319.953 236.352C320.252 235.979 320.513 235.493 320.737 234.896C320.961 234.299 321.073 233.608 321.073 232.824V221.4ZM331.783 220.616C331.783 220.093 331.876 219.403 332.063 218.544C332.25 217.648 332.623 216.771 333.183 215.912C333.78 215.053 334.602 214.325 335.647 213.728C336.692 213.093 338.074 212.776 339.791 212.776C341.508 212.776 342.89 213.093 343.935 213.728C344.98 214.325 345.783 215.053 346.343 215.912C346.94 216.771 347.332 217.648 347.519 218.544C347.706 219.403 347.799 220.075 347.799 220.56V233.496C347.799 234.056 347.706 234.784 347.519 235.68C347.332 236.576 346.94 237.453 346.343 238.312C345.783 239.171 344.98 239.917 343.935 240.552C342.89 241.149 341.508 241.448 339.791 241.448C338.074 241.448 336.692 241.149 335.647 240.552C334.602 239.917 333.78 239.171 333.183 238.312C332.623 237.453 332.25 236.576 332.063 235.68C331.876 234.784 331.783 234.056 331.783 233.496V220.616ZM343.599 221.4C343.599 219.832 343.226 218.693 342.479 217.984C341.732 217.237 340.836 216.864 339.791 216.864C338.746 216.864 337.85 217.237 337.103 217.984C336.356 218.693 335.983 219.832 335.983 221.4V232.824C335.983 234.28 336.3 235.4 336.935 236.184C337.607 236.968 338.559 237.36 339.791 237.36C340.986 237.36 341.919 236.987 342.591 236.24C343.263 235.493 343.599 234.355 343.599 232.824V221.4ZM359.242 236.24V241.504L354.426 245.816V236.24H359.242ZM389.887 229.296C388.916 229.781 387.945 230.099 386.975 230.248C386.004 230.36 385.108 230.416 384.287 230.416C382.42 230.416 380.964 229.949 379.919 229.016C378.873 228.083 378.351 226.44 378.351 224.088V213.224H382.551V223.192C382.551 225.619 383.764 226.832 386.191 226.832C386.937 226.832 387.609 226.739 388.207 226.552C388.804 226.328 389.364 226.067 389.887 225.768V213.224H394.087V241H389.887V229.296ZM408.639 216.752V241H404.439V216.752H398.559V213.224H414.519V216.752H408.639ZM418.791 220.616C418.791 220.093 418.884 219.403 419.071 218.544C419.258 217.648 419.631 216.771 420.191 215.912C420.788 215.053 421.61 214.325 422.655 213.728C423.7 213.093 425.082 212.776 426.799 212.776C428.516 212.776 429.898 213.093 430.943 213.728C431.988 214.325 432.791 215.053 433.351 215.912C433.948 216.771 434.34 217.648 434.527 218.544C434.714 219.403 434.807 220.075 434.807 220.56V233.496C434.807 234.056 434.714 234.784 434.527 235.68C434.34 236.576 433.948 237.453 433.351 238.312C432.791 239.171 431.988 239.917 430.943 240.552C429.898 241.149 428.516 241.448 426.799 241.448C425.082 241.448 423.7 241.149 422.655 240.552C421.61 239.917 420.788 239.171 420.191 238.312C419.631 237.453 419.258 236.576 419.071 235.68C418.884 234.784 418.791 234.056 418.791 233.496V220.616ZM430.607 221.4C430.607 219.832 430.234 218.693 429.487 217.984C428.74 217.237 427.844 216.864 426.799 216.864C425.754 216.864 424.858 217.237 424.111 217.984C423.364 218.693 422.991 219.832 422.991 221.4V232.824C422.991 234.28 423.308 235.4 423.943 236.184C424.615 236.968 425.567 237.36 426.799 237.36C427.994 237.36 428.927 236.987 429.599 236.24C430.271 235.493 430.607 234.355 430.607 232.824V221.4ZM454.617 213.224H470.297V241H466.097V216.752H458.817V241H454.617V213.224ZM477.033 220.616C477.033 220.093 477.126 219.403 477.313 218.544C477.5 217.648 477.873 216.771 478.433 215.912C479.03 215.053 479.852 214.325 480.897 213.728C481.942 213.093 483.324 212.776 485.041 212.776C486.758 212.776 488.14 213.093 489.185 213.728C490.23 214.325 491.033 215.053 491.593 215.912C492.19 216.771 492.582 217.648 492.769 218.544C492.956 219.403 493.049 220.075 493.049 220.56V233.496C493.049 234.056 492.956 234.784 492.769 235.68C492.582 236.576 492.19 237.453 491.593 238.312C491.033 239.171 490.23 239.917 489.185 240.552C488.14 241.149 486.758 241.448 485.041 241.448C483.324 241.448 481.942 241.149 480.897 240.552C479.852 239.917 479.03 239.171 478.433 238.312C477.873 237.453 477.5 236.576 477.313 235.68C477.126 234.784 477.033 234.056 477.033 233.496V220.616ZM488.849 221.4C488.849 219.832 488.476 218.693 487.729 217.984C486.982 217.237 486.086 216.864 485.041 216.864C483.996 216.864 483.1 217.237 482.353 217.984C481.606 218.693 481.233 219.832 481.233 221.4V232.824C481.233 234.28 481.55 235.4 482.185 236.184C482.857 236.968 483.809 237.36 485.041 237.36C486.236 237.36 487.169 236.987 487.841 236.24C488.513 235.493 488.849 234.355 488.849 232.824V221.4ZM510.428 230.36L516.924 213.224H520.956V241H516.98V222.632L511.324 237.024H509.42L503.764 222.632V241H499.788V213.224H503.764L510.428 230.36ZM527.674 220.616C527.674 220.093 527.767 219.403 527.954 218.544C528.14 217.648 528.514 216.771 529.074 215.912C529.671 215.053 530.492 214.325 531.538 213.728C532.583 213.093 533.964 212.776 535.682 212.776C537.399 212.776 538.78 213.093 539.826 213.728C540.871 214.325 541.674 215.053 542.234 215.912C542.831 216.771 543.223 217.648 543.41 218.544C543.596 219.403 543.69 220.075 543.69 220.56V233.496C543.69 234.056 543.596 234.784 543.41 235.68C543.223 236.576 542.831 237.453 542.234 238.312C541.674 239.171 540.871 239.917 539.826 240.552C538.78 241.149 537.399 241.448 535.682 241.448C533.964 241.448 532.583 241.149 531.538 240.552C530.492 239.917 529.671 239.171 529.074 238.312C528.514 237.453 528.14 236.576 527.954 235.68C527.767 234.784 527.674 234.056 527.674 233.496V220.616ZM539.49 221.4C539.49 219.832 539.116 218.693 538.37 217.984C537.623 217.237 536.727 216.864 535.682 216.864C534.636 216.864 533.74 217.237 532.994 217.984C532.247 218.693 531.874 219.832 531.874 221.4V232.824C531.874 234.28 532.191 235.4 532.826 236.184C533.498 236.968 534.45 237.36 535.682 237.36C536.876 237.36 537.81 236.987 538.482 236.24C539.154 235.493 539.49 234.355 539.49 232.824V221.4ZM550.429 213.224H563.421V216.752H554.629V241H550.429V213.224ZM581.054 217.76C581.054 216.379 581.129 214.979 581.278 213.56C581.465 212.104 581.931 210.816 582.678 209.696C583.313 208.725 584.003 207.979 584.75 207.456C585.534 206.933 586.318 206.523 587.102 206.224C587.587 206.037 588.073 205.869 588.558 205.72C589.081 205.533 589.547 205.365 589.958 205.216C591.899 204.544 592.87 203.555 592.87 202.248V201.8H596.566V202.528C596.566 203.013 596.547 203.555 596.51 204.152C596.473 204.712 596.342 205.216 596.118 205.664C595.707 206.411 595.129 206.971 594.382 207.344C593.673 207.68 592.795 208.016 591.75 208.352L588.95 209.304C588.427 209.491 587.849 209.752 587.214 210.088C586.617 210.387 586.094 210.835 585.646 211.432C585.235 211.992 584.918 212.645 584.694 213.392C584.507 214.139 584.414 214.829 584.414 215.464V216.864H584.582C585.105 215.893 585.87 215.053 586.878 214.344C587.923 213.597 589.342 213.224 591.134 213.224C592.067 213.224 592.889 213.373 593.598 213.672C594.307 213.971 594.867 214.325 595.278 214.736C595.801 215.221 596.23 215.837 596.566 216.584C596.902 217.293 597.07 218.115 597.07 219.048V232.488C597.07 233.011 597.051 233.589 597.014 234.224C596.977 234.821 596.865 235.437 596.678 236.072C596.529 236.707 596.267 237.341 595.894 237.976C595.558 238.573 595.091 239.115 594.494 239.6C593.747 240.235 592.889 240.701 591.918 241C590.985 241.299 590.033 241.448 589.062 241.448C588.091 241.448 587.121 241.299 586.15 241C585.217 240.739 584.377 240.291 583.63 239.656C583.033 239.171 582.547 238.629 582.174 238.032C581.838 237.397 581.577 236.763 581.39 236.128C581.241 235.456 581.147 234.821 581.11 234.224C581.073 233.589 581.054 233.011 581.054 232.488V217.76ZM592.87 221.4C592.87 220.653 592.758 219.981 592.534 219.384C592.31 218.787 592.049 218.32 591.75 217.984C591.003 217.237 590.107 216.864 589.062 216.864C588.539 216.864 588.035 216.976 587.55 217.2C587.102 217.424 586.71 217.704 586.374 218.04C586.075 218.376 585.814 218.88 585.59 219.552C585.366 220.187 585.254 220.877 585.254 221.624V232.824C585.254 233.608 585.366 234.299 585.59 234.896C585.814 235.493 586.075 235.979 586.374 236.352C586.673 236.651 587.046 236.893 587.494 237.08C587.979 237.267 588.502 237.36 589.062 237.36C589.622 237.36 590.126 237.267 590.574 237.08C591.059 236.893 591.451 236.651 591.75 236.352C592.049 235.979 592.31 235.493 592.534 234.896C592.758 234.299 592.87 233.608 592.87 232.824V221.4ZM615.34 238.256H615.284C614.948 238.667 614.593 239.059 614.22 239.432C613.847 239.805 613.417 240.141 612.932 240.44C612.447 240.739 611.887 240.981 611.252 241.168C610.655 241.355 609.908 241.448 609.012 241.448C607.892 241.448 606.959 241.261 606.212 240.888C605.503 240.477 604.924 239.917 604.476 239.208C604.065 238.499 603.767 237.677 603.58 236.744C603.393 235.811 603.3 234.784 603.3 233.664C603.3 232.208 603.431 230.92 603.692 229.8C603.953 228.643 604.401 227.672 605.036 226.888C605.671 226.104 606.492 225.507 607.5 225.096C608.545 224.685 609.852 224.48 611.42 224.48C611.719 224.48 612.148 224.499 612.708 224.536C613.268 224.536 614.145 224.592 615.34 224.704V220.616C615.34 220.243 615.265 219.832 615.116 219.384C614.967 218.936 614.724 218.525 614.388 218.152C614.089 217.779 613.697 217.48 613.212 217.256C612.727 216.995 612.129 216.864 611.42 216.864C611.047 216.864 610.655 216.92 610.244 217.032C609.871 217.107 609.497 217.275 609.124 217.536C608.788 217.797 608.471 218.152 608.172 218.6C607.911 219.048 607.724 219.608 607.612 220.28H603.58C603.58 219.123 603.785 218.077 604.196 217.144C604.644 216.211 605.223 215.427 605.932 214.792C606.679 214.12 607.537 213.616 608.508 213.28C609.516 212.944 610.58 212.776 611.7 212.776C613.305 212.776 614.612 213.056 615.62 213.616C616.665 214.139 617.468 214.811 618.028 215.632C618.625 216.416 619.017 217.312 619.204 218.32C619.428 219.291 619.54 220.224 619.54 221.12V241H615.34V238.256ZM615.34 227.784C614.743 227.709 614.201 227.653 613.716 227.616C613.231 227.541 612.82 227.504 612.484 227.504C611.887 227.504 611.289 227.597 610.692 227.784C610.095 227.933 609.553 228.232 609.068 228.68C608.62 229.091 608.247 229.651 607.948 230.36C607.649 231.032 607.5 231.872 607.5 232.88C607.5 234.859 607.799 236.184 608.396 236.856C608.993 237.528 609.889 237.864 611.084 237.864C611.532 237.864 611.999 237.733 612.484 237.472C612.969 237.211 613.417 236.837 613.828 236.352C614.276 235.867 614.631 235.325 614.892 234.728C615.191 234.093 615.34 233.403 615.34 232.656V227.784ZM642.347 241H638.147V216.752H632.827L632.715 220C632.715 220.485 632.697 221.232 632.659 222.24C632.622 223.248 632.566 224.368 632.491 225.6C632.417 226.795 632.323 228.027 632.211 229.296C632.137 230.528 632.025 231.648 631.875 232.656C631.689 233.851 631.427 234.952 631.091 235.96C630.793 236.968 630.345 237.845 629.747 238.592C629.15 239.339 628.403 239.936 627.507 240.384C626.611 240.795 625.491 241 624.147 241H623.475V237.528H623.979C624.875 237.528 625.603 237.267 626.163 236.744C626.723 236.221 627.153 235.531 627.451 234.672C627.787 233.776 628.011 232.787 628.123 231.704C628.273 230.584 628.403 229.464 628.515 228.344C628.553 227.784 628.59 227.112 628.627 226.328C628.665 225.507 628.683 224.685 628.683 223.864C628.721 223.043 628.758 222.277 628.795 221.568C628.833 220.821 628.851 220.243 628.851 219.832L629.019 213.224H642.347V241ZM660.728 233.216H664.928V233.608C664.928 234.28 664.816 235.083 664.592 236.016C664.405 236.912 664.032 237.771 663.472 238.592C662.912 239.376 662.128 240.048 661.12 240.608C660.112 241.168 658.805 241.448 657.2 241.448C655.445 241.448 654.045 241.149 653 240.552C651.955 239.917 651.133 239.171 650.536 238.312C649.939 237.453 649.547 236.576 649.36 235.68C649.173 234.747 649.08 233.981 649.08 233.384V220.504C649.08 219.944 649.173 219.235 649.36 218.376C649.547 217.517 649.92 216.677 650.48 215.856C651.04 214.997 651.824 214.269 652.832 213.672C653.877 213.075 655.24 212.776 656.92 212.776C658.563 212.776 659.907 213.075 660.952 213.672C662.035 214.269 662.875 214.997 663.472 215.856C664.069 216.677 664.48 217.555 664.704 218.488C664.928 219.384 665.04 220.131 665.04 220.728V228.68H653.28V233.104C653.28 234.597 653.597 235.68 654.232 236.352C654.904 237.024 655.893 237.36 657.2 237.36C658.432 237.36 659.328 237.024 659.888 236.352C660.448 235.643 660.728 234.709 660.728 233.552V233.216ZM660.84 225.544V220.784C660.84 220.336 660.784 219.888 660.672 219.44C660.56 218.955 660.355 218.525 660.056 218.152C659.757 217.779 659.365 217.48 658.88 217.256C658.395 216.995 657.797 216.864 657.088 216.864C656.341 216.864 655.725 216.995 655.24 217.256C654.755 217.517 654.363 217.853 654.064 218.264C653.765 218.675 653.56 219.123 653.448 219.608C653.336 220.093 653.28 220.56 653.28 221.008V225.544H660.84ZM671.562 213.224H675.762V215.968C676.658 214.773 677.629 213.952 678.674 213.504C679.757 213.019 680.783 212.776 681.754 212.776C682.986 212.776 683.975 212.981 684.722 213.392C685.506 213.803 686.103 214.344 686.514 215.016C686.925 215.651 687.205 216.341 687.354 217.088C687.503 217.835 687.578 218.544 687.578 219.216V235.008C687.578 235.68 687.503 236.389 687.354 237.136C687.205 237.883 686.925 238.592 686.514 239.264C686.103 239.899 685.506 240.421 684.722 240.832C683.975 241.243 682.986 241.448 681.754 241.448C680.783 241.448 679.757 241.224 678.674 240.776C677.629 240.291 676.658 239.451 675.762 238.256V252.424H671.562V213.224ZM679.85 237.36C680.522 237.36 681.082 237.248 681.53 237.024C681.978 236.763 682.333 236.427 682.594 236.016C682.893 235.605 683.098 235.139 683.21 234.616C683.322 234.093 683.378 233.571 683.378 233.048V221.176C683.378 220.653 683.322 220.131 683.21 219.608C683.098 219.085 682.893 218.619 682.594 218.208C682.333 217.797 681.978 217.48 681.53 217.256C681.082 216.995 680.522 216.864 679.85 216.864C678.991 216.864 678.301 217.051 677.778 217.424C677.255 217.797 676.845 218.245 676.546 218.768C676.247 219.291 676.042 219.851 675.93 220.448C675.818 221.008 675.762 221.512 675.762 221.96V232.264C675.762 232.712 675.818 233.235 675.93 233.832C676.042 234.392 676.247 234.933 676.546 235.456C676.845 235.979 677.255 236.427 677.778 236.8C678.301 237.173 678.991 237.36 679.85 237.36ZM698.731 213.224V231.648L707.523 216.64V213.224H711.723V241H707.523V223.08L698.731 238.088V241H694.531V213.224H698.731ZM718.648 213.224H722.848V225.096H730.464V213.224H734.664V241H730.464V228.68H722.848V241H718.648V213.224ZM753.041 233.216H757.241V233.608C757.241 234.28 757.129 235.083 756.905 236.016C756.718 236.912 756.345 237.771 755.785 238.592C755.225 239.376 754.441 240.048 753.433 240.608C752.425 241.168 751.118 241.448 749.513 241.448C747.758 241.448 746.358 241.149 745.313 240.552C744.267 239.917 743.446 239.171 742.849 238.312C742.251 237.453 741.859 236.576 741.673 235.68C741.486 234.747 741.393 233.981 741.393 233.384V220.504C741.393 219.944 741.486 219.235 741.673 218.376C741.859 217.517 742.233 216.677 742.793 215.856C743.353 214.997 744.137 214.269 745.145 213.672C746.19 213.075 747.553 212.776 749.233 212.776C750.875 212.776 752.219 213.075 753.265 213.672C754.347 214.269 755.187 214.997 755.785 215.856C756.382 216.677 756.793 217.555 757.017 218.488C757.241 219.384 757.353 220.131 757.353 220.728V228.68H745.593V233.104C745.593 234.597 745.91 235.68 746.545 236.352C747.217 237.024 748.206 237.36 749.513 237.36C750.745 237.36 751.641 237.024 752.201 236.352C752.761 235.643 753.041 234.709 753.041 233.552V233.216ZM753.153 225.544V220.784C753.153 220.336 753.097 219.888 752.985 219.44C752.873 218.955 752.667 218.525 752.369 218.152C752.07 217.779 751.678 217.48 751.193 217.256C750.707 216.995 750.11 216.864 749.401 216.864C748.654 216.864 748.038 216.995 747.553 217.256C747.067 217.517 746.675 217.853 746.377 218.264C746.078 218.675 745.873 219.123 745.761 219.608C745.649 220.093 745.593 220.56 745.593 221.008V225.544H753.153ZM213.421 299.488H217.621V300.608C217.621 301.28 217.49 302.083 217.229 303.016C217.005 303.912 216.575 304.771 215.941 305.592C215.343 306.376 214.522 307.048 213.477 307.608C212.431 308.168 211.106 308.448 209.501 308.448C207.746 308.448 206.346 308.149 205.301 307.552C204.255 306.917 203.434 306.171 202.837 305.312C202.239 304.453 201.847 303.576 201.661 302.68C201.474 301.747 201.381 300.981 201.381 300.384V287.784C201.381 287.224 201.474 286.496 201.661 285.6C201.847 284.667 202.239 283.771 202.837 282.912C203.434 282.053 204.255 281.325 205.301 280.728C206.346 280.093 207.746 279.776 209.501 279.776C211.143 279.776 212.487 280.056 213.533 280.616C214.615 281.176 215.455 281.867 216.053 282.688C216.65 283.509 217.061 284.368 217.285 285.264C217.509 286.123 217.621 286.888 217.621 287.56V288.792H213.421V288.4C213.421 286.832 213.029 285.693 212.245 284.984C211.498 284.237 210.583 283.864 209.501 283.864C208.418 283.864 207.485 284.237 206.701 284.984C205.954 285.693 205.581 286.832 205.581 288.4V299.824C205.581 302.848 206.887 304.36 209.501 304.36C210.733 304.36 211.685 303.987 212.357 303.24C213.066 302.493 213.421 301.355 213.421 299.824V299.488ZM230.713 283.752V308H226.513V283.752H220.633V280.224H236.593V283.752H230.713ZM251.805 305.256H251.749C251.413 305.667 251.058 306.059 250.685 306.432C250.312 306.805 249.882 307.141 249.397 307.44C248.912 307.739 248.352 307.981 247.717 308.168C247.12 308.355 246.373 308.448 245.477 308.448C244.357 308.448 243.424 308.261 242.677 307.888C241.968 307.477 241.389 306.917 240.941 306.208C240.53 305.499 240.232 304.677 240.045 303.744C239.858 302.811 239.765 301.784 239.765 300.664C239.765 299.208 239.896 297.92 240.157 296.8C240.418 295.643 240.866 294.672 241.501 293.888C242.136 293.104 242.957 292.507 243.965 292.096C245.01 291.685 246.317 291.48 247.885 291.48C248.184 291.48 248.613 291.499 249.173 291.536C249.733 291.536 250.61 291.592 251.805 291.704V287.616C251.805 287.243 251.73 286.832 251.581 286.384C251.432 285.936 251.189 285.525 250.853 285.152C250.554 284.779 250.162 284.48 249.677 284.256C249.192 283.995 248.594 283.864 247.885 283.864C247.512 283.864 247.12 283.92 246.709 284.032C246.336 284.107 245.962 284.275 245.589 284.536C245.253 284.797 244.936 285.152 244.637 285.6C244.376 286.048 244.189 286.608 244.077 287.28H240.045C240.045 286.123 240.25 285.077 240.661 284.144C241.109 283.211 241.688 282.427 242.397 281.792C243.144 281.12 244.002 280.616 244.973 280.28C245.981 279.944 247.045 279.776 248.165 279.776C249.77 279.776 251.077 280.056 252.085 280.616C253.13 281.139 253.933 281.811 254.493 282.632C255.09 283.416 255.482 284.312 255.669 285.32C255.893 286.291 256.005 287.224 256.005 288.12V308H251.805V305.256ZM251.805 294.784C251.208 294.709 250.666 294.653 250.181 294.616C249.696 294.541 249.285 294.504 248.949 294.504C248.352 294.504 247.754 294.597 247.157 294.784C246.56 294.933 246.018 295.232 245.533 295.68C245.085 296.091 244.712 296.651 244.413 297.36C244.114 298.032 243.965 298.872 243.965 299.88C243.965 301.859 244.264 303.184 244.861 303.856C245.458 304.528 246.354 304.864 247.549 304.864C247.997 304.864 248.464 304.733 248.949 304.472C249.434 304.211 249.882 303.837 250.293 303.352C250.741 302.867 251.096 302.325 251.357 301.728C251.656 301.093 251.805 300.403 251.805 299.656V294.784ZM270.58 283.752V308H266.38V283.752H260.5V280.224H276.46V283.752H270.58ZM285.156 280.224V291.312H288.908C289.692 291.312 290.532 291.387 291.428 291.536C292.362 291.648 293.22 291.928 294.004 292.376C294.788 292.824 295.442 293.477 295.964 294.336C296.487 295.195 296.748 296.352 296.748 297.808V301.168C296.748 303.632 296.02 305.387 294.564 306.432C293.146 307.477 291.26 308 288.908 308H280.956V280.224H285.156ZM285.156 304.472H288.572C289.02 304.472 289.468 304.416 289.916 304.304C290.402 304.192 290.831 304.005 291.204 303.744C291.615 303.445 291.932 303.072 292.156 302.624C292.418 302.139 292.548 301.541 292.548 300.832V298.536C292.548 297.155 292.119 296.203 291.26 295.68C290.439 295.12 289.543 294.84 288.572 294.84H285.156V304.472ZM315.41 280.224H319.61V292.096H327.226V280.224H331.426V308H327.226V295.68H319.61V308H315.41V280.224ZM349.914 305.256H349.858C349.522 305.667 349.168 306.059 348.794 306.432C348.421 306.805 347.992 307.141 347.506 307.44C347.021 307.739 346.461 307.981 345.826 308.168C345.229 308.355 344.482 308.448 343.586 308.448C342.466 308.448 341.533 308.261 340.786 307.888C340.077 307.477 339.498 306.917 339.05 306.208C338.64 305.499 338.341 304.677 338.154 303.744C337.968 302.811 337.874 301.784 337.874 300.664C337.874 299.208 338.005 297.92 338.266 296.8C338.528 295.643 338.976 294.672 339.61 293.888C340.245 293.104 341.066 292.507 342.074 292.096C343.12 291.685 344.426 291.48 345.994 291.48C346.293 291.48 346.722 291.499 347.282 291.536C347.842 291.536 348.72 291.592 349.914 291.704V287.616C349.914 287.243 349.84 286.832 349.69 286.384C349.541 285.936 349.298 285.525 348.962 285.152C348.664 284.779 348.272 284.48 347.786 284.256C347.301 283.995 346.704 283.864 345.994 283.864C345.621 283.864 345.229 283.92 344.818 284.032C344.445 284.107 344.072 284.275 343.698 284.536C343.362 284.797 343.045 285.152 342.746 285.6C342.485 286.048 342.298 286.608 342.186 287.28H338.154C338.154 286.123 338.36 285.077 338.77 284.144C339.218 283.211 339.797 282.427 340.506 281.792C341.253 281.12 342.112 280.616 343.082 280.28C344.09 279.944 345.154 279.776 346.274 279.776C347.88 279.776 349.186 280.056 350.194 280.616C351.24 281.139 352.042 281.811 352.602 282.632C353.2 283.416 353.592 284.312 353.778 285.32C354.002 286.291 354.114 287.224 354.114 288.12V308H349.914V305.256ZM349.914 294.784C349.317 294.709 348.776 294.653 348.29 294.616C347.805 294.541 347.394 294.504 347.058 294.504C346.461 294.504 345.864 294.597 345.266 294.784C344.669 294.933 344.128 295.232 343.642 295.68C343.194 296.091 342.821 296.651 342.522 297.36C342.224 298.032 342.074 298.872 342.074 299.88C342.074 301.859 342.373 303.184 342.97 303.856C343.568 304.528 344.464 304.864 345.658 304.864C346.106 304.864 346.573 304.733 347.058 304.472C347.544 304.211 347.992 303.837 348.402 303.352C348.85 302.867 349.205 302.325 349.466 301.728C349.765 301.093 349.914 300.403 349.914 299.656V294.784ZM378.344 280.224V304.472H385.288V280.224H389.488V304.472H396.432V280.224H400.632V308H374.144V280.224H378.344ZM419.094 305.256H419.038C418.702 305.667 418.347 306.059 417.974 306.432C417.601 306.805 417.171 307.141 416.686 307.44C416.201 307.739 415.641 307.981 415.006 308.168C414.409 308.355 413.662 308.448 412.766 308.448C411.646 308.448 410.713 308.261 409.966 307.888C409.257 307.477 408.678 306.917 408.23 306.208C407.819 305.499 407.521 304.677 407.334 303.744C407.147 302.811 407.054 301.784 407.054 300.664C407.054 299.208 407.185 297.92 407.446 296.8C407.707 295.643 408.155 294.672 408.79 293.888C409.425 293.104 410.246 292.507 411.254 292.096C412.299 291.685 413.606 291.48 415.174 291.48C415.473 291.48 415.902 291.499 416.462 291.536C417.022 291.536 417.899 291.592 419.094 291.704V287.616C419.094 287.243 419.019 286.832 418.87 286.384C418.721 285.936 418.478 285.525 418.142 285.152C417.843 284.779 417.451 284.48 416.966 284.256C416.481 283.995 415.883 283.864 415.174 283.864C414.801 283.864 414.409 283.92 413.998 284.032C413.625 284.107 413.251 284.275 412.878 284.536C412.542 284.797 412.225 285.152 411.926 285.6C411.665 286.048 411.478 286.608 411.366 287.28H407.334C407.334 286.123 407.539 285.077 407.95 284.144C408.398 283.211 408.977 282.427 409.686 281.792C410.433 281.12 411.291 280.616 412.262 280.28C413.27 279.944 414.334 279.776 415.454 279.776C417.059 279.776 418.366 280.056 419.374 280.616C420.419 281.139 421.222 281.811 421.782 282.632C422.379 283.416 422.771 284.312 422.958 285.32C423.182 286.291 423.294 287.224 423.294 288.12V308H419.094V305.256ZM419.094 294.784C418.497 294.709 417.955 294.653 417.47 294.616C416.985 294.541 416.574 294.504 416.238 294.504C415.641 294.504 415.043 294.597 414.446 294.784C413.849 294.933 413.307 295.232 412.822 295.68C412.374 296.091 412.001 296.651 411.702 297.36C411.403 298.032 411.254 298.872 411.254 299.88C411.254 301.859 411.553 303.184 412.15 303.856C412.747 304.528 413.643 304.864 414.838 304.864C415.286 304.864 415.753 304.733 416.238 304.472C416.723 304.211 417.171 303.837 417.582 303.352C418.03 302.867 418.385 302.325 418.646 301.728C418.945 301.093 419.094 300.403 419.094 299.656V294.784ZM430.253 280.224H443.245V283.752H434.453V308H430.253V280.224ZM460.878 284.76C460.878 283.379 460.953 281.979 461.102 280.56C461.289 279.104 461.756 277.816 462.502 276.696C463.137 275.725 463.828 274.979 464.574 274.456C465.358 273.933 466.142 273.523 466.926 273.224C467.412 273.037 467.897 272.869 468.382 272.72C468.905 272.533 469.372 272.365 469.782 272.216C471.724 271.544 472.694 270.555 472.694 269.248V268.8H476.39V269.528C476.39 270.013 476.372 270.555 476.334 271.152C476.297 271.712 476.166 272.216 475.942 272.664C475.532 273.411 474.953 273.971 474.206 274.344C473.497 274.68 472.62 275.016 471.574 275.352L468.774 276.304C468.252 276.491 467.673 276.752 467.038 277.088C466.441 277.387 465.918 277.835 465.47 278.432C465.06 278.992 464.742 279.645 464.518 280.392C464.332 281.139 464.238 281.829 464.238 282.464V283.864H464.406C464.929 282.893 465.694 282.053 466.702 281.344C467.748 280.597 469.166 280.224 470.958 280.224C471.892 280.224 472.713 280.373 473.422 280.672C474.132 280.971 474.692 281.325 475.102 281.736C475.625 282.221 476.054 282.837 476.39 283.584C476.726 284.293 476.894 285.115 476.894 286.048V299.488C476.894 300.011 476.876 300.589 476.838 301.224C476.801 301.821 476.689 302.437 476.502 303.072C476.353 303.707 476.092 304.341 475.718 304.976C475.382 305.573 474.916 306.115 474.318 306.6C473.572 307.235 472.713 307.701 471.742 308C470.809 308.299 469.857 308.448 468.886 308.448C467.916 308.448 466.945 308.299 465.974 308C465.041 307.739 464.201 307.291 463.454 306.656C462.857 306.171 462.372 305.629 461.998 305.032C461.662 304.397 461.401 303.763 461.214 303.128C461.065 302.456 460.972 301.821 460.934 301.224C460.897 300.589 460.878 300.011 460.878 299.488V284.76ZM472.694 288.4C472.694 287.653 472.582 286.981 472.358 286.384C472.134 285.787 471.873 285.32 471.574 284.984C470.828 284.237 469.932 283.864 468.886 283.864C468.364 283.864 467.86 283.976 467.374 284.2C466.926 284.424 466.534 284.704 466.198 285.04C465.9 285.376 465.638 285.88 465.414 286.552C465.19 287.187 465.078 287.877 465.078 288.624V299.824C465.078 300.608 465.19 301.299 465.414 301.896C465.638 302.493 465.9 302.979 466.198 303.352C466.497 303.651 466.87 303.893 467.318 304.08C467.804 304.267 468.326 304.36 468.886 304.36C469.446 304.36 469.95 304.267 470.398 304.08C470.884 303.893 471.276 303.651 471.574 303.352C471.873 302.979 472.134 302.493 472.358 301.896C472.582 301.299 472.694 300.608 472.694 299.824V288.4ZM499.476 308H495.276V283.752H489.956L489.844 287C489.844 287.485 489.826 288.232 489.788 289.24C489.751 290.248 489.695 291.368 489.62 292.6C489.546 293.795 489.452 295.027 489.34 296.296C489.266 297.528 489.154 298.648 489.004 299.656C488.818 300.851 488.556 301.952 488.22 302.96C487.922 303.968 487.474 304.845 486.876 305.592C486.279 306.339 485.532 306.936 484.636 307.384C483.74 307.795 482.62 308 481.276 308H480.604V304.528H481.108C482.004 304.528 482.732 304.267 483.292 303.744C483.852 303.221 484.282 302.531 484.58 301.672C484.916 300.776 485.14 299.787 485.252 298.704C485.402 297.584 485.532 296.464 485.644 295.344C485.682 294.784 485.719 294.112 485.756 293.328C485.794 292.507 485.812 291.685 485.812 290.864C485.85 290.043 485.887 289.277 485.924 288.568C485.962 287.821 485.98 287.243 485.98 286.832L486.148 280.224H499.476V308ZM510.633 280.224V298.648L519.425 283.64V280.224H523.625V308H519.425V290.08L510.633 305.088V308H506.433V280.224H510.633ZM541.19 292.152V280.224H545.39V292.152H547.854C548.526 292.152 549.067 292.003 549.478 291.704C549.889 291.368 550.206 290.957 550.43 290.472C550.691 289.987 550.859 289.464 550.934 288.904C551.046 288.307 551.139 287.747 551.214 287.224L551.55 284.76C551.662 284.051 551.811 283.397 551.998 282.8C552.185 282.203 552.465 281.699 552.838 281.288C553.249 280.84 553.79 280.504 554.462 280.28C555.171 280.056 556.086 279.944 557.206 279.944H557.71V283.36H557.206C556.459 283.36 555.937 283.64 555.638 284.2C555.339 284.76 555.115 285.563 554.966 286.608L554.63 288.904C554.443 290.099 554.257 291.051 554.07 291.76C553.883 292.469 553.435 293.123 552.726 293.72L557.71 308H553.566L549.198 295.4H545.39V308H541.19V295.4H537.382L533.014 308H528.87L533.854 293.72C533.145 293.123 532.697 292.469 532.51 291.76C532.323 291.051 532.137 290.099 531.95 288.904L531.614 286.608C531.465 285.563 531.241 284.76 530.942 284.2C530.643 283.64 530.121 283.36 529.374 283.36H528.87V279.944H529.374C530.494 279.944 531.39 280.056 532.062 280.28C532.771 280.504 533.313 280.84 533.686 281.288C534.097 281.699 534.395 282.203 534.582 282.8C534.769 283.397 534.918 284.051 535.03 284.76L535.366 287.224C535.441 287.747 535.515 288.307 535.59 288.904C535.702 289.464 535.87 289.987 536.094 290.472C536.355 290.957 536.691 291.368 537.102 291.704C537.513 292.003 538.054 292.152 538.726 292.152H541.19ZM574.404 300.216H578.604V300.608C578.604 301.28 578.492 302.083 578.268 303.016C578.081 303.912 577.708 304.771 577.148 305.592C576.588 306.376 575.804 307.048 574.796 307.608C573.788 308.168 572.481 308.448 570.876 308.448C569.121 308.448 567.721 308.149 566.676 307.552C565.63 306.917 564.809 306.171 564.212 305.312C563.614 304.453 563.222 303.576 563.036 302.68C562.849 301.747 562.756 300.981 562.756 300.384V287.504C562.756 286.944 562.849 286.235 563.036 285.376C563.222 284.517 563.596 283.677 564.156 282.856C564.716 281.997 565.5 281.269 566.508 280.672C567.553 280.075 568.916 279.776 570.596 279.776C572.238 279.776 573.582 280.075 574.628 280.672C575.71 281.269 576.55 281.997 577.148 282.856C577.745 283.677 578.156 284.555 578.38 285.488C578.604 286.384 578.716 287.131 578.716 287.728V295.68H566.956V300.104C566.956 301.597 567.273 302.68 567.908 303.352C568.58 304.024 569.569 304.36 570.876 304.36C572.108 304.36 573.004 304.024 573.564 303.352C574.124 302.643 574.404 301.709 574.404 300.552V300.216ZM574.516 292.544V287.784C574.516 287.336 574.46 286.888 574.348 286.44C574.236 285.955 574.03 285.525 573.732 285.152C573.433 284.779 573.041 284.48 572.556 284.256C572.07 283.995 571.473 283.864 570.764 283.864C570.017 283.864 569.401 283.995 568.916 284.256C568.43 284.517 568.038 284.853 567.74 285.264C567.441 285.675 567.236 286.123 567.124 286.608C567.012 287.093 566.956 287.56 566.956 288.008V292.544H574.516ZM605.644 292.04C606.316 292.04 606.857 291.891 607.268 291.592C607.679 291.293 607.996 290.901 608.22 290.416C608.481 289.931 608.649 289.408 608.724 288.848C608.836 288.288 608.929 287.747 609.004 287.224L609.34 284.76C609.452 284.051 609.601 283.397 609.788 282.8C609.975 282.203 610.255 281.699 610.628 281.288C611.039 280.84 611.58 280.504 612.252 280.28C612.961 280.056 613.876 279.944 614.996 279.944H615.612V283.472H614.996C614.249 283.472 613.727 283.733 613.428 284.256C613.129 284.779 612.905 285.563 612.756 286.608L612.42 288.904C612.233 290.099 612.047 291.051 611.86 291.76C611.673 292.469 611.225 293.123 610.516 293.72L615.5 308H611.356L606.988 295.4H602.508V308H598.308V280.224H602.508V292.04H605.644ZM644.659 297.36L651.155 280.224H655.187V308H651.211V289.632L645.555 304.024H643.651L637.995 289.632V308H634.019V280.224H637.995L644.659 297.36ZM673.552 300.216H677.752V300.608C677.752 301.28 677.64 302.083 677.416 303.016C677.23 303.912 676.856 304.771 676.296 305.592C675.736 306.376 674.952 307.048 673.944 307.608C672.936 308.168 671.63 308.448 670.024 308.448C668.27 308.448 666.87 308.149 665.824 307.552C664.779 306.917 663.958 306.171 663.36 305.312C662.763 304.453 662.371 303.576 662.184 302.68C661.998 301.747 661.904 300.981 661.904 300.384V287.504C661.904 286.944 661.998 286.235 662.184 285.376C662.371 284.517 662.744 283.677 663.304 282.856C663.864 281.997 664.648 281.269 665.656 280.672C666.702 280.075 668.064 279.776 669.744 279.776C671.387 279.776 672.731 280.075 673.776 280.672C674.859 281.269 675.699 281.997 676.296 282.856C676.894 283.677 677.304 284.555 677.528 285.488C677.752 286.384 677.864 287.131 677.864 287.728V295.68H666.104V300.104C666.104 301.597 666.422 302.68 667.056 303.352C667.728 304.024 668.718 304.36 670.024 304.36C671.256 304.36 672.152 304.024 672.712 303.352C673.272 302.643 673.552 301.709 673.552 300.552V300.216ZM673.664 292.544V287.784C673.664 287.336 673.608 286.888 673.496 286.44C673.384 285.955 673.179 285.525 672.88 285.152C672.582 284.779 672.19 284.48 671.704 284.256C671.219 283.995 670.622 283.864 669.912 283.864C669.166 283.864 668.55 283.995 668.064 284.256C667.579 284.517 667.187 284.853 666.888 285.264C666.59 285.675 666.384 286.123 666.272 286.608C666.16 287.093 666.104 287.56 666.104 288.008V292.544H673.664ZM694.578 296.296C693.607 296.781 692.637 297.099 691.666 297.248C690.695 297.36 689.799 297.416 688.978 297.416C687.111 297.416 685.655 296.949 684.61 296.016C683.565 295.083 683.042 293.44 683.042 291.088V280.224H687.242V290.192C687.242 292.619 688.455 293.832 690.882 293.832C691.629 293.832 692.301 293.739 692.898 293.552C693.495 293.328 694.055 293.067 694.578 292.768V280.224H698.778V308H694.578V296.296ZM713.33 283.752V308H709.13V283.752H703.25V280.224H719.21V283.752H713.33ZM735.13 300.216H739.33V300.608C739.33 301.28 739.218 302.083 738.994 303.016C738.808 303.912 738.434 304.771 737.874 305.592C737.314 306.376 736.53 307.048 735.522 307.608C734.514 308.168 733.208 308.448 731.602 308.448C729.848 308.448 728.448 308.149 727.402 307.552C726.357 306.917 725.536 306.171 724.938 305.312C724.341 304.453 723.949 303.576 723.762 302.68C723.576 301.747 723.482 300.981 723.482 300.384V287.504C723.482 286.944 723.576 286.235 723.762 285.376C723.949 284.517 724.322 283.677 724.882 282.856C725.442 281.997 726.226 281.269 727.234 280.672C728.28 280.075 729.642 279.776 731.322 279.776C732.965 279.776 734.309 280.075 735.354 280.672C736.437 281.269 737.277 281.997 737.874 282.856C738.472 283.677 738.882 284.555 739.106 285.488C739.33 286.384 739.442 287.131 739.442 287.728V295.68H727.682V300.104C727.682 301.597 728 302.68 728.634 303.352C729.306 304.024 730.296 304.36 731.602 304.36C732.834 304.36 733.73 304.024 734.29 303.352C734.85 302.643 735.13 301.709 735.13 300.552V300.216ZM735.242 292.544V287.784C735.242 287.336 735.186 286.888 735.074 286.44C734.962 285.955 734.757 285.525 734.458 285.152C734.16 284.779 733.768 284.48 733.282 284.256C732.797 283.995 732.2 283.864 731.49 283.864C730.744 283.864 730.128 283.995 729.642 284.256C729.157 284.517 728.765 284.853 728.466 285.264C728.168 285.675 727.962 286.123 727.85 286.608C727.738 287.093 727.682 287.56 727.682 288.008V292.544H735.242ZM750.78 268.8L749.548 297.808H746.524L745.572 268.8H750.78ZM750.444 303.24V308H745.684V303.24H750.444Z" fill="white"/>
</svg>
