<svg width="181" height="161" viewBox="0 0 181 161" fill="none" xmlns="http://www.w3.org/2000/svg">
<path d="M1.25122 159.188L29.5168 31.9932L35.3648 1.77832L53.8837 38.3286L76.3012 12.4997L81.1746 47.5881L110.415 28.5819L107.978 61.7208L137.706 50.9994L130.396 80.727L163.047 78.7777L147.94 107.531L179.129 112.891L157.687 137.745L179.129 159.188H157.687H1.25122Z" fill="white" stroke="white"/>
<path d="M1.25122 159.676L14.5709 99.8199L17.3267 85.6011L26.0534 102.801L36.6172 90.6465L38.9137 107.159L52.6927 98.2145L51.5445 113.809L65.5531 108.764L62.1083 122.753L77.4949 121.836L70.3757 135.367L85.0733 137.89L74.9687 149.586L85.0733 159.676H74.9687H1.25122Z" fill="#55C9BB" stroke="#55C9BB"/>
</svg>
